<svg width="855" height="630" viewBox="0 0 855 630" fill="none" xmlns="http://www.w3.org/2000/svg">
<path d="M381.404 51.3221H32.4139C14.5122 51.3221 0 65.8343 0 83.736V384.645C0 402.547 14.5122 417.059 32.4139 417.059H389.346C396.253 417.059 401.852 422.658 401.852 429.565C401.852 436.472 396.253 442.071 389.346 442.071H32.4139C14.5122 442.071 0 456.583 0 474.485V597.497C0 615.398 14.5122 629.911 32.4139 629.911H381.404C399.306 629.911 413.818 615.398 413.818 597.497V468.583C413.818 461.698 419.399 456.117 426.284 456.117C433.169 456.117 438.75 461.698 438.75 468.583V597.497C438.75 615.398 453.262 629.911 471.164 629.911H822.233C840.135 629.911 854.647 615.398 854.647 597.497V474.485C854.647 456.583 840.135 442.071 822.233 442.071H464.551C457.551 442.071 451.875 436.396 451.875 429.395C451.875 422.39 457.557 416.713 464.562 416.719L822.205 417.031C840.118 417.047 854.647 402.53 854.647 384.617V32.4139C854.647 14.5122 840.135 0 822.233 0H471.243C453.342 0 438.829 14.5122 438.829 32.4139V393.588C438.829 400.495 433.23 406.094 426.324 406.094C419.417 406.094 413.818 400.495 413.818 393.588V83.736C413.818 65.8343 399.306 51.3221 381.404 51.3221Z" fill="#2D4F46"/>
<path d="M438.813 474.475C438.813 456.574 453.325 442.061 471.227 442.061H822.217C840.118 442.061 854.63 456.574 854.63 474.475V597.487C854.63 615.389 840.118 629.901 822.217 629.901H471.227C453.325 629.901 438.813 615.389 438.813 597.487V474.475Z" fill="#A3BEB0"/>
<path d="M0 474.475C0 456.574 14.5122 442.061 32.4139 442.061H381.404C399.306 442.061 413.818 456.574 413.818 474.475V597.487C413.818 615.389 399.306 629.901 381.404 629.901H32.4139C14.5122 629.901 0 615.389 0 597.487V474.475Z" fill="#132420"/>
<path d="M381.404 0.548004H32.4139C14.5122 0.548004 0 15.0602 0 32.9619V384.653C0 402.555 14.5122 417.067 32.4139 417.067H388.967C402.692 417.067 413.818 405.941 413.818 392.216V390.596V32.9619C413.818 15.0602 399.306 0.548004 381.404 0.548004Z" fill="white"/>
<path d="M32.4139 2.1687H381.404C398.411 2.1687 412.197 15.9553 412.197 32.9619V390.596V392.216C412.197 405.046 401.797 415.446 388.967 415.446H32.4139C15.4073 415.446 1.6207 401.66 1.6207 384.653V32.9619C1.6207 15.9553 15.4073 2.1687 32.4139 2.1687Z" fill="white" stroke="#132420" stroke-width="3.24139"/>
<path d="M40.5052 383.494L41.9939 377.418H39.2899V375.717H42.4192L43.8471 370.005H40.5052V368.304H44.2725L45.7612 362.227H47.8271L46.3384 368.304H52.3844L53.873 362.227H55.939L54.4503 368.304H57.1543V370.005H54.025L52.597 375.717H55.939V377.418H52.1717L50.683 383.494H48.617L50.1057 377.418H44.0598L42.5711 383.494H40.5052ZM44.4851 375.717H50.5311L51.959 370.005H45.9131L44.4851 375.717ZM62.5016 383.494V370.248H59.342V368.304H62.5016V365.265C62.5016 362.227 64.3549 360.344 67.4538 360.344C69.216 360.344 70.4616 360.982 71.4338 361.954L70.5528 363.169C69.5806 362.501 68.6083 362.288 67.6969 362.288C65.9651 362.288 64.6284 363.108 64.6284 365.63V368.304H70.5831V370.248H64.6284V383.494H62.5016ZM75.0815 383.494V370.248H71.9218V368.304H75.0815V365.265C75.0815 362.227 76.9348 360.344 80.0337 360.344C81.7958 360.344 83.0415 360.982 84.0137 361.954L83.1326 363.169C82.1604 362.501 81.1882 362.288 80.2768 362.288C78.545 362.288 77.2082 363.108 77.2082 365.63V368.304H83.163V370.248H77.2082V383.494H75.0815ZM87.6614 383.494V370.248H84.5017V368.304H87.6614V365.265C87.6614 362.227 89.5147 360.344 92.6136 360.344C94.3757 360.344 95.6213 360.982 96.5936 361.954L95.7125 363.169C94.7403 362.501 93.7681 362.288 92.8566 362.288C91.1249 362.288 89.7881 363.108 89.7881 365.63V368.304H95.7429V370.248H89.7881V383.494H87.6614ZM100.241 383.494V370.248H97.0816V368.304H100.241V365.265C100.241 362.227 102.095 360.344 105.193 360.344C106.956 360.344 108.201 360.982 109.173 361.954L108.292 363.169C107.32 362.501 106.348 362.288 105.436 362.288C103.705 362.288 102.368 363.108 102.368 365.63V368.304H108.323V370.248H102.368V383.494H100.241ZM112.821 383.494V370.248H109.661V368.304H112.821V365.265C112.821 362.227 114.674 360.344 117.773 360.344C119.535 360.344 120.781 360.982 121.753 361.954L120.872 363.169C119.9 362.501 118.928 362.288 118.016 362.288C116.285 362.288 114.948 363.108 114.948 365.63V368.304H120.903V370.248H114.948V383.494H112.821ZM125.401 383.494V370.248H122.241V368.304H125.401V365.265C125.401 362.227 127.254 360.344 130.353 360.344C132.115 360.344 133.361 360.982 134.333 361.954L133.452 363.169C132.48 362.501 131.508 362.288 130.596 362.288C128.864 362.288 127.528 363.108 127.528 365.63V368.304H133.482V370.248H127.528V383.494H125.401Z" fill="#132420"/>
<path d="M33.0382 599L34.5269 592.924H31.8229V591.222H34.9522L36.3801 585.511H33.0382V583.809H36.8055L38.2942 577.733H40.3601L38.8714 583.809H44.9173L46.406 577.733H48.472L46.9833 583.809H49.6873V585.511H46.558L45.13 591.222H48.472V592.924H44.7047L43.216 599H41.15L42.6387 592.924H36.5928L35.1041 599H33.0382ZM37.0181 591.222H43.0641L44.492 585.511H38.4461L37.0181 591.222ZM56.6449 599V580.163L52.7864 581.014L52.0573 579.465L57.1006 577.733H58.9235V599H56.6449ZM69.8314 599.365C66.6414 599.365 64.5754 598.21 62.9652 597.177L63.8159 595.658C65.6388 596.721 67.7351 597.238 69.6795 597.238C71.9581 597.238 75.5128 596.509 75.5128 593.228C75.5128 591.04 73.8418 589.399 71.5935 589.399H68.4946V587.333H71.1682C73.1126 587.333 74.419 585.693 74.419 583.505C74.419 580.589 72.2012 579.495 69.7099 579.495C67.9478 579.495 66.2464 580.072 64.5754 581.014L63.8462 579.465C65.7603 578.158 67.492 577.368 69.8314 577.368C73.9329 577.368 76.6673 579.738 76.6673 583.505C76.6673 585.328 75.8166 587.151 74.0545 588.063C76.3938 588.974 77.761 590.797 77.761 593.228C77.761 597.724 73.6291 599.365 69.8314 599.365ZM80.615 599V597.177L88.2104 590.189C90.489 588.093 92.16 586.027 92.16 583.779C92.16 581.804 90.8536 579.495 87.4508 579.495C85.871 579.495 83.9266 579.981 81.5872 581.014L80.858 579.465C82.6505 578.28 85.0811 577.368 87.6331 577.368C92.8587 577.368 94.4082 581.166 94.4082 583.657C94.4082 586.27 92.6765 588.883 89.8813 591.405L83.805 596.873H94.1348V599H80.615ZM107.3 599V594.595H96.2104V592.772L107.3 577.733H109.578V592.468H112.009V594.595H109.578V599H107.3ZM98.9448 592.468H107.3V581.227L98.9448 592.468ZM113.993 599V597.177L121.589 590.189C123.867 588.093 125.538 586.027 125.538 583.779C125.538 581.804 124.232 579.495 120.829 579.495C119.249 579.495 117.305 579.981 114.965 581.014L114.236 579.465C116.029 578.28 118.459 577.368 121.011 577.368C126.237 577.368 127.786 581.166 127.786 583.657C127.786 586.27 126.055 588.883 123.26 591.405L117.183 596.873H127.513V599H113.993ZM139.304 599.365C134.321 599.365 130.463 594.686 130.463 588.366C130.463 582.047 134.321 577.368 139.304 577.368C144.286 577.368 148.145 582.047 148.145 588.366C148.145 594.686 144.286 599.365 139.304 599.365ZM139.304 597.177C143.132 597.177 145.775 593.592 145.775 588.366C145.775 583.141 143.132 579.556 139.304 579.556C135.476 579.556 132.832 583.141 132.832 588.366C132.832 593.592 135.476 597.177 139.304 597.177Z" fill="white"/>
<path d="M684.038 599L685.527 592.924H682.823V591.222H685.952L687.38 585.511H684.038V583.809H687.805L689.294 577.733H691.36L689.871 583.809H695.917L697.406 577.733H699.472L697.983 583.809H700.687V585.511H697.558L696.13 591.222H699.472V592.924H695.705L694.216 599H692.15L693.639 592.924H687.593L686.104 599H684.038ZM688.018 591.222H694.064L695.492 585.511H689.446L688.018 591.222ZM708.891 599.365C705.609 599.365 703.665 597.329 703.665 594.747C703.665 591.344 707.402 588.64 714.785 589.248L715.149 589.278V588.853C715.149 586.209 713.265 585.328 711.078 585.328C709.316 585.328 707.28 585.875 705.397 586.908L704.667 585.541C706.369 584.447 708.587 583.445 711.321 583.445C714.359 583.445 717.215 584.66 717.215 588.853V599H715.149V596.448C714.298 597.967 711.564 599.365 708.891 599.365ZM709.225 597.481C711.594 597.481 715.149 596.266 715.149 591.04L714.785 591.01C708.799 590.524 705.792 592.377 705.792 594.868C705.792 596.661 707.28 597.481 709.225 597.481ZM727.685 599.365C724.495 599.365 722.429 598.21 720.819 597.177L721.67 595.658C723.492 596.721 725.589 597.238 727.533 597.238C729.812 597.238 733.366 596.509 733.366 593.228C733.366 591.04 731.695 589.399 729.447 589.399H726.348V587.333H729.022C730.966 587.333 732.273 585.693 732.273 583.505C732.273 580.589 730.055 579.495 727.564 579.495C725.801 579.495 724.1 580.072 722.429 581.014L721.7 579.465C723.614 578.158 725.346 577.368 727.685 577.368C731.787 577.368 734.521 579.738 734.521 583.505C734.521 585.328 733.67 587.151 731.908 588.063C734.247 588.974 735.615 590.797 735.615 593.228C735.615 597.724 731.483 599.365 727.685 599.365ZM739.623 599V576.214H741.75V586.544C742.844 584.903 745.031 583.445 747.765 583.445C752.019 583.445 755.361 586.847 755.361 591.405C755.361 595.962 752.019 599.365 747.765 599.365C745.031 599.365 742.844 597.906 741.75 596.266V599H739.623ZM747.462 597.42C750.804 597.42 753.173 594.868 753.173 591.405C753.173 587.941 750.804 585.389 747.462 585.389C744.12 585.389 741.75 587.941 741.75 591.405C741.75 594.868 744.12 597.42 747.462 597.42ZM766.044 599.365C761.274 599.365 758.024 595.962 758.024 591.405C758.024 586.847 761.487 583.445 765.923 583.445C770.055 583.445 773.397 586.179 773.397 591.405C773.397 591.769 773.397 592.043 773.336 592.346H760.211C760.606 595.385 762.945 597.481 766.379 597.481C768.08 597.481 770.055 596.964 771.695 595.992L772.546 597.329C770.905 598.514 768.809 599.365 766.044 599.365ZM760.211 590.463H771.3C771.118 587.303 768.839 585.328 765.923 585.328C762.885 585.328 760.606 587.425 760.211 590.463ZM776.977 599V576.214H779.104V586.544C780.197 584.903 782.385 583.445 785.119 583.445C789.373 583.445 792.715 586.847 792.715 591.405C792.715 595.962 789.373 599.365 785.119 599.365C782.385 599.365 780.197 597.906 779.104 596.266V599H776.977ZM784.815 597.42C788.157 597.42 790.527 594.868 790.527 591.405C790.527 587.941 788.157 585.389 784.815 585.389C781.473 585.389 779.104 587.941 779.104 591.405C779.104 594.868 781.473 597.42 784.815 597.42ZM804.219 599.365C799.236 599.365 795.378 594.686 795.378 588.366C795.378 582.047 799.236 577.368 804.219 577.368C809.201 577.368 813.06 582.047 813.06 588.366C813.06 594.686 809.201 599.365 804.219 599.365ZM804.219 597.177C808.047 597.177 810.69 593.592 810.69 588.366C810.69 583.141 808.047 579.556 804.219 579.556C800.391 579.556 797.747 583.141 797.747 588.366C797.747 593.592 800.391 597.177 804.219 597.177Z" fill="#132420"/>
<path d="M40.6359 46.609C36.2002 46.609 32.7367 43.2062 32.7367 38.649C32.7367 34.0918 36.2002 30.689 40.6359 30.689C45.0717 30.689 48.5351 34.0918 48.5351 38.649C48.5351 43.2062 45.0717 46.609 40.6359 46.609ZM40.6359 44.6645C43.9779 44.6645 46.3477 42.1125 46.3477 38.649C46.3477 35.1855 43.9779 32.6334 40.6359 32.6334C37.294 32.6334 34.9242 35.1855 34.9242 38.649C34.9242 42.1125 37.294 44.6645 40.6359 44.6645ZM58.8466 46.609C54.4109 46.609 51.2208 43.2062 51.2208 38.649C51.2208 34.0918 54.5628 30.689 58.9985 30.689C61.0948 30.689 63.0393 31.4486 64.6191 32.7854L63.8899 34.1525C62.4012 33.2107 61.0037 32.6334 59.3023 32.6334C55.7781 32.6334 53.4083 35.1855 53.4083 38.649C53.4083 42.1125 55.6262 44.6645 59.1504 44.6645C60.4872 44.6645 62.3709 44.3 64.1938 43.2366L65.0444 44.5734C63.6165 45.5456 61.6417 46.609 58.8466 46.609ZM79.7242 46.2444V39.4389H70.6097V46.2444H68.483V31.0536H70.6097V37.4945H79.7242V31.0536H81.8509V46.2444H79.7242ZM93.4476 46.609C89.0119 46.609 85.5484 43.2062 85.5484 38.649C85.5484 34.0918 89.0119 30.689 93.4476 30.689C97.8834 30.689 101.347 34.0918 101.347 38.649C101.347 43.2062 97.8834 46.609 93.4476 46.609ZM93.4476 44.6645C96.7896 44.6645 99.1594 42.1125 99.1594 38.649C99.1594 35.1855 96.7896 32.6334 93.4476 32.6334C90.1057 32.6334 87.7359 35.1855 87.7359 38.649C87.7359 42.1125 90.1057 44.6645 93.4476 44.6645ZM105.066 46.2444V31.0536H112.57C115.608 31.0536 117.492 32.6942 117.492 35.1247C117.492 36.9476 116.428 37.7679 115.213 38.254C116.398 38.5275 118.373 39.4693 118.373 42.0213C118.373 44.2696 116.823 46.2444 113.481 46.2444H105.066ZM107.131 37.5553H112.57C114.484 37.5553 115.365 36.4919 115.365 35.1247C115.365 33.7576 114.423 32.9373 112.57 32.9373H107.131V37.5553ZM107.131 44.3607H113.481C115.426 44.3607 116.246 43.4797 116.246 42.0213C116.246 40.563 115.426 39.4389 113.481 39.4389H107.131V44.3607ZM133.307 46.2444V39.4389H124.193V46.2444H122.066V31.0536H124.193V37.4945H133.307V31.0536H135.434V46.2444H133.307ZM147.031 46.609C142.595 46.609 139.132 43.2062 139.132 38.649C139.132 34.0918 142.595 30.689 147.031 30.689C151.466 30.689 154.93 34.0918 154.93 38.649C154.93 43.2062 151.466 46.609 147.031 46.609ZM147.031 44.6645C150.373 44.6645 152.742 42.1125 152.742 38.649C152.742 35.1855 150.373 32.6334 147.031 32.6334C143.689 32.6334 141.319 35.1855 141.319 38.649C141.319 42.1125 143.689 44.6645 147.031 44.6645ZM165.393 28.6231C162.568 28.6231 160.532 27.0432 160.532 24.2178H162.051C162.051 25.9191 163.51 26.8002 165.393 26.8002C167.277 26.8002 168.735 25.9191 168.735 24.2178H170.254C170.254 27.0432 168.219 28.6231 165.393 28.6231ZM158.649 46.2444V31.0536H160.775V42.5986L170.619 31.0536H172.138V46.2444H170.011V34.6994L160.168 46.2444H158.649ZM184.758 46.2444V31.0536H186.884V44.3H195.695V31.0536H197.822V44.3H199.949V50.0421H198.126L197.822 46.2444H184.758ZM203.479 46.2444V31.0536H210.983C214.022 31.0536 215.905 32.6942 215.905 35.1247C215.905 36.9476 214.842 37.7679 213.627 38.254C214.812 38.5275 216.786 39.4693 216.786 42.0213C216.786 44.2696 215.237 46.2444 211.895 46.2444H203.479ZM205.545 37.5553H210.983C212.897 37.5553 213.779 36.4919 213.779 35.1247C213.779 33.7576 212.837 32.9373 210.983 32.9373H205.545V37.5553ZM205.545 44.3607H211.895C213.839 44.3607 214.66 43.4797 214.66 42.0213C214.66 40.563 213.839 39.4389 211.895 39.4389H205.545V44.3607ZM227.468 46.609C222.698 46.609 219.447 43.2062 219.447 38.649C219.447 34.0918 222.91 30.689 227.346 30.689C231.478 30.689 234.82 33.4234 234.82 38.649C234.82 39.0136 234.82 39.287 234.759 39.5908H221.634C222.029 42.629 224.369 44.7253 227.802 44.7253C229.503 44.7253 231.478 44.2088 233.119 43.2366L233.969 44.5734C232.329 45.7583 230.232 46.609 227.468 46.609ZM221.634 37.7072H232.724C232.541 34.5475 230.263 32.5727 227.346 32.5727C224.308 32.5727 222.029 34.669 221.634 37.7072ZM241.658 46.2444V32.998H236.038V31.0536H249.405V32.998H243.785V46.2444H241.658Z" fill="#132420"/>
<path d="M696.038 383L697.527 376.924H694.823V375.222H697.952L699.38 369.511H696.038V367.809H699.805L701.294 361.733H703.36L701.871 367.809H707.917L709.406 361.733H711.472L709.983 367.809H712.687V369.511H709.558L708.13 375.222H711.472V376.924H707.705L706.216 383H704.15L705.639 376.924H699.593L698.104 383H696.038ZM700.018 375.222H706.064L707.492 369.511H701.446L700.018 375.222ZM715.726 383V381.177L723.321 374.189C725.6 372.093 727.271 370.027 727.271 367.779C727.271 365.804 725.964 363.495 722.561 363.495C720.982 363.495 719.037 363.981 716.698 365.014L715.969 363.465C717.761 362.28 720.192 361.368 722.744 361.368C727.969 361.368 729.519 365.166 729.519 367.657C729.519 370.27 727.787 372.883 724.992 375.405L718.916 380.873H729.245V383H715.726ZM747.933 360.214V383H745.806V380.266C744.712 381.906 742.525 383.365 739.79 383.365C735.537 383.365 732.195 379.962 732.195 375.405C732.195 370.847 735.537 367.445 739.79 367.445C742.525 367.445 744.712 368.903 745.806 370.544V360.214H747.933ZM740.094 381.42C743.436 381.42 745.806 378.868 745.806 375.405C745.806 371.941 743.436 369.389 740.094 369.389C736.752 369.389 734.383 371.941 734.383 375.405C734.383 378.868 736.752 381.42 740.094 381.42ZM762.141 383V378.595H751.051V376.772L762.141 361.733H764.419V376.468H766.85V378.595H764.419V383H762.141ZM753.786 376.468H762.141V365.227L753.786 376.468ZM771.143 383V369.754H767.983V367.809H771.143V364.771C771.143 361.733 772.996 359.849 776.095 359.849C777.857 359.849 779.103 360.487 780.075 361.459L779.194 362.675C778.222 362.006 777.25 361.794 776.338 361.794C774.607 361.794 773.27 362.614 773.27 365.136V367.809H779.225V369.754H773.27V383H771.143ZM791.751 383V378.595H780.661V376.772L791.751 361.733H794.029V376.468H796.46V378.595H794.029V383H791.751ZM783.396 376.468H791.751V365.227L783.396 376.468ZM806.465 383.365C801.756 383.365 798.566 379.962 798.566 375.101V370.544C798.566 365.531 800.753 361.368 806.951 361.368C809.382 361.368 811.508 362.249 813.118 363.465L812.389 365.014C810.415 363.86 808.47 363.495 806.951 363.495C802.819 363.495 800.753 365.986 800.753 370.544V371.151C801.847 369.723 803.974 368.721 806.465 368.721C810.901 368.721 814.364 371.911 814.364 376.043C814.364 380.175 810.901 383.365 806.465 383.365ZM800.753 376.043C800.753 379.081 803.123 381.299 806.465 381.299C809.807 381.299 812.177 379.081 812.177 376.043C812.177 373.004 809.807 370.787 806.465 370.787C803.123 370.787 800.753 373.004 800.753 376.043Z" fill="white"/>
<path d="M614.822 46.6068C610.386 46.6068 606.923 43.204 606.923 38.6468C606.923 34.0896 610.386 30.6868 614.822 30.6868C619.258 30.6868 622.721 34.0896 622.721 38.6468C622.721 43.204 619.258 46.6068 614.822 46.6068ZM614.822 44.6623C618.164 44.6623 620.534 42.1103 620.534 38.6468C620.534 35.1833 618.164 32.6312 614.822 32.6312C611.48 32.6312 609.11 35.1833 609.11 38.6468C609.11 42.1103 611.48 44.6623 614.822 44.6623ZM633.033 46.6068C628.597 46.6068 625.407 43.204 625.407 38.6468C625.407 34.0896 628.749 30.6868 633.185 30.6868C635.281 30.6868 637.225 31.4464 638.805 32.7832L638.076 34.1503C636.587 33.2085 635.19 32.6312 633.488 32.6312C629.964 32.6312 627.594 35.1833 627.594 38.6468C627.594 42.1103 629.812 44.6623 633.336 44.6623C634.673 44.6623 636.557 44.2978 638.38 43.2344L639.23 44.5712C637.802 45.5434 635.828 46.6068 633.033 46.6068ZM653.91 46.2422V39.4367H644.796V46.2422H642.669V31.0514H644.796V37.4923H653.91V31.0514H656.037V46.2422H653.91ZM667.634 46.6068C663.198 46.6068 659.734 43.204 659.734 38.6468C659.734 34.0896 663.198 30.6868 667.634 30.6868C672.069 30.6868 675.533 34.0896 675.533 38.6468C675.533 43.204 672.069 46.6068 667.634 46.6068ZM667.634 44.6623C670.976 44.6623 673.345 42.1103 673.345 38.6468C673.345 35.1833 670.976 32.6312 667.634 32.6312C664.292 32.6312 661.922 35.1833 661.922 38.6468C661.922 42.1103 664.292 44.6623 667.634 44.6623ZM679.251 46.2422V31.0514H686.756C689.794 31.0514 691.678 32.692 691.678 35.1225C691.678 36.9454 690.614 37.7657 689.399 38.2518C690.584 38.5253 692.559 39.4671 692.559 42.0192C692.559 44.2674 691.009 46.2422 687.667 46.2422H679.251ZM681.317 37.5531H686.756C688.67 37.5531 689.551 36.4897 689.551 35.1225C689.551 33.7554 688.609 32.9351 686.756 32.9351H681.317V37.5531ZM681.317 44.3585H687.667C689.612 44.3585 690.432 43.4775 690.432 42.0192C690.432 40.5608 689.612 39.4367 687.667 39.4367H681.317V44.3585ZM707.493 46.2422V39.4367H698.379V46.2422H696.252V31.0514H698.379V37.4923H707.493V31.0514H709.62V46.2422H707.493ZM721.217 46.6068C716.781 46.6068 713.318 43.204 713.318 38.6468C713.318 34.0896 716.781 30.6868 721.217 30.6868C725.652 30.6868 729.116 34.0896 729.116 38.6468C729.116 43.204 725.652 46.6068 721.217 46.6068ZM721.217 44.6623C724.559 44.6623 726.928 42.1103 726.928 38.6468C726.928 35.1833 724.559 32.6312 721.217 32.6312C717.875 32.6312 715.505 35.1833 715.505 38.6468C715.505 42.1103 717.875 44.6623 721.217 44.6623ZM739.579 28.6209C736.754 28.6209 734.718 27.041 734.718 24.2156H736.237C736.237 25.9169 737.696 26.798 739.579 26.798C741.463 26.798 742.921 25.9169 742.921 24.2156H744.44C744.44 27.041 742.405 28.6209 739.579 28.6209ZM732.835 46.2422V31.0514H734.961V42.5964L744.805 31.0514H746.324V46.2422H744.197V34.6972L734.354 46.2422H732.835ZM758.944 46.2422V31.0514H761.07V44.2978H769.881V31.0514H772.008V44.2978H774.135V50.0399H772.312L772.008 46.2422H758.944ZM777.665 46.2422V31.0514H785.169C788.208 31.0514 790.091 32.692 790.091 35.1225C790.091 36.9454 789.028 37.7657 787.813 38.2518C788.998 38.5253 790.972 39.4671 790.972 42.0192C790.972 44.2674 789.423 46.2422 786.081 46.2422H777.665ZM779.731 37.5531H785.169C787.083 37.5531 787.965 36.4897 787.965 35.1225C787.965 33.7554 787.023 32.9351 785.169 32.9351H779.731V37.5531ZM779.731 44.3585H786.081C788.025 44.3585 788.846 43.4775 788.846 42.0192C788.846 40.5608 788.025 39.4367 786.081 39.4367H779.731V44.3585ZM801.654 46.6068C796.884 46.6068 793.633 43.204 793.633 38.6468C793.633 34.0896 797.096 30.6868 801.532 30.6868C805.664 30.6868 809.006 33.4212 809.006 38.6468C809.006 39.0114 809.006 39.2848 808.945 39.5886H795.82C796.215 42.6268 798.555 44.7231 801.988 44.7231C803.689 44.7231 805.664 44.2066 807.305 43.2344L808.155 44.5712C806.515 45.7561 804.418 46.6068 801.654 46.6068ZM795.82 37.705H806.91C806.727 34.5453 804.449 32.5705 801.532 32.5705C798.494 32.5705 796.215 34.6668 795.82 37.705ZM815.844 46.2422V32.9958H810.224V31.0514H823.591V32.9958H817.971V46.2422H815.844Z" fill="white"/>
<path d="M571.811 493.798V488.056H573.847C574.758 486.476 575.7 483.802 575.7 474.809H587.306V488.056H589.433V493.798H587.61L587.306 490H573.938L573.634 493.798H571.811ZM575.822 488.056H585.179V476.754H577.766C577.766 483.225 576.703 486.506 575.822 488.056ZM599.135 490.365C594.699 490.365 591.236 486.962 591.236 482.405C591.236 477.847 594.699 474.445 599.135 474.445C603.571 474.445 607.034 477.847 607.034 482.405C607.034 486.962 603.571 490.365 599.135 490.365ZM599.135 488.42C602.477 488.42 604.847 485.868 604.847 482.405C604.847 478.941 602.477 476.389 599.135 476.389C595.793 476.389 593.423 478.941 593.423 482.405C593.423 485.868 595.793 488.42 599.135 488.42ZM621.994 490V476.754H612.879V490H610.753V474.809H624.121V490H621.994ZM635.717 490.365C631.282 490.365 627.818 486.962 627.818 482.405C627.818 477.847 631.282 474.445 635.717 474.445C640.153 474.445 643.617 477.847 643.617 482.405C643.617 486.962 640.153 490.365 635.717 490.365ZM635.717 488.42C639.059 488.42 641.429 485.868 641.429 482.405C641.429 478.941 639.059 476.389 635.717 476.389C632.375 476.389 630.006 478.941 630.006 482.405C630.006 485.868 632.375 488.42 635.717 488.42ZM645.276 490V488.116H645.732C648.163 488.116 648.618 485.655 648.618 474.809H660.528V490H658.401V476.754H650.624C650.624 486.415 649.986 490.122 646.492 490.122C646.127 490.122 645.702 490.091 645.276 490ZM676.497 490V483.195H667.382V490H665.256V474.809H667.382V481.25H676.497V474.809H678.624V490H676.497ZM683.354 490V474.809H685.481V486.354L695.324 474.809H696.843V490H694.717V478.455L684.873 490H683.354ZM705.126 490V476.754H699.505V474.809H712.873V476.754H707.252V490H705.126ZM722.237 490.365C717.467 490.365 714.216 486.962 714.216 482.405C714.216 477.847 717.679 474.445 722.115 474.445C726.247 474.445 729.589 477.179 729.589 482.405C729.589 482.769 729.589 483.043 729.528 483.346H716.403C716.798 486.385 719.138 488.481 722.571 488.481C724.272 488.481 726.247 487.964 727.887 486.992L728.738 488.329C727.098 489.514 725.001 490.365 722.237 490.365ZM716.403 481.463H727.493C727.31 478.303 725.032 476.328 722.115 476.328C719.077 476.328 716.798 478.425 716.403 481.463ZM731.11 490V488.116H731.566C733.997 488.116 734.452 485.655 734.452 474.809H746.362V490H744.235V476.754H736.457C736.457 486.415 735.819 490.122 732.326 490.122C731.961 490.122 731.536 490.091 731.11 490ZM751.089 490V474.809H753.216V480.096H758.806C761.996 480.096 764.457 481.979 764.457 485.169C764.457 488.359 761.996 490 758.806 490H751.089ZM753.216 488.116H758.806C760.781 488.116 762.331 487.144 762.331 485.169C762.331 483.195 760.781 481.979 758.806 481.979H753.216V488.116ZM778.975 490V483.195H769.861V490H767.734V474.809H769.861V481.25H778.975V474.809H781.102V490H778.975ZM785.832 490V474.809H787.959V480.096H793.549C796.739 480.096 799.2 481.979 799.2 485.169C799.2 488.359 796.739 490 793.549 490H785.832ZM802.299 490V474.809H804.426V490H802.299ZM787.959 488.116H793.549C795.524 488.116 797.074 487.144 797.074 485.169C797.074 483.195 795.524 481.979 793.549 481.979H787.959V488.116ZM815.897 472.379C813.072 472.379 811.036 470.799 811.036 467.973H812.555C812.555 469.675 814.014 470.556 815.897 470.556C817.781 470.556 819.239 469.675 819.239 467.973H820.758C820.758 470.799 818.723 472.379 815.897 472.379ZM809.153 490V474.809H811.279V486.354L821.123 474.809H822.642V490H820.515V478.455L810.672 490H809.153ZM760.05 526V510.809H762.176V524.056H770.987V510.809H773.114V524.056H775.24V529.798H773.418L773.114 526H760.05ZM778.771 526V510.809H786.275C789.314 510.809 791.197 512.45 791.197 514.88C791.197 516.703 790.134 517.524 788.919 518.01C790.103 518.283 792.078 519.225 792.078 521.777C792.078 524.025 790.529 526 787.187 526H778.771ZM780.837 517.311H786.275C788.189 517.311 789.07 516.248 789.07 514.88C789.07 513.513 788.129 512.693 786.275 512.693H780.837V517.311ZM780.837 524.116H787.187C789.131 524.116 789.952 523.235 789.952 521.777C789.952 520.319 789.131 519.195 787.187 519.195H780.837V524.116ZM802.759 526.365C797.99 526.365 794.739 522.962 794.739 518.405C794.739 513.847 798.202 510.445 802.638 510.445C806.77 510.445 810.112 513.179 810.112 518.405C810.112 518.769 810.112 519.043 810.051 519.346H796.926C797.321 522.385 799.661 524.481 803.094 524.481C804.795 524.481 806.77 523.964 808.41 522.992L809.261 524.329C807.621 525.514 805.524 526.365 802.759 526.365ZM796.926 517.463H808.016C807.833 514.303 805.555 512.328 802.638 512.328C799.6 512.328 797.321 514.425 796.926 517.463ZM816.95 526V512.754H811.329V510.809H824.697V512.754H819.077V526H816.95Z" fill="#132420"/>
<path d="M30.8542 493.61V487.868H32.8897C33.8012 486.288 34.743 483.615 34.743 474.622H46.3488V487.868H48.4755V493.61H46.6526L46.3488 489.812H32.9809L32.6771 493.61H30.8542ZM34.8645 487.868H44.222V476.566H36.8089C36.8089 483.037 35.7456 486.319 34.8645 487.868ZM49.8462 489.812V487.929H50.3019C52.7324 487.929 53.1882 485.468 53.1882 474.622H65.0977V489.812H62.971V476.566H55.1934C55.1934 486.227 54.5553 489.934 51.0615 489.934C50.6969 489.934 50.2715 489.904 49.8462 489.812ZM68.914 489.812L73.7142 484.222C70.8888 483.888 69.0962 481.883 69.0962 479.452C69.0962 476.566 71.5571 474.622 74.2915 474.622H82.0388V489.812H79.9728V484.283H76.1144L71.466 489.812H68.914ZM74.2915 482.399H79.9728V476.505H74.2915C72.6205 476.505 71.2229 477.781 71.2229 479.452C71.2229 481.123 72.6205 482.399 74.2915 482.399ZM99.854 490.177C96.907 490.177 94.7499 489.174 93.3524 488.142L94.203 486.805C95.9652 487.868 98.1526 488.233 99.7021 488.233C101.89 488.233 104.29 487.504 104.29 485.559C104.29 484.07 102.892 483.159 101.1 483.159H98.5172V481.275H100.765C102.497 481.275 103.561 479.999 103.561 478.723C103.561 477.022 101.707 476.202 99.5502 476.202C97.7273 476.202 96.1475 476.779 94.6588 477.721L93.9296 476.353C95.3272 475.017 97.6058 474.257 99.7325 474.257C102.771 474.257 105.687 475.807 105.687 478.723C105.687 480.303 104.837 481.336 103.348 481.913C105.262 482.399 106.416 483.797 106.416 485.559C106.416 488.385 103.287 490.177 99.854 490.177ZM114.127 490.177C110.846 490.177 108.901 488.142 108.901 485.559C108.901 482.156 112.638 479.452 120.021 480.06L120.386 480.09V479.665C120.386 477.022 118.502 476.141 116.314 476.141C114.552 476.141 112.517 476.688 110.633 477.721L109.904 476.353C111.605 475.26 113.823 474.257 116.557 474.257C119.596 474.257 122.451 475.472 122.451 479.665V489.812H120.386V487.26C119.535 488.78 116.801 490.177 114.127 490.177ZM114.461 488.293C116.831 488.293 120.386 487.078 120.386 481.853L120.021 481.822C114.036 481.336 111.028 483.189 111.028 485.681C111.028 487.473 112.517 488.293 114.461 488.293ZM127.058 489.812V474.622H137.995V476.566H129.185V489.812H127.058ZM147.246 490.177C142.81 490.177 139.346 486.774 139.346 482.217C139.346 477.66 142.81 474.257 147.246 474.257C151.681 474.257 155.145 477.66 155.145 482.217C155.145 486.774 151.681 490.177 147.246 490.177ZM147.246 488.233C150.588 488.233 152.957 485.681 152.957 482.217C152.957 478.754 150.588 476.202 147.246 476.202C143.904 476.202 141.534 478.754 141.534 482.217C141.534 485.681 143.904 488.233 147.246 488.233ZM156.805 489.812V487.929H157.26C159.691 487.929 160.147 485.468 160.147 474.622H172.056V489.812H169.93V476.566H162.152C162.152 486.227 161.514 489.934 158.02 489.934C157.655 489.934 157.23 489.904 156.805 489.812ZM183.65 490.177C179.214 490.177 175.751 486.774 175.751 482.217C175.751 477.66 179.214 474.257 183.65 474.257C188.086 474.257 191.549 477.66 191.549 482.217C191.549 486.774 188.086 490.177 183.65 490.177ZM183.65 488.233C186.992 488.233 189.362 485.681 189.362 482.217C189.362 478.754 186.992 476.202 183.65 476.202C180.308 476.202 177.938 478.754 177.938 482.217C177.938 485.681 180.308 488.233 183.65 488.233ZM195.268 489.812V474.622H202.772C205.81 474.622 207.694 476.262 207.694 478.693C207.694 480.516 206.631 481.336 205.415 481.822C206.6 482.096 208.575 483.037 208.575 485.589C208.575 487.838 207.026 489.812 203.684 489.812H195.268ZM197.334 481.123H202.772C204.686 481.123 205.567 480.06 205.567 478.693C205.567 477.326 204.626 476.505 202.772 476.505H197.334V481.123ZM197.334 487.929H203.684C205.628 487.929 206.448 487.048 206.448 485.589C206.448 484.131 205.628 483.007 203.684 483.007H197.334V487.929ZM222.295 489.812L214.395 482.369V489.812H212.269V474.622H214.395V481.488L222.112 474.622H224.938L216.735 481.913L225.15 489.812H222.295ZM233.406 490.177C228.97 490.177 225.507 486.774 225.507 482.217C225.507 477.66 228.97 474.257 233.406 474.257C237.842 474.257 241.305 477.66 241.305 482.217C241.305 486.774 237.842 490.177 233.406 490.177ZM233.406 488.233C236.748 488.233 239.118 485.681 239.118 482.217C239.118 478.754 236.748 476.202 233.406 476.202C230.064 476.202 227.694 478.754 227.694 482.217C227.694 485.681 230.064 488.233 233.406 488.233ZM245.024 489.812V474.622H252.528C255.566 474.622 257.45 476.262 257.45 478.693C257.45 480.516 256.386 481.336 255.171 481.822C256.356 482.096 258.331 483.037 258.331 485.589C258.331 487.838 256.781 489.812 253.439 489.812H245.024ZM247.09 481.123H252.528C254.442 481.123 255.323 480.06 255.323 478.693C255.323 477.326 254.381 476.505 252.528 476.505H247.09V481.123ZM247.09 487.929H253.439C255.384 487.929 256.204 487.048 256.204 485.589C256.204 484.131 255.384 483.007 253.439 483.007H247.09V487.929ZM32.7682 525.812V510.622H34.8949V522.167L44.7385 510.622H46.2576V525.812H44.1309V514.268L34.2873 525.812H32.7682ZM70.1185 525.812V519.007H61.0041V525.812H58.8774V510.622H61.0041V517.063H70.1185V510.622H72.2452V525.812H70.1185ZM80.9861 526.177C77.7049 526.177 75.7605 524.142 75.7605 521.559C75.7605 518.156 79.4974 515.452 86.8801 516.06L87.2447 516.09V515.665C87.2447 513.022 85.3611 512.141 83.1736 512.141C81.4115 512.141 79.3759 512.688 77.4922 513.721L76.7631 512.353C78.4644 511.26 80.6823 510.257 83.4166 510.257C86.4548 510.257 89.3107 511.472 89.3107 515.665V525.812H87.2447V523.26C86.394 524.78 83.6597 526.177 80.9861 526.177ZM81.3203 524.293C83.6901 524.293 87.2447 523.078 87.2447 517.853L86.8801 517.822C80.895 517.336 77.8872 519.189 77.8872 521.681C77.8872 523.473 79.3759 524.293 81.3203 524.293ZM101.087 526.177C96.6514 526.177 93.1879 522.774 93.1879 517.913C93.1879 512.353 93.674 509.194 95.6792 507.067C97.7755 504.88 100.905 504.454 102.363 504.12C103.67 503.847 105.31 503.269 106.556 502.601L107.467 503.999C106.708 504.545 105.432 505.335 102.849 505.943C101.209 506.338 99.3553 506.581 97.7451 507.918C96.3476 509.072 95.6184 510.622 95.4969 513.508C96.6514 511.715 99.0819 510.622 101.087 510.622C105.523 510.622 108.986 513.994 108.986 518.399C108.986 522.805 105.523 526.177 101.087 526.177ZM101.087 524.233C104.429 524.233 106.799 521.711 106.799 518.399C106.799 515.088 104.429 512.566 101.087 512.566C97.7451 512.566 95.3753 515.088 95.3753 518.399C95.3753 521.711 97.7451 524.233 101.087 524.233ZM119.564 526.177C115.128 526.177 111.665 522.774 111.665 518.217C111.665 513.66 115.128 510.257 119.564 510.257C124 510.257 127.463 513.66 127.463 518.217C127.463 522.774 124 526.177 119.564 526.177ZM119.564 524.233C122.906 524.233 125.276 521.681 125.276 518.217C125.276 514.754 122.906 512.202 119.564 512.202C116.222 512.202 113.852 514.754 113.852 518.217C113.852 521.681 116.222 524.233 119.564 524.233ZM139.324 526.177C136.59 526.177 134.402 524.719 133.309 523.078V533.408H131.182V510.622H133.309V513.356C134.402 511.715 136.59 510.257 139.324 510.257C143.578 510.257 146.92 513.66 146.92 518.217C146.92 522.774 143.578 526.177 139.324 526.177ZM139.02 524.233C142.362 524.233 144.732 521.681 144.732 518.217C144.732 514.754 142.362 512.202 139.02 512.202C135.678 512.202 133.309 514.754 133.309 518.217C133.309 521.681 135.678 524.233 139.02 524.233ZM161.857 525.812V519.007H152.742V525.812H150.615V510.622H152.742V517.063H161.857V510.622H163.983V525.812H161.857ZM175.58 526.177C171.144 526.177 167.681 522.774 167.681 518.217C167.681 513.66 171.144 510.257 175.58 510.257C180.016 510.257 183.479 513.66 183.479 518.217C183.479 522.774 180.016 526.177 175.58 526.177ZM175.58 524.233C178.922 524.233 181.292 521.681 181.292 518.217C181.292 514.754 178.922 512.202 175.58 512.202C172.238 512.202 169.868 514.754 169.868 518.217C169.868 521.681 172.238 524.233 175.58 524.233ZM187.198 525.812V510.622H198.135V512.566H189.325V525.812H187.198ZM207.386 526.177C202.95 526.177 199.487 522.774 199.487 518.217C199.487 513.66 202.95 510.257 207.386 510.257C211.821 510.257 215.285 513.66 215.285 518.217C215.285 522.774 211.821 526.177 207.386 526.177ZM207.386 524.233C210.728 524.233 213.097 521.681 213.097 518.217C213.097 514.754 210.728 512.202 207.386 512.202C204.044 512.202 201.674 514.754 201.674 518.217C201.674 521.681 204.044 524.233 207.386 524.233ZM230.45 525.812V512.566H224.83V510.622H238.198V512.566H232.577V525.812H230.45ZM247.561 526.177C242.791 526.177 239.54 522.774 239.54 518.217C239.54 513.66 243.004 510.257 247.44 510.257C251.571 510.257 254.913 512.991 254.913 518.217C254.913 518.582 254.913 518.855 254.853 519.159H241.728C242.123 522.197 244.462 524.293 247.895 524.293C249.597 524.293 251.571 523.777 253.212 522.805L254.063 524.142C252.422 525.326 250.326 526.177 247.561 526.177ZM241.728 517.275H252.817C252.635 514.116 250.356 512.141 247.44 512.141C244.401 512.141 242.123 514.237 241.728 517.275ZM268.52 525.812L260.62 518.369V525.812H258.494V510.622H260.62V517.488L268.337 510.622H271.163L262.96 517.913L271.375 525.812H268.52ZM279.358 526.177C274.922 526.177 271.732 522.774 271.732 518.217C271.732 513.66 275.074 510.257 279.509 510.257C281.606 510.257 283.55 511.017 285.13 512.353L284.401 513.721C282.912 512.779 281.515 512.202 279.813 512.202C276.289 512.202 273.919 514.754 273.919 518.217C273.919 521.681 276.137 524.233 279.661 524.233C280.998 524.233 282.882 523.868 284.705 522.805L285.555 524.142C284.127 525.114 282.153 526.177 279.358 526.177ZM292.549 525.812V512.566H286.928V510.622H300.296V512.566H294.675V525.812H292.549ZM306.979 526.177C303.697 526.177 301.753 524.142 301.753 521.559C301.753 518.156 305.49 515.452 312.873 516.06L313.237 516.09V515.665C313.237 513.022 311.354 512.141 309.166 512.141C307.404 512.141 305.368 512.688 303.485 513.721L302.756 512.353C304.457 511.26 306.675 510.257 309.409 510.257C312.447 510.257 315.303 511.472 315.303 515.665V525.812H313.237V523.26C312.387 524.78 309.652 526.177 306.979 526.177ZM307.313 524.293C309.683 524.293 313.237 523.078 313.237 517.853L312.873 517.822C306.887 517.336 303.88 519.189 303.88 521.681C303.88 523.473 305.368 524.293 307.313 524.293Z" fill="white"/>
</svg>
