<svg width="838" height="325" viewBox="0 0 838 325" fill="none" xmlns="http://www.w3.org/2000/svg">
<path fill-rule="evenodd" clip-rule="evenodd" d="M587.761 266.942V5.72443C587.761 2.56292 590.323 0 593.485 0H648.276C679.891 0 705.52 25.6292 705.52 57.2443V103.53C705.52 135.146 679.891 160.775 648.276 160.775H646.068C639.772 160.715 635.775 160.386 628.159 158.24V265.224C628.159 275.386 636.397 283.624 646.559 283.624C656.721 283.624 664.959 275.386 664.959 265.224V169.299C664.959 166.138 667.522 163.575 670.683 163.575H699.796C702.957 163.575 705.52 166.138 705.52 169.299V318.461C705.52 321.623 702.957 324.186 699.796 324.186H645.005C613.39 324.186 587.761 298.557 587.761 266.942ZM573.041 169.299V318.461C573.041 321.623 570.478 324.186 567.316 324.186H538.203C535.042 324.186 532.479 321.623 532.479 318.461V222.536C532.479 212.374 524.241 204.136 514.079 204.136C503.917 204.136 495.679 212.374 495.679 222.536V283.788C495.679 306.099 477.592 324.186 455.281 324.186H440.724C437.563 324.186 435 321.623 435 318.461V289.349C435 286.187 437.563 283.624 440.724 283.624H443.832C450.155 283.624 455.281 278.498 455.281 272.175V220.819C455.281 189.204 480.91 163.575 512.525 163.575H567.316C570.478 163.575 573.041 166.138 573.041 169.299ZM720.24 318.461V169.299C720.24 166.138 722.803 163.575 725.965 163.575H786.807C815.08 163.575 838 186.494 838 214.767C837.585 228.782 836.091 233.727 829.168 243.717C835.439 255.299 837.389 260.934 838 272.993C838 301.266 815.08 324.186 786.807 324.186H725.965C722.803 324.186 720.24 321.623 720.24 318.461ZM490.544 160.775H460.415C457.58 160.775 455.281 158.476 455.281 155.64V5.13462C455.281 2.29885 457.58 0 460.415 0H567.985C570.822 0 573.121 2.30044 573.12 5.13723L573.043 155.643C573.042 158.477 570.743 160.775 567.909 160.775H537.614C534.778 160.775 532.479 158.476 532.479 155.64V58.9616C532.479 48.7996 524.241 40.5617 514.079 40.5617C503.917 40.5617 495.679 48.7996 495.679 58.9616V155.64C495.679 158.476 493.38 160.775 490.544 160.775ZM720.24 51.3462V109.428C720.24 137.786 743.229 160.775 771.587 160.775H786.654C815.012 160.775 838 137.786 838 109.429V51.3462C838 22.9885 815.012 0 786.654 0H771.587C743.229 0 720.24 22.9885 720.24 51.3462ZM628.159 101.813V58.9617C628.159 48.7996 636.397 40.5617 646.559 40.5617C656.721 40.5617 664.959 48.7996 664.959 58.9617V101.813C664.959 111.975 656.721 120.213 646.559 120.213C636.397 120.213 628.159 111.975 628.159 101.813ZM760.639 58.9617V101.813C760.639 111.975 768.876 120.213 779.039 120.213C789.201 120.213 797.438 111.975 797.438 101.813V58.9617C797.438 48.7996 789.201 40.5617 779.039 40.5617C768.876 40.5617 760.639 48.7996 760.639 58.9617ZM786.81 208.125H760.805V229.387H786.81C792.681 229.387 797.441 224.627 797.441 218.756C797.441 212.885 792.681 208.125 786.81 208.125ZM760.805 266.195H786.728C792.645 266.195 797.441 270.992 797.441 276.908C797.441 282.825 792.645 287.621 786.728 287.621H760.805V266.195Z" fill="#132420"/>
<path fill-rule="evenodd" clip-rule="evenodd" d="M115.319 280.276V4.37241C115.319 1.9576 117.254 0 119.641 0H161.002C184.869 0 204.216 19.576 204.216 43.7241V79.0782C204.216 103.226 184.869 122.802 161.002 122.802H159.336C154.583 122.757 151.566 122.506 145.816 120.866V278.964C145.816 286.726 152.035 293.018 159.706 293.018C167.377 293.018 173.596 286.726 173.596 278.964V205.695C173.596 203.28 175.531 201.323 177.917 201.323H199.895C202.281 201.323 204.216 203.28 204.216 205.695V319.628C204.216 322.042 202.281 324 199.895 324H158.533C134.667 324 115.319 304.424 115.319 280.276ZM104.207 205.695V319.628C104.207 322.042 102.272 324 99.8857 324H77.9084C75.5217 324 73.587 322.042 73.587 319.628V246.358C73.587 238.597 67.3681 232.304 59.6968 232.304C52.0255 232.304 45.8067 238.597 45.8067 246.358V293.143C45.8067 310.185 32.1529 324 15.31 324H4.32138C1.93475 324 0 322.042 0 319.628V297.391C0 294.976 1.93475 293.018 4.32138 293.018H6.66728C11.4405 293.018 15.31 289.103 15.31 284.273V245.047C15.31 220.899 34.6575 201.323 58.5239 201.323H99.8857C102.272 201.323 104.207 203.28 104.207 205.695ZM215.328 319.628V205.695C215.328 203.28 217.263 201.323 219.65 201.323H265.58C286.923 201.323 304.225 218.829 304.225 240.424C303.912 251.129 302.784 254.906 297.558 262.536C302.292 271.383 303.764 275.687 304.225 284.898C304.225 306.493 286.923 324 265.58 324H219.65C217.263 324 215.328 322.042 215.328 319.628ZM40.6195 122.802H20.5021C17.636 122.802 15.3125 120.479 15.3125 117.613V5.18964C15.3125 2.32348 17.636 0 20.5021 0H99.079C101.946 0 104.27 2.32507 104.269 5.19225L104.212 117.615C104.211 120.48 101.888 122.802 99.0225 122.802H78.7791C75.9129 122.802 73.5894 120.479 73.5894 117.613V44.8718C73.5894 37.2005 67.3706 30.9817 59.6993 30.9817C52.028 30.9817 45.8091 37.2005 45.8091 44.8718V117.613C45.8091 120.479 43.4856 122.802 40.6195 122.802ZM215.328 44.4485V78.3538C215.328 102.902 235.228 122.802 259.777 122.802C284.325 122.802 304.225 102.902 304.225 78.3538V44.4485C304.225 19.9003 284.325 0 259.777 0C235.228 0 215.328 19.9003 215.328 44.4485ZM145.812 77.9332V44.8745C145.812 37.2032 152.031 30.9844 159.703 30.9844C167.374 30.9844 173.593 37.2032 173.593 44.8745V77.9332C173.593 85.6045 167.374 91.8234 159.703 91.8234C152.031 91.8234 145.812 85.6046 145.812 77.9332ZM245.828 44.8745V77.9332C245.828 85.6046 252.047 91.8234 259.718 91.8234C267.39 91.8234 273.608 85.6045 273.608 77.9332V44.8745C273.608 37.2032 267.39 30.9844 259.718 30.9844C252.047 30.9844 245.828 37.2032 245.828 44.8745ZM265.49 232.289H245.953V248.529H265.49C269.974 248.529 273.61 244.894 273.61 240.409C273.61 235.925 269.974 232.289 265.49 232.289ZM245.953 276.648H265.427C269.946 276.648 273.61 280.312 273.61 284.831C273.61 289.35 269.946 293.014 265.427 293.014H245.953V276.648Z" fill="#132420"/>
</svg>
