<svg width="863" height="393" viewBox="0 0 863 393" fill="none" xmlns="http://www.w3.org/2000/svg">
<rect width="414" height="393" rx="19.8603" fill="#132420"/>
<path fill-rule="evenodd" clip-rule="evenodd" d="M168.675 293.701V58.5595C168.675 56.0414 170.716 54 173.234 54H216.875C242.057 54 262.471 74.4137 262.471 99.5954V136.463C262.471 161.644 242.057 182.058 216.875 182.058H215.117C210.102 182.01 206.919 181.749 200.852 180.039V292.334C200.852 300.428 207.413 306.989 215.508 306.989C223.602 306.989 230.163 300.428 230.163 292.334V215.929C230.163 213.411 232.205 211.369 234.723 211.369H257.911C260.429 211.369 262.471 213.411 262.471 215.929V334.737C262.471 337.256 260.429 339.297 257.911 339.297H214.27C189.088 339.297 168.675 318.883 168.675 293.701ZM156.95 215.929V334.737C156.95 337.256 154.909 339.297 152.39 339.297H129.202C126.684 339.297 124.642 337.256 124.642 334.737V258.333C124.642 250.238 118.081 243.677 109.987 243.677C101.893 243.677 95.3311 250.238 95.3311 258.333V307.12C95.3311 324.891 80.9248 339.297 63.1538 339.297H51.5595C49.0414 339.297 47 337.256 47 334.737V311.549C47 309.031 49.0414 306.989 51.5595 306.989H54.0347C59.071 306.989 63.1538 302.907 63.1538 297.87V256.965C63.1538 231.783 83.5675 211.369 108.749 211.369H152.39C154.909 211.369 156.95 213.411 156.95 215.929ZM274.195 334.737V215.929C274.195 213.411 276.237 211.369 278.755 211.369H327.216C349.736 211.369 367.992 229.625 367.992 252.145C367.661 263.307 366.471 267.246 360.957 275.203C365.952 284.428 367.505 288.916 367.992 298.522C367.992 321.041 349.736 339.297 327.216 339.297H278.755C276.237 339.297 274.195 337.256 274.195 334.737ZM90.547 182.058H67.9761C65.3234 182.058 63.1729 179.907 63.1729 177.255V58.8032C63.1729 56.1505 65.3234 54 67.9761 54H152.229C154.882 54 157.033 56.152 157.032 58.8057L156.972 177.257C156.97 179.909 154.82 182.058 152.168 182.058H129.465C126.812 182.058 124.662 179.907 124.662 177.255V100.963C124.662 92.8691 118.1 86.3076 110.006 86.3076C101.912 86.3076 95.3502 92.8692 95.3502 100.963V177.255C95.3502 179.907 93.1997 182.058 90.547 182.058ZM274.182 100.898V135.16C274.182 161.061 295.179 182.058 321.08 182.058C346.981 182.058 367.978 161.061 367.978 135.16V100.898C367.978 74.997 346.981 54 321.08 54C295.179 54 274.182 74.997 274.182 100.898ZM200.858 135.089V100.957C200.858 92.8632 207.419 86.3016 215.513 86.3016C223.607 86.3016 230.169 92.8632 230.169 100.957V135.089C230.169 143.183 223.607 149.744 215.513 149.744C207.419 149.744 200.858 143.183 200.858 135.089ZM306.384 100.957V135.089C306.384 143.183 312.946 149.744 321.04 149.744C329.134 149.744 335.696 143.183 335.696 135.089V100.957C335.696 92.8632 329.134 86.3016 321.04 86.3016C312.946 86.3016 306.384 92.8632 306.384 100.957ZM327.219 243.681H306.506V260.616H327.219C331.896 260.616 335.687 256.825 335.687 252.149C335.687 247.472 331.896 243.681 327.219 243.681ZM306.506 289.925H327.154C331.867 289.925 335.687 293.746 335.687 298.458C335.687 303.171 331.867 306.991 327.154 306.991H306.506V289.925Z" fill="#2D4F46"/>
<rect x="449" width="414" height="393" rx="19.8603" fill="#2D4F46"/>
<path fill-rule="evenodd" clip-rule="evenodd" d="M617.675 293.701V58.5595C617.675 56.0414 619.716 54 622.234 54H665.875C691.057 54 711.471 74.4137 711.471 99.5954V136.463C711.471 161.644 691.057 182.058 665.875 182.058H664.117C659.102 182.01 655.919 181.749 649.852 180.039V292.334C649.852 300.428 656.413 306.989 664.508 306.989C672.602 306.989 679.163 300.428 679.163 292.334V215.929C679.163 213.411 681.205 211.369 683.723 211.369H706.911C709.429 211.369 711.471 213.411 711.471 215.929V334.737C711.471 337.256 709.429 339.297 706.911 339.297H663.27C638.088 339.297 617.675 318.883 617.675 293.701ZM605.95 215.929V334.737C605.95 337.256 603.909 339.297 601.39 339.297H578.202C575.684 339.297 573.642 337.256 573.642 334.737V258.333C573.642 250.238 567.081 243.677 558.987 243.677C550.893 243.677 544.331 250.238 544.331 258.333V307.12C544.331 324.891 529.925 339.297 512.154 339.297H500.56C498.041 339.297 496 337.256 496 334.737V311.549C496 309.031 498.041 306.989 500.56 306.989H503.035C508.071 306.989 512.154 302.907 512.154 297.87V256.965C512.154 231.783 532.568 211.369 557.749 211.369H601.39C603.909 211.369 605.95 213.411 605.95 215.929ZM723.195 334.737V215.929C723.195 213.411 725.237 211.369 727.755 211.369H776.216C798.736 211.369 816.992 229.625 816.992 252.145C816.661 263.307 815.471 267.246 809.957 275.203C814.952 284.428 816.505 288.916 816.992 298.522C816.992 321.041 798.736 339.297 776.216 339.297H727.755C725.237 339.297 723.195 337.256 723.195 334.737ZM539.547 182.058H516.976C514.323 182.058 512.173 179.907 512.173 177.255V58.8032C512.173 56.1505 514.323 54 516.976 54H601.229C603.882 54 606.033 56.152 606.032 58.8057L605.972 177.257C605.97 179.909 603.82 182.058 601.168 182.058H578.465C575.812 182.058 573.662 179.907 573.662 177.255V100.963C573.662 92.8691 567.1 86.3076 559.006 86.3076C550.912 86.3076 544.35 92.8692 544.35 100.963V177.255C544.35 179.907 542.2 182.058 539.547 182.058ZM723.182 100.898V135.16C723.182 161.061 744.179 182.058 770.08 182.058C795.981 182.058 816.978 161.061 816.978 135.16V100.898C816.978 74.997 795.981 54 770.08 54C744.179 54 723.182 74.997 723.182 100.898ZM649.858 135.089V100.957C649.858 92.8632 656.419 86.3016 664.513 86.3016C672.607 86.3016 679.169 92.8632 679.169 100.957V135.089C679.169 143.183 672.607 149.744 664.513 149.744C656.419 149.744 649.858 143.183 649.858 135.089ZM755.384 100.957V135.089C755.384 143.183 761.946 149.744 770.04 149.744C778.134 149.744 784.696 143.183 784.696 135.089V100.957C784.696 92.8632 778.134 86.3016 770.04 86.3016C761.946 86.3016 755.384 92.8632 755.384 100.957ZM776.219 243.681H755.506V260.616H776.219C780.896 260.616 784.687 256.825 784.687 252.149C784.687 247.472 780.896 243.681 776.219 243.681ZM755.506 289.925H776.154C780.867 289.925 784.687 293.746 784.687 298.458C784.687 303.171 780.867 306.991 776.154 306.991H755.506V289.925Z" fill="#132420"/>
</svg>
