<svg width="694" height="633" viewBox="0 0 694 633" fill="none" xmlns="http://www.w3.org/2000/svg">
<path fill-rule="evenodd" clip-rule="evenodd" d="M126.603 250.23V5.56452C126.603 2.94437 128.727 0.820312 131.347 0.820312H176.756C202.957 0.820312 224.198 22.0609 224.198 48.2624V86.6227C224.198 112.824 202.957 134.065 176.756 134.065H174.926C169.708 134.015 166.396 133.743 160.083 131.964V248.807C160.083 257.229 166.911 264.056 175.332 264.056C183.754 264.056 190.582 257.229 190.582 248.807V169.307C190.582 166.687 192.706 164.563 195.326 164.563H219.454C222.074 164.563 224.198 166.687 224.198 169.307V292.928C224.198 295.548 222.074 297.672 219.454 297.672H174.045C147.843 297.672 126.603 276.432 126.603 250.23ZM114.403 169.307V292.928C114.403 295.548 112.279 297.672 109.659 297.672H85.5313C82.9112 297.672 80.7871 295.548 80.7871 292.928V213.429C80.7871 205.007 73.9598 198.179 65.5379 198.179C57.1159 198.179 50.2886 205.007 50.2886 213.429V264.192C50.2886 282.682 35.2989 297.672 16.8081 297.672H4.74421C2.12406 297.672 0 295.548 0 292.928V268.8C0 266.18 2.12406 264.056 4.74421 264.056H7.31964C12.5599 264.056 16.8081 259.808 16.8081 254.568V212.005C16.8081 185.804 38.0486 164.563 64.2502 164.563H109.659C112.279 164.563 114.403 166.687 114.403 169.307ZM236.397 292.928V169.307C236.397 166.687 238.521 164.563 241.141 164.563H291.566C314.997 164.563 333.992 183.558 333.992 206.99C333.649 218.605 332.41 222.703 326.673 230.982C331.87 240.581 333.486 245.251 333.992 255.245C333.992 278.677 314.997 297.672 291.566 297.672H241.141C238.521 297.672 236.397 295.548 236.397 292.928ZM46.0297 134.065H21.06C18.7098 134.065 16.8046 132.16 16.8046 129.809V5.07571C16.8046 2.72552 18.7098 0.820312 21.06 0.820312H110.21C112.561 0.820312 114.467 2.72684 114.465 5.07788L114.402 129.812C114.401 132.161 112.496 134.065 110.146 134.065H85.039C82.6888 134.065 80.7836 132.16 80.7836 129.809V49.6857C80.7836 41.2637 73.9563 34.4364 65.5344 34.4364C57.1125 34.4364 50.2851 41.2637 50.2851 49.6856V129.809C50.2851 132.16 48.3799 134.065 46.0297 134.065ZM236.405 43.3743V91.5108C236.405 115.013 255.457 134.065 278.959 134.065H291.446C314.948 134.065 334 115.013 334 91.5108V43.3743C334 19.8724 314.948 0.820312 291.446 0.820312H278.959C255.457 0.820312 236.405 19.8724 236.405 43.3743ZM160.069 85.1925V49.6787C160.069 41.2568 166.897 34.4295 175.319 34.4295C183.741 34.4295 190.568 41.2568 190.568 49.6787V85.1925C190.568 93.6145 183.741 100.442 175.319 100.442C166.897 100.442 160.069 93.6144 160.069 85.1925ZM269.881 49.6787V85.1925C269.881 93.6144 276.709 100.442 285.13 100.442C293.552 100.442 300.38 93.6145 300.38 85.1925V49.6787C300.38 41.2568 293.552 34.4295 285.13 34.4295C276.709 34.4295 269.881 41.2568 269.881 49.6787ZM291.566 198.163H270.014V215.784H291.566C296.432 215.784 300.377 211.84 300.377 206.974C300.377 202.108 296.432 198.163 291.566 198.163ZM270.014 246.295H291.499C296.402 246.295 300.377 250.27 300.377 255.174C300.377 260.077 296.402 264.052 291.499 264.052H270.014V246.295Z" fill="#A2FF0B"/>
<path fill-rule="evenodd" clip-rule="evenodd" d="M486.603 585.41V340.744C486.603 338.124 488.727 336 491.347 336H536.756C562.957 336 584.198 357.241 584.198 383.442V421.802C584.198 448.004 562.957 469.244 536.756 469.244H534.926C529.708 469.195 526.396 468.923 520.083 467.143V583.987C520.083 592.408 526.911 599.236 535.332 599.236C543.754 599.236 550.582 592.408 550.582 583.987V504.487C550.582 501.867 552.706 499.743 555.326 499.743H579.454C582.074 499.743 584.198 501.867 584.198 504.487V628.108C584.198 630.728 582.074 632.852 579.454 632.852H534.045C507.843 632.852 486.603 611.611 486.603 585.41ZM474.403 504.487V628.108C474.403 630.728 472.279 632.852 469.659 632.852H445.531C442.911 632.852 440.787 630.728 440.787 628.108V548.608C440.787 540.186 433.96 533.359 425.538 533.359C417.116 533.359 410.289 540.186 410.289 548.608V599.371C410.289 617.862 395.299 632.852 376.808 632.852H364.744C362.124 632.852 360 630.728 360 628.108V603.98C360 601.36 362.124 599.236 364.744 599.236H367.32C372.56 599.236 376.808 594.988 376.808 589.747V547.185C376.808 520.984 398.049 499.743 424.25 499.743H469.659C472.279 499.743 474.403 501.867 474.403 504.487ZM596.397 628.108V504.487C596.397 501.867 598.521 499.743 601.141 499.743H651.566C674.997 499.743 693.992 518.738 693.992 542.17C693.649 553.785 692.41 557.883 686.673 566.162C691.87 575.761 693.486 580.431 693.992 590.425C693.992 613.857 674.997 632.852 651.566 632.852H601.141C598.521 632.852 596.397 630.728 596.397 628.108ZM406.03 469.244H381.06C378.71 469.244 376.805 467.339 376.805 464.989V340.255C376.805 337.905 378.71 336 381.06 336H470.21C472.561 336 474.467 337.907 474.465 340.258L474.402 464.991C474.401 467.341 472.496 469.244 470.146 469.244H445.039C442.689 469.244 440.784 467.339 440.784 464.989V384.865C440.784 376.443 433.956 369.616 425.534 369.616C417.112 369.616 410.285 376.443 410.285 384.865V464.989C410.285 467.339 408.38 469.244 406.03 469.244ZM596.405 378.554V426.691C596.405 450.192 615.457 469.244 638.959 469.244H651.446C674.948 469.244 694 450.192 694 426.69V378.554C694 355.052 674.948 336 651.446 336H638.959C615.457 336 596.405 355.052 596.405 378.554ZM520.069 420.372V384.858C520.069 376.436 526.897 369.609 535.319 369.609C543.741 369.609 550.568 376.436 550.568 384.858V420.372C550.568 428.794 543.741 435.621 535.319 435.621C526.897 435.621 520.069 428.794 520.069 420.372ZM629.881 384.858V420.372C629.881 428.794 636.709 435.621 645.13 435.621C653.552 435.621 660.38 428.794 660.38 420.372V384.858C660.38 376.436 653.552 369.609 645.13 369.609C636.709 369.609 629.881 376.436 629.881 384.858ZM651.566 533.343H630.014V550.964H651.566C656.432 550.964 660.377 547.019 660.377 542.153C660.377 537.287 656.432 533.343 651.566 533.343ZM630.014 581.475H651.499C656.402 581.475 660.377 585.45 660.377 590.354C660.377 595.257 656.402 599.232 651.499 599.232H630.014V581.475Z" fill="#0F0BFF"/>
<rect x="374" width="318.863" height="295.714" rx="15.5782" fill="#03FFD1"/>
<path fill-rule="evenodd" clip-rule="evenodd" d="M508.324 211.271V57.9725C508.324 56.3309 509.655 55 511.297 55H539.748C556.165 55 569.474 68.3085 569.474 84.7254V108.761C569.474 125.177 556.165 138.486 539.748 138.486H538.602C535.333 138.455 533.257 138.284 529.302 137.17V210.379C529.302 215.656 533.58 219.934 538.857 219.934C544.134 219.934 548.411 215.656 548.411 210.379V160.568C548.411 158.926 549.742 157.595 551.384 157.595H566.501C568.143 157.595 569.474 158.926 569.474 160.568V238.024C569.474 239.665 568.143 240.996 566.501 240.996H538.05C521.633 240.996 508.324 227.688 508.324 211.271ZM500.681 160.568V238.024C500.681 239.665 499.35 240.996 497.708 240.996H482.591C480.949 240.996 479.618 239.665 479.618 238.024V188.212C479.618 182.935 475.34 178.658 470.064 178.658C464.787 178.658 460.509 182.935 460.509 188.212V220.019C460.509 231.604 451.117 240.996 439.531 240.996H431.973C430.331 240.996 429 239.665 429 238.024V222.906C429 221.264 430.331 219.934 431.973 219.934H433.586C436.87 219.934 439.531 217.272 439.531 213.989V187.321C439.531 170.904 452.84 157.595 469.257 157.595H497.708C499.35 157.595 500.681 158.926 500.681 160.568ZM577.118 238.024V160.568C577.118 158.926 578.448 157.595 580.09 157.595H611.684C626.365 157.595 638.267 169.497 638.267 184.178C638.052 191.456 637.276 194.023 633.681 199.211C636.937 205.225 637.95 208.151 638.267 214.413C638.267 229.095 626.365 240.996 611.684 240.996H580.09C578.448 240.996 577.118 239.665 577.118 238.024ZM457.849 138.486H442.204C440.731 138.486 439.538 137.292 439.538 135.82V57.6663C439.538 56.1937 440.731 55 442.204 55H498.062C499.535 55 500.729 56.1946 500.728 57.6676L500.688 135.821C500.688 137.293 499.494 138.486 498.022 138.486H482.291C480.818 138.486 479.625 137.292 479.625 135.82V85.6172C479.625 80.3403 475.347 76.0626 470.07 76.0626C464.793 76.0626 460.515 80.3403 460.515 85.6172V135.82C460.515 137.292 459.322 138.486 457.849 138.486ZM577.112 81.6627V111.823C577.112 126.549 589.049 138.486 603.774 138.486H611.598C626.324 138.486 638.261 126.549 638.261 111.823V81.6627C638.261 66.9373 626.324 55 611.598 55H603.774C589.049 55 577.112 66.9373 577.112 81.6627ZM529.303 107.865V85.613C529.303 80.3361 533.58 76.0584 538.857 76.0584C544.134 76.0584 548.412 80.3361 548.412 85.613V107.865C548.412 113.141 544.134 117.419 538.857 117.419C533.58 117.419 529.303 113.141 529.303 107.865ZM598.102 85.613V107.865C598.102 113.141 602.38 117.419 607.657 117.419C612.934 117.419 617.212 113.141 617.212 107.865V85.613C617.212 80.3361 612.934 76.0584 607.657 76.0584C602.38 76.0584 598.102 80.3361 598.102 85.613ZM611.682 178.657H598.179V189.697H611.682C614.731 189.697 617.203 187.226 617.203 184.177C617.203 181.128 614.731 178.657 611.682 178.657ZM598.179 208.804H611.64C614.712 208.804 617.203 211.295 617.203 214.367C617.203 217.439 614.712 219.93 611.64 219.93H598.179V208.804Z" fill="white"/>
<rect y="337" width="334" height="296" rx="15.5782" fill="#FF035B"/>
<path fill-rule="evenodd" clip-rule="evenodd" d="M141.324 548.271V394.973C141.324 393.331 142.655 392 144.297 392H172.748C189.165 392 202.474 405.309 202.474 421.725V445.761C202.474 462.177 189.165 475.486 172.748 475.486H171.602C168.333 475.455 166.257 475.284 162.302 474.17V547.379C162.302 552.656 166.58 556.934 171.857 556.934C177.134 556.934 181.411 552.656 181.411 547.379V497.568C181.411 495.926 182.742 494.595 184.384 494.595H199.501C201.143 494.595 202.474 495.926 202.474 497.568V575.024C202.474 576.665 201.143 577.996 199.501 577.996H171.05C154.633 577.996 141.324 564.688 141.324 548.271ZM133.681 497.568V575.024C133.681 576.665 132.35 577.996 130.708 577.996H115.591C113.949 577.996 112.618 576.665 112.618 575.024V525.212C112.618 519.935 108.34 515.658 103.064 515.658C97.7867 515.658 93.5089 519.935 93.5089 525.212V557.019C93.5089 568.604 84.1169 577.996 72.5313 577.996H64.9725C63.3309 577.996 62 576.665 62 575.024V559.906C62 558.264 63.3309 556.934 64.9725 556.934H66.5862C69.8696 556.934 72.5313 554.272 72.5313 550.989V524.321C72.5313 507.904 85.8398 494.595 102.257 494.595H130.708C132.35 494.595 133.681 495.926 133.681 497.568ZM210.118 575.024V497.568C210.118 495.926 211.448 494.595 213.09 494.595H244.684C259.365 494.595 271.267 506.497 271.267 521.178C271.052 528.456 270.276 531.023 266.681 536.211C269.937 542.225 270.95 545.151 271.267 551.413C271.267 566.095 259.365 577.996 244.684 577.996H213.09C211.448 577.996 210.118 576.665 210.118 575.024ZM90.849 475.486H75.2039C73.7314 475.486 72.5377 474.292 72.5377 472.82V394.666C72.5377 393.194 73.7314 392 75.2039 392H131.062C132.535 392 133.729 393.195 133.728 394.668L133.688 472.821C133.688 474.293 132.494 475.486 131.022 475.486H115.291C113.818 475.486 112.625 474.292 112.625 472.82V422.617C112.625 417.34 108.347 413.063 103.07 413.063C97.7931 413.063 93.5153 417.34 93.5153 422.617V472.82C93.5153 474.292 92.3216 475.486 90.849 475.486ZM210.112 418.663V448.823C210.112 463.549 222.049 475.486 236.774 475.486H244.598C259.324 475.486 271.261 463.549 271.261 448.823V418.663C271.261 403.937 259.324 392 244.598 392H236.774C222.049 392 210.112 403.937 210.112 418.663ZM162.303 444.865V422.613C162.303 417.336 166.58 413.058 171.857 413.058C177.134 413.058 181.412 417.336 181.412 422.613V444.865C181.412 450.141 177.134 454.419 171.857 454.419C166.58 454.419 162.303 450.141 162.303 444.865ZM231.102 422.613V444.865C231.102 450.141 235.38 454.419 240.657 454.419C245.934 454.419 250.212 450.141 250.212 444.865V422.613C250.212 417.336 245.934 413.058 240.657 413.058C235.38 413.058 231.102 417.336 231.102 422.613ZM244.682 515.657H231.179V526.697H244.682C247.731 526.697 250.203 524.226 250.203 521.177C250.203 518.128 247.731 515.657 244.682 515.657ZM231.179 545.804H244.64C247.712 545.804 250.203 548.295 250.203 551.367C250.203 554.439 247.712 556.93 244.64 556.93H231.179V545.804Z" fill="white"/>
</svg>
