<svg width="287" height="179" viewBox="0 0 287 179" fill="none" xmlns="http://www.w3.org/2000/svg">
<path d="M127.933 63.4727H9.44151C4.22711 63.4727 0 67.6998 0 72.9142V105.641C0 110.855 4.2271 115.082 9.44151 115.082H125.885C129.101 115.082 131.709 117.69 131.709 120.906C131.709 124.123 129.101 126.731 125.885 126.731H9.44151C4.22711 126.731 0 130.958 0 136.172V169.185C0 174.412 4.2469 178.645 9.47394 178.627L127.965 178.219C133.167 178.201 137.374 173.98 137.374 168.778V138.769C137.374 135.51 140.016 132.868 143.275 132.868C146.534 132.868 149.176 135.51 149.176 138.769V168.746C149.176 173.96 153.403 178.187 158.617 178.187H277.108C282.323 178.187 286.55 173.96 286.55 168.746V136.172C286.55 130.958 282.323 126.731 277.108 126.731H161.245C157.976 126.731 155.314 124.103 155.272 120.833C155.229 117.502 157.92 114.779 161.252 114.783L276.972 114.918C282.18 114.924 286.409 110.712 286.425 105.504L286.522 72.9423C286.537 67.7169 282.306 63.4727 277.08 63.4727H158.652C153.438 63.4727 149.211 67.6998 149.211 72.9142V103.499C149.211 106.768 146.561 109.417 143.292 109.417C140.024 109.417 137.374 106.768 137.374 103.499V72.9142C137.374 67.6998 133.147 63.4727 127.933 63.4727Z" fill="white"/>
<path d="M127.935 0H9.44354C4.22834 0 0.000906492 4.22835 0.00202455 9.44355L0.00904059 42.17C0.0101583 47.3837 4.23694 51.6095 9.45055 51.6095H125.896C129.113 51.6095 131.72 54.2172 131.72 57.4338C131.72 60.6505 129.113 63.2581 125.896 63.2581H9.45258C4.23817 63.2581 0.0110643 67.4853 0.0110643 72.6997V105.948C0.0110643 111.176 4.25796 115.408 9.48501 115.39L127.976 114.983C133.178 114.965 137.385 110.743 137.385 105.541V75.2961C137.385 72.0371 140.027 69.3951 143.286 69.3951C146.545 69.3951 149.187 72.0371 149.187 75.2961V105.509C149.187 110.723 153.414 114.95 158.628 114.95H277.119C282.334 114.95 286.561 110.723 286.561 105.509V72.6996C286.561 67.4852 282.334 63.2581 277.119 63.2581H161.257C157.987 63.2581 155.325 60.6299 155.283 57.3607C155.24 54.0289 157.931 51.3061 161.264 51.31L276.981 51.4452C282.19 51.4513 286.419 47.2383 286.434 42.0298L286.524 9.46761C286.538 4.24303 282.307 0 277.082 0H158.654C153.439 0 149.212 4.2285 149.213 9.44379L149.22 40.0249C149.221 43.2941 146.571 45.9446 143.302 45.9446C140.034 45.9446 137.384 43.2958 137.384 40.0278L137.376 9.43924C137.375 4.22572 133.148 0 127.935 0Z" fill="white"/>
<path d="M18.128 32.24C17.232 32.24 16.4 32.072 15.632 31.736C14.88 31.384 14.224 30.912 13.664 30.32C13.12 29.712 12.696 29.024 12.392 28.256C12.088 27.472 11.936 26.648 11.936 25.784C11.936 24.888 12.088 24.056 12.392 23.288C12.696 22.504 13.128 21.816 13.688 21.224C14.248 20.616 14.904 20.144 15.656 19.808C16.424 19.456 17.256 19.28 18.152 19.28C19.048 19.28 19.872 19.456 20.624 19.808C21.376 20.144 22.032 20.616 22.592 21.224C23.152 21.816 23.584 22.504 23.888 23.288C24.192 24.056 24.344 24.888 24.344 25.784C24.344 26.648 24.192 27.472 23.888 28.256C23.584 29.024 23.152 29.712 22.592 30.32C22.048 30.912 21.392 31.384 20.624 31.736C19.872 32.072 19.04 32.24 18.128 32.24ZM13.592 25.808C13.592 26.736 13.792 27.584 14.192 28.352C14.608 29.104 15.16 29.704 15.848 30.152C16.536 30.584 17.296 30.8 18.128 30.8C18.96 30.8 19.72 30.576 20.408 30.128C21.096 29.68 21.648 29.072 22.064 28.304C22.48 27.52 22.688 26.672 22.688 25.76C22.688 24.832 22.48 23.984 22.064 23.216C21.648 22.448 21.096 21.84 20.408 21.392C19.72 20.944 18.96 20.72 18.128 20.72C17.296 20.72 16.536 20.952 15.848 21.416C15.176 21.88 14.632 22.496 14.216 23.264C13.8 24.016 13.592 24.864 13.592 25.808ZM33.1666 32V19.496H43.2226V32H41.5906V20.96H34.7986V32H33.1666ZM53.2153 32.24C52.1753 32.24 51.2393 31.968 50.4073 31.424C49.5913 30.88 48.9433 30.208 48.4633 29.408V37.112H46.8313V19.496H48.2953V21.92C48.7913 21.136 49.4553 20.504 50.2873 20.024C51.1193 19.528 52.0073 19.28 52.9513 19.28C53.8153 19.28 54.6073 19.464 55.3273 19.832C56.0473 20.184 56.6713 20.664 57.1993 21.272C57.7273 21.88 58.1353 22.576 58.4233 23.36C58.7273 24.128 58.8793 24.928 58.8793 25.76C58.8793 26.928 58.6393 28.008 58.1593 29C57.6953 29.976 57.0393 30.76 56.1913 31.352C55.3433 31.944 54.3513 32.24 53.2153 32.24ZM52.7593 30.8C53.4473 30.8 54.0633 30.664 54.6073 30.392C55.1513 30.104 55.6153 29.72 55.9993 29.24C56.3993 28.76 56.7033 28.224 56.9113 27.632C57.1193 27.024 57.2233 26.4 57.2233 25.76C57.2233 25.088 57.1033 24.448 56.8633 23.84C56.6393 23.232 56.3113 22.696 55.8793 22.232C55.4473 21.768 54.9513 21.4 54.3913 21.128C53.8313 20.856 53.2233 20.72 52.5673 20.72C52.1513 20.72 51.7193 20.8 51.2713 20.96C50.8233 21.12 50.3913 21.352 49.9753 21.656C49.5753 21.944 49.2393 22.272 48.9673 22.64C48.6953 23.008 48.5273 23.4 48.4633 23.816V27.656C48.7193 28.248 49.0633 28.784 49.4953 29.264C49.9273 29.728 50.4233 30.104 50.9833 30.392C51.5593 30.664 52.1513 30.8 52.7593 30.8ZM66.9718 32.24C66.0758 32.24 65.2438 32.072 64.4758 31.736C63.7238 31.384 63.0678 30.912 62.5078 30.32C61.9638 29.712 61.5398 29.024 61.2358 28.256C60.9318 27.472 60.7798 26.648 60.7798 25.784C60.7798 24.888 60.9318 24.056 61.2358 23.288C61.5398 22.504 61.9718 21.816 62.5318 21.224C63.0918 20.616 63.7478 20.144 64.4998 19.808C65.2678 19.456 66.0998 19.28 66.9958 19.28C67.8918 19.28 68.7158 19.456 69.4678 19.808C70.2198 20.144 70.8758 20.616 71.4358 21.224C71.9958 21.816 72.4278 22.504 72.7318 23.288C73.0358 24.056 73.1878 24.888 73.1878 25.784C73.1878 26.648 73.0358 27.472 72.7318 28.256C72.4278 29.024 71.9958 29.712 71.4358 30.32C70.8918 30.912 70.2358 31.384 69.4678 31.736C68.7158 32.072 67.8838 32.24 66.9718 32.24ZM62.4358 25.808C62.4358 26.736 62.6358 27.584 63.0358 28.352C63.4518 29.104 64.0038 29.704 64.6918 30.152C65.3798 30.584 66.1398 30.8 66.9718 30.8C67.8038 30.8 68.5638 30.576 69.2518 30.128C69.9398 29.68 70.4918 29.072 70.9078 28.304C71.3238 27.52 71.5318 26.672 71.5318 25.76C71.5318 24.832 71.3238 23.984 70.9078 23.216C70.4918 22.448 69.9398 21.84 69.2518 21.392C68.5638 20.944 67.8038 20.72 66.9718 20.72C66.1398 20.72 65.3798 20.952 64.6918 21.416C64.0198 21.88 63.4758 22.496 63.0598 23.264C62.6438 24.016 62.4358 24.864 62.4358 25.808ZM81.3172 32.24C80.4212 32.24 79.5892 32.072 78.8212 31.736C78.0532 31.384 77.3892 30.912 76.8292 30.32C76.2692 29.712 75.8292 29.016 75.5092 28.232C75.2052 27.448 75.0532 26.608 75.0532 25.712C75.0532 24.544 75.3172 23.472 75.8452 22.496C76.3892 21.52 77.1332 20.744 78.0772 20.168C79.0212 19.576 80.0932 19.28 81.2932 19.28C82.5252 19.28 83.5972 19.576 84.5092 20.168C85.4372 20.76 86.1652 21.544 86.6932 22.52C87.2212 23.48 87.4852 24.536 87.4852 25.688C87.4852 25.816 87.4852 25.944 87.4852 26.072C87.4852 26.184 87.4772 26.272 87.4612 26.336H76.7572C76.8372 27.232 77.0852 28.032 77.5012 28.736C77.9332 29.424 78.4852 29.976 79.1572 30.392C79.8452 30.792 80.5892 30.992 81.3892 30.992C82.2052 30.992 82.9732 30.784 83.6932 30.368C84.4292 29.952 84.9412 29.408 85.2292 28.736L86.6452 29.12C86.3892 29.712 85.9972 30.248 85.4692 30.728C84.9412 31.208 84.3172 31.584 83.5972 31.856C82.8932 32.112 82.1332 32.24 81.3172 32.24ZM76.7092 25.16H85.9492C85.8852 24.248 85.6372 23.448 85.2052 22.76C84.7892 22.072 84.2372 21.536 83.5492 21.152C82.8772 20.752 82.1332 20.552 81.3172 20.552C80.5012 20.552 79.7572 20.752 79.0852 21.152C78.4132 21.536 77.8612 22.08 77.4292 22.784C77.0132 23.472 76.7732 24.264 76.7092 25.16ZM89.9791 32V19.496H91.6111V24.848H93.4831L97.6831 19.496H99.5551L94.7791 25.568L100.155 32H98.2351L93.4831 26.36H91.6111V32H89.9791ZM105.592 32V20.96H101.128V19.496H111.688V20.96H107.224V32H105.592ZM119.309 32.24C118.413 32.24 117.581 32.072 116.813 31.736C116.045 31.384 115.381 30.912 114.821 30.32C114.261 29.712 113.821 29.016 113.501 28.232C113.197 27.448 113.045 26.608 113.045 25.712C113.045 24.544 113.309 23.472 113.837 22.496C114.381 21.52 115.125 20.744 116.069 20.168C117.013 19.576 118.085 19.28 119.285 19.28C120.517 19.28 121.589 19.576 122.501 20.168C123.429 20.76 124.157 21.544 124.685 22.52C125.213 23.48 125.477 24.536 125.477 25.688C125.477 25.816 125.477 25.944 125.477 26.072C125.477 26.184 125.469 26.272 125.453 26.336H114.749C114.829 27.232 115.077 28.032 115.493 28.736C115.925 29.424 116.477 29.976 117.149 30.392C117.837 30.792 118.581 30.992 119.381 30.992C120.197 30.992 120.965 30.784 121.685 30.368C122.421 29.952 122.933 29.408 123.221 28.736L124.637 29.12C124.381 29.712 123.989 30.248 123.461 30.728C122.933 31.208 122.309 31.584 121.589 31.856C120.885 32.112 120.125 32.24 119.309 32.24ZM114.701 25.16H123.941C123.877 24.248 123.629 23.448 123.197 22.76C122.781 22.072 122.229 21.536 121.541 21.152C120.869 20.752 120.125 20.552 119.309 20.552C118.493 20.552 117.749 20.752 117.077 21.152C116.405 21.536 115.853 22.08 115.421 22.784C115.005 23.472 114.765 24.264 114.701 25.16Z" fill="#132420"/>
<path d="M44.76 97.904V95H34.776V82.496H36.408V93.56H42.888V82.496H44.52V93.56H46.224V97.904H44.76ZM48.6744 95V82.496H54.9144C55.6184 82.496 56.2104 82.648 56.6904 82.952C57.1704 83.24 57.5304 83.616 57.7704 84.08C58.0264 84.544 58.1544 85.04 58.1544 85.568C58.1544 86.24 57.9944 86.848 57.6744 87.392C57.3544 87.92 56.8904 88.32 56.2824 88.592C57.0024 88.8 57.5864 89.176 58.0344 89.72C58.4824 90.264 58.7064 90.92 58.7064 91.688C58.7064 92.36 58.5384 92.944 58.2024 93.44C57.8824 93.936 57.4344 94.32 56.8584 94.592C56.2984 94.864 55.6504 95 54.9144 95H48.6744ZM50.2344 93.824H54.8664C55.2824 93.824 55.6584 93.72 55.9944 93.512C56.3464 93.288 56.6184 93 56.8104 92.648C57.0184 92.296 57.1224 91.928 57.1224 91.544C57.1224 91.128 57.0264 90.752 56.8344 90.416C56.6424 90.064 56.3864 89.784 56.0664 89.576C55.7464 89.368 55.3784 89.264 54.9624 89.264H50.2344V93.824ZM50.2344 88.136H54.4824C54.8984 88.136 55.2664 88.024 55.5864 87.8C55.9064 87.576 56.1544 87.288 56.3304 86.936C56.5064 86.584 56.5944 86.216 56.5944 85.832C56.5944 85.256 56.4024 84.752 56.0184 84.32C55.6504 83.888 55.1704 83.672 54.5784 83.672H50.2344V88.136ZM66.9422 95.24C66.0462 95.24 65.2142 95.072 64.4462 94.736C63.6782 94.384 63.0142 93.912 62.4542 93.32C61.8942 92.712 61.4542 92.016 61.1342 91.232C60.8302 90.448 60.6782 89.608 60.6782 88.712C60.6782 87.544 60.9422 86.472 61.4702 85.496C62.0142 84.52 62.7582 83.744 63.7022 83.168C64.6462 82.576 65.7182 82.28 66.9182 82.28C68.1502 82.28 69.2222 82.576 70.1342 83.168C71.0622 83.76 71.7902 84.544 72.3182 85.52C72.8462 86.48 73.1102 87.536 73.1102 88.688C73.1102 88.816 73.1102 88.944 73.1102 89.072C73.1102 89.184 73.1022 89.272 73.0862 89.336H62.3822C62.4622 90.232 62.7102 91.032 63.1262 91.736C63.5582 92.424 64.1102 92.976 64.7822 93.392C65.4702 93.792 66.2142 93.992 67.0142 93.992C67.8302 93.992 68.5982 93.784 69.3182 93.368C70.0542 92.952 70.5662 92.408 70.8542 91.736L72.2702 92.12C72.0142 92.712 71.6222 93.248 71.0942 93.728C70.5662 94.208 69.9422 94.584 69.2222 94.856C68.5182 95.112 67.7582 95.24 66.9422 95.24ZM62.3342 88.16H71.5742C71.5102 87.248 71.2622 86.448 70.8302 85.76C70.4142 85.072 69.8622 84.536 69.1742 84.152C68.5022 83.752 67.7582 83.552 66.9422 83.552C66.1262 83.552 65.3822 83.752 64.7102 84.152C64.0382 84.536 63.4862 85.08 63.0542 85.784C62.6382 86.472 62.3982 87.264 62.3342 88.16ZM78.7481 95V83.96H74.2841V82.496H84.8441V83.96H80.3801V95H78.7481ZM85.9873 91.4C85.9873 90.616 86.2113 89.944 86.6593 89.384C87.1073 88.808 87.7233 88.368 88.5073 88.064C89.3073 87.744 90.2273 87.584 91.2673 87.584C91.8753 87.584 92.5073 87.632 93.1633 87.728C93.8193 87.824 94.4033 87.968 94.9153 88.16V87.104C94.9153 86.048 94.6033 85.208 93.9793 84.584C93.3553 83.96 92.4913 83.648 91.3873 83.648C90.7153 83.648 90.0513 83.776 89.3953 84.032C88.7553 84.272 88.0833 84.632 87.3793 85.112L86.7553 83.96C87.5713 83.4 88.3713 82.984 89.1553 82.712C89.9393 82.424 90.7393 82.28 91.5553 82.28C93.0913 82.28 94.3073 82.72 95.2033 83.6C96.0993 84.48 96.5473 85.696 96.5473 87.248V93.032C96.5473 93.256 96.5953 93.424 96.6913 93.536C96.7873 93.632 96.9393 93.688 97.1473 93.704V95C96.9713 95.016 96.8193 95.032 96.6913 95.048C96.5633 95.064 96.4673 95.064 96.4033 95.048C96.0033 95.032 95.6993 94.904 95.4913 94.664C95.2833 94.424 95.1713 94.168 95.1553 93.896L95.1313 92.984C94.5713 93.704 93.8433 94.264 92.9473 94.664C92.0513 95.048 91.1393 95.24 90.2113 95.24C89.4113 95.24 88.6833 95.072 88.0273 94.736C87.3873 94.384 86.8833 93.92 86.5153 93.344C86.1633 92.752 85.9873 92.104 85.9873 91.4ZM94.3633 92.36C94.5393 92.136 94.6753 91.92 94.7713 91.712C94.8673 91.504 94.9153 91.32 94.9153 91.16V89.336C94.3713 89.128 93.8033 88.968 93.2113 88.856C92.6353 88.744 92.0513 88.688 91.4593 88.688C90.2913 88.688 89.3473 88.92 88.6273 89.384C87.9073 89.848 87.5473 90.48 87.5473 91.28C87.5473 91.744 87.6673 92.184 87.9073 92.6C88.1473 93 88.4993 93.336 88.9633 93.608C89.4273 93.864 89.9713 93.992 90.5953 93.992C91.3793 93.992 92.1073 93.84 92.7793 93.536C93.4673 93.232 93.9953 92.84 94.3633 92.36Z" fill="#132420"/>
<path d="M40.224 159.24C39.312 159.24 38.472 159.072 37.704 158.736C36.952 158.384 36.288 157.904 35.712 157.296C35.152 156.688 34.712 155.992 34.392 155.208C34.088 154.424 33.936 153.592 33.936 152.712C33.936 151.528 34.2 150.448 34.728 149.472C35.256 148.496 35.992 147.72 36.936 147.144C37.88 146.568 38.968 146.28 40.2 146.28C41.368 146.28 42.4 146.552 43.296 147.096C44.192 147.624 44.856 148.344 45.288 149.256L43.704 149.76C43.352 149.12 42.856 148.624 42.216 148.272C41.592 147.904 40.896 147.72 40.128 147.72C39.296 147.72 38.536 147.936 37.848 148.368C37.16 148.8 36.608 149.392 36.192 150.144C35.792 150.896 35.592 151.752 35.592 152.712C35.592 153.656 35.8 154.512 36.216 155.28C36.632 156.048 37.184 156.664 37.872 157.128C38.56 157.576 39.32 157.8 40.152 157.8C40.696 157.8 41.216 157.704 41.712 157.512C42.224 157.32 42.664 157.064 43.032 156.744C43.416 156.408 43.672 156.048 43.8 155.664L45.408 156.144C45.184 156.736 44.808 157.272 44.28 157.752C43.768 158.216 43.16 158.584 42.456 158.856C41.768 159.112 41.024 159.24 40.224 159.24ZM53.2547 159.24C52.3587 159.24 51.5267 159.072 50.7587 158.736C49.9907 158.384 49.3267 157.912 48.7667 157.32C48.2067 156.712 47.7667 156.016 47.4467 155.232C47.1427 154.448 46.9907 153.608 46.9907 152.712C46.9907 151.544 47.2547 150.472 47.7827 149.496C48.3267 148.52 49.0707 147.744 50.0147 147.168C50.9587 146.576 52.0307 146.28 53.2307 146.28C54.4627 146.28 55.5347 146.576 56.4467 147.168C57.3747 147.76 58.1027 148.544 58.6307 149.52C59.1587 150.48 59.4227 151.536 59.4227 152.688C59.4227 152.816 59.4227 152.944 59.4227 153.072C59.4227 153.184 59.4147 153.272 59.3987 153.336H48.6947C48.7747 154.232 49.0227 155.032 49.4387 155.736C49.8707 156.424 50.4227 156.976 51.0947 157.392C51.7827 157.792 52.5267 157.992 53.3267 157.992C54.1427 157.992 54.9107 157.784 55.6307 157.368C56.3667 156.952 56.8787 156.408 57.1667 155.736L58.5827 156.12C58.3267 156.712 57.9347 157.248 57.4067 157.728C56.8787 158.208 56.2547 158.584 55.5347 158.856C54.8307 159.112 54.0707 159.24 53.2547 159.24ZM48.6467 152.16H57.8867C57.8227 151.248 57.5747 150.448 57.1427 149.76C56.7267 149.072 56.1747 148.536 55.4867 148.152C54.8147 147.752 54.0707 147.552 53.2547 147.552C52.4387 147.552 51.6947 147.752 51.0227 148.152C50.3507 148.536 49.7987 149.08 49.3667 149.784C48.9507 150.472 48.7107 151.264 48.6467 152.16ZM65.0606 159V147.96H60.5966V146.496H71.1566V147.96H66.6926V159H65.0606ZM73.3541 159V146.496H74.9861V151.848H76.8581L81.0581 146.496H82.9301L78.1541 152.568L83.5301 159H81.6101L76.8581 153.36H74.9861V159H73.3541ZM84.792 155.4C84.792 154.616 85.016 153.944 85.464 153.384C85.912 152.808 86.528 152.368 87.312 152.064C88.112 151.744 89.032 151.584 90.072 151.584C90.68 151.584 91.312 151.632 91.968 151.728C92.624 151.824 93.208 151.968 93.72 152.16V151.104C93.72 150.048 93.408 149.208 92.784 148.584C92.16 147.96 91.296 147.648 90.192 147.648C89.52 147.648 88.856 147.776 88.2 148.032C87.56 148.272 86.888 148.632 86.184 149.112L85.56 147.96C86.376 147.4 87.176 146.984 87.96 146.712C88.744 146.424 89.544 146.28 90.36 146.28C91.896 146.28 93.112 146.72 94.008 147.6C94.904 148.48 95.352 149.696 95.352 151.248V157.032C95.352 157.256 95.4 157.424 95.496 157.536C95.592 157.632 95.744 157.688 95.952 157.704V159C95.776 159.016 95.624 159.032 95.496 159.048C95.368 159.064 95.272 159.064 95.208 159.048C94.808 159.032 94.504 158.904 94.296 158.664C94.088 158.424 93.976 158.168 93.96 157.896L93.936 156.984C93.376 157.704 92.648 158.264 91.752 158.664C90.856 159.048 89.944 159.24 89.016 159.24C88.216 159.24 87.488 159.072 86.832 158.736C86.192 158.384 85.688 157.92 85.32 157.344C84.968 156.752 84.792 156.104 84.792 155.4ZM93.168 156.36C93.344 156.136 93.48 155.92 93.576 155.712C93.672 155.504 93.72 155.32 93.72 155.16V153.336C93.176 153.128 92.608 152.968 92.016 152.856C91.44 152.744 90.856 152.688 90.264 152.688C89.096 152.688 88.152 152.92 87.432 153.384C86.712 153.848 86.352 154.48 86.352 155.28C86.352 155.744 86.472 156.184 86.712 156.6C86.952 157 87.304 157.336 87.768 157.608C88.232 157.864 88.776 157.992 89.4 157.992C90.184 157.992 90.912 157.84 91.584 157.536C92.272 157.232 92.8 156.84 93.168 156.36Z" fill="#132420"/>
<path d="M175.776 159V146.496H183.24V147.96H177.408V159H175.776ZM191.911 159.24C190.871 159.24 189.935 158.968 189.103 158.424C188.287 157.88 187.639 157.208 187.159 156.408V164.112H185.527V146.496H186.991V148.92C187.487 148.136 188.151 147.504 188.983 147.024C189.815 146.528 190.703 146.28 191.647 146.28C192.511 146.28 193.303 146.464 194.023 146.832C194.743 147.184 195.367 147.664 195.895 148.272C196.423 148.88 196.831 149.576 197.119 150.36C197.423 151.128 197.575 151.928 197.575 152.76C197.575 153.928 197.335 155.008 196.855 156C196.391 156.976 195.735 157.76 194.887 158.352C194.039 158.944 193.047 159.24 191.911 159.24ZM191.455 157.8C192.143 157.8 192.759 157.664 193.303 157.392C193.847 157.104 194.311 156.72 194.695 156.24C195.095 155.76 195.399 155.224 195.607 154.632C195.815 154.024 195.919 153.4 195.919 152.76C195.919 152.088 195.799 151.448 195.559 150.84C195.335 150.232 195.007 149.696 194.575 149.232C194.143 148.768 193.647 148.4 193.087 148.128C192.527 147.856 191.919 147.72 191.263 147.72C190.847 147.72 190.415 147.8 189.967 147.96C189.519 148.12 189.087 148.352 188.671 148.656C188.271 148.944 187.935 149.272 187.663 149.64C187.391 150.008 187.223 150.4 187.159 150.816V154.656C187.415 155.248 187.759 155.784 188.191 156.264C188.623 156.728 189.119 157.104 189.679 157.392C190.255 157.664 190.847 157.8 191.455 157.8ZM199.331 155.4C199.331 154.616 199.555 153.944 200.003 153.384C200.451 152.808 201.067 152.368 201.851 152.064C202.651 151.744 203.571 151.584 204.611 151.584C205.219 151.584 205.851 151.632 206.507 151.728C207.163 151.824 207.747 151.968 208.259 152.16V151.104C208.259 150.048 207.947 149.208 207.323 148.584C206.699 147.96 205.835 147.648 204.731 147.648C204.059 147.648 203.395 147.776 202.739 148.032C202.099 148.272 201.427 148.632 200.723 149.112L200.099 147.96C200.915 147.4 201.715 146.984 202.499 146.712C203.283 146.424 204.083 146.28 204.899 146.28C206.435 146.28 207.651 146.72 208.547 147.6C209.443 148.48 209.891 149.696 209.891 151.248V157.032C209.891 157.256 209.939 157.424 210.035 157.536C210.131 157.632 210.283 157.688 210.491 157.704V159C210.315 159.016 210.163 159.032 210.035 159.048C209.907 159.064 209.811 159.064 209.747 159.048C209.347 159.032 209.043 158.904 208.835 158.664C208.627 158.424 208.515 158.168 208.499 157.896L208.475 156.984C207.915 157.704 207.187 158.264 206.291 158.664C205.395 159.048 204.483 159.24 203.555 159.24C202.755 159.24 202.027 159.072 201.371 158.736C200.731 158.384 200.227 157.92 199.859 157.344C199.507 156.752 199.331 156.104 199.331 155.4ZM207.707 156.36C207.883 156.136 208.019 155.92 208.115 155.712C208.211 155.504 208.259 155.32 208.259 155.16V153.336C207.715 153.128 207.147 152.968 206.555 152.856C205.979 152.744 205.395 152.688 204.803 152.688C203.635 152.688 202.691 152.92 201.971 153.384C201.251 153.848 200.891 154.48 200.891 155.28C200.891 155.744 201.011 156.184 201.251 156.6C201.491 157 201.843 157.336 202.307 157.608C202.771 157.864 203.315 157.992 203.939 157.992C204.723 157.992 205.451 157.84 206.123 157.536C206.811 157.232 207.339 156.84 207.707 156.36ZM219.177 164.112V159H218.625C217.393 159 216.321 158.712 215.409 158.136C214.497 157.56 213.793 156.808 213.297 155.88C212.801 154.936 212.553 153.904 212.553 152.784C212.553 151.648 212.801 150.608 213.297 149.664C213.809 148.72 214.521 147.96 215.433 147.384C216.345 146.808 217.409 146.52 218.625 146.52H219.177V141.48H220.809V146.52H221.361C222.577 146.52 223.641 146.808 224.553 147.384C225.465 147.96 226.169 148.72 226.665 149.664C227.177 150.608 227.433 151.648 227.433 152.784C227.433 153.904 227.185 154.936 226.689 155.88C226.193 156.808 225.489 157.56 224.577 158.136C223.665 158.712 222.593 159 221.361 159H220.809V164.112H219.177ZM218.625 157.632H219.225V147.888H218.625C217.761 147.888 216.993 148.112 216.321 148.56C215.649 148.992 215.121 149.584 214.737 150.336C214.353 151.072 214.161 151.896 214.161 152.808C214.161 153.704 214.345 154.52 214.713 155.256C215.097 155.992 215.625 156.576 216.297 157.008C216.969 157.424 217.745 157.632 218.625 157.632ZM220.737 157.632H221.361C222.241 157.632 223.017 157.424 223.689 157.008C224.361 156.576 224.881 155.992 225.249 155.256C225.633 154.52 225.825 153.704 225.825 152.808C225.825 151.896 225.633 151.072 225.249 150.336C224.865 149.584 224.337 148.992 223.665 148.56C223.009 148.112 222.241 147.888 221.361 147.888H220.737V157.632ZM230.151 159V146.52H231.783V156.792L239.391 146.496H240.855V159H239.223V148.896L231.735 159H230.151ZM244.401 159V146.496H246.033V151.848H247.905L252.105 146.496H253.977L249.201 152.568L254.577 159H252.657L247.905 153.36H246.033V159H244.401ZM255.839 155.4C255.839 154.616 256.063 153.944 256.511 153.384C256.959 152.808 257.575 152.368 258.359 152.064C259.159 151.744 260.079 151.584 261.119 151.584C261.727 151.584 262.359 151.632 263.015 151.728C263.671 151.824 264.255 151.968 264.767 152.16V151.104C264.767 150.048 264.455 149.208 263.831 148.584C263.207 147.96 262.343 147.648 261.239 147.648C260.567 147.648 259.903 147.776 259.247 148.032C258.607 148.272 257.935 148.632 257.231 149.112L256.607 147.96C257.423 147.4 258.223 146.984 259.007 146.712C259.791 146.424 260.591 146.28 261.407 146.28C262.943 146.28 264.159 146.72 265.055 147.6C265.951 148.48 266.399 149.696 266.399 151.248V157.032C266.399 157.256 266.447 157.424 266.543 157.536C266.639 157.632 266.791 157.688 266.999 157.704V159C266.823 159.016 266.671 159.032 266.543 159.048C266.415 159.064 266.319 159.064 266.255 159.048C265.855 159.032 265.551 158.904 265.343 158.664C265.135 158.424 265.023 158.168 265.007 157.896L264.983 156.984C264.423 157.704 263.695 158.264 262.799 158.664C261.903 159.048 260.991 159.24 260.063 159.24C259.263 159.24 258.535 159.072 257.879 158.736C257.239 158.384 256.735 157.92 256.367 157.344C256.015 156.752 255.839 156.104 255.839 155.4ZM264.215 156.36C264.391 156.136 264.527 155.92 264.623 155.712C264.719 155.504 264.767 155.32 264.767 155.16V153.336C264.223 153.128 263.655 152.968 263.063 152.856C262.487 152.744 261.903 152.688 261.311 152.688C260.143 152.688 259.199 152.92 258.479 153.384C257.759 153.848 257.399 154.48 257.399 155.28C257.399 155.744 257.519 156.184 257.759 156.6C257.999 157 258.351 157.336 258.815 157.608C259.279 157.864 259.823 157.992 260.447 157.992C261.231 157.992 261.959 157.84 262.631 157.536C263.319 157.232 263.847 156.84 264.215 156.36Z" fill="#132420"/>
<path d="M175.776 95V82.496H177.408V93.56H182.76V82.496H184.416V93.56H189.744V82.496H191.376V95H175.776ZM201.332 95.24C200.292 95.24 199.356 94.968 198.524 94.424C197.708 93.88 197.06 93.208 196.58 92.408V100.112H194.948V82.496H196.412V84.92C196.908 84.136 197.572 83.504 198.404 83.024C199.236 82.528 200.124 82.28 201.068 82.28C201.932 82.28 202.724 82.464 203.444 82.832C204.164 83.184 204.788 83.664 205.316 84.272C205.844 84.88 206.252 85.576 206.54 86.36C206.844 87.128 206.996 87.928 206.996 88.76C206.996 89.928 206.756 91.008 206.276 92C205.812 92.976 205.156 93.76 204.308 94.352C203.46 94.944 202.468 95.24 201.332 95.24ZM200.876 93.8C201.564 93.8 202.18 93.664 202.724 93.392C203.268 93.104 203.732 92.72 204.116 92.24C204.516 91.76 204.82 91.224 205.028 90.632C205.236 90.024 205.34 89.4 205.34 88.76C205.34 88.088 205.22 87.448 204.98 86.84C204.756 86.232 204.428 85.696 203.996 85.232C203.564 84.768 203.068 84.4 202.508 84.128C201.948 83.856 201.34 83.72 200.684 83.72C200.268 83.72 199.836 83.8 199.388 83.96C198.94 84.12 198.508 84.352 198.092 84.656C197.692 84.944 197.356 85.272 197.084 85.64C196.812 86.008 196.644 86.4 196.58 86.816V90.656C196.836 91.248 197.18 91.784 197.612 92.264C198.044 92.728 198.54 93.104 199.1 93.392C199.676 93.664 200.268 93.8 200.876 93.8ZM209.737 95V82.52H211.369V92.792L218.977 82.496H220.441V95H218.809V84.896L211.321 95H209.737ZM229.771 100.112V95H229.219C227.987 95 226.915 94.712 226.003 94.136C225.091 93.56 224.387 92.808 223.891 91.88C223.395 90.936 223.147 89.904 223.147 88.784C223.147 87.648 223.395 86.608 223.891 85.664C224.403 84.72 225.115 83.96 226.027 83.384C226.939 82.808 228.003 82.52 229.219 82.52H229.771V77.48H231.403V82.52H231.955C233.171 82.52 234.235 82.808 235.147 83.384C236.059 83.96 236.763 84.72 237.259 85.664C237.771 86.608 238.027 87.648 238.027 88.784C238.027 89.904 237.779 90.936 237.283 91.88C236.787 92.808 236.083 93.56 235.171 94.136C234.259 94.712 233.187 95 231.955 95H231.403V100.112H229.771ZM229.219 93.632H229.819V83.888H229.219C228.355 83.888 227.587 84.112 226.915 84.56C226.243 84.992 225.715 85.584 225.331 86.336C224.947 87.072 224.755 87.896 224.755 88.808C224.755 89.704 224.939 90.52 225.307 91.256C225.691 91.992 226.219 92.576 226.891 93.008C227.563 93.424 228.339 93.632 229.219 93.632ZM231.331 93.632H231.955C232.835 93.632 233.611 93.424 234.283 93.008C234.955 92.576 235.475 91.992 235.843 91.256C236.227 90.52 236.419 89.704 236.419 88.808C236.419 87.896 236.227 87.072 235.843 86.336C235.459 85.584 234.931 84.992 234.259 84.56C233.603 84.112 232.835 83.888 231.955 83.888H231.331V93.632ZM243.889 95V83.96H239.425V82.496H249.985V83.96H245.521V95H243.889ZM252.182 95V82.496H253.814V86.912H256.646C258.07 86.912 259.142 87.28 259.862 88.016C260.598 88.736 260.966 89.688 260.966 90.872C260.966 91.64 260.806 92.336 260.486 92.96C260.166 93.584 259.694 94.08 259.07 94.448C258.462 94.816 257.694 95 256.766 95H252.182ZM253.814 93.704H256.55C257.206 93.704 257.734 93.576 258.134 93.32C258.534 93.048 258.83 92.704 259.022 92.288C259.214 91.856 259.31 91.392 259.31 90.896C259.31 90.416 259.222 89.976 259.046 89.576C258.886 89.16 258.598 88.832 258.182 88.592C257.782 88.336 257.222 88.208 256.502 88.208H253.814V93.704ZM263.246 95V82.52H264.878V95H263.246Z" fill="#132420"/>
<path d="M173.6 32.072V30.584C174.032 30.584 174.416 30.472 174.752 30.248C175.088 30.008 175.384 29.608 175.64 29.048C175.912 28.488 176.128 27.72 176.288 26.744C176.448 25.752 176.552 24.496 176.6 22.976L176.744 19.496H184.856V32H183.224V20.96H178.184L178.136 23.12C178.072 24.848 177.936 26.296 177.728 27.464C177.52 28.616 177.224 29.528 176.84 30.2C176.472 30.872 176.016 31.352 175.472 31.64C174.928 31.928 174.304 32.072 173.6 32.072ZM193.792 32.24C192.896 32.24 192.064 32.072 191.296 31.736C190.544 31.384 189.888 30.912 189.328 30.32C188.784 29.712 188.36 29.024 188.056 28.256C187.752 27.472 187.6 26.648 187.6 25.784C187.6 24.888 187.752 24.056 188.056 23.288C188.36 22.504 188.792 21.816 189.352 21.224C189.912 20.616 190.568 20.144 191.32 19.808C192.088 19.456 192.92 19.28 193.816 19.28C194.712 19.28 195.536 19.456 196.288 19.808C197.04 20.144 197.696 20.616 198.256 21.224C198.816 21.816 199.248 22.504 199.552 23.288C199.856 24.056 200.008 24.888 200.008 25.784C200.008 26.648 199.856 27.472 199.552 28.256C199.248 29.024 198.816 29.712 198.256 30.32C197.712 30.912 197.056 31.384 196.288 31.736C195.536 32.072 194.704 32.24 193.792 32.24ZM189.256 25.808C189.256 26.736 189.456 27.584 189.856 28.352C190.272 29.104 190.824 29.704 191.512 30.152C192.2 30.584 192.96 30.8 193.792 30.8C194.624 30.8 195.384 30.576 196.072 30.128C196.76 29.68 197.312 29.072 197.728 28.304C198.144 27.52 198.352 26.672 198.352 25.76C198.352 24.832 198.144 23.984 197.728 23.216C197.312 22.448 196.76 21.84 196.072 21.392C195.384 20.944 194.624 20.72 193.792 20.72C192.96 20.72 192.2 20.952 191.512 21.416C190.84 21.88 190.296 22.496 189.88 23.264C189.464 24.016 189.256 24.864 189.256 25.808ZM202.714 32V19.496H210.178V20.96H204.346V32H202.714ZM217.792 32.24C216.896 32.24 216.064 32.072 215.296 31.736C214.544 31.384 213.888 30.912 213.328 30.32C212.784 29.712 212.36 29.024 212.056 28.256C211.752 27.472 211.6 26.648 211.6 25.784C211.6 24.888 211.752 24.056 212.056 23.288C212.36 22.504 212.792 21.816 213.352 21.224C213.912 20.616 214.568 20.144 215.32 19.808C216.088 19.456 216.92 19.28 217.816 19.28C218.712 19.28 219.536 19.456 220.288 19.808C221.04 20.144 221.696 20.616 222.256 21.224C222.816 21.816 223.248 22.504 223.552 23.288C223.856 24.056 224.008 24.888 224.008 25.784C224.008 26.648 223.856 27.472 223.552 28.256C223.248 29.024 222.816 29.712 222.256 30.32C221.712 30.912 221.056 31.384 220.288 31.736C219.536 32.072 218.704 32.24 217.792 32.24ZM213.256 25.808C213.256 26.736 213.456 27.584 213.856 28.352C214.272 29.104 214.824 29.704 215.512 30.152C216.2 30.584 216.96 30.8 217.792 30.8C218.624 30.8 219.384 30.576 220.072 30.128C220.76 29.68 221.312 29.072 221.728 28.304C222.144 27.52 222.352 26.672 222.352 25.76C222.352 24.832 222.144 23.984 221.728 23.216C221.312 22.448 220.76 21.84 220.072 21.392C219.384 20.944 218.624 20.72 217.792 20.72C216.96 20.72 216.2 20.952 215.512 21.416C214.84 21.88 214.296 22.496 213.88 23.264C213.464 24.016 213.256 24.864 213.256 25.808ZM229.858 32V20.96H225.394V19.496H235.954V20.96H231.49V32H229.858ZM238.151 32V19.52H239.783V29.792L247.391 19.496H248.855V32H247.223V21.896L239.735 32H238.151ZM252.401 32V19.496H262.457V32H260.825V20.96H254.033V32H252.401Z" fill="#132420"/>
</svg>
