<svg width="645" height="687" viewBox="0 0 645 687" fill="none" xmlns="http://www.w3.org/2000/svg">
<path fill-rule="evenodd" clip-rule="evenodd" d="M272.601 465.226V169.094C272.601 165.922 275.172 163.352 278.344 163.352H333.305C365.018 163.352 390.726 189.06 390.726 220.773V267.203C390.726 298.916 365.018 324.625 333.305 324.625H331.09C324.775 324.565 320.765 324.235 313.125 322.082V463.504C313.125 473.697 321.388 481.961 331.582 481.961C341.775 481.961 350.039 473.697 350.039 463.504V367.281C350.039 364.11 352.61 361.539 355.781 361.539H384.984C388.156 361.539 390.726 364.11 390.726 367.281V516.906C390.726 520.077 388.156 522.648 384.984 522.648H330.023C298.31 522.648 272.601 496.94 272.601 465.226ZM257.836 367.281V516.906C257.836 520.077 255.265 522.648 252.094 522.648H222.891C219.719 522.648 217.148 520.077 217.148 516.906V420.683C217.148 410.49 208.885 402.226 198.691 402.226C188.498 402.226 180.234 410.49 180.234 420.683V482.125C180.234 504.505 162.091 522.648 139.711 522.648H125.109C121.938 522.648 119.367 520.077 119.367 516.906V487.703C119.367 484.532 121.938 481.961 125.109 481.961H128.227C134.569 481.961 139.711 476.819 139.711 470.476V418.961C139.711 387.248 165.42 361.539 197.133 361.539H252.094C255.265 361.539 257.836 364.11 257.836 367.281ZM405.492 516.906V367.281C405.492 364.11 408.063 361.539 411.234 361.539H472.265C500.626 361.539 523.617 384.53 523.617 412.89C523.201 426.949 521.702 431.909 514.758 441.93C521.048 453.548 523.005 459.2 523.617 471.297C523.617 499.657 500.626 522.648 472.265 522.648H411.234C408.063 522.648 405.492 520.077 405.492 516.906ZM175.101 324.625H144.847C142.011 324.625 139.712 322.326 139.712 319.49V168.486C139.712 165.65 142.011 163.352 144.847 163.352H252.782C255.619 163.352 257.918 165.652 257.917 168.489L257.84 319.493C257.838 322.328 255.54 324.625 252.705 324.625H222.284C219.449 324.625 217.15 322.326 217.15 319.49V222.496C217.15 212.303 208.886 204.039 198.693 204.039C188.499 204.039 180.236 212.303 180.236 222.496V319.49C180.236 322.326 177.937 324.625 175.101 324.625ZM405.491 214.698V273.279C405.491 301.636 428.48 324.625 456.837 324.625H472.27C500.628 324.625 523.616 301.636 523.616 273.279V214.698C523.616 186.34 500.628 163.352 472.27 163.352H456.837C428.48 163.352 405.491 186.34 405.491 214.698ZM313.128 265.483V222.499C313.128 212.305 321.391 204.042 331.585 204.042C341.778 204.042 350.042 212.305 350.042 222.499V265.483C350.042 275.677 341.778 283.94 331.585 283.94C321.391 283.94 313.128 275.677 313.128 265.483ZM446.017 222.499V265.483C446.017 275.677 454.28 283.94 464.474 283.94C474.667 283.94 482.931 275.677 482.931 265.483V222.499C482.931 212.305 474.667 204.042 464.474 204.042C454.28 204.042 446.017 212.305 446.017 222.499ZM472.267 402.22H446.181V423.548H472.267C478.157 423.548 482.931 418.774 482.931 412.884C482.931 406.995 478.157 402.22 472.267 402.22ZM446.181 460.467H472.185C478.12 460.467 482.931 465.278 482.931 471.213C482.931 477.148 478.12 481.959 472.185 481.959H446.181V460.467Z" fill="#132420"/>
<path d="M526 51.3462V109.927C526 138.285 548.988 161.273 577.346 161.273H592.779C621.136 161.273 644.125 138.285 644.125 109.927V51.3463C644.125 22.9885 621.136 0 592.779 0H577.346C548.988 0 526 22.9885 526 51.3462Z" fill="#A3BEB0" fill-opacity="0.43"/>
<path d="M566.523 59.1445V102.129C566.523 112.322 574.787 120.586 584.98 120.586C595.174 120.586 603.437 112.322 603.437 102.129V59.1445C603.437 48.951 595.174 40.6875 584.98 40.6875C574.787 40.6875 566.523 48.951 566.523 59.1445Z" fill="white"/>
<path d="M526 576.346V634.927C526 663.285 548.988 686.273 577.346 686.273H592.779C621.136 686.273 644.125 663.285 644.125 634.927V576.346C644.125 547.989 621.136 525 592.779 525H577.346C548.988 525 526 547.988 526 576.346Z" fill="#A3BEB0" fill-opacity="0.43"/>
<path d="M566.523 584.145V627.129C566.523 637.322 574.787 645.586 584.98 645.586C595.174 645.586 603.437 637.322 603.437 627.129V584.145C603.437 573.951 595.174 565.688 584.98 565.688C574.787 565.688 566.523 573.951 566.523 584.145Z" fill="white"/>
<path d="M0 51.3462V109.927C0 138.285 22.9885 161.273 51.3462 161.273H66.7787C95.1365 161.273 118.125 138.285 118.125 109.927V51.3463C118.125 22.9885 95.1365 0 66.7787 0H51.3462C22.9885 0 0 22.9885 0 51.3462Z" fill="#A3BEB0" fill-opacity="0.43"/>
<path d="M40.5234 59.1445V102.129C40.5234 112.322 48.7869 120.586 58.9805 120.586C69.174 120.586 77.4375 112.322 77.4375 102.129V59.1445C77.4375 48.951 69.174 40.6875 58.9805 40.6875C48.7869 40.6875 40.5234 48.951 40.5234 59.1445Z" fill="white"/>
<path d="M0 576.346V634.927C0 663.285 22.9885 686.273 51.3462 686.273H66.7787C95.1365 686.273 118.125 663.285 118.125 634.927V576.346C118.125 547.989 95.1365 525 66.7787 525H51.3462C22.9885 525 0 547.988 0 576.346Z" fill="#A3BEB0" fill-opacity="0.43"/>
<path d="M40.5234 584.145V627.129C40.5234 637.322 48.7869 645.586 58.9805 645.586C69.174 645.586 77.4375 637.322 77.4375 627.129V584.145C77.4375 573.951 69.174 565.688 58.9805 565.688C48.7869 565.688 40.5234 573.951 40.5234 584.145Z" fill="white"/>
<path d="M0 524H644" stroke="#A3BEB0" stroke-width="2.63345"/>
<path d="M118.391 360.672L525.79 360.672" stroke="#A3BEB0" stroke-width="2.63345"/>
<path d="M118.391 325.328L525.79 325.328" stroke="#A3BEB0" stroke-width="2.63345"/>
<path d="M1 162L644 162" stroke="#A3BEB0" stroke-width="2.63345"/>
<path d="M525 686L525 -2.41066e-05" stroke="#A3BEB0" stroke-width="2.63345"/>
<path d="M119 686L119 1.56801e-05" stroke="#A3BEB0" stroke-width="2.63345"/>
</svg>
