<svg width="278" height="210" viewBox="0 0 278 210" fill="none" xmlns="http://www.w3.org/2000/svg">
<path fill-rule="evenodd" clip-rule="evenodd" d="M15.9258 0.431613C15.5456 0.812657 13.1129 1.60204 10.5201 2.18617C5.69498 3.27252 0.902558 6.78271 0.902558 9.23165C0.902558 9.98501 1.53334 11.2504 2.30466 12.0442C3.41044 13.1829 3.53136 18.202 2.87661 35.8687C2.30357 51.3452 2.41469 59.1746 3.23721 61.2447C4.17413 63.5987 4.05538 65.0246 2.68161 67.9245C1.37864 70.6758 0.972278 74.6249 1.07577 83.4916C1.15312 90.0261 1.12371 98.812 1.0115 103.015C0.899288 107.219 0.706462 124.415 0.582266 141.229C0.36329 171.037 0.419938 171.93 2.84175 176.997C4.34408 180.141 6.8476 183.16 9.1779 184.64C12.9473 187.032 13.0214 187.216 12.5747 193.083C11.9265 201.597 13.3581 206.019 17.0207 206.818C18.6418 207.172 21.1933 207.876 22.6912 208.382C29.6952 210.749 36.4704 210.606 70.6263 207.371C83.1559 206.186 85.6126 205.477 86.4569 202.809C87.5169 199.461 86.0026 198.272 81.6645 199.046C79.4878 199.434 72.5601 200.23 66.2686 200.815C59.9771 201.399 52.7389 202.358 50.1842 202.943C39.9805 205.283 22.701 202.954 19.6539 198.828C17.3541 195.713 18.4697 192.634 22.1465 191.953L25.4148 191.348L21.8742 189.461C19.9132 188.416 18.3335 186.71 18.3335 185.633C18.3335 184.567 16.5752 182 14.4246 179.93C6.42272 172.226 6.14491 170.883 6.93039 143.615C7.98387 107.027 7.68101 73.2656 6.23424 66.1481C5.10886 60.6082 5.24395 58.6418 7.35963 49.7708C9.51889 40.7175 9.66269 38.4105 8.77589 27.1342C8.23227 20.2284 7.98388 14.2093 8.22247 13.7594C8.86632 12.5464 14.8288 12.7659 15.6099 14.0324C16.4259 15.3546 19.4229 15.4921 19.4229 14.2082C19.4229 13.7037 18.1232 12.6971 16.5338 11.9721C12.3765 10.0734 14.4845 8.64535 23.2882 7.39631C27.3867 6.81437 32.129 5.64395 33.8274 4.79452C36.4377 3.48979 37.4574 3.47778 40.425 4.72027C42.3555 5.52822 52.5079 6.7707 62.985 7.48148C73.4621 8.19116 82.8672 9.21856 83.8847 9.76447C84.9023 10.3104 87.4221 10.7569 89.4833 10.7569C91.5445 10.7569 95.3042 11.4906 97.8393 12.387C100.374 13.2834 103.583 13.731 104.97 13.3827C108.365 12.5279 111.959 17.4847 109.82 20.069C107.897 22.3913 109.338 23.3663 112.864 22.1293C116.749 20.7656 117.253 17.1342 113.993 14.0018C110.394 10.5418 105.257 7.49021 103.025 7.48584C101.97 7.48366 99.0289 6.51303 96.4884 5.3295C93.9489 4.14597 88.1934 2.61961 83.6995 1.93832C74.8043 0.588832 17.0501 -0.695142 15.9258 0.431613ZM40.8848 21.8345C39.207 22.4678 38.0206 23.5508 38.2494 24.2409C38.7277 25.6908 61.3411 27.191 86.0418 27.4126L102.003 27.5556L102.449 35.8065C102.694 40.3441 102.428 48.2335 101.858 53.3378C101.288 58.442 100.769 65.0246 100.704 67.9659C100.61 72.212 100.136 73.5058 98.4069 74.2406C97.0342 74.8237 98.043 74.9197 101.13 74.4983C103.827 74.1314 106.328 73.6576 106.689 73.4458C107.354 73.056 108.505 62.5462 109.189 50.6082C109.395 47.0052 109.918 41.8464 110.35 39.1442C111.506 31.9207 108.137 23.7408 103.342 22.1304C98.6139 20.5418 44.9821 20.2885 40.8848 21.8345ZM177.391 57.8044C173.496 58.2521 167.858 59.1768 164.862 59.8603C161.866 60.5427 157.699 61.3845 155.602 61.7295C153.505 62.0745 150.822 63.0298 149.64 63.852C148.459 64.6752 146.735 65.3478 145.811 65.3478C144.886 65.3478 142.216 66.3763 139.877 67.6329L135.623 69.917L131.058 67.6329C128.548 66.3763 125.212 65.3478 123.646 65.3478C120.651 65.3478 110.935 69.6037 110.935 70.916C110.935 71.7633 127.446 72.9905 137.563 72.8955C142.106 72.8529 144.406 72.3288 145.274 71.1377C146.133 69.9618 150.335 68.9693 158.955 67.9048C165.799 67.0608 174.586 65.8424 178.48 65.1982C182.375 64.5551 187.277 64.149 189.375 64.2964C193.727 64.6032 227.471 64.5911 235.676 64.28C242.236 64.031 250.168 65.2091 250.998 66.5553C251.33 67.0925 253.031 67.5314 254.78 67.5314C258.967 67.5314 261.517 71.4641 262.129 78.8656C262.458 82.8518 262.148 84.9153 261.083 85.8008C259.349 87.2431 249.219 89.2575 237.31 90.5283C232.816 91.0077 222.03 92.2381 213.342 93.2623C196.93 95.1959 180.693 95.6348 174.123 94.3213C172.025 93.9021 166.756 93.2994 162.411 92.9817C156.195 92.5275 154.515 92.7207 154.521 93.889C154.53 95.3869 159.213 98.1023 161.788 98.1023C162.555 98.1023 166.956 99.3721 171.568 100.924C179.155 103.475 181.05 103.687 191.473 103.141C206.882 102.333 214.759 101.384 216.011 100.185C216.58 99.6407 218.359 99.1941 219.964 99.1941C221.567 99.1941 223.49 98.4571 224.236 97.5564C224.983 96.6556 226.699 95.9186 228.049 95.9186C229.401 95.9186 232.275 95.1784 234.438 94.2733C237.526 92.9795 239.428 92.8648 243.32 93.7394C248.033 94.7973 252.916 94.3541 255.285 92.6508C255.885 92.2207 258.652 91.214 261.435 90.4137C264.867 89.4267 267.059 88.0041 268.244 85.9919C270.294 82.5144 270.484 74.4994 268.593 71.2949C266.528 67.7989 257.815 60.4051 254.196 59.0797C250.27 57.6417 187.822 56.6056 177.391 57.8044ZM81.8595 76.1841C79.028 78.8273 79.4507 84.3596 82.7528 87.8829C84.9949 90.274 85.021 90.6299 83.5677 98.8687C81.5762 110.156 81.4705 149.807 83.4272 151.766C84.1767 152.516 84.789 154.26 84.789 155.641C84.789 157.022 85.2792 158.152 85.8784 158.152C86.4776 158.152 86.9678 158.84 86.9678 159.681C86.9678 160.52 88.6837 163.763 90.7808 166.887C97.8099 177.355 95.2835 181.678 78.9518 187.125C74.6583 188.557 73.0688 188.644 70.5326 187.592C68.7732 186.862 65.6106 186.587 63.2966 186.965C61.0371 187.333 55.0202 188.097 49.9271 188.662C38.3333 189.948 32.4961 191.631 32.4961 193.688C32.4961 195.022 35.832 195.266 53.4677 195.226C65.0027 195.2 76.4003 194.741 78.7971 194.207C92.5784 191.135 95.6245 189.557 99.4963 183.488C101.67 180.081 104.128 179.133 106.087 180.946C108.068 182.776 119.757 186.539 123.464 186.539H127.195L126.569 193.363L125.942 200.187L130.15 201.625C142.844 205.965 166.435 207.821 173.701 205.053C178.786 203.115 175.057 201.489 165.751 201.586C160.447 201.64 156.981 201.204 156.498 200.419C156.072 199.728 151.628 198.843 146.622 198.453C141.616 198.064 136.441 197.401 135.121 196.982C132.21 196.055 130.304 192.806 131.239 190.364C131.832 188.816 133.207 188.665 141.313 189.266C166.818 191.151 203.936 189.999 213.233 187.033C216.852 185.879 218.648 188.573 217.788 193.872C217.182 197.606 216.736 198.052 212.781 198.865C210.393 199.356 202.188 200.306 194.549 200.975C182.595 202.024 180.659 202.456 180.659 204.076C180.659 206.829 182.815 207.284 195.867 207.284C204.806 207.284 207.943 206.904 208.938 205.703C209.658 204.833 212.521 203.972 215.3 203.792C221.316 203.4 222.721 201.395 223.731 191.759L224.385 185.514L234.933 178.988C248.955 170.312 256.315 162.985 259.406 154.622C259.79 153.582 260.761 152.982 261.563 153.29C262.431 153.624 263.793 152.402 264.928 150.269C265.976 148.3 268.269 144.232 270.022 141.229C271.775 138.227 273.222 134.986 273.236 134.027C273.249 133.069 273.944 130.858 274.78 129.114C275.614 127.371 276.633 123.487 277.041 120.485C277.706 115.606 277.62 115.246 276.234 117.101C273.628 120.589 273.204 117.365 275.48 111.362C278.071 104.528 278.131 102.181 275.882 95.5671C274.735 92.1923 273.522 90.4596 272.308 90.4596C270.699 90.4596 270.44 92.1115 270.224 103.787C270.087 111.118 269.49 117.603 268.896 118.199C268.301 118.795 267.814 120.63 267.814 122.276C267.814 123.923 267.324 125.572 266.724 125.944C266.125 126.315 265.622 127.695 265.607 129.011C265.548 134.009 260.461 145.947 254.586 154.877C247.478 165.678 245.414 167.698 237.31 171.773C234.014 173.43 229.921 175.522 228.213 176.422C225.625 177.784 224.67 177.822 222.48 176.648C220.226 175.439 219.662 175.501 218.501 177.093C217.414 178.582 214.045 179.176 201.355 180.115C192.669 180.758 184.734 181.715 183.723 182.241C182.666 182.791 180.582 182.785 178.82 182.226C177.135 181.691 165.216 180.98 152.334 180.648C126.655 179.984 122.916 179.238 109.614 172.134C104.504 169.404 101.687 166.88 97.6868 161.446C94.6897 157.376 92.4411 153.14 92.4313 151.547C92.4226 150.015 91.9694 148.295 91.4258 147.725C90.0346 146.266 89.004 136.32 89.114 125.398C89.248 112.055 90.2906 92.6432 90.8745 92.6432C91.148 92.6432 93.2833 93.9097 95.6179 95.459C99.0475 97.7332 100.285 98.0477 102.06 97.0967C103.267 96.4482 107.229 95.9186 110.863 95.9186C116.146 95.9186 117.472 95.5747 117.472 94.2023C117.472 92.7655 116.526 92.605 111.653 93.2142C106.804 93.8224 104.628 93.4588 98.5899 91.0393C94.6058 89.4409 90.8811 88.4222 90.3124 88.7749C89.3112 89.395 83.6995 84.1696 83.6995 82.617C83.6995 82.1956 84.728 80.1026 85.9862 77.9659C88.1945 74.2155 88.2011 74.0823 86.1911 74.0823C85.0472 74.0823 83.0971 75.0278 81.8595 76.1841ZM131.09 92.0973C128.724 93.1553 128.273 93.7317 129.456 94.187C131.651 95.0321 137.377 93.3933 137.918 91.7643C138.478 90.0807 135.25 90.2379 131.09 92.0973Z" fill="#3378B7"/>
</svg>
