<svg width="106" height="106" viewBox="0 0 106 106" fill="none" xmlns="http://www.w3.org/2000/svg">
<circle cx="53" cy="53" r="51.8478" stroke="#3378B7" stroke-width="2.30276"/>
<path fill-rule="evenodd" clip-rule="evenodd" d="M47.2427 7.96165C46.9314 8.11452 46.5211 8.47122 46.3307 8.7541C45.8399 9.48416 45.5759 11.976 45.7518 14.2209C45.8663 15.6805 45.9689 16.1149 46.3991 16.9613C46.6802 17.5146 46.9101 18.0394 46.9101 18.1277C46.9101 18.3072 47.7428 19.2419 49.9555 21.5464C52.7261 24.4322 52.9531 24.7358 52.9531 25.5573C52.9531 26.0395 52.8826 26.2869 52.745 26.2869C52.6305 26.2869 51.9565 25.9562 51.2472 25.5519C50.5379 25.1477 49.8652 24.817 49.7523 24.817C49.6394 24.817 49.0456 24.5529 48.4328 24.2302L47.3184 23.6433L45.1183 23.8369C42.2159 24.0923 41.2961 24.5499 41.0862 25.8431C40.9583 26.6317 41.6444 28.1342 42.2819 28.4615C43.0092 28.8351 45.6873 29.1521 46.1879 28.9239C46.414 28.821 46.8043 28.7367 47.0557 28.7367C47.6216 28.7367 48.8204 28.324 50.7964 27.4491C53.1377 26.4123 53.015 26.307 52.9124 29.2675L52.826 31.7582L53.0121 29.7984L53.1981 27.8385L54.0147 27.8215C54.4639 27.8122 55.3612 27.904 56.0086 28.0256C57.6051 28.3255 58.6897 28.3039 60.5971 27.9342C61.8128 27.6985 62.3872 27.4968 62.9304 27.1146C63.3266 26.8358 64.0513 26.3349 64.5408 26.0016C66.1521 24.904 66.6008 24.3642 66.9896 23.0546C67.338 21.8817 67.3228 21.3611 66.9285 20.9668C65.6729 19.7112 61.9638 19.9254 59.2626 21.4097C58.0802 22.0594 56.7586 23.2162 56.0964 24.1813C55.3824 25.2219 53.5548 27.2768 53.3916 27.2224C53.0903 27.122 53.0676 23.4652 53.3604 22.168C54.4237 17.4565 53.5649 12.6175 51.2024 10.007C50.4394 9.16372 48.4263 7.66522 48.0709 7.67584C47.9265 7.68008 47.5538 7.80878 47.2427 7.96165ZM38.8256 29.3192C37.5997 29.8576 37.3165 30.1082 37.1168 30.832C36.9461 31.4499 36.967 31.509 37.8241 32.8319C38.7015 34.186 41.012 35.7015 42.7454 36.0595C45.7244 36.6749 46.6914 36.7122 47.9247 36.2589C48.3998 36.0845 49.263 35.858 49.8431 35.7557C50.4231 35.6533 51.1051 35.4624 51.3586 35.3313C51.6121 35.2003 51.8799 35.1304 51.9541 35.1761C52.1832 35.3179 52.1607 37.5131 51.9005 40.4144C51.7635 41.9415 51.6774 43.7988 51.7092 44.5419C51.8082 46.8498 51.2263 46.4423 50.2462 43.5175C49.9151 42.5294 49.44 41.427 49.1901 41.0677C47.9748 39.3195 46.0651 38.0942 42.6789 36.8902C41.517 36.4771 41.1799 36.493 40.1219 37.011L39.2339 37.446V38.8012C39.2339 40.1547 39.2352 40.1589 40.1405 41.6738C41.1167 43.3073 41.12 43.3108 43.0699 44.6948C44.1082 45.4317 44.4861 45.6131 44.9223 45.5837C45.2237 45.5635 45.8704 45.6966 46.3596 45.8795C47.0217 46.1273 47.6755 46.2173 48.9171 46.2317C49.8343 46.2423 50.8054 46.2981 51.0749 46.3556L51.5649 46.4601L51.6702 51.44C51.7282 54.1791 51.8521 56.8978 51.9456 57.4817C52.389 60.2499 52.9851 63.0716 53.3583 64.169C53.5847 64.8342 53.7697 65.4312 53.7697 65.4957C53.7697 65.7188 53.2549 65.8094 52.9414 65.6415C52.5851 65.4509 52.5518 65.5298 52.7955 65.9853C52.8919 66.1653 53.1364 66.3012 53.3639 66.3012C54.0683 66.3012 54.441 67.3311 54.5439 69.561C54.6499 71.8638 54.4908 73.6508 54.1797 73.6508C54.0603 73.6508 53.4699 73.1003 52.8677 72.4276C50.4641 69.7419 48.154 68.4554 42.1813 66.4763C41.1523 66.1352 40.288 65.7887 40.2606 65.7062C40.233 65.6236 40.7808 64.9939 41.4778 64.3072C42.2071 63.5887 43.1269 62.449 43.6437 61.6238L44.5419 60.1893L44.5302 58.7947C44.5098 56.393 43.5865 54.1561 41.8693 52.3475C39.5251 49.8787 39.2395 49.642 38.6066 49.6446C38.278 49.6461 37.92 49.7037 37.8112 49.7728C37.5293 49.952 37.2007 50.8119 36.7803 52.4698C36.4403 53.8108 36.4256 54.0798 36.5642 56.411C36.7049 58.7756 36.7398 58.9564 37.2014 59.708C37.4772 60.157 37.9249 60.6214 38.2298 60.7746C38.9729 61.1483 38.9867 61.1743 38.6843 61.6357C38.5375 61.8598 38.4173 62.1784 38.4173 62.3437C38.4173 62.702 39.2045 63.9694 39.6992 64.4075C39.9036 64.5884 40.0505 64.9129 40.0505 65.1832C40.0505 65.5566 39.9784 65.6476 39.6831 65.6466C38.9063 65.644 37.3105 65.0498 34.3719 63.6692C33.6291 63.3202 32.9812 63.0347 32.9321 63.0347C32.8831 63.0347 32.2229 62.6685 31.4653 62.221C29.9067 61.3004 29.5977 61.2591 31.0269 62.1624C31.5433 62.4887 31.9962 62.7814 32.0331 62.8126C32.0699 62.8438 31.969 63.0143 31.8087 63.1913C31.4395 63.5995 30.1897 63.9511 28.6179 64.0893C26.6634 64.2609 26.2832 64.4133 25.4447 65.3604C25.03 65.8287 24.6152 66.4929 24.5225 66.8366C24.4301 67.1802 24.2295 67.4997 24.0772 67.5464C23.3723 67.7629 22.7444 68.1136 21.84 68.7958C20.9794 69.4448 20.7779 69.7111 20.186 70.9804C19.0973 73.3153 18.8549 74.235 18.8304 76.1227C18.8196 76.952 18.8629 77.0724 19.2676 77.3402C19.5374 77.5189 20.1218 77.6643 20.7315 77.7044C21.6265 77.7632 21.9907 77.6811 23.8198 77.0075C26.9018 75.8724 28.4279 74.682 30.0048 72.1828C31.154 70.3616 31.3952 69.6544 31.391 68.118C31.389 67.4332 31.5157 66.1104 31.6724 65.1787C32.0361 63.0168 32.1215 62.9622 33.93 63.737C34.6463 64.0439 35.5691 64.4486 35.9807 64.6363C37.3348 65.2541 38.3095 65.6023 40.3772 66.2073C43.1713 67.0247 43.807 67.2707 43.807 67.534C43.807 67.7665 41.6028 69.3091 40.3628 69.9444C39.8737 70.1952 39.4497 70.6213 38.9507 71.3642C38.5584 71.9481 38.0596 72.6332 37.8419 72.8867C37.6244 73.14 37.2185 73.8103 36.9399 74.3761C36.4391 75.3936 36.4333 75.4351 36.4047 78.1617C36.3696 81.5182 36.5223 82.2052 37.4746 82.9705L38.1302 83.4972L38.6412 83.2003C38.9223 83.037 39.483 82.6133 39.8872 82.2589C40.2914 81.9045 40.794 81.535 41.0042 81.438C41.2327 81.3324 41.6168 80.7988 41.9603 80.11C42.2762 79.4768 42.7018 78.775 42.9061 78.5505C43.1104 78.3259 43.3694 77.8482 43.4818 77.4889C43.5942 77.1295 43.9234 76.5416 44.2135 76.1823C44.5034 75.823 44.8614 75.1135 45.0089 74.6055C45.4281 73.1611 45.3532 72.1563 44.6875 70.3026C44.0796 68.6098 43.8454 67.6078 44.0574 67.6078C44.4492 67.6078 46.6776 68.3842 47.8014 68.9122C49.6429 69.7775 50.8542 70.7033 52.5895 72.5712C54.2574 74.3664 54.3804 74.6573 54.1217 76.1934C54.032 76.7261 53.9517 78.1911 53.943 79.4487C53.9345 80.7063 53.846 83.1317 53.7464 84.8384C53.4739 89.5038 53.9014 96.7178 54.4849 97.3013C54.8856 97.7018 54.9573 97.4392 54.6919 96.5451C54.5579 96.0942 54.4029 94.9663 54.3476 94.0383C54.2922 93.1104 54.2117 92.1231 54.1687 91.8442C54.1256 91.5654 54.1655 88.8575 54.2571 85.8269L54.4237 80.3166L54.995 79.6491C55.3092 79.282 55.5663 78.9318 55.5663 78.8711C55.5663 78.761 59.8187 75.0926 61.6648 73.6099C62.9877 72.5475 63.26 72.5733 64.4947 73.8771C65.4007 74.8337 65.5712 74.9402 66.5531 75.1643C67.3004 75.3348 67.8378 75.3663 68.3322 75.2686C68.7217 75.1917 69.3095 75.088 69.6381 75.0383C70.2824 74.941 70.6056 74.6248 72.1977 72.5348C73.1918 71.2296 73.5172 70.6544 73.9457 69.4452C74.113 68.9735 74.3065 68.5877 74.3759 68.5877C74.4452 68.5877 74.6696 68.8154 74.8744 69.0937C75.3335 69.7174 76.3414 70.3105 77.1983 70.4612C77.5531 70.5236 77.9919 70.6788 78.1737 70.8061C78.3651 70.9401 78.8963 71.0376 79.4354 71.0376C81.651 71.0376 83.0141 70.2886 83.2253 68.9552C83.3491 68.1734 83.6563 68.0543 84.2191 68.5701C84.602 68.9211 85.4462 69.1378 85.7175 68.9549C85.8173 68.8877 86.0212 68.5938 86.1708 68.3019C86.431 67.7943 86.4266 67.7308 86.0712 66.8526C85.7049 65.9474 85.4865 65.7547 84.1479 65.1547C84.0132 65.0942 83.8265 64.7348 83.7329 64.3557C83.6104 63.8588 83.4166 63.5737 83.0388 63.3344C82.7505 63.152 82.5147 62.9825 82.5147 62.9578C82.5147 62.933 82.8271 62.9062 83.2088 62.8982C84.1376 62.8786 85.5999 62.3576 86.5542 61.7062C86.9824 61.4139 87.9418 60.6198 88.686 59.9415C90.0046 58.74 90.4957 58.0043 91.146 56.2568C91.6148 54.9974 91.2793 53.9088 90.3191 53.5742C89.5512 53.3065 87.0673 53.3495 86.6559 53.6376C86.4684 53.769 85.8089 54.0377 85.1906 54.2348C84.1321 54.5721 83.9639 54.6985 82.3187 56.3928C80.977 57.7747 80.5599 58.3091 80.5221 58.6946C80.4772 59.155 80.4217 59.1981 79.8519 59.2134C79.3583 59.2268 79.1327 59.3444 78.756 59.7851C78.4951 60.0902 78.2786 60.4219 78.275 60.522C78.2593 60.9499 77.5799 61.5648 77.1227 61.5648C76.8652 61.5648 76.6153 61.6278 76.5677 61.7049C76.4211 61.9422 73.7805 63.688 73.5683 63.688C73.1753 63.688 73.4241 63.0105 74.1279 62.1647C74.339 61.9109 74.5118 61.4882 74.5118 61.2256C74.5118 60.963 74.5853 60.7482 74.6752 60.7482C74.765 60.7482 74.8385 60.6379 74.8385 60.5032C74.8385 60.3407 75.001 60.2582 75.3206 60.2582C76.4095 60.2582 78.0478 57.7628 78.6581 55.1744C79.0509 53.5089 79.054 53.3555 78.7107 52.582C78.4667 52.0326 77.6035 51.1121 77.3323 51.1121C77.1653 51.1121 77.1542 51.036 77.2854 50.791C77.4675 50.4506 77.3723 49.3634 77.0963 48.632C76.9204 48.1657 76.2623 47.8456 75.4798 47.8456C74.9371 47.8456 73.9969 48.5391 72.5952 49.9731C71.1542 51.4474 70.4331 53.0878 70.0155 55.8419C69.7585 57.5377 69.8048 57.8796 70.5491 59.7682C70.9584 60.8071 72.7755 63.5247 73.061 63.5247C73.1402 63.5247 73.2047 63.6166 73.2043 63.7288C73.2036 63.8668 72.8995 63.9371 72.2651 63.9457C71.2503 63.9596 70.1707 64.4181 68.4973 65.5461L67.6274 66.1325L67.7623 65.6043C67.992 64.7054 67.9011 63.1639 67.582 62.5447C67.1531 61.7126 66.6672 61.2382 66.2439 61.2382C65.8864 61.2382 65.881 61.2176 66.099 60.6956C66.2757 60.2726 66.2935 59.8323 66.18 58.6949C65.9893 56.7869 65.7964 56.1727 65.2122 55.6128C64.8102 55.2277 64.6409 55.1687 64.1945 55.2579C63.3222 55.4323 61.9388 57.0224 61.0223 58.9043C60.2966 60.3941 60.2429 60.5924 60.2336 61.8098C60.2168 64.0325 61.303 66.2462 62.9196 67.2836C63.3666 67.5704 63.7325 67.8564 63.7325 67.9189C63.7325 67.9815 64.0632 68.1933 64.4674 68.3898C64.937 68.6178 65.2024 68.8538 65.2024 69.0429C65.2024 69.2057 65.2943 69.4329 65.4065 69.5477C65.5708 69.7158 65.4345 69.9214 64.7078 70.6012C63.623 71.6161 61.8141 73.1869 59.3152 75.284C58.2984 76.1374 56.8851 77.3317 56.1747 77.938C54.4336 79.4241 54.3508 79.4081 54.4786 77.6114C54.9976 70.3134 54.9813 68.1752 54.3961 66.8101C54.2207 66.4008 54.1106 65.9376 54.1517 65.7808C54.1927 65.6239 54.0435 65.0431 53.82 64.4901C53.364 63.3612 52.7191 60.5096 52.364 58.0533C52.2342 57.1551 52.0829 54.5762 52.0277 52.3225C51.939 48.6913 51.9567 48.2136 52.1837 48.1264C52.3246 48.0723 53.2352 48.1806 54.2073 48.3668C56.7955 48.863 57.5471 48.8991 58.5244 48.5745C60.2177 48.012 62.41 46.3749 63.3996 44.9339C63.9348 44.1545 64.7124 42.5036 64.7124 42.1466C64.7124 41.4094 64.245 40.7285 63.4744 40.3437C62.7253 39.9695 62.6487 39.9633 61.0055 40.1428C59.4219 40.3156 59.1898 40.3902 57.5017 41.2694C55.9757 42.0641 55.5674 42.3638 54.8846 43.1909C54.4395 43.7299 53.7508 44.8323 53.3539 45.6407C52.9572 46.4492 52.4857 47.2944 52.3065 47.519L51.9804 47.9273L51.9768 44.903C51.9733 42.0617 52.3643 36.0515 52.5749 35.7112C52.7058 35.499 54.2736 35.7005 55.5434 36.0927C56.2761 36.3189 57.2627 36.4389 58.8916 36.4997C61.4907 36.5969 62.1486 36.4711 63.4787 35.622C63.9229 35.3385 64.4294 35.1064 64.604 35.1064C64.9419 35.1064 67.3845 32.7411 67.2957 32.5001C67.2673 32.4226 66.6927 31.9617 66.019 31.4757C65.3453 30.9896 64.5591 30.3821 64.2719 30.1255C63.8006 29.7046 63.6495 29.6628 62.7204 29.6977C60.0794 29.7969 57.6841 30.3868 56.3071 31.2774C55.8322 31.5845 55.1051 32.309 54.5863 32.9918C52.6874 35.4916 52.3529 35.7138 52.6317 34.2898C52.7107 33.8855 52.7692 33.1873 52.7614 32.7382C52.7496 32.063 52.7214 32.1478 52.5984 33.2267C52.5165 33.9445 52.3867 34.5948 52.3096 34.6719C52.0178 34.9638 51.4411 34.5403 49.4434 32.5672C48.3113 31.4489 47.1863 30.4312 46.9435 30.3056C46.7006 30.18 45.8177 29.8462 44.9814 29.5638C43.7544 29.1495 43.1085 29.0348 41.6333 28.9696C39.9222 28.894 39.743 28.9164 38.8256 29.3192ZM33.0758 37.56C30.9596 38.2879 28.9797 39.7431 27.438 41.7037C27.2336 41.9637 26.4989 42.8355 25.8055 43.641C25.112 44.4465 24.3589 45.4224 24.1319 45.8095C23.4817 46.9189 23.1937 48.4757 23.2512 50.572C23.2787 51.5774 23.2646 52.4366 23.22 52.4812C23.1755 52.526 22.858 52.3266 22.5145 52.0381C21.9922 51.5998 21.8756 51.3858 21.8017 50.7315C21.7526 50.2956 21.7936 49.7908 21.8943 49.5915C21.9936 49.3947 22.2267 48.624 22.4121 47.8786C22.5975 47.1332 22.8913 46.1629 23.0649 45.7224C23.6435 44.2541 24.0448 42.3498 24.0448 41.0709C24.0448 40.0487 23.9656 39.6605 23.6084 38.9308C23.0801 37.852 22.9798 37.762 22.1584 37.6309C21.5759 37.5379 21.4784 37.5752 21.1532 38.0155C20.9551 38.2838 20.6317 38.97 20.4346 39.5404C20.1226 40.4431 20.0757 40.9274 20.073 43.2726C20.0695 46.1774 20.3111 48.6034 20.7122 49.6944C21.2071 51.0401 21.245 50.9916 20.1028 50.4766C19.5312 50.2189 18.8198 49.9556 18.5219 49.8914C17.7714 49.7299 17.0631 50.0493 16.9569 50.5971C16.8316 51.2441 16.8865 55.2517 17.0234 55.4402C17.0885 55.53 17.1903 55.985 17.2496 56.4515C17.4067 57.6878 17.769 58.4305 18.7081 59.4416C20.3495 61.2086 22.488 62.5462 23.6671 62.5431C24.4293 62.5411 25.6296 61.9875 26.8101 61.0935C27.2977 60.7239 27.8343 60.4215 28.0022 60.4215C28.3064 60.4215 29.124 60.7851 29.6075 61.1354C29.7474 61.2368 29.5637 61.0668 29.1992 60.7575C27.7175 59.5007 25.0765 56.6267 24.867 56.043C24.7479 55.7114 24.4778 55.1847 24.2666 54.8725C23.8951 54.3229 23.8923 54.2951 24.1809 54.0067C24.3648 53.8228 24.9931 53.6188 25.8213 53.4742C28.7534 52.9624 29.8072 52.4027 32.2112 50.0804C33.4799 48.855 34.0074 48.0867 34.238 47.1291C34.3006 46.8699 34.5294 46.4245 34.7468 46.1397C34.9642 45.8547 35.3285 45.1259 35.5565 44.5202C35.7845 43.9146 36.0886 43.2396 36.2322 43.0202C36.5892 42.4755 36.7178 40.1609 36.4654 38.8235L36.2663 37.7681L35.4197 37.4172C34.9539 37.2242 34.5376 37.0736 34.4944 37.0826C34.4512 37.0916 33.8129 37.3065 33.0758 37.56ZM25.1531 57.8402C24.9258 58.1827 24.9495 58.2343 25.5711 58.7537C26.2704 59.338 27.7817 60.1689 27.9107 60.04C27.9844 59.9662 26.2051 58.1025 25.6586 57.6811C25.438 57.5109 25.3544 57.5372 25.1531 57.8402ZM76.2532 62.319C75.9981 62.4572 75.8143 62.5939 75.8449 62.6228C75.8753 62.6517 76.3411 62.5965 76.88 62.5002C77.6952 62.3543 77.7912 62.3048 77.4517 62.206C76.8572 62.0332 76.7645 62.042 76.2532 62.319ZM81.2081 62.5447C81.2081 62.6346 81.3595 62.7081 81.5444 62.7081C81.7293 62.7081 81.8353 62.6346 81.7797 62.5447C81.7242 62.4549 81.573 62.3814 81.4434 62.3814C81.3139 62.3814 81.2081 62.4549 81.2081 62.5447ZM65.7673 69.252C65.5757 69.5618 65.855 69.6382 66.1395 69.3537C66.3942 69.0992 66.3946 69.0777 66.1452 69.0777C65.9966 69.0777 65.8264 69.1561 65.7673 69.252ZM64.5048 71.1586C63.6472 71.8891 63.2895 72.2932 63.4014 72.4051C63.5133 72.517 63.7129 72.4325 64.0171 72.1443C64.3059 71.8709 64.7421 71.6776 65.2334 71.6056C65.6546 71.5439 66.1078 71.3725 66.2405 71.2247C66.5526 70.8769 66.4105 70.0537 66.0407 70.0678C65.8941 70.0733 65.2029 70.5643 64.5048 71.1586Z" fill="#3378B7"/>
</svg>
