<svg width="106" height="106" viewBox="0 0 106 106" fill="none" xmlns="http://www.w3.org/2000/svg">
<circle cx="53" cy="53" r="51.8478" stroke="#3378B7" stroke-width="2.30435"/>
<path fill-rule="evenodd" clip-rule="evenodd" d="M58.9768 10.4077C58.9343 10.5193 58.8058 11.1369 58.6912 11.7803C58.5309 12.6801 58.5269 13.0032 58.674 13.1804C58.824 13.3611 58.8118 13.4314 58.6179 13.5058C58.3459 13.6101 58.2724 14.2596 58.5326 14.2596C58.6218 14.2596 58.6948 14.4033 58.6948 14.579C58.6948 14.7962 58.6169 14.8683 58.4515 14.8049C58.2035 14.7097 58.1167 14.9251 58.3209 15.1293C58.3829 15.1913 58.445 15.8943 58.4588 16.6917C58.4748 17.613 58.5613 18.2345 58.696 18.3969C58.8402 18.5708 58.8552 18.7054 58.7426 18.8179C58.5772 18.9834 58.7501 20.0235 59.1824 21.4619C59.3651 22.07 60.6827 24.3171 61.4928 25.4023C62.0978 26.2126 64.9127 28.1055 65.3702 28.0094C65.4882 27.9848 65.7494 28.2902 65.951 28.6882C66.243 29.2645 66.3176 29.3331 66.3176 29.0254C66.3176 28.8128 66.2081 28.5179 66.0745 28.3702C65.8573 28.1301 65.8751 27.9731 66.2418 26.8976C66.835 25.1585 67.1214 23.6571 67.2296 21.7203C67.3155 20.1793 67.2845 19.8939 66.9042 18.7198C66.6731 18.0062 66.483 17.3128 66.4819 17.179C66.4807 17.0452 66.2371 16.7421 65.9407 16.5055C65.644 16.269 65.0475 15.4447 64.6149 14.674C63.7266 13.0912 63.1668 12.6019 61.0063 11.5203C60.2706 11.1518 59.5779 10.7051 59.4671 10.5277C59.2348 10.156 59.0863 10.1196 58.9768 10.4077ZM50.0175 22.3285C50.1713 22.7056 50.3904 24.4421 50.5854 26.8292C50.9696 31.5333 51.4753 33.5968 52.7914 35.8306C53.9397 37.7795 57.1799 40.1393 59.9112 41.0156C61.2301 41.4389 61.3769 41.8583 60.708 43.2913C60.479 43.7819 59.8906 45.2051 59.4003 46.4539C57.571 51.1149 57.0899 52.1871 57.0794 51.6285C57.0758 51.4417 56.994 50.128 56.8977 48.7092C56.7264 46.1891 56.7055 46.0892 55.987 44.3781C55.2481 42.618 54.6683 41.7648 52.8849 39.8133C51.7982 38.6242 49.3985 36.8055 48.082 36.1737C44.4123 34.412 43.6664 34.0642 43.4578 34.0177C42.9496 33.9045 43.3406 39.3954 44.2106 44.5888C44.5619 46.6855 44.7503 47.3143 45.6213 49.2922C46.3472 50.941 46.4342 51.058 48.3566 52.9713C51.4375 56.0378 52.9178 57.3554 53.604 57.642C54.4496 57.9952 55.1266 58.6688 55.1266 59.1572C55.1266 59.5633 54.5481 63.5226 54.3423 64.5254C54.2158 65.1414 53.925 65.3461 53.7657 64.931C53.7089 64.783 53.5811 63.7399 53.4817 62.613C53.3018 60.5747 52.7374 58.1454 52.2822 57.4506C52.151 57.2503 51.6242 56.7821 51.1117 56.4102C49.7825 55.4458 49.2436 54.9161 47.9115 53.2658C47.2636 52.463 46.4872 51.5741 46.186 51.2904C45.5403 50.682 44.1583 50.1032 43.3515 50.1032C43.0368 50.1032 42.4374 49.9613 42.0194 49.7877C40.6239 49.2084 38.6594 48.9229 35.9884 48.9113C33.894 48.9022 31.6094 49.0601 31.6094 49.2141C31.6094 49.3967 32.2359 50.6867 32.6894 51.4375C33.4082 52.6279 35.1975 56.0058 35.9098 57.5169C36.3988 58.5543 36.5509 58.7321 37.2545 59.0885C37.6908 59.3098 38.636 59.6408 39.3551 59.8244C40.0743 60.008 41.5998 60.4923 42.7452 60.9003C46.5495 62.2562 47.562 62.5916 47.8499 62.5916C48.3869 62.5916 52.2877 64.4179 52.8172 64.9173C53.8552 65.8961 54.0158 66.4927 54.0456 69.4833C54.0604 70.956 54.0223 72.1609 53.9611 72.1607C53.8998 72.1607 53.3889 71.7549 52.8258 71.259C52.2625 70.763 51.5463 70.226 51.2341 70.0657C50.9219 69.9053 50.1452 69.4669 49.5081 69.0915C47.5758 67.9526 45.2272 67.5335 40.8541 67.5473C38.4107 67.5551 37.8546 67.6058 36.8575 67.9116C35.0221 68.4745 32.7447 69.6647 32.7447 70.0609C32.7447 70.2805 34.043 71.4839 34.4095 71.6038C34.5669 71.6554 34.6585 71.7577 34.6131 71.8312C34.5675 71.9048 35.1321 72.0149 35.8676 72.0762C38.4844 72.2939 39.1959 72.4282 41.1785 73.0785C41.8475 73.298 42.5043 73.5036 42.6382 73.5354C42.772 73.5672 43.6478 73.8574 44.5844 74.18C45.521 74.5027 46.6523 74.8662 47.0983 74.9877C48.3035 75.3163 50.9873 76.5312 53.2271 77.7625C55.542 79.0349 55.7754 79.2159 55.7754 79.7385C55.7754 80.0536 55.8373 80.11 56.0941 80.0286C56.4481 79.9162 57.3972 80.5199 57.3972 80.8574C57.3972 80.9683 57.544 81.1057 57.7234 81.1626C57.9028 81.2197 58.1691 81.4982 58.3151 81.7819C58.4612 82.0654 58.7454 82.5164 58.9466 82.784C59.1479 83.0516 59.7326 84.1437 60.2459 85.2107C60.7592 86.2779 61.444 87.5606 61.7676 88.0613C62.0913 88.5621 62.8185 90.1903 63.3839 91.6796C64.1919 93.8084 64.508 94.4557 64.8626 94.7081C65.3725 95.0712 65.6281 95.1296 65.3811 94.8265C65.2903 94.7151 65.1401 94.3683 65.0473 94.0561C64.4103 91.9123 62.3146 87.1042 61.4419 85.7845C61.0058 85.1251 58.6948 80.9888 58.6948 80.8678C58.6948 80.5752 59.2029 80.8122 59.5871 81.2838L60.0163 81.8109L59.767 81.3034C59.5143 80.789 59.2236 80.5945 58.7076 80.5945C58.4807 80.5945 58.046 80.0103 58.046 79.7055C58.046 79.642 58.638 79.7192 59.3021 79.8692C59.7039 79.96 61.2362 81.3899 61.6925 82.0998C61.8519 82.3479 62.016 82.5172 62.0572 82.476C62.0983 82.435 61.9145 82.086 61.6487 81.7006C60.7724 80.4305 59.0929 79.3453 58.252 79.5061C57.962 79.5615 57.7996 79.473 57.6074 79.1548C57.4663 78.9207 57.2257 78.5456 57.0727 78.3209C56.8849 78.0454 56.8361 77.8002 56.9227 77.5665C57.1361 76.9891 56.9321 76.5283 56.5098 76.6342C56.2186 76.7073 56.0775 76.61 55.8055 76.1489C55.3988 75.4596 54.9644 74.0604 54.9644 73.4397C54.9644 72.9254 55.4192 72.6942 55.9119 72.9579C56.3184 73.1754 56.7485 74.2684 56.7485 75.0834C56.7485 75.4384 56.8215 75.7289 56.9107 75.7289C57.2584 75.7289 56.9507 74.118 56.4103 73.1081C56.3112 72.9228 56.3091 72.8095 56.4048 72.8095C56.4898 72.8095 56.596 72.9008 56.6411 73.0122C56.7037 73.1676 56.7259 73.1686 56.7357 73.0164C56.759 72.6533 55.8449 72.3044 55.3566 72.4901C55.1161 72.5816 54.8841 72.621 54.8408 72.5779C54.7977 72.5346 54.7304 71.0546 54.6911 69.289C54.6362 66.8123 54.6694 65.9861 54.8365 65.6732C55.3357 64.7382 56.924 65.3188 57.4013 66.611C57.5406 66.9881 57.9068 67.5123 58.2152 67.7758C58.5235 68.0394 58.6993 68.258 58.6055 68.2616C58.512 68.2653 58.3477 68.1806 58.2406 68.0736C58.0893 67.9223 58.046 67.9688 58.046 68.2833C58.046 68.679 59.3907 70.4519 59.9121 70.7437C60.1939 70.9013 60.2063 70.8498 60.0094 70.3437C59.9298 70.1389 59.7305 69.5333 59.5667 68.9981C59.3889 68.4178 58.9195 67.5452 58.4035 66.8364C57.4764 65.5628 56.9282 65.2107 55.6391 65.0608L54.9354 64.979L55.0055 64.3125C55.0831 63.5734 55.8592 59.6121 56.113 58.6586C56.2874 58.0037 56.6246 57.888 57.4474 58.2007C57.9474 58.391 59.0569 60.4057 59.3344 61.6274C59.5589 62.6161 60.2902 64.2135 60.5182 64.2135C60.7309 64.2135 60.502 63.2543 60.1387 62.6229C59.9689 62.3279 59.8301 61.9611 59.8301 61.8075C59.8301 61.654 59.7318 61.3845 59.6116 61.2087C59.1226 60.4928 58.0233 58.3435 58.1045 58.2622C58.2675 58.0992 59.9754 59.952 59.9517 60.2664C59.9277 60.5849 60.9994 62.4455 61.397 62.7754C62.4721 63.6679 60.7153 60.4165 59.4762 59.2209C58.4498 58.2307 58.3778 58.1879 57.1945 57.8653C56.7707 57.7497 56.4241 57.6147 56.4241 57.5653C56.4241 57.4402 57.1374 54.6538 57.5457 53.1847C57.7315 52.5157 57.9748 51.8953 58.0864 51.8061C58.198 51.7169 58.3036 51.4394 58.3209 51.1895C58.3384 50.9396 58.5686 50.2462 58.8324 49.6487C59.0963 49.0512 59.5213 48.015 59.7767 47.346L60.2412 46.1296L60.887 46.1854C61.2424 46.216 61.661 46.3552 61.8172 46.4947C62.3279 46.9502 62.9116 48.1799 62.9116 48.8002C62.9116 49.4217 63.6999 51.2075 64.1327 51.5668C64.3285 51.7291 64.37 51.7101 64.3642 51.461C64.3603 51.2941 64.2541 50.8682 64.1282 50.5148C64.0023 50.1614 63.9274 49.8443 63.9616 49.8101C63.9959 49.7759 64.2419 49.9919 64.5085 50.2903C65.1406 50.9976 65.3642 50.7545 64.8774 49.8892C64.6675 49.5162 64.3094 48.8605 64.0815 48.432C63.6556 47.6306 62.8226 46.795 62.5918 46.9377C62.5203 46.9819 62.4718 46.8912 62.4839 46.736C62.4966 46.5762 62.3926 46.4528 62.2444 46.4515C62.1004 46.4502 61.8696 46.3553 61.7317 46.241C61.5937 46.1265 61.2189 45.9902 60.8987 45.9383C60.5786 45.8863 60.3166 45.8323 60.3166 45.8183C60.3166 45.8042 60.6125 45.0291 60.9741 44.0959C61.3358 43.1628 61.7127 42.1803 61.8118 41.9127C62.0786 41.1927 62.4335 40.6963 62.6813 40.6963C63.0519 40.6963 64.0468 41.6816 64.0494 42.0512C64.0513 42.3173 64.0859 42.3456 64.1962 42.1714C64.4338 41.7962 65.1372 42.6894 65.2106 43.4593C65.2444 43.8129 65.2178 44.1022 65.1518 44.1022C65.0102 44.1022 64.692 43.5701 64.4242 42.8858C64.2818 42.5217 64.231 42.4808 64.2226 42.7236C64.2163 42.902 64.3527 43.2624 64.5254 43.5245C64.6981 43.7864 64.806 44.055 64.7651 44.1212C64.6918 44.2398 65.41 45.5497 66.0179 46.4061C66.3692 46.9009 66.8786 46.8627 66.7169 46.3537C66.6634 46.185 66.6976 46.0485 66.7933 46.0485C67.2511 46.0485 66.7967 44.9795 65.5877 43.2134C65.2595 42.7338 63.2307 40.6984 63.0764 40.6938C63.0304 40.6924 62.8954 40.6296 62.7765 40.5544C62.6017 40.4434 62.6371 40.1891 62.9629 39.2187C63.1841 38.5594 63.4605 37.7003 63.5769 37.3095C63.883 36.282 64.122 36.0997 65.0091 36.217C65.5195 36.2846 65.6742 36.2656 65.5066 36.1565C65.3728 36.0692 65.0262 35.9967 64.7362 35.9953C64.3853 35.9936 64.2091 35.9143 64.2091 35.758C64.2091 35.5528 64.6967 33.8386 65.1836 32.3321C65.272 32.0581 65.3422 31.7662 65.3394 31.6833C65.3312 31.4412 64.6128 32.9803 64.3957 33.7048C64.2865 34.0693 63.9868 34.8364 63.7294 35.4099C63.4722 35.9833 63.1492 36.8915 63.0117 37.428C62.7035 38.6308 61.7813 40.8585 61.5916 40.8585C61.5149 40.8585 61.4515 40.8038 61.4508 40.7368C61.4484 40.4554 61.9769 37.6475 62.1362 37.0957C62.3701 36.2856 62.247 35.2378 61.6256 32.7491C61.0114 30.2892 59.7791 28.1306 57.968 26.3426C56.9812 25.3685 56.6304 25.1032 54.9644 24.0707C53.9845 23.4633 53.6551 23.2998 52.4505 22.8228C52.0045 22.6464 51.433 22.399 51.1804 22.2732C50.9279 22.1475 50.5369 22.0447 50.3116 22.0447C49.9854 22.0447 49.9256 22.1026 50.0175 22.3285ZM65.7016 30.2705C65.4424 30.9459 65.313 31.4516 65.3994 31.4516C65.501 31.4516 66.0093 29.9539 65.9335 29.878C65.9011 29.8457 65.7968 30.0224 65.7016 30.2705ZM66.7231 36.9659C66.8844 37.1444 67.0531 37.2903 67.0977 37.2903C67.1423 37.2903 67.0466 37.1444 66.8852 36.9659C66.7239 36.7875 66.5552 36.6416 66.5106 36.6416C66.466 36.6416 66.5617 36.7875 66.7231 36.9659ZM67.239 38.0489C67.3173 38.7599 67.3517 38.8217 68.2041 39.7815C68.8576 40.5175 68.8826 40.5291 69.213 40.2512L69.5519 39.9664L68.9484 39.0505C68.6164 38.5468 68.0814 37.9822 67.7593 37.796L67.1738 37.4572L67.239 38.0489ZM62.5873 47.1684C62.5873 47.2895 62.7514 47.6528 62.9522 47.9756C63.298 48.5317 63.32 48.5421 63.3719 48.1749C63.4076 47.9227 63.2801 47.6407 63.007 47.3675C62.7509 47.1116 62.5873 47.0339 62.5873 47.1684ZM58.938 51.8039C59.2056 51.9296 59.5706 52.1639 59.749 52.3247C60.127 52.6656 60.8544 54.6465 60.7252 54.9832C60.6293 55.233 61.6336 57.4564 61.9229 57.6353C62.242 57.8324 62.1202 56.6593 61.7763 56.222C61.5979 55.9953 61.4519 55.721 61.4519 55.6127C61.4519 55.2502 61.9518 55.8063 62.2133 56.4598C62.4658 57.0909 62.9124 57.3046 62.9105 56.7934C62.91 56.6374 62.7645 56.2906 62.5873 56.023C62.41 55.7554 62.2645 55.41 62.264 55.2552C62.2634 55.1005 62.0425 54.7356 61.7731 54.4443C61.5037 54.153 61.2933 53.9876 61.3056 54.0768C61.4524 55.1357 61.0543 54.8864 60.6175 53.6458C60.2342 52.5579 60.2433 52.5134 60.7271 53.1036C60.9464 53.3713 61.1263 53.5017 61.1268 53.3933C61.1281 53.0785 59.2006 51.5622 58.808 51.5692C58.499 51.5747 58.5163 51.606 58.938 51.8039ZM57.5377 66.5652C57.8029 67.3027 58.0956 67.498 58.2669 67.0518C58.3181 66.918 58.2914 66.8085 58.2072 66.8085C58.1232 66.8085 57.9411 66.5896 57.8027 66.322C57.419 65.5798 57.2419 65.7423 57.5377 66.5652ZM60.4042 82.4968C60.6683 82.8739 60.944 83.1842 61.017 83.1861C61.1847 83.1905 60.5885 82.3447 60.2091 82.0398C60.0524 81.9139 60.1402 82.1196 60.4042 82.4968Z" fill="#3378B7"/>
</svg>
