<svg width="106" height="106" viewBox="0 0 106 106" fill="none" xmlns="http://www.w3.org/2000/svg">
<circle cx="53" cy="53" r="51.8478" stroke="#3378B7" stroke-width="2.30435"/>
<path fill-rule="evenodd" clip-rule="evenodd" d="M84.8464 21.2312C83.4553 23.9665 79.9134 27.3353 76.3556 29.3077C69.6014 33.0515 67.7263 34.8845 65.0052 40.4057C63.9554 42.5352 62.2179 45.522 61.1437 47.043C58.5058 50.7783 55.6854 56.6516 55.0276 59.7793C54.5472 62.0618 54.5512 62.6886 55.0636 65.4457C55.7664 69.2271 55.5889 70.5874 53.7498 75.5182C51.9435 80.3601 51.2651 84.1958 51.9579 85.6483C52.5248 86.8367 53.7524 87.1634 54.5704 86.3441C55.0386 85.875 55.0622 85.5203 54.7117 84.2039C53.6939 80.3823 54.8678 74.974 57.2303 72.6C58.4731 71.3515 58.6829 71.2807 62.833 70.711C66.0422 70.2707 70.034 68.5269 69.8124 67.6618C69.7023 67.233 69.935 67.0778 70.6874 67.0778C72.1668 67.0778 73.5303 66.0398 74.2566 64.3609C74.9004 62.8723 75.2299 62.6105 75.6344 63.2661C75.8141 63.5567 78.7645 60.6208 78.7645 60.1517C78.7645 60.0853 78.4748 60.054 78.1203 60.082C77.6635 60.1185 77.4654 59.8479 77.4393 59.1521C77.4153 58.5093 77.5611 58.2317 77.8622 58.3475C78.1151 58.4448 78.4313 58.3471 78.565 58.1303C78.6986 57.9138 79.2066 57.7365 79.6936 57.7365C80.2233 57.7365 80.7493 57.4175 81.003 56.9429C81.3641 56.2674 81.3387 56.1837 80.8318 56.3784C80.5045 56.5041 80.2369 56.4831 80.2369 56.3319C80.2369 55.9105 81.6192 54.8194 81.8544 55.055C82.1717 55.3728 85.0761 48.8214 84.8637 48.2669C84.7614 47.9995 84.8332 47.7805 85.0235 47.7805C85.4704 47.7805 86.3553 44.7151 87.0499 40.76C88.0026 35.3377 87.5774 25.2335 86.1897 20.3093L85.8779 19.2031L84.8464 21.2312ZM17.9002 32.1647C17.4769 34.7322 17.6477 41.725 18.2135 44.9747C19.2854 51.1323 21.6535 56.3758 25.6467 61.4346C30.3398 67.3798 36.1718 70.6261 42.1797 70.6379C45.058 70.6435 46.102 71.4219 47.5637 74.6513C48.463 76.6373 48.6327 77.4585 48.5609 79.4674C48.4424 82.7691 48.4542 82.8108 49.5114 82.8108C51.6277 82.8108 51.2776 79.453 48.5473 73.5621C46.8905 69.9875 46.7388 69.4288 46.7388 66.9063C46.7388 65.2562 46.5617 63.9752 46.2971 63.7101C45.9536 63.366 45.9536 63.2676 46.2971 63.2676C47.1378 63.2676 46.7318 61.5802 45.0981 58.2826C43.0798 54.2091 40.3712 50.6541 39.5315 50.9771C39.1042 51.1412 38.9757 51.0132 39.0592 50.5055C39.1226 50.1224 39.0442 49.6013 38.8855 49.3476C38.4327 48.6245 37.536 48.8082 37.536 49.6242C37.536 50.0298 37.3704 50.3617 37.1679 50.3617C36.6463 50.3617 36.732 49.5604 37.3398 48.7569C37.786 48.1666 37.7756 47.9044 37.264 46.8291C36.8035 45.8619 36.5623 45.675 36.1832 45.9902C35.6627 46.4232 35.5747 46.2369 35.6807 44.9242C35.8055 43.3785 32.4078 40.5989 27.4586 38.1977C23.099 36.0829 21.0689 34.5766 19.0804 31.9803L18.1343 30.7451L17.9002 32.1647ZM82.2947 42.4806C81.9578 43.3593 82.023 43.4559 82.8137 43.2487C83.4936 43.0706 83.7575 43.5123 83.5934 44.554C83.5694 44.7059 83.7266 44.8306 83.9427 44.8306C84.4916 44.8306 83.9799 43.3176 83.1693 42.5425C82.5899 41.9883 82.4861 41.9809 82.2947 42.4806ZM84.8383 45.568C84.7132 45.7709 84.7864 45.9368 85.0007 45.9368C85.2149 45.9368 85.3905 45.7709 85.3905 45.568C85.3905 45.3652 85.3176 45.1993 85.2281 45.1993C85.1387 45.1993 84.9635 45.3652 84.8383 45.568ZM76.1877 46.6743C76.1877 46.8771 76.3533 47.043 76.5558 47.043C76.7583 47.043 76.9239 46.8771 76.9239 46.6743C76.9239 46.4715 76.7583 46.3055 76.5558 46.3055C76.3533 46.3055 76.1877 46.4715 76.1877 46.6743ZM34.7752 47.7805C34.65 47.9833 34.7233 48.1492 34.9375 48.1492C35.1517 48.1492 35.3273 47.9833 35.3273 47.7805C35.3273 47.5777 35.2544 47.4117 35.165 47.4117C35.0755 47.4117 34.9003 47.5777 34.7752 47.7805ZM83.3964 47.7311C83.2378 47.9881 83.2076 48.2978 83.3291 48.4195C83.6585 48.7495 84.0178 48.2643 83.8396 47.7296C83.7152 47.355 83.6283 47.355 83.3964 47.7311ZM78.5999 48.1179C78.4814 48.31 78.5414 48.5641 78.7332 48.6828C78.925 48.8015 79.1786 48.7414 79.2971 48.5493C79.4157 48.3572 79.3557 48.1031 79.1639 47.9844C78.9721 47.8657 78.7185 47.9258 78.5999 48.1179ZM40.3543 53.1438C40.4662 53.4366 40.7062 53.5845 40.8877 53.472C41.3441 53.1895 41.3021 53.0546 40.6837 52.8167C40.3278 52.6799 40.2181 52.7887 40.3543 53.1438ZM72.3616 53.0962C72.4849 53.4174 72.747 53.6803 72.9446 53.6803C73.4287 53.6803 73.1257 52.8422 72.5754 52.6585C72.3063 52.5686 72.2242 52.7375 72.3616 53.0962ZM39.7447 54.5804C39.7447 54.8964 39.9103 55.1553 40.1128 55.1553C40.3152 55.1553 40.4809 54.9993 40.4809 54.8083C40.4809 54.6173 40.3152 54.3588 40.1128 54.2334C39.9103 54.1081 39.7447 54.2644 39.7447 54.5804ZM73.6691 55.8928C73.6691 56.3998 73.7526 56.6074 73.8546 56.3537C73.9569 56.1004 73.9569 55.6855 73.8546 55.4318C73.7526 55.1785 73.6691 55.3857 73.6691 55.8928ZM37.536 55.8928C37.536 56.0956 37.7017 56.2615 37.9041 56.2615C38.1066 56.2615 38.2722 56.0956 38.2722 55.8928C38.2722 55.69 38.1066 55.524 37.9041 55.524C37.7017 55.524 37.536 55.69 37.536 55.8928ZM73.979 58.8427C73.979 59.2483 74.0427 59.5802 74.12 59.5802C74.1977 59.5802 74.3479 59.2483 74.4539 58.8427C74.5595 58.4371 74.4962 58.1052 74.3125 58.1052C74.1292 58.1052 73.979 58.4371 73.979 58.8427ZM38.1427 59.648C37.8301 60.8162 37.8478 61.0551 38.2476 61.0551C38.76 61.0551 39.1354 59.5599 38.7261 59.1498C38.4979 58.9212 38.2892 59.099 38.1427 59.648ZM40.849 59.5352C40.849 59.985 41.0839 60.3176 41.4012 60.3176C41.7049 60.3176 41.9533 60.172 41.9533 59.9939C41.9533 59.8162 41.7049 59.464 41.4012 59.2114C40.9399 58.8279 40.849 58.881 40.849 59.5352ZM70.9001 59.3936C71.0165 59.6967 71.2624 59.8512 71.4468 59.7369C71.8329 59.4979 71.523 58.8427 71.0238 58.8427C70.8398 58.8427 70.7842 59.0905 70.9001 59.3936ZM73.2428 59.9489C73.2428 60.1517 73.4184 60.3176 73.6326 60.3176C73.8469 60.3176 73.9201 60.1517 73.795 59.9489C73.6698 59.7461 73.4946 59.5802 73.4051 59.5802C73.3157 59.5802 73.2428 59.7461 73.2428 59.9489ZM69.1435 61.2963C68.9749 62.3841 69.0184 62.4383 69.8146 62.1352C70.5622 61.8505 70.666 61.922 70.666 62.7237C70.666 63.2255 70.8317 63.6363 71.0341 63.6363C71.2366 63.6363 71.4045 63.5117 71.4074 63.3598C71.41 63.2078 71.5064 62.7318 71.6216 62.3022C71.7884 61.6798 71.6378 61.4843 70.8803 61.3394C70.3292 61.234 69.9143 61.3295 69.893 61.5673C69.8727 61.7926 69.7365 61.5621 69.59 61.0551C69.3298 60.1532 69.3202 60.1587 69.1435 61.2963ZM75.4515 60.9511C75.4515 61.1779 75.3451 61.6676 75.2151 62.0389C74.9902 62.6824 75.0112 62.6839 75.6595 62.0717C76.191 61.5699 76.2429 61.3317 75.8958 60.984C75.5877 60.6753 75.4515 60.6654 75.4515 60.9511ZM67.7211 62.5301C67.7211 62.7329 67.8868 62.8988 68.0892 62.8988C68.2917 62.8988 68.4574 62.7329 68.4574 62.5301C68.4574 62.3273 68.2917 62.1613 68.0892 62.1613C67.8868 62.1613 67.7211 62.3273 67.7211 62.5301ZM44.5592 64.5888C44.5769 65.0183 44.6641 65.1057 44.7815 64.8119C44.8879 64.5456 44.8747 64.2274 44.7525 64.105C44.6303 63.9826 44.5434 64.2001 44.5592 64.5888ZM70.4106 65.3491C70.1345 66.0704 70.8302 66.7433 71.5616 66.4623C72.3869 66.1452 72.2739 65.2326 71.3798 64.9984C70.9046 64.8742 70.5423 65.0051 70.4106 65.3491ZM42.5055 65.48C42.6307 65.6828 42.8059 65.8487 42.8953 65.8487C42.9848 65.8487 43.0577 65.6828 43.0577 65.48C43.0577 65.2772 42.8821 65.1113 42.6678 65.1113C42.4536 65.1113 42.3804 65.2772 42.5055 65.48ZM60.727 65.48C61.4478 65.9468 61.9352 65.9468 61.6473 65.48C61.5221 65.2772 61.1397 65.1138 60.7973 65.1168C60.261 65.122 60.2511 65.1721 60.727 65.48ZM59.3466 68.2456C59.3466 68.7452 59.4916 69.0642 59.6687 68.9546C59.8458 68.8448 59.9908 68.5258 59.9908 68.2456C59.9908 67.9653 59.8458 67.6464 59.6687 67.5365C59.4916 67.427 59.3466 67.7459 59.3466 68.2456ZM62.4141 69.4867C62.2554 69.7437 62.2252 70.0535 62.3467 70.1752C62.6762 70.5052 63.0355 70.0199 62.8573 69.4853C62.7329 69.1106 62.646 69.1106 62.4141 69.4867Z" fill="#3378B7"/>
</svg>
