<svg width="106" height="106" viewBox="0 0 106 106" fill="none" xmlns="http://www.w3.org/2000/svg">
<circle cx="53" cy="53" r="51.8478" stroke="#3378B7" stroke-width="2.30435"/>
<path fill-rule="evenodd" clip-rule="evenodd" d="M52.8938 14.744C52.4468 14.8544 51.8484 14.9933 51.5639 15.0528C49.8269 15.4168 49.0284 15.7536 48.1291 16.5019C46.6292 17.7502 43.819 20.7367 43.0938 21.8532C42.1877 23.2482 42.0252 24.7071 42.4834 27.3345C42.6926 28.5347 42.7798 28.7373 43.4933 29.6834C43.9227 30.2529 44.4317 30.9515 44.6243 31.2359C44.8168 31.5203 45.2202 32.0523 45.5206 32.418C45.857 32.8276 46.1029 33.3099 46.1607 33.6739C46.2439 34.1969 46.1765 34.3959 45.5773 35.3995C45.2047 36.0233 44.7741 36.8918 44.6203 37.3295C44.2593 38.3564 43.911 40.5386 43.7195 42.972C43.636 44.0344 43.4717 45.279 43.3546 45.7376C43.2375 46.1964 43.1416 46.8878 43.1416 47.2742C43.1416 47.6606 42.9793 48.9143 42.7808 50.0603C42.2939 52.8726 42.1509 54.0326 41.8953 57.2416C41.6744 60.0168 41.2948 62.6682 40.7676 65.1207C40.6073 65.8665 40.4397 67.1747 40.3955 68.0281C40.3082 69.7088 40.113 70.8318 39.8005 71.4497C39.6915 71.6656 39.4977 72.663 39.3704 73.6661C39.2429 74.6693 39.0765 75.6894 39.0005 75.9332C38.9246 76.177 38.761 77.1079 38.6369 78.0018C38.5129 78.8958 38.3183 79.9596 38.2045 80.366C38.0908 80.7723 37.8759 81.9251 37.727 82.9278L37.4563 84.7509L37.2069 83.9106C36.697 82.193 36.5984 81.147 36.6767 78.2815C36.7631 75.1205 37.0504 73.4201 38.5704 67.0676C38.8039 66.0924 39.035 64.9288 39.0842 64.4818C39.2143 63.2983 39.5314 62.0524 40.0343 60.7482C40.2776 60.117 40.486 59.2859 40.4973 58.9012C40.5189 58.1652 40.1279 56.0591 39.8856 55.6062C39.6984 55.2566 39.7033 52.4676 39.8937 50.8841C39.9766 50.1954 40.1928 49.0003 40.374 48.2283C40.6764 46.9401 40.7002 46.5193 40.6625 43.1142L40.6214 39.4038L41.2961 37.5732C41.9083 35.9118 42.045 35.0652 41.6982 35.0833C41.5791 35.0895 40.8192 36.1186 40.5027 36.702C40.2256 37.2131 38.6419 38.8303 37.7484 39.5147C36.3351 40.5972 33.9724 42.8715 33.3747 43.7247C32.7892 44.5607 32.1216 45.7963 31.4759 47.2393C31.3011 47.63 30.9955 48.6274 30.7968 49.4557C30.598 50.284 30.3359 51.3275 30.2141 51.7745C29.4745 54.4921 29.201 57.4084 29.1884 62.7087C29.1801 66.1889 29.2259 67.1892 29.4527 68.4713C30.0571 71.8878 31.6524 75.8317 33.7172 79.014C35.0638 81.0891 35.6106 82.2307 36.2695 84.3413C36.7386 85.8442 36.8104 86.2737 36.8344 87.7212C36.8494 88.6331 36.8061 89.662 36.738 90.0073C36.6178 90.6178 36.625 90.6353 37.0012 90.6353C37.2141 90.6353 37.4106 90.5522 37.438 90.4506C37.4652 90.3491 37.6032 89.9002 37.7444 89.4532C37.8857 89.0062 38.1852 88.0322 38.4099 87.2887C38.6718 86.4228 38.9905 85.723 39.2963 85.3425C39.9124 84.576 41.8727 83.0248 43.4522 82.0541C44.1347 81.6346 44.8593 81.1407 45.0625 80.9564C45.2657 80.7722 45.6646 80.5052 45.9491 80.3632C46.2335 80.2212 47.0802 79.665 47.8305 79.1273C50.1298 77.4795 50.9107 77.0417 52.2342 76.658C52.9344 76.4551 53.8581 76.1339 54.2867 75.9443C55.1684 75.5543 56.4712 75.2171 57.9915 74.9856C60.0675 74.6693 62.3408 74.3817 62.7647 74.3817C63.5935 74.3817 66.0596 73.6544 67.4267 73.007C68.9131 72.3027 70.5014 70.9707 71.2891 69.7673C71.5164 69.4202 71.9525 68.7657 72.2584 68.3126C72.8763 67.398 73.5252 66.0441 74.2006 64.2602C74.5969 63.2136 74.6614 62.8157 74.7643 60.7878C74.8282 59.5282 74.9618 58.2981 75.0614 58.0543C75.2649 57.5554 75.5554 49.6326 75.5084 45.8641C75.4833 43.8525 75.5261 43.3807 75.8598 41.9866C76.3449 39.9604 76.3451 39.0642 75.8608 37.7809C74.8736 35.165 74.6829 33.5872 75.1972 32.2879C75.3702 31.8507 75.488 31.4691 75.4587 31.44C75.4296 31.4107 74.8786 31.7296 74.2343 32.1485C73.59 32.5674 72.6222 33.1927 72.0835 33.5381C71.4261 33.9597 70.7461 34.5955 70.0159 35.4716C67.7773 38.1573 65.3803 40.6395 64.0195 41.6813C62.5601 42.7985 59.002 44.7555 57.6221 45.1999C56.7054 45.4952 55.7133 45.9667 54.5191 46.6749C54.0722 46.9399 53.3446 47.2745 52.9022 47.4184C52.4598 47.5622 51.8116 47.8615 51.4615 48.0835C51.1116 48.3054 50.2713 48.7024 49.5943 48.9659C46.3714 50.2195 44.5504 53.4876 43.5153 59.8757C42.8816 63.7866 42.8613 63.9296 42.7727 65.1467C42.5866 67.7015 42.1697 70.2081 41.5733 72.3562C41.375 73.0708 40.9502 74.8328 40.6293 76.2719C40.3083 77.711 39.9095 79.3538 39.743 79.9227C39.5765 80.4916 39.2397 81.7549 38.9945 82.7301C38.4447 84.9167 38.2728 85.4637 38.1358 85.4637C38.0061 85.4637 38.2 83.2559 38.402 82.4346C38.6364 81.481 39.1252 78.8084 39.2263 77.9279C39.2776 77.481 39.4478 76.4836 39.6049 75.7116C39.7618 74.9395 39.9839 73.7427 40.0984 73.0519C40.2129 72.3611 40.4446 71.32 40.6132 70.7381C40.7967 70.1045 40.951 69.0377 40.9978 68.0778C41.0826 66.3381 41.0799 66.3573 41.507 64.4079C41.9517 62.377 42.3798 59.1904 42.5493 56.6506C42.7232 54.0428 42.7148 54.1188 43.2324 50.4447C43.4441 48.9412 43.6354 47.4119 43.6576 47.0462C43.6798 46.6805 43.8327 45.7163 43.9978 44.9037C44.1627 44.091 44.3407 42.9606 44.3935 42.3918C44.5341 40.8734 45.1594 37.7364 45.5062 36.8095C45.6719 36.3667 45.9463 35.879 46.1159 35.7257C46.2855 35.5725 46.5867 35.1269 46.7852 34.7354C46.9837 34.3439 47.1926 34.0481 47.2495 34.0781C47.3062 34.1079 47.6852 34.2867 48.0916 34.4752C48.9925 34.8934 49.8755 35.5249 50.796 36.4094C52.1096 37.6714 55.7371 39.21 57.4004 39.2108C59.2457 39.2115 63.1334 37.8651 64.8042 36.6467C65.9167 35.8357 67.2327 34.3232 67.7766 33.2307C67.9385 32.9056 68.2426 32.3404 68.4524 31.9747C69.2754 30.5402 69.7911 27.3683 69.4395 25.9024C69.1883 24.855 67.8216 21.8569 66.8593 20.242C65.3431 17.6973 63.5338 16.5053 59.3213 15.2759C57.5436 14.7572 57.0033 14.6632 55.4796 14.6079C54.2812 14.5645 53.443 14.6085 52.8938 14.744Z" fill="#3378B7"/>
</svg>
