<svg width="289" height="360" viewBox="0 0 289 360" fill="none" xmlns="http://www.w3.org/2000/svg">
<path fill-rule="evenodd" clip-rule="evenodd" d="M109.427 1.7746C101.507 4.51859 94.8025 9.47945 87.0623 18.3237C75.1967 31.8812 74.6862 34.8283 82.8665 42.5341C85.9911 45.4783 89.2074 49.2021 90.0132 50.8086C92.5405 55.8459 93.6647 64.3642 92.5125 69.7458C91.0689 76.4941 91.6363 77.3878 97.3617 77.3878C102.739 77.3878 104.594 75.9224 100.967 74.5393C99.6535 74.0393 98.2726 72.662 97.8982 71.48C96.9892 68.6112 96.6128 57.1101 97.4118 56.6158C97.7592 56.4001 102.33 59.444 107.57 63.3796C112.81 67.3142 119.625 71.8843 122.713 73.5344C126.591 75.6062 128.328 77.1131 128.328 78.4053C128.328 80.7518 121.154 86.0927 118.003 86.0927C115.031 86.0927 110.392 83.694 109.659 81.776C109.345 80.9587 108.424 80.2894 107.611 80.2894C104.816 80.2894 106.082 84.4088 110.034 88.1771C115.178 93.0818 118.742 93.166 124.574 88.5205C129.602 84.5133 131.476 84.3237 134.644 87.5C137.749 90.6106 137.599 93.4668 134.091 98.1133C132.514 100.203 131.223 102.267 131.223 102.699C131.223 103.131 133.414 102.134 136.091 100.483C146.877 93.8305 154.51 92.5431 166.928 95.2813C178.532 97.8396 182.925 96.8143 182.201 91.7161C181.678 88.0349 177.634 86.8752 165.712 86.9893C154.951 87.0909 149.045 88.1645 144.945 90.7634C143.734 91.5304 142.615 91.9899 142.458 91.7848C140.658 89.4287 137.978 84.0703 137.978 82.8264C137.978 81.1822 138.607 81.1783 153.227 82.7278C158.813 83.3197 157.668 82.0014 150.312 79.3686C137.891 74.9252 119.089 64.7424 105.85 55.2907C90.6491 44.4386 85.1545 39.5551 84.2985 36.1379C83.0093 30.9884 96.4314 16.1001 107.098 10.8461C117.116 5.91139 136.102 7.15136 149.273 13.5998C158.647 18.1892 166.605 24.6299 167.95 28.7174C170.888 37.638 166.772 51.2768 158.702 59.3656C156.373 61.6995 154.738 63.8806 155.069 64.2114C155.399 64.5431 157.036 64.814 158.706 64.814C162.702 64.814 166.662 60.6636 168.73 54.3071C172.227 43.5555 173.964 50.3328 170.761 62.2305C168.251 71.5516 168.58 77.3887 171.809 80.833C174.669 83.8846 175.809 83.8343 174.624 80.7102C173.04 76.5357 173.505 68.5049 175.52 65.1912C177.99 61.1318 179.811 51.8416 179.059 47.1313C178.722 45.0189 177.374 41.4576 176.065 39.2166C173.253 34.4085 173.141 33.1656 175.299 30.7747C176.821 29.0888 176.75 28.7493 174.054 24.8959C170.802 20.2475 155.796 9.05581 147.146 4.8281C137.153 -0.0563461 118.961 -1.52845 109.427 1.7746ZM99.3785 37.2705C99.3785 38.8983 107.899 44.0033 113.344 45.6379C119.148 47.3808 130.299 48.1266 138.336 47.3102C146.916 46.4388 157.703 43.3079 160.167 40.974C161.412 39.7949 160.623 39.7118 154.377 40.3627C150.4 40.7776 140.198 41.0775 131.706 41.0281C117.224 40.945 112.912 40.3917 101.55 37.1573C100.355 36.8169 99.3785 36.8681 99.3785 37.2705ZM25.3508 95.3335C19.8436 99.685 18.0545 103.127 17.6646 110.123C17.2892 116.863 16.028 119.557 14.428 117.036C13.2363 115.159 10.9039 108.641 10.1029 104.953L9.47279 102.052L7.1404 104.766C3.67607 108.797 4.01381 113.51 8.18645 119.393C10.4561 122.593 11.5639 125.236 11.5639 127.45C11.5639 131.856 10.0248 131.203 5.63983 124.939C3.00539 121.176 1.98153 120.308 1.5386 121.464C0.419207 124.388 0.954779 128.739 2.906 132.571C4.95179 136.591 4.62562 138.567 1.48456 141.181C-0.180054 142.565 -0.565088 148.508 0.94899 149.445C1.47974 149.774 1.91398 151.074 1.91398 152.336C1.91398 153.596 2.50939 155.224 3.23603 155.952C3.96364 156.681 5.26155 158.64 6.1204 160.305C6.98021 161.971 8.44796 163.544 9.38208 163.801C11.7984 164.465 22.5591 163.946 23.9274 163.099C25.8652 161.898 25.2051 160.713 22.4201 160.39C18.9384 159.989 18.7068 156.554 22.1075 155.75C23.3948 155.445 24.6165 154.689 24.823 154.07C25.346 152.497 20.0192 149.932 16.1959 149.915C14.4444 149.906 12.3601 149.462 11.5639 148.927C9.36954 147.454 13.7902 144.126 17.9435 144.126C19.7423 144.126 21.2139 143.691 21.2139 143.159C21.2139 142.627 20.0202 142.185 18.5601 142.177C15.2647 142.158 13.0307 140.824 13.9098 139.398C14.8411 137.887 17.793 138.057 23.8551 139.973C30.0253 141.922 31.2875 143.794 30.5039 149.828C29.287 159.192 29.2764 159.097 31.5857 159.426C33.1895 159.654 34.0078 159.07 34.7219 157.187C35.8384 154.246 36.0005 143.183 34.9506 141.618C33.8621 139.996 22.2599 136.388 18.1317 136.388C14.8835 136.388 14.4589 136.115 14.4589 134.033C14.4589 132.738 14.8826 130.562 15.3998 129.197C16.2384 126.986 16.8714 126.716 21.212 126.716C25.5766 126.716 26.53 126.302 30.4006 122.726C33.0467 120.281 35.1561 117.274 35.848 114.957C37.8321 108.32 35.7322 108.612 27.9939 116.052C24.1069 119.79 20.5567 122.847 20.1051 122.847C17.517 122.847 21.3857 112.862 25.7706 108.223C29.2166 104.577 31.1707 98.8039 30.2318 95.0395C29.5505 92.3032 29.1568 92.3274 25.3508 95.3335ZM158.726 101.145C157.664 101.319 154.19 101.766 151.006 102.137L145.216 102.812L149.831 104.033C152.369 104.704 155.094 105.792 155.887 106.451C157.155 107.506 157.122 107.878 155.614 109.566C154.07 111.294 153.045 111.429 145.216 110.942C140.439 110.646 135.26 110.656 133.706 110.967C128.365 112.034 123.454 118.468 117.791 131.819C110.397 149.246 104.122 159.474 94.734 169.396C85.8695 178.766 85.7875 179.165 91.6807 184.136C99.2617 190.529 115.066 190.204 131.465 183.316C133.976 182.261 133.511 184.126 130.512 187.132C124.11 193.549 113.152 196.385 101.395 194.667C87.8178 192.684 81.0436 187.673 81.0436 179.614C81.0436 177.713 80.6132 175.891 80.0863 175.565C78.8772 174.817 74.2886 179.335 74.2886 181.276C74.2886 182.189 73.0361 182.923 70.9111 183.255C69.0535 183.545 65.9057 184.029 63.9149 184.333C50.6762 186.348 38.1428 195.349 31.7449 207.437C30.4663 209.854 28.8866 211.831 28.2342 211.831C27.5819 211.831 26.3245 212.938 25.4386 214.293C24.0992 216.342 24.0114 217.362 24.9108 220.372C26.0562 224.205 30.7992 229.751 33.7279 230.682C35.4061 231.216 36.18 234.035 37.1826 243.266C38.1042 251.748 41.6834 269.52 43.0508 272.41C45.1342 276.808 52.1198 282.75 59.585 286.473C65.0961 289.221 66.2039 289.438 72.1299 288.933C84.1055 287.912 103.273 280.298 104.047 276.254C104.324 274.808 103.972 274.536 102.371 274.955C100.002 275.575 100.003 275.58 101.473 270.662C102.256 268.044 103.025 267.045 103.976 267.41C104.73 267.7 106.393 268.2 107.671 268.523C108.948 268.844 109.993 269.535 109.993 270.058C109.993 270.582 110.808 272.048 111.804 273.316C113.368 275.309 113.55 276.842 113.149 284.592C112.752 292.239 112.307 294.119 110.132 297.349C106.905 302.141 106.977 307.242 110.409 317.185C112.55 323.386 112.888 325.996 112.888 336.288V348.209L109.27 348.213C107.256 348.214 104.153 349.141 102.273 350.303C99.8948 351.772 97.6019 352.324 94.5197 352.172C91.2812 352.013 89.4612 352.493 87.5235 354.022C84.4751 356.425 83.9511 358.46 86.7699 356.947C89.6909 355.381 93.548 355.764 97.1156 357.974L100.388 360L104.229 356.523C109.149 352.066 113.219 351.93 120.543 355.975L125.786 358.872L128.431 356.331C130.271 354.564 132.494 353.634 135.734 353.275C139.52 352.856 140.94 352.128 143.327 349.379C145.93 346.383 147.233 345.805 154.782 344.304C159.812 343.303 165.524 342.801 168.733 343.077L174.166 343.543L176.843 337.681C179.862 331.07 184.536 327.532 191.793 326.37L195.911 325.71L195.306 321.136C194.587 315.708 195.548 313.56 200.089 310.442C202.078 309.075 203.655 307.058 203.97 305.475C204.263 304.01 205.342 301.969 206.366 300.942C207.798 299.507 207.972 298.782 207.12 297.815C206.212 296.785 206.307 296.78 207.637 297.786C208.88 298.724 209.749 298.755 211.314 297.915C212.441 297.311 216.014 296.519 219.252 296.156C224.868 295.526 225.193 295.343 226.237 292.229C228.105 286.661 231.057 285.041 238.338 285.59C241.788 285.851 247.216 286.973 250.4 288.084L256.19 290.103L252.33 286.634C242.507 277.804 231.801 277.124 225.582 284.934C224.649 286.107 222.309 287.276 220.229 287.61C217.66 288.021 215.616 289.239 213.525 291.608C211.672 293.704 209.964 294.802 209.08 294.461C208.291 294.158 205.883 294.811 203.73 295.911C198.832 298.416 198.773 298.412 198.773 295.56C198.773 294.057 198.076 292.986 196.843 292.594C194.368 291.806 194.373 290.477 196.854 289.689C201.085 288.343 203.293 278.908 199.953 276.448C197.594 274.709 197.613 267.725 199.979 266.752C201.92 265.954 202.258 262.509 200.462 261.833C199.758 261.569 200.261 260.985 201.666 260.434C203.71 259.632 204.094 258.826 204.193 255.141L204.31 250.794L201.3 252.148C199.645 252.892 197.038 254.151 195.506 254.943C193.975 255.735 192.543 256.204 192.324 255.984C191.578 255.237 195.045 252.454 196.722 252.454C199.322 252.454 204.672 246.458 203.61 244.736C203.071 243.861 203.103 243.089 203.695 242.722C205.439 241.642 205.705 226.521 204.041 223.008C203.223 221.279 202.462 217.766 202.351 215.203C202.241 212.639 201.716 210.398 201.185 210.223C199.606 209.701 193.78 213.717 193.268 215.681C193.006 216.682 192.076 217.505 191.2 217.511C190.323 217.517 186.566 218.604 182.851 219.928C169.592 224.648 156.043 225.108 139.695 221.392C133.789 220.049 131.947 220.667 135.295 222.865C138.984 225.288 147.592 227.345 155.611 227.721C159.405 227.898 162.648 228.462 162.818 228.972C163.317 230.474 156.053 240.649 147.571 250.328C143.235 255.276 139.933 259.572 140.234 259.875C141.462 261.105 146.062 258.928 150.079 255.216C152.427 253.048 156.822 247.622 159.847 243.159C162.871 238.695 165.703 235.044 166.137 235.044C167.542 235.044 166.979 247.129 165.05 258.403C164.017 264.441 161.429 274.972 159.298 281.807C154.552 297.028 151.547 314.465 151.393 327.685C151.279 337.406 151.218 337.659 148.726 338.951C147.323 339.678 145.309 341.232 144.251 342.405C141.121 345.872 137.753 347.157 133.353 346.565C129.76 346.083 129.037 346.345 126.514 349.051C123.454 352.335 121.867 352.737 119.347 350.868C117.968 349.845 117.664 347.355 117.372 334.668C117.111 323.381 116.535 317.882 115.04 312.422C113.536 306.922 113.327 304.906 114.179 304.087C114.795 303.492 118.28 302.278 121.921 301.39C130.321 299.338 136.484 296.2 141.252 291.546C148.788 284.191 156.298 269.824 157.778 259.929C158.578 254.581 156.85 253.524 155.175 258.338C151.133 269.962 141.566 285.617 135.662 290.272C131.171 293.813 124.52 296.203 121 295.542C116.907 294.773 116.45 293.184 116.895 281.269C117.202 273.051 117.489 271.91 120.247 267.93C121.906 265.536 123.969 261.495 124.831 258.949C126.766 253.237 126.867 241.911 125.024 237.488C123.952 234.917 123.882 233.433 124.703 230.75C125.283 228.857 125.478 227.028 125.136 226.686C124.253 225.801 121.573 228.236 121.573 229.924C121.573 233.179 118.801 229.911 113.136 219.978C109.823 214.167 107.109 209.156 107.105 208.84C107.101 208.526 108.944 207.721 111.2 207.054C117.698 205.129 128.052 199.318 133.12 194.751C138.558 189.85 143.483 182.551 144.378 178.065L145.009 174.905L140.288 177.3C128.989 183.035 116.33 184.561 111.518 180.769C109.856 179.458 109.029 177.98 109.218 176.658C109.488 174.759 109.994 174.62 115.555 174.929C126.572 175.54 140.104 170.92 147.904 163.884C153.722 158.636 158.343 156.16 160.655 157.049C162.445 157.737 162.215 158.236 156.033 167.084C153.06 171.337 151.43 177.978 153.359 177.978C155.401 177.978 162.684 172.404 167.159 167.415C172.211 161.782 178.317 150.389 181.453 140.741C182.663 137.017 184.068 133.426 184.576 132.761C185.961 130.947 188.923 131.305 190.054 133.423C191.499 136.129 191.28 144.311 189.66 148.2C186.491 155.8 163.859 185.304 156.075 191.984C151.684 195.75 151.923 197.735 156.454 195.128C158.388 194.016 161.451 193.454 165.58 193.454C170.392 193.454 173.744 192.691 180.438 190.069C190.69 186.053 196.034 185.682 198.235 188.833C203.793 196.785 194.769 201.529 171.024 203.139C158.099 204.016 151.576 205.472 150.14 207.802C148.292 210.797 171.359 210.255 182.973 207.03C197.462 203.006 197.769 202.985 200.416 205.848L202.791 208.416L201.988 194.407C201.546 186.701 201.185 176.55 201.185 171.849C201.185 163.504 201.254 163.248 204.08 161.022C210.133 156.255 211.318 154.799 211.308 152.14C211.296 148.355 207.044 139.609 202.705 134.439C199.69 130.846 199.122 129.516 199.501 126.934C199.752 125.209 199.532 123.256 199.009 122.596C198.487 121.936 197.774 119.808 197.426 117.867C196.39 112.099 193.555 109.306 188.739 109.306C185.623 109.306 184.095 108.731 182.398 106.92C178.926 103.215 165.721 99.9936 158.726 101.145ZM160.842 110.941C158.76 111.493 157.278 115.004 157.278 119.38C157.278 124.046 162.264 130.61 165.728 130.503C170.402 130.356 183.816 125.397 183.816 123.814C183.816 122.632 182.207 122.363 175.131 122.363C167.089 122.363 166.446 122.22 166.446 120.429C166.446 118.721 167.068 118.502 171.753 118.558C174.672 118.594 178.146 118.812 179.473 119.042C181.361 119.371 181.886 119.054 181.886 117.587C181.886 114.336 166.432 109.455 160.842 110.941ZM185.339 116.318C184.782 117.782 184.927 118.969 185.781 119.945C186.479 120.743 187.191 123.137 187.363 125.265C187.64 128.697 187.982 129.169 190.387 129.445C191.879 129.617 193.725 129.237 194.488 128.602C196.521 126.912 196.205 123.718 193.948 123.127C192.502 122.748 192.018 121.808 192.018 119.383C192.018 117.171 191.426 115.827 190.152 115.143C187.356 113.644 186.253 113.913 185.339 116.318ZM109.511 126.518C107.774 127.467 103.057 128.348 97.7177 128.717C85.1767 129.587 83.9125 131.058 88.2849 139.695C91.4038 145.857 91.48 148.36 88.5223 147.475C84.5755 146.295 82.0578 144.146 80.0882 140.275C77.9508 136.077 75.6927 134.454 71.9852 134.454C65.6095 134.454 62.0303 139.17 64.7371 144.003C66.4625 147.084 78.1496 156.74 84.2358 160.113C90.2429 163.442 92.5232 162.83 97.4678 156.559C102.051 150.749 113.247 128.704 112.749 126.474C112.437 125.074 112.145 125.077 109.511 126.518ZM194.246 132.761C193.428 134.028 193.713 159.773 194.579 162.801C194.931 164.036 195.835 164.462 197.65 164.252C200.14 163.963 200.22 163.756 200.22 157.667C200.22 154.209 199.865 150.401 199.432 149.204C198.836 147.559 198.999 147.027 200.097 147.027C201.081 147.027 201.649 148.201 201.851 150.655C202.111 153.804 202.5 154.322 204.804 154.587C207.228 154.868 207.457 154.616 207.448 151.686C207.437 147.586 203.777 139.697 199.765 135.116C196.405 131.28 195.462 130.878 194.246 132.761ZM4.81379 143.152C2.41192 146.532 3.06716 148.773 5.68808 146.146C6.66466 145.167 8.02916 144.178 8.72202 143.947C10.1203 143.48 9.31453 140.257 7.79949 140.257C7.28901 140.257 5.94477 141.56 4.81379 143.152ZM42.0819 144.247C41.7499 145.909 41.4759 148.194 41.473 149.325C41.4691 150.455 40.8602 152.546 40.1181 153.971C38.4699 157.138 38.9186 157.667 43.2495 157.667C45.1081 157.667 49.2692 158.125 52.4971 158.685C55.725 159.245 61.8402 159.571 66.0862 159.411L73.8061 159.118L69.289 157.026C64.713 154.905 60.2614 149.879 57.9001 144.165C56.7035 141.271 56.5732 141.224 49.6851 141.224H42.685L42.0819 144.247ZM4.80897 152.871C4.80897 153.426 5.61377 154.744 6.59614 155.802C8.24049 157.57 8.48946 157.598 9.69667 156.141C10.8219 154.781 10.7476 154.365 9.17172 153.21C7.00337 151.62 4.80897 151.45 4.80897 152.871ZM14.1636 153.449C13.3926 154.222 14.264 155.732 15.4808 155.732C15.9807 155.732 16.3889 155.08 16.3889 154.282C16.3889 152.786 15.2502 152.36 14.1636 153.449ZM62.0544 188.16C50.7398 191.216 41.0127 198.145 35.9995 206.717C32.9627 211.912 33.6691 212.761 41.0484 212.784C46.9986 212.801 52.6573 210.132 62.5861 202.621C66.5001 199.661 69.7734 197.366 69.8603 197.523C69.9471 197.679 70.8822 199.983 71.9389 202.642C73.3864 206.288 74.7431 207.955 77.449 209.413C79.4234 210.477 81.0397 211.674 81.0407 212.074C81.0484 214.083 72.0855 221.082 65.4753 224.229L57.9966 227.79L57.1445 232.626C56.1486 238.281 56.5752 239.036 60.881 239.243C63.996 239.392 64.1089 239.263 64.7593 234.851C65.539 229.568 66.3091 227.998 67.6996 228.861C68.3307 229.251 68.46 231.707 68.0509 235.533L67.4043 241.587L74.1323 243.635C77.833 244.762 81.0841 245.684 81.3582 245.684C81.6313 245.684 82.1388 244.27 82.4862 242.54C82.8336 240.811 83.3258 238.654 83.5806 237.746C83.9222 236.524 83.2129 235.878 80.8554 235.266C78.9872 234.781 77.531 233.722 77.3361 232.706C77.0456 231.195 77.4885 231.057 80.8245 231.622C84.2059 232.195 84.7086 232.027 85.1921 230.174C85.8801 227.538 87.7985 228.59 87.7985 231.603C87.7985 233.252 88.4625 233.978 90.2873 234.328C93.1639 234.88 93.8616 233.729 93.4148 229.171C93.1572 226.537 92.5492 225.829 89.7285 224.883C87.8709 224.26 86.2111 223.027 86.0394 222.143C85.6717 220.251 86.4398 220.162 90.599 221.615C94.0257 222.813 94.0662 222.797 94.9144 220.021C95.3911 218.462 94.9009 217.825 92.5338 216.929C89.1785 215.66 89.5558 213.765 93.163 213.765C95.0322 213.765 95.5185 213.266 95.5185 211.347C95.5185 209.662 94.9916 208.929 93.7777 208.929C92.8204 208.929 89.7488 207.786 86.9523 206.389C81.1825 203.507 75.8915 196.492 74.8261 190.31C74.2327 186.869 74.0184 186.686 70.6265 186.747C68.6598 186.782 64.8027 187.418 62.0544 188.16ZM144.764 191.084C144.699 193.219 134.864 203.07 128.331 207.544C120.962 212.591 120.277 214.336 124.813 216.514C127.185 217.654 128.131 217.603 131.982 216.129C140.49 212.873 147.628 204.2 147.628 197.12C147.628 194.255 144.845 188.39 144.764 191.084ZM60.191 192.875C51.9065 195.511 38.0009 206.798 40.2552 209.057C41.0629 209.867 42.7912 208.897 46.96 205.296C53.2093 199.899 58.9201 196.712 64.382 195.575C66.5735 195.118 68.0162 194.26 68.0162 193.41C68.0162 191.536 65.0401 191.332 60.191 192.875ZM99.3785 212.239C99.3785 215.177 99.7664 215.679 102.821 216.688C104.714 217.315 106.482 217.607 106.75 217.338C107.018 217.069 106.115 215.067 104.744 212.889C101.622 207.934 99.3785 207.661 99.3785 212.239ZM47.4888 215.008C44.3989 216.426 43.8102 219.871 46.0094 223.66C48.0668 227.204 51.9789 228.325 53.9571 225.936C54.9434 224.744 54.8594 223.646 53.5074 220.098C51.4356 214.662 50.3133 213.712 47.4888 215.008ZM98.4135 221.843C98.4135 224.004 101.911 226.077 113.765 230.942C114.67 231.314 114.37 230.154 112.865 227.472C111.039 224.216 109.617 223.074 105.439 221.507C98.897 219.053 98.4135 219.076 98.4135 221.843ZM97.0915 231.271C96.1815 235.831 96.1901 235.846 100.313 237.084C103.313 237.985 104.453 237.975 105.578 237.04C107.172 235.714 109.028 236.414 109.028 238.34C109.028 239.025 110.765 240.271 112.888 241.107C115.124 241.987 116.748 243.269 116.748 244.155C116.748 246.053 115.964 246.065 111.578 244.228C108.21 242.818 108.088 242.84 107.63 244.953C106.173 251.686 106.192 251.719 112.745 253.663C116.115 254.664 119.145 255.211 119.477 254.878C120.705 253.647 119.977 239.998 118.593 238.309C117.319 236.751 104.286 230.204 99.7452 228.839C98.0323 228.323 97.601 228.719 97.0915 231.271ZM48.4074 230.263C45.2799 231.521 45.9293 235.092 49.5008 236.278C52.7673 237.364 52.7171 237.406 53.5624 232.868C54.1492 229.722 54.0006 229.249 52.4421 229.302C51.4549 229.336 49.6388 229.768 48.4074 230.263ZM39.7698 232.324C40.3661 234.118 42.4438 234.415 42.4438 232.706C42.4438 231.864 41.7557 231.175 40.9162 231.175C40.0757 231.175 39.5594 231.692 39.7698 232.324ZM192.983 233.49C192.983 234.741 190.413 236.476 188.973 236.195C187.606 235.929 187.402 238.786 188.751 239.306C189.542 239.609 189.952 239.474 189.662 239.005C189.373 238.536 190.219 237.88 191.542 237.547C193.298 237.105 193.948 236.293 193.948 234.542C193.948 233.222 193.731 232.143 193.465 232.143C193.2 232.143 192.983 232.749 192.983 233.49ZM40.702 239.397C40.7213 240.993 40.9374 241.528 41.1825 240.587C41.4276 239.646 41.4112 238.34 41.1468 237.686C40.8824 237.031 40.6827 237.801 40.702 239.397ZM86.2024 241.932C85.25 246.592 85.3108 246.878 87.4695 247.864C88.7163 248.433 90.0045 248.632 90.3317 248.304C90.9512 247.682 92.8059 238.732 92.3832 238.405C92.2501 238.302 91.0303 237.952 89.6726 237.627C87.3546 237.072 87.1414 237.336 86.2024 241.932ZM44.9045 240.122C43.3383 245.185 43.6761 246.842 46.6376 248.647C50.1724 250.802 50.7147 250.4 51.5958 244.966C52.2144 241.147 52.0831 240.795 49.7015 239.888C46.3472 238.61 45.3571 238.658 44.9045 240.122ZM93.9639 250.547L92.0214 261.213L94.4937 261.76C95.8534 262.061 97.6753 262.497 98.5428 262.729C99.6361 263.023 100.315 262.327 100.759 260.464C101.112 258.984 101.626 257.012 101.902 256.081C102.237 254.952 101.876 254.389 100.82 254.389C99.832 254.389 99.3592 253.753 99.5618 252.696C99.7413 251.765 100.513 251.003 101.279 251.003C102.678 251.003 103.929 247.944 104.107 244.086C104.176 242.58 103.363 241.71 101.165 240.942C99.4933 240.358 97.6261 239.88 97.0162 239.88C96.3648 239.88 95.1045 244.284 93.9639 250.547ZM55.0399 245.442C53.4312 251.247 53.7207 252.316 57.16 253.259C61.0991 254.34 61.5845 253.887 62.3294 248.438C62.921 244.117 62.8631 243.993 59.7828 242.916C58.0487 242.31 56.4989 241.815 56.3378 241.815C56.1766 241.815 55.5918 243.447 55.0399 245.442ZM65.6567 249.727C65.097 252.343 64.6387 254.636 64.6387 254.823C64.6387 255.01 66.8099 255.685 69.4636 256.323C72.57 257.07 74.2886 257.995 74.2886 258.921C74.2886 260.06 73.1654 260.291 68.8654 260.033C63.9796 259.74 63.362 259.924 62.6247 261.884C61.9 263.81 62.3294 264.322 66.3583 266.344C71.4515 268.9 82.2653 272.766 84.3207 272.766C85.057 272.766 85.9438 271.568 86.2922 270.106C86.6406 268.643 87.1337 266.738 87.3894 265.873C87.6895 264.853 87.1298 264.111 85.7943 263.761C83.3644 263.124 83.7957 260.677 86.3385 260.671C88.2038 260.666 89.55 258.21 89.661 254.606C89.7517 251.656 85.0396 249.637 83.3779 251.913C82.7729 252.742 81.5579 253.421 80.6779 253.421C79.4842 253.421 79.2197 252.849 79.6395 251.174C80.1587 249.101 79.6733 248.77 73.4385 246.948L66.6748 244.97L65.6567 249.727ZM192.501 248.585C192.172 249.117 192.773 249.552 193.834 249.552C194.896 249.552 196.032 249.117 196.36 248.585C196.689 248.053 196.088 247.618 195.027 247.618C193.965 247.618 192.829 248.053 192.501 248.585ZM42.8684 256.491C43.8237 264.955 44.8321 266.438 46.6618 262.073C49.7121 254.794 49.6378 253.989 45.745 252.129L42.1842 250.427L42.8684 256.491ZM172.718 252.028C172.718 252.856 173.152 253.267 173.683 252.938C174.214 252.609 174.648 251.931 174.648 251.43C174.648 250.929 174.214 250.52 173.683 250.52C173.152 250.52 172.718 251.199 172.718 252.028ZM269.002 255.466C265.434 259.226 264.754 259.516 256.694 260.723C252.002 261.425 247.267 262.561 246.173 263.246C244.457 264.32 243.464 264.128 238.992 261.858C236.138 260.409 232.63 259.225 231.197 259.225C227.761 259.225 223.226 261.639 221.861 264.194C220.192 267.321 222.615 268.262 226.361 265.942C230.745 263.226 234.332 263.604 240.312 267.411L245.575 270.762L247.344 268.378C249.293 265.753 251.441 265.411 255.197 267.126C257.345 268.107 257.941 267.968 259.695 266.081C261.245 264.414 262.31 264.064 264.26 264.581C268.868 265.804 269.516 265.569 270.366 262.373C271.902 256.595 277.149 255.136 286.587 257.864L289 258.561L287.072 256.376C284.304 253.239 280.465 251.487 276.354 251.487C273.422 251.487 272.099 252.203 269.002 255.466ZM51.6614 257.918C51.2928 259.391 49.8733 262.884 48.5068 265.68L46.0239 270.764L48.7375 274.331L51.452 277.897L53.1658 275.776C54.9578 273.557 58.6171 264.494 59.4933 260.104C59.9169 257.982 59.5927 257.444 57.5855 256.939C56.2557 256.605 54.5303 256.086 53.7497 255.786C52.7856 255.415 52.1179 256.097 51.6614 257.918ZM104.541 259.528L103.589 263.701L109.188 265.667C115.425 267.857 116.481 267.434 118.577 261.911C119.564 259.308 119.51 259.261 113.235 257.318C109.748 256.239 106.58 255.356 106.194 255.356C105.809 255.356 105.065 257.233 104.541 259.528ZM185.746 259.225C185.417 259.757 185.827 260.192 186.654 260.192C187.481 260.192 188.158 259.757 188.158 259.225C188.158 258.693 187.75 258.257 187.25 258.257C186.75 258.257 186.074 258.693 185.746 259.225ZM175.613 264.441C175.613 264.65 176.264 265.071 177.061 265.378C177.857 265.684 178.508 265.513 178.508 264.998C178.508 264.482 177.857 264.061 177.061 264.061C176.264 264.061 175.613 264.232 175.613 264.441ZM90.0248 269.036C88.7684 273.754 89.3725 274.66 93.7912 274.686C96.0107 274.698 96.581 274.115 97.5643 270.825C98.9085 266.327 98.7715 266.089 94.4136 265.38C91.2349 264.863 91.1085 264.969 90.0248 269.036ZM58.2716 273.426C56.7826 276.52 55.4143 279.33 55.2319 279.67C54.4753 281.077 65.1549 285.34 69.4115 285.329C77.8659 285.309 81.0127 284.336 82.6049 281.249C84.3072 277.951 83.7832 275.674 81.3147 275.651C79.9599 275.638 68.9425 271.429 62.0853 268.304C61.4494 268.014 59.8282 270.192 58.2716 273.426ZM176.337 276.819C175.408 277.782 174.648 279.004 174.648 279.536C174.648 281.365 178.028 280.441 179.682 278.159C181.245 276.002 181.245 275.853 179.682 275.472C178.771 275.25 177.266 275.857 176.337 276.819ZM86.9146 279.778C86.463 280.975 86.1938 282.068 86.3153 282.209C86.8393 282.81 93.5885 279.421 93.5885 278.556C93.5885 278.031 92.2713 277.602 90.6627 277.602C88.5146 277.602 87.5177 278.181 86.9146 279.778ZM193.01 279.02C192.364 279.8 191.985 280.848 192.168 281.349C192.351 281.849 193.281 281.211 194.235 279.93C196.084 277.447 194.987 276.633 193.01 279.02ZM185.596 295.537C185.281 296.358 185.285 297.29 185.603 297.61C186.437 298.445 189.203 295.925 188.573 294.902C187.749 293.567 186.226 293.892 185.596 295.537ZM193.392 298.155C192.371 299.353 190.965 301.349 190.268 302.592C189.098 304.681 189.153 304.805 190.992 304.22C192.446 303.757 192.983 304.011 192.983 305.16C192.983 306.024 193.424 306.459 193.963 306.125C194.503 305.79 194.725 305.162 194.458 304.727C194.189 304.292 194.821 303.713 195.864 303.44C197.337 303.054 197.728 302.172 197.626 299.462C197.476 295.462 196.062 295.026 193.392 298.155ZM177.021 298.945C176.671 299.512 176.592 300.184 176.844 300.438C177.097 300.691 177.561 300.227 177.876 299.406C178.528 297.702 177.973 297.402 177.021 298.945ZM199.358 304.282C198.998 305.223 199.213 305.666 199.918 305.43C201.361 304.948 202.155 302.749 200.886 302.749C200.368 302.749 199.681 303.439 199.358 304.282ZM247.988 307.585C245.093 309.856 242.608 310.051 241.848 308.069C240.969 305.771 237.153 306.379 234.931 309.172L232.9 311.725L227.38 309.655C224.344 308.517 220.975 307.585 219.893 307.585C217.331 307.585 212.283 312.669 212.283 315.249C212.283 317.776 213.432 317.767 219.629 315.193L224.601 313.127L229.999 315.866L235.396 318.606L237.654 316.481C239.012 315.201 241.145 314.356 243.015 314.356C244.722 314.356 247.679 313.703 249.584 312.905C254.272 310.942 257.002 311.081 259.085 313.389C261.055 315.571 263.428 315.952 263.428 314.088C263.428 312.603 260.721 308.529 258.647 306.891C256.367 305.09 250.699 305.46 247.988 307.585ZM156.855 323.963C155.608 325.344 155.335 326.672 155.811 329.041C157.132 335.604 157.159 335.635 161.501 335.635C163.752 335.635 166.437 336.274 167.468 337.055C169.944 338.932 171.753 338.904 171.753 336.986C171.753 336.134 172.948 333.293 174.407 330.674C177.374 325.349 177.155 324.89 170.788 323.07C165.095 321.443 158.763 321.849 156.855 323.963Z" fill="#3378B7"/>
</svg>
