<svg width="385" height="219" viewBox="0 0 385 219" fill="none" xmlns="http://www.w3.org/2000/svg">
<path fill-rule="evenodd" clip-rule="evenodd" d="M18.2635 1.32635C18.6788 2.33532 19.4114 6.38451 19.8922 10.3242C20.373 14.2639 21.0657 19.7897 21.4309 22.6038C22.0048 27.0254 29.3934 51.4556 31.9521 57.3959C33.7752 61.6251 34.9865 64.6664 36.2326 68.1405C36.9395 70.1103 39.0787 74.135 40.9878 77.0841C44.4897 82.4963 47.431 88.675 47.431 90.6203C47.431 92.8408 45.2294 91.5289 43.2088 88.105C42.0507 86.1413 39.8798 83.9535 38.3841 83.2443C34.6908 81.4925 27.245 66.3937 22.4621 50.9563C20.4211 44.3673 18.3187 37.5951 17.7908 35.9066C16.0977 30.4883 14.7564 12.5673 15.5902 6.48787C16.4926 -0.096026 17.1535 -1.3731 18.2635 1.32635ZM61.3273 104.062C66.9071 110.26 77.5961 120.699 85.0798 127.258C98.0645 138.64 102.676 143.848 102.676 147.133C102.676 149.25 98.3213 153.074 95.9099 153.074C93.8106 153.074 91.4228 151.293 91.4228 149.726C91.4228 149.236 92.6484 148.983 94.1472 149.163C95.645 149.344 97.0384 148.995 97.243 148.387C97.6962 147.043 89.036 139.042 79.6095 132.097C70.2709 125.216 55.8754 110.543 51.7545 103.705C48.6843 98.6102 48.5206 97.9225 49.7933 95.4687L51.1816 92.7917L61.3273 104.062ZM1.19365 114.7C1.17318 116.389 0.944043 116.956 0.684185 115.96C0.424327 114.965 0.441701 113.583 0.722021 112.89C1.00234 112.198 1.21411 113.012 1.19365 114.7ZM10.6898 138.492C17.7387 153.362 19.5321 156.734 23.8832 163.307C25.9324 166.403 28.9044 171.468 30.4881 174.563C32.0718 177.659 34.169 181.343 35.1491 182.75C36.1303 184.157 37.227 186.262 37.5881 187.427C38.2644 189.607 44.0426 196.053 45.3215 196.053C45.7164 196.053 48.9994 198.351 52.618 201.16C56.2355 203.969 59.6617 206.271 60.2306 206.276C60.7994 206.281 62.4056 207.667 63.8001 209.354C66.106 212.147 72.2608 214.537 73.6265 213.17C73.9151 212.882 71.4761 210.992 68.2084 208.971C64.9397 206.949 60.4168 203.529 58.1578 201.373C51.7964 195.299 48.54 189.507 51.7791 190.03C52.4819 190.143 53.8947 189.872 54.9168 189.427C56.0145 188.949 57.2514 189.093 57.9348 189.777C58.5722 190.414 59.8081 190.946 60.6797 190.959C61.5524 190.971 63.4164 191.882 64.8231 192.983C66.2298 194.084 68.1951 194.995 69.1896 195.007C70.185 195.019 73.911 196.8 77.4713 198.963C83.6976 202.746 87.4594 204.248 99.5592 207.784C102.626 208.68 105.976 210.172 107 211.1C108.394 212.362 109.157 212.493 110.028 211.621C110.901 210.748 110.497 210.189 108.427 209.403C106.905 208.823 102.942 206.505 99.6206 204.248C96.2987 201.992 93.1599 200.146 92.6463 200.146C92.1317 200.146 89.6897 198.538 87.219 196.575C84.7483 194.61 82.3277 192.998 81.8387 192.993C80.7502 192.981 66.7475 182.511 64.995 180.398C64.2993 179.56 61.2229 177.328 58.1589 175.439C55.0948 173.55 52.5791 171.767 52.5668 171.476C52.5555 171.185 54.5035 170.892 56.8944 170.824C60.6695 170.718 62.1867 171.425 68.4038 176.19C83.5084 187.768 87.3755 190.526 92.9124 193.675C98.7264 196.983 114.968 201.534 125.105 202.697C128.157 203.047 131.543 203.81 132.632 204.392C133.92 205.082 134.96 205.103 135.611 204.452C136.907 203.155 132.713 200.146 129.609 200.146C128.353 200.146 126.268 199.745 124.976 199.253C123.684 198.762 120.785 197.779 118.534 197.068C110.739 194.606 99.7014 188.75 99.063 186.741C98.4154 184.699 92.6177 181.726 89.2825 181.726C85.1176 181.726 69.6724 171.084 70.1553 168.547C70.7385 165.486 74.9003 166.075 80.3502 169.991C83.2311 172.061 88.1663 174.635 91.3184 175.712C94.4705 176.788 98.2006 178.505 99.6073 179.526C101.014 180.548 104.964 182.326 108.386 183.476C113.414 185.167 115.653 185.403 120.052 184.707C123.047 184.235 126.161 184.218 126.973 184.673C127.784 185.127 129.596 185.279 130.999 185.011C133.194 184.591 132.817 184.265 128.287 182.67C125.393 181.65 121.476 179.456 119.584 177.794C117.691 176.132 113.317 173.266 109.865 171.425C106.412 169.584 103.136 167.236 102.584 166.204C101.999 165.11 100.451 164.33 98.8656 164.33C96.3601 164.33 82.1364 156.658 81.366 154.89C81.1798 154.464 79.3383 153.406 77.2738 152.538C75.2082 151.671 69.1456 148.753 63.8001 146.054C56.436 142.337 53.8487 140.49 53.1233 138.433C52.5965 136.94 52.487 135.397 52.8798 135.003C53.7454 134.137 58.4903 136.582 65.174 141.336C67.8984 143.274 71.873 145.33 74.0061 145.905C76.1392 146.479 78.4554 147.636 79.1521 148.476C79.8488 149.317 81.0622 150.004 81.8479 150.004C84.116 150.004 94.7048 155.971 98.0727 159.147C99.7607 160.739 102.983 162.626 105.234 163.34C114.675 166.338 134.12 176.542 137.305 180.17C142.975 186.63 141.108 189.756 131.834 189.333C129.02 189.205 126.393 189.297 125.996 189.538C124.932 190.186 126.231 192.983 127.595 192.983C128.239 192.983 130.084 194.637 131.699 196.66C133.946 199.48 135.202 200.23 137.069 199.873C138.408 199.617 140.298 199.987 141.268 200.696C142.824 201.834 142.865 202.298 141.622 204.621C139.734 208.151 134.733 209.652 127.498 208.861C122.005 208.262 121.742 208.327 123.649 209.829C129.617 214.529 129.554 214.429 127.949 216.836C126.682 218.737 125.545 219.063 120.448 218.991C111.265 218.86 102.892 216.917 95.0035 213.083C79.8519 205.722 75.464 204.461 80.5425 208.929C82.1548 210.347 83.3058 211.628 83.1001 211.776C82.8945 211.924 81.3988 213.052 79.7752 214.282C77.5377 215.978 75.4077 216.519 70.9666 216.519C64.6349 216.519 61.4081 214.894 52.93 207.439C50.6097 205.397 46.7691 202.17 44.3966 200.266C37.6782 194.874 23.5476 175.925 16.5089 162.869C5.34422 142.16 3.50988 138.135 2.85716 132.909C2.28527 128.331 2.43567 127.492 3.82806 127.492C4.9166 127.492 7.24305 131.222 10.6898 138.492ZM63.8533 133.469C66.7281 135.798 65.0021 137.224 61.9207 135.066C59.674 133.491 58.96 131.585 60.6173 131.585C61.1176 131.585 62.5734 132.432 63.8533 133.469ZM37.6321 171.238C40.1131 173.703 42.3045 182.75 40.421 182.75C38.7544 182.75 33.1081 176.58 33.1081 174.759C33.1081 171.768 35.9441 169.56 37.6321 171.238ZM114.442 188.89C115.242 190.185 113.887 190.185 111.884 188.89C110.561 188.035 110.589 187.896 112.079 187.882C113.031 187.873 114.094 188.327 114.442 188.89Z" fill="#3378B7"/>
<path d="M287.516 5.2029C285.183 3.59377 281.539 2.53229 271.509 0.540606C270.385 0.317029 266.834 0.0811479 263.621 0.0155106C258.817 -0.0819197 257.589 0.24934 256.718 1.88002C255.068 4.9742 255.415 5.93004 258.983 8.11248C262.737 10.4077 262.88 10.3513 252.892 10.5318C246.823 10.6416 245.247 11.0272 243.955 12.7163C241.346 16.1305 242.339 18.8698 246.187 18.8698C248.736 18.8698 250.467 19.8708 253.718 23.2285C256.04 25.6263 258.347 27.5873 258.845 27.5873C259.343 27.5873 259.75 28.0283 259.75 28.5677C259.75 29.1072 256.415 29.6846 252.337 29.8497C245.039 30.1461 244.918 30.1963 244.591 33.0577C244.138 37.0277 250.841 43.3464 259.705 47.3061C263.385 48.9491 269.243 51.6464 272.723 53.2986C276.203 54.9519 279.753 56.3036 280.612 56.3036C281.472 56.3036 283.87 57.804 285.942 59.6367C288.013 61.4694 291.819 64.1236 294.4 65.5338C296.981 66.944 299.247 68.9049 299.436 69.8925C299.965 72.6565 297.063 72.0658 293.139 68.6106C291.218 66.9184 289.214 65.5338 288.686 65.5338C288.158 65.5338 286.167 66.9317 284.258 68.6403L280.79 71.7458L282.684 75.2727C284.676 78.9833 292.436 86.5695 304.669 96.7659C308.698 100.125 316.917 108.328 322.934 114.998C333.857 127.106 333.874 127.119 334.652 124.105C335.703 120.038 334.463 117.204 328.503 110.044C321.369 101.476 313.843 94.2204 305.54 87.9069C295.485 80.2622 287.359 72.6801 287.359 70.9438C287.359 68.8536 293.589 70.3417 295.342 72.8503C296.152 74.0103 297.912 74.7641 299.812 74.7641C302.472 74.7641 302.756 74.5323 301.685 73.238C299.707 70.8484 303.307 69.9695 305.801 72.2339C306.905 73.2349 309.439 74.1538 311.434 74.2748C313.43 74.3969 316.077 75.4071 317.316 76.5209C322.916 81.5534 328.302 83.5974 328.229 80.6612C328.184 78.8992 324.659 76.4758 314.183 71.0012C309.272 68.4352 304.793 65.7748 304.231 65.0897C303.191 63.8242 296.028 59.2613 290.11 56.0964C288.316 55.1365 285.915 54.3283 284.774 54.3016C283.634 54.275 281.926 53.3448 280.979 52.2361C280.032 51.1274 276.595 48.8681 273.339 47.2159C270.083 45.5637 265.717 42.5474 263.636 40.5147C261.554 38.481 258.876 36.8175 257.683 36.8175C256.49 36.8175 254.876 36.1775 254.096 35.395C252.887 34.1828 253.957 34.0536 261.351 34.5161C269.522 35.0268 269.987 34.9458 269.392 33.1172C269.011 31.948 269.103 31.6404 269.624 32.3439C270.667 33.7541 277.776 36.8175 280.005 36.8175C280.884 36.8175 282.553 37.679 283.714 38.7312C284.875 39.7845 288.126 41.4901 290.938 42.5228C297.177 44.814 302.525 47.6723 305.253 50.1737C309.552 54.116 316.511 53.5899 313.932 49.5183C311.441 45.5893 299.511 37.9549 295.754 37.8862C292.508 37.8267 286.083 34.3407 284.562 31.8127C282.367 28.1657 263.213 20.1918 252.918 18.6391C251.128 18.3693 249.392 17.4371 249.06 16.5674C248.172 14.2506 249.101 13.8352 252.304 15.1162C253.869 15.7418 258.86 16.7038 263.395 17.2525C270.852 18.156 274.09 18.9478 285.167 22.5732C289.736 24.0695 300.734 30.9389 308.321 37.036C320.499 46.8231 322.076 47.7533 327.493 48.343C330.165 48.6343 332.341 48.583 332.33 48.2292C332.318 47.8753 329.872 46.0806 326.893 44.2396C323.915 42.3987 319.923 39.284 318.022 37.317C316.121 35.3499 314.206 33.7408 313.765 33.7408C313.324 33.7408 310.539 31.8968 307.574 29.6425C304.611 27.3893 301.682 25.5433 301.066 25.5402C300.45 25.5381 299.07 24.5567 297.998 23.3598C296.927 22.163 293.674 20.0513 290.77 18.6667C287.866 17.2822 284.688 15.2618 283.709 14.1767C282.73 13.0917 281.31 12.2035 280.554 12.2035C279.797 12.2035 279.178 11.742 279.178 11.1779C279.178 10.6139 280.071 10.1524 281.163 10.1524C282.255 10.1524 283.432 10.6139 283.78 11.1779C284.128 11.742 285.65 12.2035 287.163 12.2046C291.532 12.2056 308.723 19.7939 310.354 22.4399C310.708 23.0142 312.236 23.4952 313.75 23.5075C315.263 23.5198 317.652 24.4326 319.058 25.5361C320.463 26.6396 322.268 27.5524 323.067 27.5647C323.867 27.577 325.279 28.2754 326.205 29.1164C327.601 30.383 328.361 30.4271 330.623 29.3728C332.128 28.6734 333.361 27.5586 333.365 26.8971C333.385 23.8982 322.594 13.3399 316.246 10.1442C313.855 8.94115 311.9 7.26638 311.9 6.4213C311.9 4.20399 315.663 5.60288 320.228 9.51958C322.279 11.2774 325.633 13.8701 327.684 15.2803C341.203 24.5772 345.111 27.9862 347.392 32.4721C352.691 42.8869 358.232 52.6474 361.35 57.0543C363.252 59.7444 366.497 65.6364 368.562 70.1489C378.521 91.9159 382.298 96.7084 381.59 86.6793C381.346 83.2313 379.806 78.9207 376.641 72.8339C363.817 48.1769 361.425 44.1945 354.335 35.6935C352.086 32.9962 348.467 28.4293 346.293 25.5433C344.119 22.6583 339.748 18.3806 336.579 16.0361C333.41 13.6916 330.126 10.98 329.283 10.0098C328.439 9.03858 325.96 7.05818 323.771 5.60904C318.206 1.92002 308.706 1.8472 303.83 5.4552L300.475 7.93813L303.111 9.67034C304.561 10.6231 305.517 11.7748 305.237 12.2302C304.648 13.186 296.829 10.4344 294.436 8.42836C293.548 7.68481 292.238 7.07562 291.527 7.07562C290.814 7.07562 289.009 6.23259 287.516 5.2029Z" fill="#3378B7"/>
<path d="M351.3 45.9452C351.806 44.3443 351.117 42.8972 348.612 40.3045C346.759 38.3867 344.922 36.8175 344.53 36.8175C342.909 36.8175 342.637 40.3486 344.086 42.5669C344.943 43.8776 345.644 45.658 345.644 46.5246C345.644 49.023 350.483 48.5276 351.3 45.9452Z" fill="#3378B7"/>
<path d="M384.5 104.882C384.5 103.735 384.154 102.448 383.733 102.021C383.312 101.594 382.808 102.028 382.614 102.985C382.421 103.941 382.767 105.229 383.381 105.845C384.191 106.658 384.5 106.391 384.5 104.882Z" fill="#3378B7"/>
<path d="M346.258 136.484C344.76 135.74 342.359 133.263 340.923 130.981C339.14 128.149 337.98 127.166 337.264 127.884C336.144 129.007 340.663 138.931 345.014 144.904C346.291 146.658 347.959 150.17 348.719 152.708C349.48 155.247 350.43 157.785 350.831 158.349C351.232 158.913 353.984 166.528 356.95 175.271C361.275 188.029 362.586 193.517 363.591 203.071C364.279 209.617 365.453 216.078 366.2 217.429C367.523 219.821 367.577 219.765 368.322 215.269C369.281 209.485 368.352 193.139 366.605 185.014C362.086 164.013 351.672 139.175 346.258 136.484Z" fill="#3378B7"/>
</svg>
