<svg width="359" height="267" viewBox="0 0 359 267" fill="none" xmlns="http://www.w3.org/2000/svg">
<path fill-rule="evenodd" clip-rule="evenodd" d="M160.348 0.434038C166.629 1.08493 168.545 2.527 166.991 5.43357C166.181 6.94578 164.425 7.14217 150.002 7.3264C128.68 7.59854 127.179 7.53962 122 6.22568C117.745 5.14553 116.257 3.67915 118.729 3.00114C127.529 0.586477 149.031 -0.740562 160.348 0.434038ZM106.968 9.5241C107.266 10.2975 106.826 11.6853 105.993 12.6065C105.16 13.5277 104.478 14.9043 104.478 15.6655C104.478 17.5555 94.0548 23.0189 90.4505 23.0189C86.9657 23.0189 83.9193 24.489 83.9193 26.1696C83.9193 26.8373 79.0376 29.8739 73.0699 32.917C56.8612 41.1831 51.6365 46.9944 55.5641 52.3905C57.2948 54.7677 61.7532 55.7254 62.8466 53.955C63.482 52.9263 69.6992 49.2716 79.1487 44.3712C86.5518 40.5322 92.1503 39.7205 94.1987 42.1903C95.9948 44.3562 97.2722 43.8625 96.6181 41.2551C96.1424 39.3567 96.377 38.9172 97.8637 38.9172C100.492 38.9172 100.93 40.2096 99.3393 43.2621C98.574 44.7303 97.946 46.308 97.9422 46.769C97.9394 47.2301 96.0443 49.6316 93.7314 52.1062C91.4186 54.5807 89.5262 57.2609 89.5262 58.0615C89.5262 58.862 89.0048 60.3527 88.3665 61.3748C87.4442 62.8534 87.4442 63.6109 88.3665 65.0894C89.0048 66.1116 89.5262 67.8155 89.5262 68.877C89.5262 69.9384 90.2028 72.1529 91.0298 73.7998C92.6091 76.9448 99.6673 84.7415 100.934 84.7415C101.342 84.7415 101.679 81.69 101.685 77.9614C101.695 70.9634 103.273 64.1589 105.929 59.6597C107.403 57.1618 115.692 52.4185 115.692 54.0729C115.692 54.5218 114.782 56.6615 113.668 58.8274C111.198 63.6333 110.219 67.8912 109.251 78.0269C108.251 88.5206 105.97 90.9699 97.6423 90.5004C94.4435 90.3209 84.8538 81.1719 84.8538 78.2999C84.8538 77.2619 84.4772 75.4457 84.0165 74.2646C81.9914 69.0677 80.9364 64.2786 81.5859 63.2275C81.9727 62.6018 82.4082 60.4948 82.5531 58.5478C82.6979 56.5998 83.2904 54.1215 83.8679 53.0404C85.1603 50.6239 84.6996 50.6089 78.7974 52.8786C71.5177 55.6777 58.9451 59.4914 56.9967 59.4914C54.7483 59.4914 52.1467 56.6287 52.1467 54.1552C52.1467 53.1012 51.5159 51.7153 50.745 51.0746C48.6012 49.294 49.0601 46.163 52.1299 41.6292C53.6624 39.3661 54.924 37.0673 54.9333 36.5203C54.9875 33.3397 69.9646 24.6714 81.6429 21.0616C84.9042 20.0544 88.8085 18.1886 90.3196 16.9158C91.8307 15.6431 93.3614 14.6022 93.7221 14.6022C94.0828 14.6022 95.4939 13.8082 96.8582 12.8384C98.2226 11.8686 100.934 10.4097 102.884 9.59611C106.023 8.28684 106.491 8.27842 106.968 9.5241ZM192.393 25.9601C193.809 28.6085 194.486 36.1116 193.309 36.1116C192.427 36.1116 189.517 27.7257 189.517 25.1867C189.517 23.278 191.2 23.7306 192.393 25.9601ZM145.691 38.2457C149.37 40.7193 150.346 44.6648 147.936 47.3292C145.748 49.7485 146.348 55.3943 148.749 54.9809C150.298 54.7144 150.424 55.0904 149.839 58.2148C148.472 65.5037 144.231 72.8749 137.702 79.3118C131.888 85.0417 131.392 85.8329 131.838 88.6637C132.105 90.3639 131.688 93.753 130.91 96.1948C128.911 102.47 129.911 108.118 133.672 111.798C136.893 114.948 137.418 115.109 139.993 113.73C141.139 113.116 141.973 111.259 142.405 108.352C143.307 102.303 145.624 97.2076 149.673 92.368C151.542 90.1338 153.071 87.9567 153.071 87.5303C153.071 86.0985 157.895 81.0008 159.25 81.0008C160.406 81.0008 160.41 81.2907 159.278 83.1049C158.557 84.2627 157.698 86.3669 157.37 87.7809L156.774 90.3527L171.043 90.4312C184.984 90.5089 191.767 91.1317 199.329 93.0311C201.385 93.5482 204.868 94.4245 207.07 94.9791C209.272 95.5336 211.795 96.3678 212.677 96.8326C214.303 97.6883 216.01 98.4206 226.896 102.931C238.811 107.867 248.389 112.931 248.389 114.295C248.389 116.187 245.865 116.974 243.421 115.843C240.716 114.594 237.371 113.208 227.831 109.387C223.462 107.637 219.046 105.843 218.018 105.4C216.991 104.957 214.257 104.076 211.944 103.442C209.631 102.808 207.108 102.054 206.337 101.765C205.566 101.476 204.305 101.14 203.534 101.018C202.763 100.896 200.03 100.311 197.46 99.7167C188.141 97.563 177.669 96.7513 167.321 97.3797C153.088 98.2448 152.07 100.056 163.883 103.497C167.445 104.534 171.831 105.556 173.63 105.767C194.559 108.222 209.284 112.857 209.899 117.182C210.063 118.333 209.329 120.091 208.222 121.198C206.295 123.126 205.722 123.158 180.364 122.749C166.124 122.519 150.908 122.102 146.55 121.823C138.203 121.289 129.709 123.069 129.709 125.354C129.709 128.035 139.517 133.009 142.768 131.976C143.858 131.63 145.256 131.75 145.874 132.243C146.984 133.128 155.34 134.086 168.958 134.888C193.607 136.34 194.189 136.469 194.189 140.467C194.189 144.794 189.64 145.39 176.901 142.733C174.331 142.197 168.872 141.363 164.768 140.879C157.978 140.08 157.136 140.163 155.382 141.812C154.323 142.808 151.915 144.157 150.031 144.81C148.148 145.463 146.666 146.417 146.737 146.932C146.809 147.446 149.42 148.641 152.54 149.589C155.659 150.535 158.628 151.71 159.138 152.199C160.632 153.633 157.635 154.915 154.24 154.294L151.202 153.737L151.188 163.895C151.169 179.011 149.641 182.743 139.112 193.393C132.564 200.016 123.151 206.316 119.802 206.316C118.82 206.316 118.495 207.79 118.495 212.25C118.495 220.571 116.989 221.683 103.544 223.281C93.4118 224.484 49.6235 224.607 45.138 223.443C31.5487 219.919 27.0117 214.635 29.4283 205.147C30.1049 202.489 34.2549 203.026 34.8409 205.849C35.1072 207.135 35.5305 209.186 35.781 210.406C36.2062 212.479 39.7806 214.713 43.6793 215.341C44.4811 215.471 48.2919 216.089 52.1467 216.716C60.4244 218.061 73.9306 218.086 95.0771 216.794C108.22 215.991 110.621 215.608 111.691 214.143C112.379 213.202 112.814 211.792 112.656 211.01C112.339 209.438 111.227 209.437 101.207 211C94.0417 212.116 61.1505 211.416 56.3519 210.044C54.81 209.604 51.6561 208.747 49.3432 208.141C34.8493 204.344 21.8973 193.328 13.1159 177.325C11.8459 175.011 9.43026 171.644 7.74818 169.844C4.63353 166.51 3.90838 164.967 3.12808 160.013C2.88605 158.477 2.17862 155.325 1.55625 153.01C0.137692 147.737 0.150767 128.205 1.57867 120.746C2.16926 117.66 2.78978 113.372 2.95799 111.218C3.49906 104.281 5.4241 102.673 17.5706 99.0023C19.3695 98.4589 25.3614 98.0128 30.8871 98.0109C38.9022 98.0081 40.9328 98.2737 40.9328 99.323C40.9328 101.156 47.4013 101.054 50.0749 99.1809C51.7561 98.0016 54.1792 97.7987 62.6644 98.126C68.4442 98.3486 75.2753 98.9546 77.8451 99.4727C81.3588 100.182 83.7455 100.095 87.4694 99.1248C90.1925 98.415 93.6754 97.8342 95.2079 97.8342C96.7629 97.8342 98.2217 97.2432 98.5085 96.4969C98.7898 95.7609 100.311 94.7088 101.889 94.1589C105.608 92.8618 115.277 92.8702 117.709 94.1729C120.747 95.8002 123.594 94.4993 125.033 90.8287C125.75 89.0013 127.095 86.8195 128.023 85.9788C128.95 85.139 129.709 84.057 129.709 83.5744C129.709 83.0928 132.022 80.1404 134.849 77.014C137.902 73.6371 139.989 70.4677 139.989 69.2071C139.989 68.039 140.382 66.8401 140.863 66.5418C141.345 66.2444 142.444 62.8281 143.306 58.9508C144.62 53.0404 144.687 51.2336 143.721 47.7818C142.767 44.3721 142.036 43.4884 139.468 42.6402C137.763 42.0772 134.869 41.8976 133.038 42.2408C128.89 43.0198 128.737 41.7723 132.585 38.5328C136.282 35.4186 141.32 35.3083 145.691 38.2457ZM181.106 64.2038C181.106 65.8768 172.106 74.8351 171.467 73.7989C171.145 73.2789 172.38 71.1055 174.209 68.9677C177.843 64.7182 181.106 62.4643 181.106 64.2038ZM120.131 99.3492C120.773 99.6307 121.299 100.643 121.299 101.597C121.299 102.553 121.719 103.595 122.233 103.913C122.747 104.231 123.168 105.504 123.168 106.741C123.168 107.978 124.411 110.794 125.929 112.998C128.276 116.404 128.486 117.161 127.331 118.044C126.583 118.615 124.897 120.667 123.584 122.604L121.195 126.127L123.349 128.435C125.804 131.065 129.854 133.371 132.017 133.371C132.824 133.371 135.15 134.424 137.185 135.709C139.22 136.995 141.735 138.047 142.773 138.047C145.539 138.047 145.076 140.59 142.023 142.17C140.573 142.921 138.861 144.167 138.221 144.94C136.583 146.914 138.431 150.084 141.93 151.306L144.661 152.259L144.651 161.285C144.635 175.276 142.687 180.425 134.074 189.244C129.436 193.993 127.141 195.537 121.798 197.502C118.182 198.832 114.366 200.331 113.316 200.834C107.347 203.694 72.6989 205.917 64.7623 203.949C62.1924 203.313 58.0302 202.497 55.5136 202.138C52.9971 201.779 50.2637 201.142 49.4394 200.723C48.6152 200.305 46.0538 199.183 43.7465 198.23C38.6592 196.128 30.3581 189.279 26.1828 183.737C24.4951 181.496 21.8272 177.98 20.2544 175.923C8.08272 160.003 5.20356 147.117 8.1416 121.698C8.735 116.563 9.55828 112.025 9.96945 111.613C10.3816 111.201 13.1439 112.14 16.1081 113.701C19.0732 115.261 22.3028 116.538 23.285 116.538C24.2681 116.538 25.8436 117.021 26.7875 117.61C27.7304 118.2 29.532 118.423 30.7899 118.107C32.5289 117.671 33.0672 116.926 33.0336 114.999C32.999 113.012 32.3832 112.279 30.1862 111.611C25.3343 110.133 19.0704 108.926 16.4025 108.954C14.9895 108.969 13.8326 108.592 13.8326 108.117C13.8326 106.655 16.8473 105.536 22.7103 104.822C25.7941 104.447 29.8152 103.384 31.6468 102.46C33.841 101.352 35.4333 101.07 36.3192 101.631C37.0575 102.099 41.1066 102.488 45.3165 102.496C49.5264 102.504 53.2307 102.931 53.5484 103.445C54.4941 104.976 70.9925 104.556 73.1175 102.948C75.5164 101.132 78.4656 101.213 81.9073 103.19C84.3015 104.566 85.1902 104.635 87.8899 103.658C89.6337 103.026 92.5568 102.51 94.3846 102.51C96.2125 102.51 99.1262 101.925 100.86 101.21C104.199 99.8327 118.157 98.4842 120.131 99.3492ZM160.527 110.099C161.801 110.608 166.216 111.467 170.339 112.008C181.528 113.476 181.144 114.668 169.481 114.668C160.93 114.668 159.159 114.412 158.11 113.031C156.746 111.233 156.408 109.023 157.51 109.115C157.895 109.148 159.253 109.591 160.527 110.099ZM152.429 110.596C153.713 111.881 153.047 113.865 151.436 113.555C150.536 113.381 149.801 112.649 149.801 111.928C149.801 110.451 151.449 109.616 152.429 110.596ZM61.4916 114.416C63.2905 114.628 65.1623 115.192 65.6501 115.669C66.1379 116.147 67.505 116.538 68.6871 116.538C69.9749 116.538 70.8365 117.1 70.8365 117.941C70.8365 118.712 70.0206 119.344 69.0226 119.344C68.0246 119.344 66.949 119.764 66.6313 120.279C65.7538 121.7 51.058 121.393 49.1096 119.912C47.0275 118.331 47.0453 117.216 49.1834 115.28C50.8562 113.765 54.0474 113.541 61.4916 114.416ZM114.746 115.447C115.267 115.619 115.692 116.541 115.692 117.496C115.692 118.451 116.133 119.506 116.672 119.839C117.341 120.254 117.306 120.862 116.557 121.765C115.68 122.823 111.624 123.084 96.0677 123.084C79.3552 123.084 76.4995 122.876 75.4201 121.574C74.3464 120.28 74.4782 119.813 76.3434 118.301C78.061 116.909 80.0598 116.538 85.8369 116.538C89.8608 116.538 93.396 116.146 93.6922 115.666C94.1763 114.882 112.455 114.691 114.746 115.447ZM189.984 152.539C197.865 153.633 203.382 155.685 202.599 157.231C202.342 157.739 201.081 158.154 199.796 158.154C198.511 158.154 196.298 158.942 194.879 159.906C191.857 161.956 180.334 162.299 173.78 160.532C170.045 159.526 169.914 159.374 171.201 157.537C171.945 156.473 172.309 154.96 172.009 154.178C171.567 153.024 172.066 152.846 174.649 153.236C176.402 153.501 178.887 153.219 180.172 152.609C181.942 151.769 184.316 151.753 189.984 152.539ZM163.655 159.603C169.725 160.336 172.202 161.799 169.061 162.797C167.985 163.139 166.69 163.161 166.182 162.847C165.674 162.533 164.368 162.753 163.279 163.336L161.3 164.396L163.352 165.835C164.715 166.791 168.272 167.394 173.955 167.633C185.979 168.139 191.561 168.928 193.697 170.424C194.709 171.134 196.524 171.714 197.729 171.714C200.576 171.714 203.534 173.323 203.534 174.872C203.534 176.923 197.028 178.09 186.713 177.888C180.057 177.758 176.224 177.264 174.798 176.351C171.926 174.512 172.16 173.585 175.499 173.585C177.041 173.585 178.303 173.164 178.303 172.65C178.303 171.57 178.248 171.562 168.958 171.318C163.471 171.174 161.081 170.638 157.951 168.853C154.529 166.899 153.991 166.183 154.213 163.871C154.588 159.978 157.154 158.818 163.655 159.603ZM257.441 173.68C260.359 174.526 262.167 177.314 261.011 179.187C260.283 180.366 258.209 180.398 256.086 179.264C255.193 178.787 253.718 178.165 252.807 177.883C250.584 177.192 249.664 174.535 251.29 173.504C252.837 172.525 253.518 172.544 257.441 173.68ZM169.892 176.39C168.063 177.574 166.825 177.574 167.556 176.39C167.874 175.876 168.845 175.462 169.714 175.469C171.075 175.482 171.101 175.609 169.892 176.39ZM238.576 179.194C239.429 180.574 233.695 185.467 228.122 188.115C221.214 191.396 211.562 191.381 206.337 188.08C204.302 186.794 201.471 185.736 200.048 185.728C198.189 185.718 197.826 185.481 198.762 184.888C199.53 184.402 201.163 184.446 202.74 184.996C207.119 186.524 220.634 184.179 231.101 180.074C234.733 178.651 238.002 178.265 238.576 179.194ZM184.61 183.581C183.711 183.817 182.24 183.817 181.34 183.581C180.44 183.346 181.176 183.154 182.975 183.154C184.774 183.154 185.51 183.346 184.61 183.581ZM357.947 266.83C356.784 267.053 355.102 267.045 354.209 266.811C353.316 266.577 354.267 266.394 356.323 266.404C358.379 266.415 359.109 266.606 357.947 266.83ZM346.713 266.859C343.998 267.049 339.793 267.047 337.368 266.855C334.944 266.662 337.166 266.508 342.305 266.51C347.445 266.513 349.428 266.67 346.713 266.859Z" fill="#3378B7"/>
</svg>
