<svg width="335" height="329" viewBox="0 0 335 329" fill="none" xmlns="http://www.w3.org/2000/svg">
<path d="M8.32553 18.0261H1.45024V15.0449H18.6291V18.0261H11.7539V35H8.32553V18.0261ZM38.3234 35H34.8764V27.0999H30.4606C29.6656 27.0999 28.97 27.1186 28.3738 27.1558C27.79 27.1807 27.2931 27.2925 26.8832 27.4912C26.4733 27.69 26.1503 28.0005 25.9143 28.4228C25.6908 28.8452 25.5479 29.4476 25.4858 30.2302L25.3367 32.3729C25.3243 32.435 25.3119 32.5592 25.2995 32.7455C25.2871 32.9318 25.2622 33.1554 25.2249 33.4163C25.1877 33.6647 25.138 33.9318 25.0759 34.2174C25.0138 34.5031 24.9393 34.764 24.8523 35H21.07C21.1569 34.8882 21.2377 34.7764 21.3122 34.6646C21.3991 34.5404 21.4799 34.3727 21.5544 34.1616C21.6414 33.9504 21.7159 33.6771 21.778 33.3417C21.8525 33.0064 21.9208 32.5778 21.9829 32.0561L22.2065 29.5035C22.2811 28.8327 22.368 28.2862 22.4674 27.8639C22.5792 27.4415 22.7282 27.0937 22.9146 26.8205C23.1133 26.5348 23.3679 26.305 23.6785 26.1311C23.989 25.9447 24.3803 25.7584 24.8523 25.5721C22.7158 24.802 21.6476 23.2244 21.6476 20.8395C21.6476 20.2433 21.7221 19.6967 21.8711 19.1999C22.0202 18.6906 22.2127 18.2372 22.4487 17.8397C22.6972 17.4422 22.9704 17.0944 23.2686 16.7963C23.5791 16.4858 23.8896 16.2312 24.2002 16.0324C24.5852 15.784 25.0076 15.5977 25.4672 15.4734C25.9268 15.3368 26.3864 15.2374 26.8459 15.1753C27.318 15.1132 27.7776 15.076 28.2247 15.0635C28.6719 15.0511 29.0818 15.0449 29.4545 15.0449H38.3234V35ZM34.8764 18.0633H29.6594C29.2122 18.0633 28.8272 18.0695 28.5042 18.082C28.1813 18.082 27.8956 18.0944 27.6471 18.1192C27.4111 18.1441 27.1937 18.1875 26.995 18.2496C26.7963 18.3117 26.5913 18.3987 26.3801 18.5105C25.9454 18.7589 25.61 19.1254 25.374 19.6098C25.1504 20.0942 25.0386 20.6097 25.0386 21.1563C25.0386 21.6904 25.1194 22.1438 25.2808 22.5164C25.4423 22.8766 25.6535 23.1748 25.9143 23.4108C26.1876 23.6468 26.4857 23.8331 26.8087 23.9697C27.1441 24.0939 27.4794 24.1871 27.8148 24.2492C28.1626 24.2989 28.498 24.33 28.821 24.3424C29.1439 24.3548 29.4234 24.361 29.6594 24.361H34.8764V18.0633Z" fill="#3378B7"/>
<path d="M311.001 27.9757C310.951 28.4601 310.851 28.988 310.702 29.5594C310.566 30.1308 310.361 30.7022 310.088 31.2736C309.814 31.8325 309.46 32.3729 309.026 32.8946C308.603 33.4163 308.082 33.8821 307.46 34.292C306.852 34.6895 306.131 35.0062 305.299 35.2422C304.467 35.4906 303.517 35.6149 302.448 35.6149C301.865 35.6149 301.25 35.5403 300.604 35.3913C299.958 35.2546 299.324 35.0186 298.703 34.6833C298.095 34.3479 297.511 33.9193 296.952 33.3976C296.405 32.8635 295.921 32.2052 295.499 31.4226C295.089 30.6401 294.759 29.7333 294.511 28.7023C294.263 27.6589 294.138 26.4664 294.138 25.1249C294.138 23.4729 294.374 21.9885 294.846 20.6718C295.318 19.3427 295.946 18.2186 296.728 17.2994C297.523 16.3802 298.442 15.6722 299.486 15.1753C300.542 14.6785 301.647 14.43 302.802 14.43C303.846 14.43 304.765 14.5418 305.56 14.7654C306.367 14.989 307.069 15.2871 307.665 15.6598C308.262 16.0324 308.765 16.4672 309.175 16.964C309.584 17.4485 309.914 17.9639 310.162 18.5105C310.423 19.0446 310.615 19.5912 310.74 20.1501C310.876 20.7091 310.963 21.2432 311.001 21.7525H307.796C307.622 20.3986 307.15 19.3365 306.38 18.5664C305.622 17.7963 304.554 17.4112 303.175 17.4112C302.231 17.4112 301.405 17.6037 300.697 17.9888C300.001 18.3739 299.418 18.9142 298.946 19.6098C298.486 20.293 298.138 21.1252 297.902 22.1065C297.679 23.0754 297.567 24.1436 297.567 25.3112C297.567 26.6279 297.691 27.7645 297.939 28.7209C298.188 29.665 298.542 30.4475 299.001 31.0686C299.461 31.6773 300.02 32.1306 300.678 32.4288C301.349 32.7144 302.107 32.8573 302.951 32.8573C303.548 32.8573 304.113 32.7517 304.647 32.5405C305.181 32.317 305.659 32.0002 306.082 31.5903C306.504 31.168 306.864 30.6525 307.162 30.0438C307.46 29.4352 307.672 28.7458 307.796 27.9757H311.001ZM314.392 15.0449H317.82V30.3419H317.894L327.695 15.0449H331.626V35H328.179V19.703H328.105L318.323 35H314.392V15.0449Z" fill="#3378B7"/>
<path d="M296.476 299.386H299.905V316.36H309.221V299.386H312.668V316.36H315.127V324.223H311.922V319.342H296.476V299.386ZM316.189 299.386H319.953L325.263 315.634H325.338L330.648 299.386H334.411L326.791 320.143C326.406 321.186 326.052 322.093 325.729 322.863C325.406 323.633 325.089 324.285 324.779 324.819C324.468 325.366 324.151 325.807 323.828 326.142C323.518 326.478 323.17 326.739 322.785 326.925C322.412 327.124 321.99 327.254 321.518 327.316C321.058 327.391 320.524 327.428 319.916 327.428C319.419 327.428 319.027 327.403 318.742 327.353C318.469 327.316 318.226 327.266 318.015 327.204V324.111C318.239 324.186 318.531 324.26 318.891 324.335C319.251 324.41 319.63 324.447 320.027 324.447C320.661 324.447 321.17 324.292 321.555 323.981C321.953 323.683 322.257 323.254 322.468 322.695L323.586 319.882L316.189 299.386Z" fill="#3378B7"/>
<path d="M52.1309 21.8542H284.554" stroke="#3378B7" stroke-width="3"/>
<path d="M52.1309 317.882H284.554" stroke="#3378B7" stroke-width="3"/>
<path d="M314.367 285.266V52.8434" stroke="#3378B7" stroke-width="3"/>
<path d="M21.1426 285.266L21.1426 52.8434" stroke="#3378B7" stroke-width="3"/>
<circle cx="18.4337" cy="313.283" r="10.3029" fill="#3378B7"/>
</svg>
