<svg width="1384" height="711" viewBox="0 0 1384 711" fill="none" xmlns="http://www.w3.org/2000/svg">
<rect x="0.882812" y="0.269531" width="1382.23" height="710.147" rx="30.0485" fill="#2D4F46"/>
<path d="M1327.03 25.3125H679.982C663.387 25.3125 649.934 38.7657 649.934 55.361V270.709C649.934 287.304 663.387 300.757 679.982 300.757H965.944C972.859 300.757 978.464 306.363 978.464 313.278C978.464 320.192 972.859 325.798 965.944 325.798H679.982C663.387 325.798 649.934 339.251 649.934 355.846V441.986C649.934 458.581 663.387 472.034 679.982 472.034H1091.15C1098.06 472.034 1103.67 477.64 1103.67 484.554C1103.67 491.469 1098.06 497.074 1091.15 497.074H929.385C912.79 497.074 899.336 510.528 899.336 527.123V655.33C899.336 671.925 912.79 685.379 929.385 685.379H1327.03C1343.62 685.379 1357.08 671.925 1357.08 655.33V527.123C1357.08 510.528 1343.62 497.074 1327.03 497.074H1166.27C1159.35 497.074 1153.75 491.469 1153.75 484.554C1153.75 477.64 1159.35 472.034 1166.27 472.034H1327.03C1343.62 472.034 1357.08 458.581 1357.08 441.986V355.846C1357.08 339.251 1343.62 325.798 1327.03 325.798H1041.07C1034.15 325.798 1028.55 320.192 1028.55 313.278C1028.55 306.363 1034.15 300.757 1041.07 300.757H1327.03C1343.62 300.757 1357.08 287.304 1357.08 270.709V55.361C1357.08 38.7657 1343.62 25.3125 1327.03 25.3125Z" fill="white"/>
<path d="M26.0001 526.801L26.0004 654.873C26.0005 671.441 39.4103 684.882 55.9777 684.921L170.341 685.192L844.322 685.192C860.917 685.192 874.37 671.739 874.37 655.144V526.801C874.37 510.206 860.917 496.753 844.322 496.753L219.821 496.753C212.902 496.753 207.293 491.144 207.293 484.225C207.293 477.306 212.902 471.697 219.821 471.697L594.95 471.697C611.545 471.697 624.998 458.244 624.998 441.649V55.2771C624.998 38.6818 611.545 25.2286 594.95 25.2286H225.359C208.763 25.2286 195.31 38.6817 195.31 55.2771L195.31 446.366C195.31 453.291 189.697 458.905 182.772 458.905C175.847 458.905 170.233 453.291 170.233 446.366L170.233 55.3195C170.233 38.752 156.823 25.3104 140.256 25.2711L56.1203 25.0716C39.4971 25.0322 26.0005 38.4969 26.0005 55.1201L26.0005 441.649C26.0005 458.244 39.4537 471.697 56.049 471.697H91.6062H144.684C151.603 471.697 157.212 477.306 157.212 484.225C157.212 491.144 151.603 496.753 144.684 496.753H91.6057H56.0486C39.4532 496.753 26 510.206 26.0001 526.801Z" fill="white"/>
</svg>
