<svg width="87" height="54" viewBox="0 0 87 54" fill="none" xmlns="http://www.w3.org/2000/svg">
<path d="M20 24C20 24 10.6667 28.3333 8 29H7C14 34 16 38.9998 13.5 45.9998C11.5 51.5998 3.66667 53.3332 0 53.4998H77C74 53.4998 72 51.9998 70 50.9998C68 49.9998 64.5 45.4998 65 38.4998C65.4 32.8998 71 29 75.5 27.9998L78 27.5L86.5 28C75.5 17.5 52.5 0 52.5 0C52.5 0 52.9749 6.81806 50.5 10C47 14.4998 44 15.4998 38.5 15C34.8273 14.6662 32 11.4998 31 10.4998L28.5 15.4998C27.3 17.8998 22.5 22 20 24Z" fill="white"/>
</svg>
