<svg width="38" height="32" viewBox="0 0 38 32" fill="none" xmlns="http://www.w3.org/2000/svg">
<path d="M35.3784 1C36.4878 1 37.3246 1.9666 36.877 3.76448L31.4469 29.1861C31.0674 30.9937 29.9678 31.4286 28.4497 30.5877L15.4973 21.086C15.4471 21.0502 15.4062 21.003 15.378 20.9484C15.3497 20.8938 15.335 20.8333 15.335 20.7719C15.335 20.7104 15.3497 20.6499 15.378 20.5953C15.4062 20.5407 15.4471 20.4935 15.4973 20.4577L30.4544 7.04127C31.1355 6.44197 30.3084 6.15199 29.4131 6.69329L10.6414 18.4568C10.5845 18.4937 10.5199 18.5172 10.4524 18.5256C10.385 18.534 10.3165 18.527 10.2522 18.5052L2.28224 16.0017C0.511146 15.4894 0.511146 14.2811 2.68123 13.4208L34.5707 1.20299C34.8236 1.08247 35.0982 1.01345 35.3784 1Z" stroke="white" stroke-width="2" stroke-linecap="round" stroke-linejoin="round"/>
</svg>
