<svg width="300" height="300" viewBox="0 0 306 231" fill="none" xmlns="http://www.w3.org/2000/svg">
<path fill-rule="evenodd" clip-rule="evenodd" d="M17.4851 0.474774C17.0665 0.893923 14.3879 1.76225 11.5329 2.40478C6.2201 3.59978 0.94325 7.46098 0.94325 10.1548C0.94325 10.9835 1.6378 12.3755 2.48708 13.2486C3.70463 14.5012 3.83778 20.0222 3.11684 39.4556C2.48588 56.4797 2.60823 65.0921 3.5139 67.3692C4.54552 69.9585 4.41477 71.5271 2.90213 74.7169C1.46746 77.7434 1.02002 82.0874 1.13398 91.8407C1.21914 99.0287 1.18676 108.693 1.0632 113.317C0.93965 117.941 0.727332 136.857 0.590582 155.352C0.349471 188.14 0.411845 189.123 3.07846 194.697C4.73265 198.156 7.48923 201.476 10.0551 203.104C14.2056 205.735 14.2871 205.938 13.7953 212.391C13.0816 221.756 14.6578 226.62 18.6907 227.5C20.4756 227.889 23.285 228.663 24.9344 229.221C32.6463 231.824 40.1064 231.667 77.7149 228.108C91.511 226.804 94.216 226.025 95.1457 223.089C96.3128 219.407 94.6455 218.099 89.8688 218.951C87.4721 219.377 79.8441 220.253 72.9167 220.896C65.9892 221.539 58.0194 222.593 55.2064 223.237C43.9714 225.811 24.9452 223.249 21.59 218.711C19.0578 215.284 20.2861 211.897 24.3346 211.148L27.9333 210.483L24.0347 208.407C21.8755 207.258 20.1362 205.381 20.1362 204.197C20.1362 203.023 18.2001 200.2 15.8322 197.923C7.02141 189.448 6.71551 187.971 7.5804 157.976C8.74037 117.729 8.40689 80.5922 6.81388 72.7629C5.57474 66.669 5.72349 64.506 8.05303 54.7479C10.4305 44.7892 10.5889 42.2515 9.61244 29.8476C9.01387 22.2513 8.74037 15.6302 9.00308 15.1354C9.71201 13.8011 16.2772 14.0425 17.1373 15.4356C18.0357 16.89 21.3357 17.0414 21.3357 15.629C21.3357 15.0741 19.9046 13.9668 18.1545 13.1693C13.577 11.0808 15.8981 9.50988 25.5917 8.13594C30.1045 7.49581 35.3262 6.20834 37.1963 5.27397C40.0704 3.83877 41.1932 3.82556 44.4608 5.1923C46.5864 6.08104 57.7651 7.44777 69.3012 8.22962C80.8373 9.01027 91.1931 10.1404 92.3135 10.7409C93.4339 11.3414 96.2085 11.8326 98.478 11.8326C100.748 11.8326 104.887 12.6397 107.679 13.6257C110.47 14.6117 114.003 15.1041 115.53 14.721C119.269 13.7806 123.226 19.2332 120.87 22.0759C118.753 24.6305 120.34 25.703 124.222 24.3422C128.499 22.8422 129.055 18.8477 125.466 15.402C121.502 11.596 115.846 8.23923 113.389 8.23442C112.227 8.23202 108.989 7.16434 106.191 5.86245C103.395 4.56057 97.0578 2.88157 92.1096 2.13215C82.3152 0.647715 18.7231 -0.764656 17.4851 0.474774ZM44.967 24.018C43.1197 24.7145 41.8134 25.9059 42.0653 26.665C42.5919 28.2599 67.4911 29.91 94.6886 30.1539L112.263 30.3112L112.754 39.3871C113.024 44.3785 112.731 53.0569 112.104 58.6716C111.476 64.2862 110.904 71.5271 110.833 74.7625C110.729 79.4332 110.207 80.8564 108.304 81.6647C106.792 82.306 107.903 82.4117 111.303 81.9481C114.271 81.5446 117.026 81.0234 117.423 80.7904C118.156 80.3616 119.422 68.8008 120.176 55.6691C120.402 51.7058 120.978 46.0311 121.454 43.0586C122.727 35.1128 119.017 26.1149 113.738 24.3434C108.532 22.596 49.4785 22.3173 44.967 24.018ZM195.271 63.5849C190.983 64.0773 184.775 65.0945 181.477 65.8463C178.178 66.597 173.589 67.5229 171.28 67.9024C168.971 68.282 166.017 69.3328 164.715 70.2372C163.415 71.1427 161.517 71.8826 160.5 71.8826C159.482 71.8826 156.541 73.0139 153.966 74.3962L149.282 76.9087L144.256 74.3962C141.492 73.0139 137.819 71.8826 136.094 71.8826C132.796 71.8826 122.099 76.5641 122.099 78.0077C122.099 78.9396 140.278 80.2895 151.418 80.1851C156.42 80.1382 158.953 79.5617 159.909 78.2514C160.854 76.958 165.48 75.8663 174.973 74.6953C182.508 73.7669 192.183 72.4266 196.471 71.718C200.759 71.0106 206.157 70.5639 208.467 70.726C213.259 71.0635 250.414 71.0503 259.448 70.708C266.672 70.4342 275.405 71.73 276.32 73.2109C276.684 73.8018 278.558 74.2846 280.483 74.2846C285.093 74.2846 287.901 78.6105 288.575 86.7521C288.938 91.137 288.596 93.4069 287.424 94.3809C285.514 95.9674 274.361 98.1832 261.247 99.5812C256.299 100.108 244.423 101.462 234.857 102.588C216.786 104.715 198.907 105.198 191.673 103.753C189.364 103.292 183.561 102.629 178.778 102.28C171.933 101.78 170.083 101.993 170.09 103.278C170.1 104.926 175.256 107.913 178.091 107.913C178.936 107.913 183.782 109.309 188.86 111.016C197.214 113.823 199.301 114.056 210.777 113.455C227.743 112.566 236.417 111.523 237.796 110.204C238.422 109.605 240.381 109.114 242.148 109.114C243.914 109.114 246.031 108.303 246.852 107.312C247.674 106.321 249.563 105.511 251.051 105.511C252.54 105.511 255.704 104.696 258.085 103.701C261.486 102.277 263.579 102.151 267.865 103.113C273.054 104.277 278.431 103.789 281.04 101.916C281.7 101.443 284.746 100.335 287.811 99.4551C291.59 98.3694 294.003 96.8045 295.309 94.591C297.566 90.7659 297.775 81.9493 295.692 78.4244C293.419 74.5788 283.825 66.4456 279.84 64.9876C275.517 63.4059 206.757 62.2662 195.271 63.5849ZM90.0835 83.8025C86.9659 86.7101 87.4313 92.7955 91.0672 96.6712C93.5359 99.3014 93.5647 99.6929 91.9644 108.756C89.7717 121.172 89.6553 164.788 91.8097 166.943C92.635 167.768 93.3092 169.686 93.3092 171.205C93.3092 172.724 93.8489 173.967 94.5087 173.967C95.1685 173.967 95.7083 174.724 95.7083 175.649C95.7083 176.572 97.5976 180.139 99.9067 183.575C107.646 195.091 104.864 199.845 86.8819 205.837C82.1545 207.413 80.4043 207.509 77.6117 206.351C75.6745 205.548 72.1921 205.246 69.6443 205.662C67.1564 206.067 60.5312 206.907 54.9233 207.528C42.1576 208.943 35.7304 210.794 35.7304 213.056C35.7304 214.524 39.4035 214.793 58.8219 214.749C71.5228 214.72 84.0726 214.215 86.7116 213.628C101.886 210.248 105.24 208.513 109.503 201.837C111.896 198.089 114.602 197.046 116.76 199.041C118.941 201.054 131.811 205.193 135.893 205.193H140.002L139.312 212.7L138.622 220.206L143.255 221.788C157.232 226.562 183.209 228.603 191.209 225.559C196.808 223.427 192.702 221.637 182.455 221.744C176.615 221.804 172.799 221.324 172.266 220.46C171.797 219.7 166.904 218.727 161.392 218.299C155.88 217.87 150.183 217.141 148.729 216.68C145.523 215.66 143.425 212.087 144.455 209.4C145.107 207.697 146.621 207.532 155.547 208.192C183.63 210.266 224.5 208.999 234.737 205.736C238.722 204.467 240.699 207.431 239.752 213.259C239.085 217.367 238.593 217.857 234.239 218.751C231.61 219.292 222.576 220.337 214.164 221.073C201.002 222.226 198.87 222.702 198.87 224.484C198.87 227.512 201.244 228.012 215.615 228.012C225.458 228.012 228.912 227.594 230.007 226.273C230.8 225.316 233.952 224.37 237.012 224.172C243.636 223.74 245.184 221.534 246.296 210.935L247.016 204.066L258.63 196.887C274.069 187.343 282.173 179.283 285.577 170.085C286 168.94 287.069 168.281 287.952 168.619C288.908 168.987 290.407 167.642 291.657 165.296C292.811 163.13 295.336 158.655 297.266 155.352C299.196 152.049 300.789 148.485 300.805 147.43C300.819 146.376 301.585 143.944 302.505 142.026C303.424 140.108 304.545 135.836 304.995 132.533C305.727 127.167 305.632 126.771 304.106 128.811C301.237 132.648 300.77 129.102 303.276 122.499C306.129 114.98 306.195 112.399 303.719 105.124C302.455 101.411 301.12 99.5055 299.783 99.5055C298.011 99.5055 297.727 101.323 297.488 114.166C297.338 122.23 296.681 129.364 296.026 130.019C295.371 130.675 294.835 132.693 294.835 134.504C294.835 136.315 294.295 138.13 293.635 138.538C292.975 138.946 292.421 140.464 292.404 141.912C292.34 147.41 286.739 160.541 280.27 170.364C272.444 182.246 270.171 184.468 261.247 188.95C257.618 190.773 253.112 193.074 251.231 194.064C248.382 195.563 247.33 195.605 244.919 194.312C242.437 192.983 241.815 193.051 240.537 194.802C239.341 196.441 235.631 197.094 221.658 198.127C212.094 198.834 203.356 199.886 202.243 200.465C201.08 201.07 198.785 201.063 196.845 200.448C194.99 199.86 181.866 199.078 167.682 198.713C139.407 197.983 135.29 197.162 120.643 189.347C115.018 186.345 111.915 183.568 107.511 177.591C104.211 173.114 101.735 168.454 101.724 166.701C101.714 165.016 101.215 163.125 100.617 162.498C99.085 160.892 97.9502 149.952 98.0714 137.937C98.2189 123.26 99.3669 101.908 100.01 101.908C100.311 101.908 102.662 103.301 105.233 105.005C109.009 107.507 110.372 107.852 112.326 106.806C113.655 106.093 118.018 105.511 122.019 105.511C127.836 105.511 129.296 105.132 129.296 103.623C129.296 102.042 128.255 101.865 122.889 102.536C117.55 103.205 115.153 102.805 108.505 100.143C104.118 98.385 100.017 97.2645 99.3909 97.6524C98.2885 98.3345 92.1096 92.5866 92.1096 90.8788C92.1096 90.4152 93.242 88.1129 94.6275 85.7625C97.059 81.6371 97.0662 81.4905 94.853 81.4905C93.5934 81.4905 91.4462 82.5306 90.0835 83.8025ZM144.29 101.307C141.685 102.471 141.188 103.105 142.491 103.606C144.908 104.535 151.213 102.733 151.809 100.941C152.426 99.0888 148.871 99.2617 144.29 101.307Z" fill="#3378B7"/>
</svg>
