<svg width="300" height="300" viewBox="0 0 295 253" fill="none" xmlns="http://www.w3.org/2000/svg">
<path fill-rule="evenodd" clip-rule="evenodd" d="M180.441 0.489309C187.511 1.22309 189.668 2.84879 187.918 6.12549C187.007 7.83026 185.031 8.05166 168.794 8.25935C144.793 8.56614 143.102 8.49972 137.272 7.01846C132.483 5.80077 130.808 4.14766 133.59 3.38331C143.497 0.66116 167.701 -0.834865 180.441 0.489309ZM120.352 10.7369C120.686 11.6088 120.192 13.1733 119.253 14.2118C118.316 15.2503 117.548 16.8022 117.548 17.6604C117.548 19.7911 105.815 25.9502 101.757 25.9502C97.8345 25.9502 94.4052 27.6075 94.4052 29.502C94.4052 30.2548 88.9098 33.678 82.192 37.1086C63.9459 46.4274 58.0644 52.9787 62.4858 59.0619C64.434 61.7419 69.4529 62.8215 70.6836 60.8257C71.399 59.666 78.3976 55.5459 89.035 50.0215C97.3685 45.6936 103.671 44.7785 105.977 47.5629C107.998 50.0046 109.437 49.4479 108.7 46.5086C108.165 44.3684 108.429 43.8729 110.102 43.8729C113.06 43.8729 113.554 45.3299 111.763 48.7711C110.902 50.4263 110.195 52.2049 110.191 52.7246C110.188 53.2444 108.054 55.9518 105.451 58.7414C102.847 61.531 100.717 64.5526 100.717 65.4551C100.717 66.3575 100.13 68.038 99.4114 69.1904C98.3731 70.8572 98.3731 71.7111 99.4114 73.378C100.13 74.5303 100.717 76.4512 100.717 77.6478C100.717 78.8444 101.479 81.3409 102.41 83.1975C104.187 86.7431 112.133 95.5326 113.559 95.5326C114.018 95.5326 114.398 92.0925 114.404 87.8891C114.415 79.9999 116.192 72.3289 119.182 67.2568C120.841 64.4408 130.172 59.0935 130.172 60.9586C130.172 61.4646 129.147 63.8768 127.893 66.3185C125.113 71.7364 124.01 76.5366 122.921 87.9629C121.795 99.7929 119.228 102.554 109.853 102.025C106.252 101.822 95.4571 91.5084 95.4571 88.2707C95.4571 87.1005 95.0332 85.053 94.5146 83.7215C92.235 77.8629 91.0473 72.4639 91.7784 71.2789C92.2139 70.5736 92.7041 68.1983 92.8672 66.0033C93.0303 63.8072 93.6972 61.0134 94.3473 59.7946C95.8022 57.0704 95.2836 57.0535 88.6394 59.6122C80.4447 62.7677 66.2917 67.067 64.0984 67.067C61.5674 67.067 58.6388 63.8399 58.6388 61.0513C58.6388 59.8632 57.9287 58.3007 57.0609 57.5785C54.6477 55.5712 55.1642 52.0415 58.6199 46.9303C60.3451 44.379 61.7652 41.7875 61.7757 41.1708C61.8367 37.5852 78.6964 27.8131 91.8426 23.7435C95.5139 22.6081 99.909 20.5048 101.61 19.0699C103.311 17.6351 105.034 16.4616 105.44 16.4616C105.846 16.4616 107.435 15.5666 108.971 14.4733C110.506 13.38 113.558 11.7353 115.753 10.8181C119.287 9.34209 119.814 9.3326 120.352 10.7369ZM216.514 29.2659C218.107 32.2516 218.87 40.7101 217.545 40.7101C216.553 40.7101 213.276 31.2563 213.276 28.394C213.276 26.2422 215.171 26.7525 216.514 29.2659ZM163.941 43.1159C168.083 45.9045 169.181 50.3525 166.469 53.3561C164.006 56.0836 164.681 62.4482 167.384 61.9823C169.127 61.6818 169.269 62.1056 168.611 65.628C167.072 73.845 162.298 82.1548 154.948 89.4114C148.404 95.871 147.845 96.7629 148.347 99.9542C148.648 101.871 148.179 105.692 147.303 108.444C145.052 115.519 146.178 121.885 150.412 126.034C154.037 129.586 154.628 129.767 157.528 128.212C158.817 127.52 159.756 125.427 160.243 122.15C161.258 115.331 163.866 109.586 168.424 104.13C170.528 101.612 172.25 99.1572 172.25 98.6764C172.25 97.0623 177.68 91.3155 179.205 91.3155C180.506 91.3155 180.511 91.6423 179.237 93.6876C178.425 94.9928 177.458 97.3649 177.089 98.959L176.417 101.858L192.48 101.947C208.174 102.034 215.809 102.736 224.321 104.878C226.636 105.461 230.557 106.449 233.036 107.074C235.514 107.699 238.354 108.639 239.347 109.163C241.178 110.128 243.1 110.954 255.354 116.038C268.766 121.603 279.549 127.312 279.549 128.849C279.549 130.983 276.707 131.869 273.956 130.595C270.911 129.186 267.145 127.624 256.406 123.316C251.488 121.343 246.517 119.321 245.36 118.822C244.203 118.322 241.126 117.329 238.523 116.614C235.919 115.9 233.079 115.049 232.211 114.724C231.343 114.398 229.923 114.019 229.055 113.881C228.187 113.744 225.11 113.084 222.217 112.415C211.727 109.987 199.939 109.072 188.29 109.78C172.269 110.755 171.122 112.797 184.42 116.676C188.43 117.845 193.368 118.998 195.393 119.236C218.952 122.003 235.528 127.228 236.22 132.104C236.405 133.401 235.578 135.383 234.333 136.632C232.164 138.805 231.519 138.841 202.973 138.38C186.943 138.12 169.814 137.651 164.908 137.336C155.512 136.734 145.951 138.741 145.951 141.317C145.951 144.339 156.991 149.946 160.651 148.782C161.878 148.392 163.452 148.527 164.148 149.083C165.397 150.081 174.804 151.161 190.133 152.065C217.88 153.701 218.536 153.847 218.536 158.354C218.536 163.232 213.415 163.904 199.074 160.908C196.182 160.304 190.036 159.364 185.417 158.819C177.773 157.917 176.825 158.011 174.851 159.87C173.658 160.994 170.947 162.514 168.827 163.25C166.707 163.986 165.039 165.062 165.12 165.642C165.201 166.222 168.14 167.569 171.651 168.637C175.163 169.704 178.505 171.028 179.079 171.58C180.761 173.197 177.386 174.643 173.565 173.941L170.146 173.314L170.13 184.766C170.108 201.806 168.388 206.014 156.536 218.02C149.165 225.486 138.568 232.589 134.798 232.589C133.692 232.589 133.327 234.25 133.327 239.278C133.327 248.658 131.632 249.912 116.496 251.714C105.091 253.07 55.7985 253.208 50.7491 251.897C35.4516 247.923 30.3445 241.967 33.0648 231.271C33.8264 228.274 38.4981 228.88 39.1577 232.062C39.4575 233.511 39.934 235.823 40.2159 237.199C40.6946 239.537 44.7183 242.054 49.107 242.763C50.0096 242.909 54.2995 243.606 58.6388 244.312C67.957 245.829 83.1609 245.857 106.965 244.401C121.76 243.495 124.464 243.064 125.668 241.412C126.442 240.352 126.932 238.762 126.754 237.88C126.397 236.108 125.145 236.107 113.866 237.869C105.8 239.128 68.7744 238.338 63.3726 236.791C61.6369 236.295 58.0865 235.329 55.4829 234.646C39.1671 230.365 24.5871 217.946 14.7019 199.906C13.2723 197.297 10.553 193.501 8.65948 191.472C5.15332 187.713 4.33704 185.974 3.45865 180.389C3.18619 178.657 2.38983 175.104 1.68924 172.495C0.0923767 166.55 0.107086 144.53 1.71448 136.122C2.3793 132.643 3.07782 127.809 3.26718 125.38C3.87625 117.561 6.04327 115.747 19.7166 111.609C21.7415 110.997 28.4867 110.494 34.7069 110.492C43.7295 110.489 46.0154 110.788 46.0154 111.971C46.0154 114.037 53.297 113.922 56.3066 111.811C58.1991 110.481 60.9268 110.252 70.4785 110.621C76.9849 110.872 84.6746 111.556 87.5675 112.14C91.5228 112.939 94.2095 112.841 98.4016 111.747C101.467 110.947 105.388 110.292 107.113 110.292C108.863 110.292 110.505 109.626 110.828 108.785C111.145 107.955 112.857 106.769 114.633 106.149C118.82 104.687 129.704 104.696 132.443 106.165C135.862 107.999 139.067 106.533 140.687 102.395C141.494 100.335 143.007 97.8752 144.052 96.9274C145.097 95.9807 145.951 94.7608 145.951 94.2168C145.951 93.6739 148.554 90.3455 151.737 86.8211C155.173 83.0141 157.522 79.4411 157.522 78.02C157.522 76.7032 157.965 75.3516 158.507 75.0153C159.049 74.68 160.286 70.8287 161.257 66.4577C162.736 59.7946 162.812 57.7578 161.724 53.8664C160.65 50.0225 159.827 49.0262 156.936 48.07C155.017 47.4353 151.76 47.2329 149.698 47.6198C145.028 48.498 144.857 47.0916 149.188 43.4396C153.35 39.9288 159.021 39.8044 163.941 43.1159ZM203.808 72.3796C203.808 74.2657 193.677 84.3646 192.957 83.1965C192.595 82.6103 193.985 80.1601 196.044 77.7501C200.135 72.9594 203.808 70.4186 203.808 72.3796ZM135.168 112C135.891 112.318 136.483 113.459 136.483 114.535C136.483 115.612 136.957 116.787 137.535 117.145C138.114 117.504 138.587 118.939 138.587 120.333C138.587 121.728 139.986 124.903 141.696 127.388C144.337 131.227 144.574 132.08 143.274 133.075C142.432 133.72 140.533 136.033 139.055 138.216L136.367 142.188L138.791 144.79C141.555 147.755 146.114 150.355 148.549 150.355C149.457 150.355 152.075 151.541 154.366 152.991C156.658 154.44 159.488 155.626 160.657 155.626C163.77 155.626 163.249 158.493 159.812 160.274C158.18 161.12 156.253 162.526 155.532 163.397C153.689 165.622 155.769 169.196 159.707 170.573L162.782 171.647L162.771 181.823C162.753 197.595 160.56 203.4 150.865 213.343C145.644 218.697 143.06 220.437 137.045 222.652C132.975 224.151 128.679 225.842 127.496 226.409C120.778 229.633 81.7744 232.139 72.8401 229.921C69.9473 229.203 65.2619 228.283 62.429 227.878C59.5961 227.474 56.5191 226.756 55.5913 226.283C54.6634 225.812 51.78 224.547 49.1828 223.473C43.4559 221.104 34.1115 213.382 29.4113 207.134C27.5115 204.608 24.5082 200.644 22.7378 198.325C9.03607 180.378 5.79501 165.851 9.10236 137.196C9.77036 131.407 10.6971 126.29 11.16 125.826C11.6239 125.361 14.7335 126.42 18.0703 128.179C21.4081 129.939 25.0436 131.378 26.1492 131.378C27.2559 131.378 29.0295 131.922 30.092 132.586C31.1534 133.252 33.1815 133.504 34.5975 133.147C36.5551 132.655 37.1611 131.816 37.1232 129.643C37.0843 127.403 36.3911 126.577 33.9179 125.823C28.4562 124.157 21.4049 122.796 18.4016 122.828C16.8111 122.845 15.5087 122.42 15.5087 121.884C15.5087 120.236 18.9023 118.976 25.5023 118.17C28.9737 117.747 33.5003 116.549 35.5621 115.507C38.0321 114.259 39.8246 113.94 40.8219 114.573C41.6529 115.1 46.211 115.539 50.9501 115.548C55.6891 115.557 59.8591 116.038 60.2167 116.618C61.2813 118.344 79.8535 117.871 82.2457 116.057C84.946 114.01 88.266 114.102 92.1403 116.33C94.8354 117.881 95.8358 117.959 98.8749 116.857C100.838 116.146 104.128 115.564 106.186 115.564C108.244 115.564 111.524 114.904 113.475 114.098C117.234 112.545 132.947 111.025 135.168 112ZM180.642 124.119C182.076 124.693 187.046 125.662 191.688 126.271C204.283 127.926 203.85 129.27 190.722 129.27C181.096 129.27 179.102 128.982 177.922 127.425C176.386 125.397 176.005 122.906 177.246 123.01C177.68 123.047 179.208 123.547 180.642 124.119ZM171.526 124.679C172.971 126.128 172.222 128.365 170.409 128.015C169.396 127.819 168.568 126.993 168.568 126.18C168.568 124.516 170.423 123.574 171.526 124.679ZM69.1583 128.986C71.1833 129.225 73.2904 129.861 73.8395 130.399C74.3886 130.937 75.9276 131.378 77.2583 131.378C78.7079 131.378 79.6778 132.012 79.6778 132.959C79.6778 133.829 78.7595 134.541 77.636 134.541C76.5125 134.541 75.3017 135.015 74.944 135.595C73.9563 137.198 57.4132 136.851 55.2199 135.182C52.8762 133.399 52.8962 132.142 55.3031 129.96C57.1861 128.252 60.7785 127.999 69.1583 128.986ZM129.107 130.148C129.693 130.342 130.172 131.381 130.172 132.458C130.172 133.535 130.668 134.724 131.275 135.1C132.028 135.567 131.988 136.253 131.146 137.27C130.158 138.464 125.592 138.758 108.081 138.758C89.2674 138.758 86.0527 138.523 84.8377 137.055C83.629 135.596 83.7773 135.07 85.877 133.365C87.8105 131.797 90.0606 131.378 96.5638 131.378C101.093 131.378 105.073 130.936 105.407 130.395C105.951 129.511 126.528 129.296 129.107 130.148ZM213.802 171.964C222.674 173.197 228.885 175.51 228.003 177.253C227.714 177.825 226.294 178.294 224.847 178.294C223.401 178.294 220.91 179.182 219.312 180.268C215.911 182.579 202.939 182.966 195.561 180.975C191.356 179.84 191.209 179.669 192.658 177.598C193.496 176.398 193.905 174.693 193.567 173.811C193.07 172.51 193.632 172.309 196.539 172.749C198.513 173.048 201.31 172.73 202.756 172.043C204.75 171.096 207.422 171.077 213.802 171.964ZM184.164 179.927C190.996 180.753 193.785 182.403 190.249 183.528C189.038 183.913 187.58 183.938 187.009 183.584C186.436 183.23 184.966 183.478 183.74 184.135L181.512 185.331L183.822 186.952C185.357 188.03 189.361 188.71 195.759 188.98C209.293 189.55 215.577 190.44 217.981 192.126C219.122 192.926 221.164 193.581 222.52 193.581C225.726 193.581 229.055 195.394 229.055 197.141C229.055 199.453 221.731 200.768 210.12 200.541C202.627 200.394 198.313 199.837 196.708 198.808C193.474 196.735 193.738 195.689 197.497 195.689C199.232 195.689 200.652 195.215 200.652 194.635C200.652 193.418 200.591 193.409 190.133 193.134C183.957 192.971 181.266 192.367 177.743 190.354C173.891 188.152 173.285 187.344 173.535 184.738C173.957 180.349 176.846 179.042 184.164 179.927ZM289.738 195.797C293.023 196.75 295.058 199.894 293.756 202.005C292.937 203.334 290.603 203.371 288.213 202.092C287.208 201.554 285.547 200.853 284.521 200.535C282.02 199.755 280.984 196.76 282.814 195.598C284.555 194.495 285.322 194.516 289.738 195.797ZM191.185 198.852C189.125 200.187 187.732 200.187 188.555 198.852C188.913 198.272 190.006 197.805 190.984 197.813C192.517 197.828 192.545 197.972 191.185 198.852ZM268.502 202.013C269.462 203.569 263.008 209.085 256.734 212.069C248.958 215.769 238.092 215.752 232.211 212.03C229.92 210.581 226.733 209.387 225.131 209.379C223.038 209.367 222.63 209.101 223.684 208.432C224.547 207.884 226.386 207.934 228.161 208.553C233.091 210.276 248.305 207.632 260.088 203.005C264.176 201.4 267.856 200.966 268.502 202.013ZM207.753 206.958C206.74 207.224 205.084 207.224 204.071 206.958C203.058 206.694 203.887 206.477 205.912 206.477C207.937 206.477 208.766 206.694 207.753 206.958Z" fill="#3378B7"/>
</svg>
