<svg width="262" height="281" viewBox="0 0 262 281" fill="none" xmlns="http://www.w3.org/2000/svg">
<path fill-rule="evenodd" clip-rule="evenodd" d="M136.581 0.596483C147.669 2.79402 151.698 3.96521 154.277 5.74067C155.928 6.87678 157.923 7.80695 158.711 7.80695C159.498 7.80695 160.946 8.47911 161.927 9.29951C164.573 11.5129 173.218 14.5489 173.869 13.4943C174.179 12.9919 173.122 11.7211 171.519 10.6699L168.604 8.75861L172.313 6.01904C177.705 2.03812 188.207 2.11847 194.36 6.18878C196.779 7.78771 199.521 9.9728 200.453 11.0444C201.386 12.1149 205.016 15.1068 208.519 17.6936C212.023 20.2804 216.856 25.0003 219.259 28.1834C221.663 31.3677 225.663 36.4067 228.151 39.3827C235.989 48.7624 238.634 53.1564 252.811 80.362C256.31 87.0779 258.014 91.834 258.283 95.6384C259.066 106.704 254.89 101.416 243.879 77.3995C241.597 72.4205 238.008 65.9195 235.906 62.9514C232.459 58.089 226.333 47.3197 220.474 35.8284C217.952 30.8789 213.632 27.1175 198.685 16.8596C196.419 15.3037 192.71 12.4431 190.443 10.5035C185.395 6.18199 181.235 4.63851 181.235 7.085C181.235 8.01742 183.397 9.8653 186.04 11.1927C193.059 14.7187 204.989 26.3684 204.966 29.6771C204.962 30.407 203.598 31.637 201.936 32.4087C199.434 33.572 198.594 33.5234 197.051 32.1259C196.026 31.198 194.465 30.4273 193.581 30.4138C192.698 30.4002 190.703 29.3931 189.149 28.1755C187.594 26.9579 184.953 25.9508 183.28 25.9372C181.607 25.9236 179.918 25.3929 179.526 24.7592C177.723 21.8397 158.717 13.4671 153.887 13.466C152.214 13.4649 150.531 12.9557 150.147 12.3333C149.762 11.7109 148.461 11.2017 147.254 11.2017C146.046 11.2017 145.059 11.7109 145.059 12.3333C145.059 12.9557 145.743 13.4649 146.58 13.4649C147.416 13.4649 148.986 14.4448 150.069 15.642C151.15 16.8393 154.664 19.0685 157.875 20.5961C161.085 22.1238 164.681 24.4537 165.866 25.7743C167.051 27.0948 168.577 28.1778 169.258 28.18C169.938 28.1834 173.177 30.2203 176.453 32.7064C179.73 35.1936 182.81 37.2282 183.297 37.2282C183.784 37.2282 185.902 39.0036 188.003 41.174C190.105 43.3444 194.518 46.781 197.811 48.8122C201.105 50.8434 203.809 52.8237 203.822 53.2141C203.835 53.6045 201.429 53.6611 198.475 53.3397C192.486 52.689 190.743 51.6627 177.278 40.864C168.89 34.1367 156.732 26.5573 151.681 24.9063C139.434 20.9062 135.854 20.0326 127.609 19.0357C122.595 18.4303 117.077 17.3688 115.348 16.6786C111.806 15.2652 110.779 15.7235 111.761 18.2798C112.128 19.2394 114.048 20.268 116.026 20.5656C127.408 22.2788 148.584 31.0769 151.011 35.1008C152.692 37.8902 159.796 41.7364 163.385 41.802C167.538 41.8779 180.728 50.3014 183.481 54.6365C186.334 59.1289 178.639 59.7094 173.887 55.3596C170.871 52.5996 164.958 49.4459 158.06 46.918C154.951 45.7784 151.357 43.8966 150.074 42.7345C148.79 41.5735 146.945 40.6229 145.973 40.6229C143.508 40.6229 135.649 37.2429 134.496 35.687C133.921 34.9107 133.819 35.2502 134.239 36.5402C134.897 38.5578 134.383 38.6472 125.349 38.0837C117.175 37.5733 115.992 37.7159 117.328 39.0534C118.191 39.9168 119.976 40.6229 121.294 40.6229C122.613 40.6229 125.574 42.4584 127.876 44.7023C130.176 46.9451 135.004 50.2731 138.603 52.0961C142.203 53.9191 146.003 56.4119 147.05 57.6352C148.097 58.8584 149.985 59.8848 151.245 59.9142C152.507 59.9436 155.161 60.8353 157.145 61.8945C163.688 65.3866 171.607 70.421 172.756 71.8174C173.378 72.5733 178.33 75.5086 183.759 78.3398C195.341 84.3802 199.238 87.0542 199.288 88.9982C199.369 92.238 193.414 89.9827 187.223 84.43C185.853 83.2011 182.927 82.0865 180.721 81.9518C178.515 81.8183 175.713 80.8044 174.493 79.7C171.736 77.2014 167.755 78.1712 169.941 80.8078C171.126 82.2359 170.812 82.4916 167.872 82.4916C165.771 82.4916 163.824 81.6599 162.929 80.3801C160.991 77.6122 154.103 75.9703 154.103 78.2765C154.103 80.1922 163.087 88.558 174.203 96.9929C183.383 103.959 191.705 111.965 199.591 121.418C206.181 129.318 207.552 132.445 206.39 136.932C205.529 140.258 205.51 140.243 193.434 126.884C186.782 119.525 177.696 110.473 173.241 106.768C159.716 95.5173 151.137 87.147 148.935 83.0529L146.841 79.1614L150.676 75.7349C152.785 73.8497 154.987 72.3073 155.571 72.3073C156.154 72.3073 158.37 73.835 160.494 75.7021C164.832 79.5144 168.04 80.1662 167.456 77.1166C167.246 76.0269 164.741 73.8633 161.888 72.3073C159.035 70.7514 154.827 67.8229 152.536 65.8007C150.246 63.7786 147.595 62.1231 146.644 62.1231C145.695 62.1231 141.77 60.6316 137.923 58.8075C134.075 56.9845 127.599 54.0085 123.53 52.1957C113.73 47.8266 106.32 40.8549 106.82 36.4745C107.182 33.3174 107.316 33.262 115.384 32.9349C119.892 32.7528 123.58 32.1157 123.58 31.5205C123.58 30.9252 123.13 30.4387 122.58 30.4387C122.029 30.4387 119.479 28.2751 116.911 25.6294C113.316 21.9246 111.403 20.8202 108.585 20.8202C104.331 20.8202 103.232 17.7977 106.117 14.0307C107.545 12.1669 109.288 11.7415 115.998 11.6204C127.04 11.4212 126.882 11.4835 122.732 8.95098C118.787 6.54297 118.403 5.48833 120.228 2.07433C121.19 0.275112 122.548 -0.0903869 127.859 0.0171138C131.412 0.0895353 135.337 0.349797 136.581 0.596483ZM143.175 8.56172C144.218 9.60504 144.121 11.2017 143.014 11.2017C142.511 11.2017 141.113 10.4537 139.905 9.54054C137.75 7.90766 137.752 7.87824 140.066 7.84316C141.362 7.82279 142.761 8.14642 143.175 8.56172ZM137.7 33.8515C137.309 34.4841 136.516 34.7093 135.937 34.3506C134.369 33.3808 134.661 32.7018 136.647 32.7018C137.616 32.7018 138.09 33.219 137.7 33.8515ZM20.1287 40.2914C20.5877 41.4071 21.3972 45.8848 21.9285 50.2414C22.4598 54.598 23.2252 60.7086 23.6287 63.8204C24.2629 68.71 32.4274 95.7255 35.2547 102.294C37.2693 106.971 38.6077 110.334 39.9847 114.176C40.7659 116.354 43.1297 120.805 45.2392 124.066C49.1089 130.051 52.3591 136.884 52.3591 139.035C52.3591 141.49 49.9262 140.04 47.6935 136.253C46.4138 134.082 44.0149 131.662 42.3621 130.878C38.2811 128.941 30.0533 112.244 24.7683 95.1733C22.513 87.887 20.1898 80.3982 19.6065 78.5311C17.7355 72.5393 16.2534 52.7219 17.1748 45.9991C18.1719 38.7185 18.9022 37.3063 20.1287 40.2914ZM221.823 44.4703C224.593 47.331 225.355 48.9276 224.795 50.694C223.892 53.5434 218.541 54.0899 218.541 51.3334C218.541 50.3772 217.767 48.4128 216.82 46.9666C215.218 44.519 215.518 40.6229 217.31 40.6229C217.743 40.6229 219.775 42.3543 221.823 44.4703ZM260.652 112.566C261.118 113.036 261.5 114.457 261.5 115.723C261.5 117.387 261.159 117.682 260.263 116.785C259.584 116.105 259.202 114.684 259.415 113.629C259.629 112.574 260.186 112.095 260.652 112.566ZM213.323 144.519C214.91 147.037 217.565 149.77 219.221 150.59C225.207 153.56 236.72 180.966 241.715 204.137C243.647 213.102 244.674 231.137 243.614 237.519C242.79 242.48 242.73 242.542 241.268 239.902C240.442 238.412 239.145 231.283 238.384 224.06C237.272 213.519 235.823 207.464 231.041 193.387C227.763 183.74 224.719 175.338 224.276 174.716C223.833 174.093 222.783 171.293 221.942 168.492C221.101 165.691 219.257 161.817 217.845 159.881C213.035 153.29 208.039 142.341 209.277 141.102C210.068 140.31 211.351 141.394 213.323 144.519ZM67.7145 153.899C73.8802 160.753 85.6916 172.297 93.9611 179.55C108.309 192.135 113.406 197.895 113.406 201.528C113.406 203.869 108.593 208.098 105.929 208.098C103.609 208.098 100.97 206.128 100.97 204.395C100.97 203.853 102.325 203.574 103.981 203.773C105.636 203.973 107.175 203.587 107.402 202.915C107.902 201.428 98.3328 192.58 87.9164 184.9C77.5973 177.291 61.6902 161.066 57.1365 153.504C53.7439 147.87 53.563 147.11 54.9693 144.396L56.5034 141.436L67.7145 153.899ZM1.26648 165.663C1.24387 167.53 0.990662 168.157 0.703522 167.056C0.416382 165.955 0.435577 164.427 0.745331 163.661C1.05508 162.895 1.28909 163.796 1.26648 165.663ZM11.7597 191.973C19.5488 208.416 21.5305 212.145 26.3385 219.413C28.6029 222.837 31.887 228.438 33.637 231.861C35.387 235.284 37.7045 239.358 38.7875 240.914C39.8716 242.47 41.0835 244.797 41.4826 246.086C42.2298 248.496 48.6149 255.624 50.028 255.624C50.4643 255.624 54.0921 258.166 58.0907 261.272C62.0881 264.378 65.8741 266.924 66.5026 266.93C67.1312 266.936 68.9061 268.468 70.4469 270.334C72.9951 273.422 79.7961 276.065 81.3053 274.553C81.6241 274.234 78.929 272.144 75.3182 269.909C71.7063 267.673 66.7084 263.892 64.2122 261.507C57.1828 254.791 53.5845 248.385 57.1637 248.964C57.9403 249.089 59.5015 248.789 60.6308 248.297C61.8439 247.769 63.2106 247.928 63.9658 248.684C64.6701 249.389 66.0358 249.978 66.9989 249.991C67.9633 250.005 70.023 251.012 71.5774 252.229C73.1318 253.447 75.3035 254.454 76.4024 254.468C77.5023 254.481 81.6196 256.45 85.5537 258.842C92.4339 263.026 96.5907 264.687 109.961 268.597C113.35 269.588 117.051 271.238 118.183 272.264C119.724 273.659 120.566 273.804 121.529 272.84C122.494 271.875 122.047 271.257 119.76 270.387C118.078 269.746 113.7 267.182 110.029 264.687C106.358 262.192 102.89 260.151 102.322 260.151C101.754 260.151 99.0551 258.373 96.325 256.201C93.5949 254.029 90.9201 252.246 90.3797 252.241C89.1769 252.227 73.7039 240.65 71.7673 238.313C70.9986 237.386 67.5992 234.918 64.2134 232.83C60.8276 230.741 58.0477 228.768 58.0341 228.447C58.0217 228.126 60.1741 227.801 62.8161 227.726C66.9876 227.608 68.6641 228.39 75.5341 233.66C92.2247 246.463 96.498 249.513 102.616 252.996C109.041 256.653 126.987 261.686 138.189 262.972C141.562 263.359 145.304 264.203 146.506 264.847C147.93 265.609 149.079 265.632 149.798 264.912C151.231 263.479 146.596 260.151 143.166 260.151C141.779 260.151 139.475 259.707 138.047 259.164C136.619 258.621 133.415 257.533 130.928 256.747C122.315 254.024 110.118 247.549 109.413 245.327C108.697 243.069 102.291 239.782 98.6052 239.782C94.003 239.782 76.936 228.014 77.4695 225.208C78.1139 221.823 82.7128 222.474 88.7349 226.805C91.9184 229.094 97.3718 231.94 100.855 233.131C104.338 234.321 108.46 236.22 110.014 237.349C111.569 238.478 115.933 240.445 119.715 241.717C125.27 243.586 127.745 243.848 132.606 243.078C135.915 242.556 139.356 242.537 140.254 243.04C141.15 243.542 143.152 243.711 144.702 243.414C147.128 242.949 146.711 242.589 141.705 240.825C138.507 239.697 134.18 237.271 132.088 235.433C129.997 233.596 125.164 230.426 121.348 228.39C117.533 226.355 113.913 223.758 113.304 222.617C112.657 221.407 110.947 220.545 109.195 220.545C106.426 220.545 90.7087 212.06 89.8575 210.106C89.6517 209.634 87.6168 208.464 85.3355 207.505C83.053 206.546 76.3537 203.319 70.4469 200.335C62.3096 196.224 59.4506 194.181 58.6491 191.907C58.0669 190.256 57.9459 188.549 58.38 188.114C59.3364 187.157 64.5797 189.86 71.9651 195.117C74.9756 197.26 79.3676 199.534 81.7247 200.17C84.0818 200.805 86.6412 202.084 87.4111 203.013C88.1809 203.942 89.5217 204.703 90.3899 204.703C92.8962 204.703 104.597 211.301 108.318 214.814C110.184 216.573 113.745 218.66 116.232 219.45C126.664 222.765 148.151 234.049 151.67 238.061C157.936 245.205 155.873 248.662 145.625 248.193C142.516 248.052 139.613 248.153 139.174 248.421C137.998 249.137 139.434 252.229 140.941 252.229C141.652 252.229 143.691 254.059 145.475 256.296C147.959 259.414 149.346 260.243 151.409 259.848C152.889 259.566 154.977 259.975 156.05 260.759C157.768 262.018 157.815 262.53 156.441 265.099C154.354 269.003 148.828 270.663 140.834 269.788C134.764 269.125 134.473 269.198 136.581 270.859C143.175 276.056 143.106 275.945 141.332 278.607C139.931 280.709 138.675 281.07 133.043 280.99C122.896 280.845 113.644 278.696 104.927 274.457C88.1843 266.317 83.3356 264.922 88.9474 269.863C90.7291 271.431 92.0009 272.848 91.7736 273.011C91.5464 273.175 89.8936 274.422 88.0995 275.782C85.6272 277.658 83.2735 278.256 78.366 278.256C71.3694 278.256 67.8038 276.459 58.4355 268.215C55.8715 265.958 51.6276 262.389 49.006 260.283C41.5821 254.321 25.9677 233.367 18.1899 218.929C5.85287 196.028 3.82593 191.578 3.10468 185.799C2.47272 180.736 2.63892 179.808 4.17752 179.808C5.38037 179.808 7.9511 183.933 11.7597 191.973ZM70.5057 186.418C73.6824 188.993 71.7753 190.57 68.3702 188.184C65.8876 186.442 65.0986 184.334 66.93 184.334C67.4828 184.334 69.0915 185.271 70.5057 186.418ZM41.5312 228.183C44.2726 230.909 46.6942 240.914 44.6129 240.914C42.7714 240.914 36.5322 234.091 36.5322 232.077C36.5322 228.769 39.6659 226.329 41.5312 228.183ZM126.406 247.703C127.29 249.136 125.794 249.136 123.58 247.703C122.118 246.758 122.149 246.604 123.796 246.589C124.847 246.579 126.022 247.081 126.406 247.703Z" fill="#3378B7"/>
</svg>
