<svg width="416" height="357" viewBox="0 0 416 357" fill="none" xmlns="http://www.w3.org/2000/svg">
<path fill-rule="evenodd" clip-rule="evenodd" d="M254.91 0.690968C264.926 1.72716 267.981 4.02286 265.503 8.64999C264.212 11.0573 261.412 11.37 238.41 11.6633C204.409 12.0965 202.015 12.0027 193.756 9.91098C186.971 8.19144 184.598 5.85704 188.54 4.77767C202.573 0.933644 236.862 -1.17894 254.91 0.690968ZM169.785 15.1619C170.259 16.3931 169.559 18.6025 168.23 20.0689C166.902 21.5354 165.814 23.7269 165.814 24.9387C165.814 27.9475 149.192 36.645 143.444 36.645C137.887 36.645 133.029 38.9854 133.029 41.6607C133.029 42.7237 125.244 47.5578 115.727 52.4022C89.8792 65.5616 81.5473 74.8128 87.8108 83.4031C90.5707 87.1876 97.6806 88.7121 99.4241 85.8938C100.438 84.2562 110.352 78.438 125.421 70.6368C137.227 64.5254 146.155 63.2331 149.421 67.165C152.286 70.613 154.323 69.8269 153.28 65.6762C152.521 62.654 152.895 61.9543 155.266 61.9543C159.457 61.9543 160.156 64.0118 157.619 68.8711C156.399 71.2085 155.397 73.7201 155.391 74.4541C155.387 75.188 152.365 79.0112 148.676 82.9505C144.988 86.8898 141.97 91.1567 141.97 92.4311C141.97 93.7055 141.139 96.0786 140.121 97.7058C138.65 100.06 138.65 101.265 140.121 103.619C141.139 105.246 141.97 107.959 141.97 109.649C141.97 111.339 143.049 114.864 144.368 117.486C146.887 122.493 158.142 134.904 160.163 134.904C160.813 134.904 161.351 130.047 161.36 124.111C161.376 112.97 163.893 102.138 168.128 94.9754C170.478 90.9989 183.697 83.4478 183.697 86.0814C183.697 86.796 182.245 90.2024 180.469 93.6504C176.53 101.301 174.968 108.08 173.426 124.215C171.83 140.921 168.194 144.82 154.913 144.072C149.812 143.787 134.519 129.222 134.519 124.65C134.519 122.997 133.919 120.106 133.184 118.226C129.954 109.953 128.272 102.328 129.308 100.655C129.925 99.6591 130.619 96.3049 130.85 93.2052C131.081 90.1041 132.026 86.1588 132.947 84.4378C135.008 80.5908 134.273 80.567 124.861 84.1802C113.252 88.6362 93.2024 94.7074 90.0953 94.7074C86.5098 94.7074 82.361 90.1503 82.361 86.2124C82.361 84.5346 81.3551 82.3282 80.1256 81.3084C76.7071 78.4738 77.4388 73.4893 82.3342 66.2717C84.7781 62.6689 86.7899 59.0094 86.8048 58.1385C86.8913 53.0752 110.775 39.2757 129.399 33.529C134.6 31.9256 140.826 28.9555 143.235 26.9292C145.645 24.903 148.086 23.246 148.661 23.246C149.237 23.246 151.487 21.982 153.663 20.4381C155.838 18.8943 160.161 16.5718 163.272 15.2765C168.277 13.1923 169.024 13.1789 169.785 15.1619ZM306.012 41.3272C308.269 45.5434 309.35 57.4879 307.472 57.4879C306.067 57.4879 301.425 44.138 301.425 40.096C301.425 37.0574 304.11 37.778 306.012 41.3272ZM231.536 60.8853C237.403 64.8231 238.959 71.1043 235.117 75.3458C231.627 79.1973 232.584 88.1851 236.414 87.527C238.883 87.1027 239.084 87.7012 238.151 92.6752C235.971 104.279 229.208 116.013 218.796 126.261C209.525 135.382 208.734 136.642 209.445 141.148C209.871 143.855 209.206 149.25 207.965 153.138C204.777 163.127 206.372 172.118 212.37 177.976C217.506 182.992 218.343 183.248 222.45 181.052C224.277 180.076 225.606 177.119 226.296 172.492C227.734 162.862 231.429 154.75 237.886 147.045C240.866 143.489 243.306 140.023 243.306 139.344C243.306 137.065 250.998 128.949 253.159 128.949C255.003 128.949 255.009 129.411 253.204 132.299C252.054 134.142 250.684 137.492 250.161 139.743L249.21 143.837L271.965 143.962C294.197 144.086 305.013 145.077 317.072 148.101C320.351 148.924 325.906 150.319 329.417 151.202C332.928 152.085 336.952 153.413 338.359 154.153C340.952 155.515 343.674 156.681 361.034 163.861C380.035 171.719 395.309 179.781 395.309 181.951C395.309 184.965 391.284 186.217 387.386 184.417C383.073 182.428 377.738 180.221 362.524 174.138C355.557 171.353 348.516 168.497 346.877 167.792C345.238 167.086 340.879 165.683 337.19 164.674C333.502 163.666 329.478 162.465 328.249 162.005C327.02 161.545 325.008 161.01 323.778 160.815C322.549 160.622 318.19 159.69 314.092 158.744C299.231 155.316 282.532 154.023 266.029 155.024C243.333 156.401 241.708 159.285 260.546 164.762C266.227 166.413 273.222 168.04 276.091 168.377C309.466 172.285 332.948 179.663 333.928 186.549C334.191 188.38 333.019 191.179 331.255 192.942C328.182 196.011 327.268 196.062 286.83 195.41C264.121 195.044 239.856 194.381 232.906 193.936C219.595 193.086 206.05 195.921 206.05 199.558C206.05 203.826 221.69 211.743 226.875 210.1C228.614 209.549 230.843 209.739 231.828 210.524C233.599 211.934 246.924 213.458 268.64 214.736C307.948 217.046 308.876 217.252 308.876 223.616C308.876 230.505 301.622 231.453 281.307 227.224C277.209 226.371 268.503 225.043 261.959 224.273C251.131 223 249.787 223.133 246.991 225.757C245.301 227.344 241.461 229.491 238.457 230.53C235.454 231.569 233.09 233.089 233.205 233.908C233.32 234.727 237.484 236.63 242.458 238.138C247.432 239.645 252.167 241.514 252.98 242.293C255.363 244.577 250.583 246.618 245.169 245.628L240.325 244.742L240.303 260.913C240.272 284.976 237.835 290.918 221.045 307.872C210.603 318.416 195.592 328.446 190.251 328.446C188.684 328.446 188.167 330.792 188.167 337.892C188.167 351.138 185.765 352.908 164.324 355.452C148.167 357.368 78.3374 357.563 71.1843 355.711C49.5133 350.1 42.2783 341.689 46.132 326.585C47.2109 322.352 53.829 323.208 54.7634 327.701C55.1881 329.749 55.8632 333.013 56.2626 334.956C56.9406 338.257 62.6408 341.812 68.858 342.813C70.1366 343.019 76.2138 344.004 82.361 345.001C95.5615 347.142 117.1 347.182 150.822 345.126C171.781 343.847 175.611 343.238 177.317 340.905C178.414 339.408 179.107 337.163 178.855 335.918C178.35 333.415 176.576 333.414 160.598 335.902C149.171 337.679 96.7194 336.564 89.067 334.38C86.6082 333.679 81.5786 332.315 77.8903 331.35C54.7768 325.306 34.1222 307.768 20.1185 282.294C18.0933 278.609 14.2411 273.249 11.5587 270.383C6.59171 265.076 5.43527 262.619 4.19095 254.733C3.80496 252.287 2.67685 247.27 1.68436 243.585C-0.57782 235.19 -0.556946 204.095 1.72012 192.222C2.66196 187.309 3.65152 180.483 3.91974 177.053C4.78259 166.011 7.85245 163.45 27.2225 157.607C30.0912 156.742 39.6465 156.032 48.4583 156.029C61.24 156.024 64.4782 156.447 64.4782 158.117C64.4782 161.036 74.7936 160.873 79.0571 157.891C81.7381 156.014 85.6023 155.691 99.1335 156.212C108.351 156.566 119.244 157.531 123.342 158.356C128.946 159.484 132.752 159.346 138.69 157.802C143.033 156.672 148.587 155.747 151.031 155.747C153.511 155.747 155.837 154.806 156.294 153.618C156.743 152.447 159.169 150.772 161.684 149.896C167.616 147.832 183.035 147.845 186.914 149.919C191.757 152.509 196.298 150.438 198.593 144.595C199.736 141.686 201.88 138.213 203.36 136.874C204.84 135.537 206.05 133.815 206.05 133.046C206.05 132.28 209.738 127.58 214.246 122.603C219.115 117.227 222.443 112.181 222.443 110.174C222.443 108.315 223.07 106.406 223.837 105.931C224.605 105.458 226.357 100.019 227.733 93.8469C229.828 84.4378 229.936 81.5615 228.395 76.0664C226.873 70.6383 225.708 69.2314 221.613 67.8811C218.893 66.9848 214.279 66.699 211.358 67.2454C204.743 68.4855 204.5 66.4995 210.636 61.3424C216.532 56.3847 224.566 56.2091 231.536 60.8853ZM288.013 102.209C288.013 104.873 273.66 119.134 272.641 117.484C272.128 116.657 274.097 113.197 277.013 109.793C282.809 103.028 288.013 99.4402 288.013 102.209ZM190.775 158.159C191.799 158.607 192.638 160.218 192.638 161.738C192.638 163.26 193.309 164.918 194.128 165.424C194.948 165.931 195.618 167.957 195.618 169.927C195.618 171.896 197.6 176.379 200.022 179.888C203.764 185.31 204.099 186.514 202.257 187.92C201.065 188.83 198.375 192.096 196.282 195.179L192.473 200.787L195.908 204.462C199.822 208.65 206.281 212.321 209.731 212.321C211.017 212.321 214.726 213.996 217.972 216.043C221.218 218.09 225.228 219.765 226.884 219.765C231.293 219.765 230.555 223.813 225.687 226.327C223.374 227.523 220.644 229.507 219.623 230.737C217.012 233.88 219.958 238.927 225.538 240.871L229.894 242.388L229.877 256.758C229.852 279.03 226.746 287.227 213.011 301.268C205.615 308.828 201.955 311.286 193.434 314.414C187.668 316.531 181.582 318.918 179.907 319.719C170.389 324.271 115.136 327.81 102.479 324.678C98.381 323.664 91.7435 322.366 87.7303 321.794C83.7171 321.222 79.3582 320.208 78.0438 319.541C76.7294 318.876 72.6447 317.089 68.9653 315.572C60.8525 312.227 47.6147 301.323 40.9564 292.501C38.265 288.934 34.0105 283.336 31.5024 280.06C12.0921 254.717 7.50076 234.203 12.1861 193.738C13.1324 185.563 14.4452 178.338 15.1009 177.683C15.7581 177.026 20.1632 178.521 24.8903 181.006C29.6187 183.491 34.769 185.523 36.3352 185.523C37.903 185.523 40.4155 186.291 41.9206 187.229C43.4243 188.169 46.2974 188.524 48.3033 188.021C51.0766 187.326 51.9349 186.141 51.8813 183.072C51.8261 179.91 50.8441 178.743 47.3406 177.679C39.6033 175.326 29.6143 173.404 25.3597 173.449C23.1064 173.473 21.2616 172.873 21.2616 172.117C21.2616 169.79 26.069 168.009 35.4187 166.872C40.3365 166.275 46.7489 164.582 49.6698 163.111C53.1688 161.348 55.7082 160.899 57.1209 161.792C58.2982 162.536 64.7554 163.156 71.4689 163.169C78.1824 163.181 84.0896 163.861 84.5963 164.68C86.1044 167.117 112.414 166.449 115.803 163.888C119.629 160.997 124.332 161.126 129.82 164.274C133.638 166.464 135.056 166.574 139.361 165.018C142.142 164.013 146.803 163.191 149.718 163.191C152.633 163.191 157.279 162.259 160.044 161.122C165.368 158.929 187.628 156.782 190.775 158.159ZM255.195 175.273C257.226 176.083 264.267 177.451 270.842 178.311C288.685 180.649 288.072 182.545 269.474 182.545C255.837 182.545 253.013 182.139 251.341 179.94C249.165 177.077 248.626 173.559 250.384 173.707C250.998 173.759 253.164 174.464 255.195 175.273ZM242.281 176.063C244.328 178.109 243.267 181.268 240.698 180.774C239.263 180.497 238.09 179.331 238.09 178.183C238.09 175.833 240.719 174.503 242.281 176.063ZM97.2633 182.145C100.132 182.483 103.117 183.381 103.895 184.14C104.673 184.901 106.853 185.523 108.738 185.523C110.792 185.523 112.166 186.418 112.166 187.756C112.166 188.984 110.865 189.989 109.273 189.989C107.681 189.989 105.966 190.659 105.46 191.478C104.06 193.741 80.6249 193.251 77.5177 190.894C74.1975 188.377 74.2258 186.602 77.6355 183.521C80.303 181.109 85.3921 180.751 97.2633 182.145ZM182.189 183.786C183.019 184.059 183.697 185.527 183.697 187.047C183.697 188.569 184.4 190.248 185.26 190.778C186.327 191.438 186.27 192.407 185.077 193.844C183.677 195.529 177.21 195.944 152.402 195.944C125.751 195.944 121.196 195.612 119.475 193.54C117.763 191.48 117.973 190.737 120.948 188.329C123.687 186.114 126.874 185.523 136.087 185.523C142.504 185.523 148.141 184.899 148.614 184.135C149.386 182.886 178.535 182.583 182.189 183.786ZM302.17 242.835C314.739 244.577 323.537 247.843 322.288 250.304C321.878 251.113 319.866 251.774 317.817 251.774C315.768 251.774 312.239 253.029 309.976 254.562C305.158 257.826 286.782 258.372 276.329 255.56C270.373 253.958 270.164 253.717 272.216 250.791C273.404 249.097 273.984 246.689 273.505 245.443C272.801 243.606 273.596 243.323 277.715 243.944C280.511 244.367 284.473 243.917 286.523 242.947C289.347 241.61 293.132 241.583 302.17 242.835ZM260.184 254.08C269.863 255.247 273.814 257.577 268.804 259.165C267.088 259.709 265.023 259.745 264.214 259.244C263.403 258.744 261.32 259.095 259.584 260.023L256.427 261.711L259.7 264.001C261.874 265.523 267.546 266.483 276.61 266.864C295.783 267.669 304.686 268.926 308.091 271.306C309.706 272.436 312.6 273.361 314.521 273.361C319.062 273.361 323.778 275.922 323.778 278.389C323.778 281.653 313.403 283.51 296.954 283.19C286.339 282.983 280.228 282.195 277.954 280.742C273.373 277.815 273.747 276.339 279.071 276.339C281.53 276.339 283.542 275.669 283.542 274.85C283.542 273.132 283.456 273.118 268.64 272.73C259.891 272.5 256.079 271.647 251.088 268.805C245.631 265.695 244.772 264.555 245.127 260.875C245.725 254.677 249.817 252.831 260.184 254.08ZM409.744 276.49C414.398 277.836 417.28 282.276 415.436 285.258C414.276 287.134 410.969 287.186 407.583 285.38C406.16 284.621 403.807 283.631 402.354 283.181C398.81 282.081 397.342 277.851 399.935 276.211C402.401 274.652 403.488 274.682 409.744 276.49ZM270.13 280.805C267.212 282.69 265.239 282.69 266.404 280.805C266.911 279.986 268.459 279.327 269.845 279.338C272.017 279.359 272.057 279.562 270.13 280.805ZM379.66 285.268C381.02 287.466 371.877 295.255 362.989 299.47C351.973 304.694 336.581 304.67 328.249 299.415C325.003 297.368 320.489 295.682 318.22 295.67C315.254 295.654 314.676 295.277 316.169 294.333C317.393 293.559 319.998 293.629 322.512 294.505C329.496 296.937 351.048 293.203 367.74 286.669C373.531 284.403 378.745 283.79 379.66 285.268ZM293.601 292.252C292.166 292.627 289.82 292.627 288.385 292.252C286.95 291.878 288.125 291.572 290.993 291.572C293.862 291.572 295.036 291.878 293.601 292.252Z" fill="#377AB8"/>
</svg>
