<svg width="41" height="42" viewBox="0 0 41 42" fill="none" xmlns="http://www.w3.org/2000/svg">
<path fill-rule="evenodd" clip-rule="evenodd" d="M6.84312 0.910156C3.41111 0.910156 0.628906 3.75155 0.628906 7.25658V35.1809C0.628906 38.6859 3.41111 41.5273 6.84312 41.5273H34.1856C37.6176 41.5273 40.3999 38.6859 40.3999 35.1809V7.25658C40.3999 3.75155 37.6176 0.910156 34.1856 0.910156H6.84312ZM20.6209 31.373C20.7559 26.8761 20.8695 24.8235 22.432 23.1771C24.0441 21.5814 26.0539 21.4726 30.4571 21.3275C30.4571 25.382 30.4429 28.4138 29.0225 29.9079C27.5596 31.3585 24.7259 31.373 20.6209 31.373ZM12.0062 29.9079C10.5858 28.4138 10.5716 25.382 10.5716 21.3275C14.9749 21.4653 16.9847 21.5814 18.5968 23.1771C20.1593 24.8235 20.2658 26.8761 20.4079 31.373C16.3029 31.373 13.4692 31.3585 12.0062 29.9079ZM12.0062 12.5296C13.4692 11.0789 16.31 11.0644 20.4079 11.0644C20.2729 15.5614 20.1593 17.614 18.5968 19.2603C16.9847 20.8561 14.9749 20.9649 10.5716 21.1099C10.5716 17.0555 10.5858 14.0237 12.0062 12.5296ZM20.6209 11.0644C20.7559 15.5614 20.8695 17.614 22.432 19.2603C24.0441 20.8561 26.0539 20.9649 30.4571 21.1099C30.4571 17.0555 30.4429 14.0237 29.0225 12.5296C27.5596 11.0789 24.7259 11.0644 20.6209 11.0644Z" fill="white"/>
</svg>
