<svg width="48" height="42" viewBox="0 0 48 42" fill="none" xmlns="http://www.w3.org/2000/svg">
<path d="M45.1824 0.910156C46.6165 0.910156 47.6985 2.21884 47.1198 4.653L40.0998 39.0715C39.6092 41.5187 38.1876 42.1076 36.225 40.9691L19.4803 28.1047C19.4154 28.0562 19.3625 27.9924 19.326 27.9184C19.2895 27.8444 19.2705 27.7625 19.2705 27.6794C19.2705 27.5962 19.2895 27.5143 19.326 27.4403C19.3625 27.3664 19.4154 27.3025 19.4803 27.254L38.8166 9.08945C39.6972 8.27807 38.6279 7.88546 37.4705 8.61833L13.2026 24.5451C13.129 24.595 13.0455 24.6268 12.9583 24.6382C12.8711 24.6495 12.7826 24.64 12.6994 24.6105L2.39595 21.221C0.106295 20.5274 0.106295 18.8915 2.91175 17.7268L44.1382 1.18498C44.4651 1.02181 44.8202 0.928372 45.1824 0.910156Z" fill="white"/>
</svg>
