<svg width="258" height="230" viewBox="0 0 258 230" fill="none" xmlns="http://www.w3.org/2000/svg">
<path fill-rule="evenodd" clip-rule="evenodd" d="M97.7464 192.563V3.66288C97.7464 1.63993 99.3864 0 101.409 0H136.468C156.698 0 173.097 16.3993 173.097 36.6287V66.2457C173.097 86.4752 156.698 102.874 136.468 102.874H135.055C131.027 102.836 128.469 102.626 123.596 101.252V191.464C123.596 197.966 128.867 203.237 135.369 203.237C141.872 203.237 147.143 197.966 147.143 191.464V130.084C147.143 128.061 148.783 126.422 150.806 126.422H169.434C171.457 126.422 173.097 128.061 173.097 130.084V225.528C173.097 227.551 171.457 229.191 169.434 229.191H134.375C114.146 229.191 97.7464 212.792 97.7464 192.563ZM88.3276 130.084V225.528C88.3276 227.551 86.6877 229.191 84.6647 229.191H66.0364C64.0135 229.191 62.3735 227.551 62.3735 225.528V164.149C62.3735 157.647 57.1023 152.376 50.6 152.376C44.0977 152.376 38.8265 157.647 38.8265 164.149V203.342C38.8265 217.618 27.2533 229.191 12.977 229.191H3.66288C1.63993 229.191 0 227.551 0 225.528V206.9C0 204.877 1.63993 203.237 3.66288 203.237H5.65129C9.69719 203.237 12.977 199.957 12.977 195.911V163.05C12.977 142.821 29.3763 126.422 49.6058 126.422H84.6647C86.6877 126.422 88.3276 128.061 88.3276 130.084ZM182.516 225.528V130.084C182.516 128.061 184.156 126.422 186.179 126.422H225.11C243.201 126.422 257.866 141.087 257.866 159.178C257.601 168.146 256.645 171.31 252.215 177.702C256.228 185.113 257.476 188.719 257.866 196.435C257.866 214.526 243.201 229.191 225.11 229.191H186.179C184.156 229.191 182.516 227.551 182.516 225.528ZM34.8104 102.874H17.01C14.7873 102.874 12.9855 101.073 12.9855 98.8499V4.02451C12.9855 1.80183 14.7873 0 17.01 0H84.3618C86.5853 0 88.3875 1.80308 88.3864 4.02655L88.3381 98.8519C88.337 101.074 86.5355 102.874 84.3136 102.874H66.4065C64.1838 102.874 62.382 101.073 62.382 98.8499V37.7276C62.382 31.2253 57.1108 25.9541 50.6085 25.9541C44.1061 25.9541 38.8349 31.2253 38.8349 37.7276V98.8499C38.8349 101.073 37.0331 102.874 34.8104 102.874ZM182.526 37.6752V65.1991C182.526 86.0066 199.394 102.874 220.201 102.874C241.009 102.874 257.876 86.0066 257.876 65.1992V37.6753C257.876 16.8678 241.009 0 220.201 0C199.394 0 182.526 16.8678 182.526 37.6752ZM123.596 65.14V37.7208C123.596 31.2184 128.867 25.9472 135.37 25.9472C141.872 25.9472 147.143 31.2184 147.143 37.7208V65.14C147.143 71.6423 141.872 76.9135 135.37 76.9135C128.867 76.9135 123.596 71.6423 123.596 65.14ZM208.37 37.7208V65.14C208.37 71.6423 213.641 76.9135 220.144 76.9135C226.646 76.9135 231.917 71.6423 231.917 65.14V37.7208C231.917 31.2184 226.646 25.9472 220.144 25.9472C213.641 25.9472 208.37 31.2184 208.37 37.7208ZM225.105 152.372H208.465V165.977H225.105C228.862 165.977 231.908 162.931 231.908 159.174C231.908 155.417 228.862 152.372 225.105 152.372ZM208.465 189.538H225.053C228.839 189.538 231.908 192.607 231.908 196.392C231.908 200.178 228.839 203.247 225.053 203.247H208.465V189.538Z" fill="white"/>
</svg>
