<svg width="436" height="116" viewBox="0 0 436 116" fill="none" xmlns="http://www.w3.org/2000/svg">
<path d="M127.933 0.472168H9.44151C4.22711 0.472168 0 4.69928 0 9.91369V42.6402C0 47.8546 4.2271 52.0817 9.44151 52.0817H125.885C129.101 52.0817 131.709 54.6893 131.709 57.906C131.709 61.1227 129.101 63.7303 125.885 63.7303H9.44151C4.22711 63.7303 0 67.9574 0 73.1718V106.185C0 111.412 4.2469 115.644 9.47394 115.626L127.965 115.219C133.167 115.201 137.374 110.979 137.374 105.777V75.7682C137.374 72.5092 140.016 69.8673 143.275 69.8673C146.534 69.8673 149.176 72.5092 149.176 75.7682V105.745C149.176 110.959 153.403 115.187 158.617 115.187H277.108C282.323 115.187 286.55 110.959 286.55 105.745V73.1718C286.55 67.9574 282.323 63.7303 277.108 63.7303H161.245C157.976 63.7303 155.314 61.1021 155.272 57.8328C155.229 54.5011 157.92 51.7783 161.252 51.7822L276.972 51.9174C282.18 51.9235 286.409 47.7117 286.425 42.504L286.522 9.94181C286.537 4.71644 282.306 0.472168 277.08 0.472168H158.652C153.438 0.472168 149.211 4.69929 149.211 9.91369V40.4985C149.211 43.7671 146.561 46.4168 143.292 46.4168C140.024 46.4168 137.374 43.7671 137.374 40.4985V9.91368C137.374 4.69928 133.147 0.472168 127.933 0.472168Z" fill="white"/>
<path d="M277.118 0H158.627C153.412 0 149.184 4.22835 149.185 9.44355L149.193 42.17C149.194 47.3837 153.42 51.6095 158.634 51.6095H275.079C278.296 51.6095 280.904 54.2172 280.904 57.4338C280.904 60.6505 278.296 63.2581 275.079 63.2581H158.636C153.422 63.2581 149.195 67.4853 149.195 72.6997V105.948C149.195 111.176 153.441 115.408 158.668 115.39L277.159 114.983C282.361 114.965 286.569 110.743 286.569 105.541V75.2961C286.569 72.0371 289.21 69.3951 292.469 69.3951C295.728 69.3951 298.37 72.0371 298.37 75.2961V105.509C298.37 110.723 302.598 114.95 307.812 114.95H426.303C431.517 114.95 435.744 110.723 435.744 105.509V72.6996C435.744 67.4852 431.517 63.2581 426.303 63.2581H310.44C307.171 63.2581 304.508 60.6299 304.466 57.3607C304.424 54.0289 307.115 51.3061 310.447 51.31L426.165 51.4452C431.373 51.4513 435.603 47.2383 435.617 42.0298L435.707 9.46761C435.722 4.24303 431.49 0 426.266 0H307.838C302.623 0 298.395 4.2285 298.396 9.44379L298.404 40.0249C298.404 43.2941 295.755 45.9446 292.485 45.9446C289.217 45.9446 286.568 43.2958 286.567 40.0278L286.56 9.43924C286.558 4.22572 282.332 0 277.118 0Z" fill="white"/>
<path d="M21.534 34.22C20.7127 34.22 19.95 34.066 19.246 33.758C18.5567 33.4353 17.9553 33.0027 17.442 32.46C16.9433 31.9027 16.5547 31.272 16.276 30.568C15.9973 29.8493 15.858 29.094 15.858 28.302C15.858 27.4807 15.9973 26.718 16.276 26.014C16.5547 25.2953 16.9507 24.6647 17.464 24.122C17.9773 23.5647 18.5787 23.132 19.268 22.824C19.972 22.5013 20.7347 22.34 21.556 22.34C22.3773 22.34 23.1327 22.5013 23.822 22.824C24.5113 23.132 25.1127 23.5647 25.626 24.122C26.1393 24.6647 26.5353 25.2953 26.814 26.014C27.0927 26.718 27.232 27.4807 27.232 28.302C27.232 29.094 27.0927 29.8493 26.814 30.568C26.5353 31.272 26.1393 31.9027 25.626 32.46C25.1273 33.0027 24.526 33.4353 23.822 33.758C23.1327 34.066 22.37 34.22 21.534 34.22ZM17.376 28.324C17.376 29.1747 17.5593 29.952 17.926 30.656C18.3073 31.3453 18.8133 31.8953 19.444 32.306C20.0747 32.702 20.7713 32.9 21.534 32.9C22.2967 32.9 22.9933 32.6947 23.624 32.284C24.2547 31.8733 24.7607 31.316 25.142 30.612C25.5233 29.8933 25.714 29.116 25.714 28.28C25.714 27.4293 25.5233 26.652 25.142 25.948C24.7607 25.244 24.2547 24.6867 23.624 24.276C22.9933 23.8653 22.2967 23.66 21.534 23.66C20.7713 23.66 20.0747 23.8727 19.444 24.298C18.828 24.7233 18.3293 25.288 17.948 25.992C17.5667 26.6813 17.376 27.4587 17.376 28.324ZM35.3194 34V22.538H44.5374V34H43.0414V23.88H36.8154V34H35.3194ZM53.6973 34.22C52.744 34.22 51.886 33.9707 51.1233 33.472C50.3753 32.9733 49.7813 32.3573 49.3413 31.624V38.686H47.8453V22.538H49.1873V24.76C49.642 24.0413 50.2506 23.462 51.0133 23.022C51.776 22.5673 52.59 22.34 53.4553 22.34C54.2473 22.34 54.9733 22.5087 55.6333 22.846C56.2933 23.1687 56.8653 23.6087 57.3493 24.166C57.8333 24.7233 58.2073 25.3613 58.4713 26.08C58.75 26.784 58.8893 27.5173 58.8893 28.28C58.8893 29.3507 58.6693 30.3407 58.2293 31.25C57.804 32.1447 57.2026 32.8633 56.4253 33.406C55.648 33.9487 54.7386 34.22 53.6973 34.22ZM53.2793 32.9C53.91 32.9 54.4746 32.7753 54.9733 32.526C55.472 32.262 55.8973 31.91 56.2493 31.47C56.616 31.03 56.8946 30.5387 57.0853 29.996C57.276 29.4387 57.3713 28.8667 57.3713 28.28C57.3713 27.664 57.2613 27.0773 57.0413 26.52C56.836 25.9627 56.5353 25.4713 56.1393 25.046C55.7433 24.6207 55.2886 24.2833 54.7753 24.034C54.262 23.7847 53.7046 23.66 53.1033 23.66C52.722 23.66 52.326 23.7333 51.9153 23.88C51.5046 24.0267 51.1086 24.2393 50.7273 24.518C50.3606 24.782 50.0526 25.0827 49.8033 25.42C49.554 25.7573 49.4 26.1167 49.3413 26.498V30.018C49.576 30.5607 49.8913 31.052 50.2873 31.492C50.6833 31.9173 51.138 32.262 51.6513 32.526C52.1793 32.7753 52.722 32.9 53.2793 32.9ZM66.3074 34.22C65.4861 34.22 64.7234 34.066 64.0194 33.758C63.3301 33.4353 62.7288 33.0027 62.2154 32.46C61.7168 31.9027 61.3281 31.272 61.0494 30.568C60.7708 29.8493 60.6314 29.094 60.6314 28.302C60.6314 27.4807 60.7708 26.718 61.0494 26.014C61.3281 25.2953 61.7241 24.6647 62.2374 24.122C62.7508 23.5647 63.3521 23.132 64.0414 22.824C64.7454 22.5013 65.5081 22.34 66.3294 22.34C67.1508 22.34 67.9061 22.5013 68.5954 22.824C69.2848 23.132 69.8861 23.5647 70.3994 24.122C70.9128 24.6647 71.3088 25.2953 71.5874 26.014C71.8661 26.718 72.0054 27.4807 72.0054 28.302C72.0054 29.094 71.8661 29.8493 71.5874 30.568C71.3088 31.272 70.9128 31.9027 70.3994 32.46C69.9008 33.0027 69.2994 33.4353 68.5954 33.758C67.9061 34.066 67.1434 34.22 66.3074 34.22ZM62.1494 28.324C62.1494 29.1747 62.3328 29.952 62.6994 30.656C63.0808 31.3453 63.5868 31.8953 64.2174 32.306C64.8481 32.702 65.5448 32.9 66.3074 32.9C67.0701 32.9 67.7668 32.6947 68.3974 32.284C69.0281 31.8733 69.5341 31.316 69.9154 30.612C70.2968 29.8933 70.4874 29.116 70.4874 28.28C70.4874 27.4293 70.2968 26.652 69.9154 25.948C69.5341 25.244 69.0281 24.6867 68.3974 24.276C67.7668 23.8653 67.0701 23.66 66.3074 23.66C65.5448 23.66 64.8481 23.8727 64.2174 24.298C63.6014 24.7233 63.1028 25.288 62.7214 25.992C62.3401 26.6813 62.1494 27.4587 62.1494 28.324ZM79.4574 34.22C78.6361 34.22 77.8734 34.066 77.1694 33.758C76.4654 33.4353 75.8568 33.0027 75.3434 32.46C74.8301 31.9027 74.4268 31.2647 74.1334 30.546C73.8548 29.8273 73.7154 29.0573 73.7154 28.236C73.7154 27.1653 73.9574 26.1827 74.4414 25.288C74.9401 24.3933 75.6221 23.682 76.4874 23.154C77.3528 22.6113 78.3354 22.34 79.4354 22.34C80.5648 22.34 81.5474 22.6113 82.3834 23.154C83.2341 23.6967 83.9014 24.4153 84.3854 25.31C84.8694 26.19 85.1114 27.158 85.1114 28.214C85.1114 28.3313 85.1114 28.4487 85.1114 28.566C85.1114 28.6687 85.1041 28.7493 85.0894 28.808H75.2774C75.3508 29.6293 75.5781 30.3627 75.9594 31.008C76.3554 31.6387 76.8614 32.1447 77.4774 32.526C78.1081 32.8927 78.7901 33.076 79.5234 33.076C80.2714 33.076 80.9754 32.8853 81.6354 32.504C82.3101 32.1227 82.7794 31.624 83.0434 31.008L84.3414 31.36C84.1068 31.9027 83.7474 32.394 83.2634 32.834C82.7794 33.274 82.2074 33.6187 81.5474 33.868C80.9021 34.1027 80.2054 34.22 79.4574 34.22ZM75.2334 27.73H83.7034C83.6448 26.894 83.4174 26.1607 83.0214 25.53C82.6401 24.8993 82.1341 24.408 81.5034 24.056C80.8874 23.6893 80.2054 23.506 79.4574 23.506C78.7094 23.506 78.0274 23.6893 77.4114 24.056C76.7954 24.408 76.2894 24.9067 75.8934 25.552C75.5121 26.1827 75.2921 26.9087 75.2334 27.73ZM87.3975 34V22.538H88.8935V27.444H90.6095L94.4595 22.538H96.1755L91.7975 28.104L96.7255 34H94.9655L90.6095 28.83H88.8935V34H87.3975ZM101.709 34V23.88H97.6172V22.538H107.297V23.88H103.205V34H101.709ZM114.284 34.22C113.462 34.22 112.7 34.066 111.996 33.758C111.292 33.4353 110.683 33.0027 110.17 32.46C109.656 31.9027 109.253 31.2647 108.96 30.546C108.681 29.8273 108.542 29.0573 108.542 28.236C108.542 27.1653 108.784 26.1827 109.268 25.288C109.766 24.3933 110.448 23.682 111.314 23.154C112.179 22.6113 113.162 22.34 114.262 22.34C115.391 22.34 116.374 22.6113 117.21 23.154C118.06 23.6967 118.728 24.4153 119.212 25.31C119.696 26.19 119.938 27.158 119.938 28.214C119.938 28.3313 119.938 28.4487 119.938 28.566C119.938 28.6687 119.93 28.7493 119.916 28.808H110.104C110.177 29.6293 110.404 30.3627 110.786 31.008C111.182 31.6387 111.688 32.1447 112.304 32.526C112.934 32.8927 113.616 33.076 114.35 33.076C115.098 33.076 115.802 32.8853 116.462 32.504C117.136 32.1227 117.606 31.624 117.87 31.008L119.168 31.36C118.933 31.9027 118.574 32.394 118.09 32.834C117.606 33.274 117.034 33.6187 116.374 33.868C115.728 34.1027 115.032 34.22 114.284 34.22ZM110.06 27.73H118.53C118.471 26.894 118.244 26.1607 117.848 25.53C117.466 24.8993 116.96 24.408 116.33 24.056C115.714 23.6893 115.032 23.506 114.284 23.506C113.536 23.506 112.854 23.6893 112.238 24.056C111.622 24.408 111.116 24.9067 110.72 25.552C110.338 26.1827 110.118 26.9087 110.06 27.73Z" fill="#132420"/>
<path d="M198.78 36.662V34H189.628V22.538H191.124V32.68H197.064V22.538H198.56V32.68H200.122V36.662H198.78ZM202.368 34V22.538H208.088C208.734 22.538 209.276 22.6773 209.716 22.956C210.156 23.22 210.486 23.5647 210.706 23.99C210.941 24.4153 211.058 24.87 211.058 25.354C211.058 25.97 210.912 26.5273 210.618 27.026C210.325 27.51 209.9 27.8767 209.342 28.126C210.002 28.3167 210.538 28.6613 210.948 29.16C211.359 29.6587 211.564 30.26 211.564 30.964C211.564 31.58 211.41 32.1153 211.102 32.57C210.809 33.0247 210.398 33.3767 209.87 33.626C209.357 33.8753 208.763 34 208.088 34H202.368ZM203.798 32.922H208.044C208.426 32.922 208.77 32.8267 209.078 32.636C209.401 32.4307 209.65 32.1667 209.826 31.844C210.017 31.5213 210.112 31.184 210.112 30.832C210.112 30.4507 210.024 30.106 209.848 29.798C209.672 29.4753 209.438 29.2187 209.144 29.028C208.851 28.8373 208.514 28.742 208.132 28.742H203.798V32.922ZM203.798 27.708H207.692C208.074 27.708 208.411 27.6053 208.704 27.4C208.998 27.1947 209.225 26.9307 209.386 26.608C209.548 26.2853 209.628 25.948 209.628 25.596C209.628 25.068 209.452 24.606 209.1 24.21C208.763 23.814 208.323 23.616 207.78 23.616H203.798V27.708ZM219.114 34.22C218.292 34.22 217.53 34.066 216.826 33.758C216.122 33.4353 215.513 33.0027 215 32.46C214.486 31.9027 214.083 31.2647 213.79 30.546C213.511 29.8273 213.372 29.0573 213.372 28.236C213.372 27.1653 213.614 26.1827 214.098 25.288C214.596 24.3933 215.278 23.682 216.144 23.154C217.009 22.6113 217.992 22.34 219.092 22.34C220.221 22.34 221.204 22.6113 222.04 23.154C222.89 23.6967 223.558 24.4153 224.042 25.31C224.526 26.19 224.768 27.158 224.768 28.214C224.768 28.3313 224.768 28.4487 224.768 28.566C224.768 28.6687 224.76 28.7493 224.746 28.808H214.934C215.007 29.6293 215.234 30.3627 215.616 31.008C216.012 31.6387 216.518 32.1447 217.134 32.526C217.764 32.8927 218.446 33.076 219.18 33.076C219.928 33.076 220.632 32.8853 221.292 32.504C221.966 32.1227 222.436 31.624 222.7 31.008L223.998 31.36C223.763 31.9027 223.404 32.394 222.92 32.834C222.436 33.274 221.864 33.6187 221.204 33.868C220.558 34.1027 219.862 34.22 219.114 34.22ZM214.89 27.73H223.36C223.301 26.894 223.074 26.1607 222.678 25.53C222.296 24.8993 221.79 24.408 221.16 24.056C220.544 23.6893 219.862 23.506 219.114 23.506C218.366 23.506 217.684 23.6893 217.068 24.056C216.452 24.408 215.946 24.9067 215.55 25.552C215.168 26.1827 214.948 26.9087 214.89 27.73ZM229.936 34V23.88H225.844V22.538H235.524V23.88H231.432V34H229.936ZM236.572 30.7C236.572 29.9813 236.777 29.3653 237.188 28.852C237.598 28.324 238.163 27.9207 238.882 27.642C239.615 27.3487 240.458 27.202 241.412 27.202C241.969 27.202 242.548 27.246 243.15 27.334C243.751 27.422 244.286 27.554 244.756 27.73V26.762C244.756 25.794 244.47 25.024 243.898 24.452C243.326 23.88 242.534 23.594 241.522 23.594C240.906 23.594 240.297 23.7113 239.696 23.946C239.109 24.166 238.493 24.496 237.848 24.936L237.276 23.88C238.024 23.3667 238.757 22.9853 239.476 22.736C240.194 22.472 240.928 22.34 241.676 22.34C243.084 22.34 244.198 22.7433 245.02 23.55C245.841 24.3567 246.252 25.4713 246.252 26.894V32.196C246.252 32.4013 246.296 32.5553 246.384 32.658C246.472 32.746 246.611 32.7973 246.802 32.812V34C246.64 34.0147 246.501 34.0293 246.384 34.044C246.266 34.0587 246.178 34.0587 246.12 34.044C245.753 34.0293 245.474 33.912 245.284 33.692C245.093 33.472 244.99 33.2373 244.976 32.988L244.954 32.152C244.44 32.812 243.773 33.3253 242.952 33.692C242.13 34.044 241.294 34.22 240.444 34.22C239.71 34.22 239.043 34.066 238.442 33.758C237.855 33.4353 237.393 33.01 237.056 32.482C236.733 31.9393 236.572 31.3453 236.572 30.7ZM244.25 31.58C244.411 31.3747 244.536 31.1767 244.624 30.986C244.712 30.7953 244.756 30.6267 244.756 30.48V28.808C244.257 28.6173 243.736 28.4707 243.194 28.368C242.666 28.2653 242.13 28.214 241.588 28.214C240.517 28.214 239.652 28.4267 238.992 28.852C238.332 29.2773 238.002 29.8567 238.002 30.59C238.002 31.0153 238.112 31.4187 238.332 31.8C238.552 32.1667 238.874 32.4747 239.3 32.724C239.725 32.9587 240.224 33.076 240.796 33.076C241.514 33.076 242.182 32.9367 242.798 32.658C243.428 32.3793 243.912 32.02 244.25 31.58Z" fill="#132420"/>
<path d="M343.622 34.22C342.786 34.22 342.016 34.066 341.312 33.758C340.623 33.4353 340.014 32.9953 339.486 32.438C338.973 31.8807 338.569 31.2427 338.276 30.524C337.997 29.8053 337.858 29.0427 337.858 28.236C337.858 27.1507 338.1 26.1607 338.584 25.266C339.068 24.3713 339.743 23.66 340.608 23.132C341.473 22.604 342.471 22.34 343.6 22.34C344.671 22.34 345.617 22.5893 346.438 23.088C347.259 23.572 347.868 24.232 348.264 25.068L346.812 25.53C346.489 24.9433 346.035 24.4887 345.448 24.166C344.876 23.8287 344.238 23.66 343.534 23.66C342.771 23.66 342.075 23.858 341.444 24.254C340.813 24.65 340.307 25.1927 339.926 25.882C339.559 26.5713 339.376 27.356 339.376 28.236C339.376 29.1013 339.567 29.886 339.948 30.59C340.329 31.294 340.835 31.8587 341.466 32.284C342.097 32.6947 342.793 32.9 343.556 32.9C344.055 32.9 344.531 32.812 344.986 32.636C345.455 32.46 345.859 32.2253 346.196 31.932C346.548 31.624 346.783 31.294 346.9 30.942L348.374 31.382C348.169 31.9247 347.824 32.416 347.34 32.856C346.871 33.2813 346.313 33.6187 345.668 33.868C345.037 34.1027 344.355 34.22 343.622 34.22ZM355.567 34.22C354.745 34.22 353.983 34.066 353.279 33.758C352.575 33.4353 351.966 33.0027 351.453 32.46C350.939 31.9027 350.536 31.2647 350.243 30.546C349.964 29.8273 349.825 29.0573 349.825 28.236C349.825 27.1653 350.067 26.1827 350.551 25.288C351.049 24.3933 351.731 23.682 352.597 23.154C353.462 22.6113 354.445 22.34 355.545 22.34C356.674 22.34 357.657 22.6113 358.493 23.154C359.343 23.6967 360.011 24.4153 360.495 25.31C360.979 26.19 361.221 27.158 361.221 28.214C361.221 28.3313 361.221 28.4487 361.221 28.566C361.221 28.6687 361.213 28.7493 361.199 28.808H351.387C351.46 29.6293 351.687 30.3627 352.069 31.008C352.465 31.6387 352.971 32.1447 353.587 32.526C354.217 32.8927 354.899 33.076 355.633 33.076C356.381 33.076 357.085 32.8853 357.745 32.504C358.419 32.1227 358.889 31.624 359.153 31.008L360.451 31.36C360.216 31.9027 359.857 32.394 359.373 32.834C358.889 33.274 358.317 33.6187 357.657 33.868C357.011 34.1027 356.315 34.22 355.567 34.22ZM351.343 27.73H359.813C359.754 26.894 359.527 26.1607 359.131 25.53C358.749 24.8993 358.243 24.408 357.613 24.056C356.997 23.6893 356.315 23.506 355.567 23.506C354.819 23.506 354.137 23.6893 353.521 24.056C352.905 24.408 352.399 24.9067 352.003 25.552C351.621 26.1827 351.401 26.9087 351.343 27.73ZM366.389 34V23.88H362.297V22.538H371.977V23.88H367.885V34H366.389ZM373.991 34V22.538H375.487V27.444H377.203L381.053 22.538H382.769L378.391 28.104L383.319 34H381.559L377.203 28.83H375.487V34H373.991ZM384.476 30.7C384.476 29.9813 384.681 29.3653 385.092 28.852C385.503 28.324 386.067 27.9207 386.786 27.642C387.519 27.3487 388.363 27.202 389.316 27.202C389.873 27.202 390.453 27.246 391.054 27.334C391.655 27.422 392.191 27.554 392.66 27.73V26.762C392.66 25.794 392.374 25.024 391.802 24.452C391.23 23.88 390.438 23.594 389.426 23.594C388.81 23.594 388.201 23.7113 387.6 23.946C387.013 24.166 386.397 24.496 385.752 24.936L385.18 23.88C385.928 23.3667 386.661 22.9853 387.38 22.736C388.099 22.472 388.832 22.34 389.58 22.34C390.988 22.34 392.103 22.7433 392.924 23.55C393.745 24.3567 394.156 25.4713 394.156 26.894V32.196C394.156 32.4013 394.2 32.5553 394.288 32.658C394.376 32.746 394.515 32.7973 394.706 32.812V34C394.545 34.0147 394.405 34.0293 394.288 34.044C394.171 34.0587 394.083 34.0587 394.024 34.044C393.657 34.0293 393.379 33.912 393.188 33.692C392.997 33.472 392.895 33.2373 392.88 32.988L392.858 32.152C392.345 32.812 391.677 33.3253 390.856 33.692C390.035 34.044 389.199 34.22 388.348 34.22C387.615 34.22 386.947 34.066 386.346 33.758C385.759 33.4353 385.297 33.01 384.96 32.482C384.637 31.9393 384.476 31.3453 384.476 30.7ZM392.154 31.58C392.315 31.3747 392.44 31.1767 392.528 30.986C392.616 30.7953 392.66 30.6267 392.66 30.48V28.808C392.161 28.6173 391.641 28.4707 391.098 28.368C390.57 28.2653 390.035 28.214 389.492 28.214C388.421 28.214 387.556 28.4267 386.896 28.852C386.236 29.2773 385.906 29.8567 385.906 30.59C385.906 31.0153 386.016 31.4187 386.236 31.8C386.456 32.1667 386.779 32.4747 387.204 32.724C387.629 32.9587 388.128 33.076 388.7 33.076C389.419 33.076 390.086 32.9367 390.702 32.658C391.333 32.3793 391.817 32.02 392.154 31.58Z" fill="#132420"/>
<path d="M324.628 97V85.538H331.47V86.88H326.124V97H324.628ZM339.418 97.22C338.465 97.22 337.607 96.9707 336.844 96.472C336.096 95.9733 335.502 95.3573 335.062 94.624V101.686H333.566V85.538H334.908V87.76C335.363 87.0413 335.971 86.462 336.734 86.022C337.497 85.5673 338.311 85.34 339.176 85.34C339.968 85.34 340.694 85.5087 341.354 85.846C342.014 86.1687 342.586 86.6087 343.07 87.166C343.554 87.7233 343.928 88.3613 344.192 89.08C344.471 89.784 344.61 90.5173 344.61 91.28C344.61 92.3507 344.39 93.3407 343.95 94.25C343.525 95.1447 342.923 95.8633 342.146 96.406C341.369 96.9487 340.459 97.22 339.418 97.22ZM339 95.9C339.631 95.9 340.195 95.7753 340.694 95.526C341.193 95.262 341.618 94.91 341.97 94.47C342.337 94.03 342.615 93.5387 342.806 92.996C342.997 92.4387 343.092 91.8667 343.092 91.28C343.092 90.664 342.982 90.0773 342.762 89.52C342.557 88.9627 342.256 88.4713 341.86 88.046C341.464 87.6207 341.009 87.2833 340.496 87.034C339.983 86.7847 339.425 86.66 338.824 86.66C338.443 86.66 338.047 86.7333 337.636 86.88C337.225 87.0267 336.829 87.2393 336.448 87.518C336.081 87.782 335.773 88.0827 335.524 88.42C335.275 88.7573 335.121 89.1167 335.062 89.498V93.018C335.297 93.5607 335.612 94.052 336.008 94.492C336.404 94.9173 336.859 95.262 337.372 95.526C337.9 95.7753 338.443 95.9 339 95.9ZM346.22 93.7C346.22 92.9813 346.425 92.3653 346.836 91.852C347.247 91.324 347.811 90.9207 348.53 90.642C349.263 90.3487 350.107 90.202 351.06 90.202C351.617 90.202 352.197 90.246 352.798 90.334C353.399 90.422 353.935 90.554 354.404 90.73V89.762C354.404 88.794 354.118 88.024 353.546 87.452C352.974 86.88 352.182 86.594 351.17 86.594C350.554 86.594 349.945 86.7113 349.344 86.946C348.757 87.166 348.141 87.496 347.496 87.936L346.924 86.88C347.672 86.3667 348.405 85.9853 349.124 85.736C349.843 85.472 350.576 85.34 351.324 85.34C352.732 85.34 353.847 85.7433 354.668 86.55C355.489 87.3567 355.9 88.4713 355.9 89.894V95.196C355.9 95.4013 355.944 95.5553 356.032 95.658C356.12 95.746 356.259 95.7973 356.45 95.812V97C356.289 97.0147 356.149 97.0293 356.032 97.044C355.915 97.0587 355.827 97.0587 355.768 97.044C355.401 97.0293 355.123 96.912 354.932 96.692C354.741 96.472 354.639 96.2373 354.624 95.988L354.602 95.152C354.089 95.812 353.421 96.3253 352.6 96.692C351.779 97.044 350.943 97.22 350.092 97.22C349.359 97.22 348.691 97.066 348.09 96.758C347.503 96.4353 347.041 96.01 346.704 95.482C346.381 94.9393 346.22 94.3453 346.22 93.7ZM353.898 94.58C354.059 94.3747 354.184 94.1767 354.272 93.986C354.36 93.7953 354.404 93.6267 354.404 93.48V91.808C353.905 91.6173 353.385 91.4707 352.842 91.368C352.314 91.2653 351.779 91.214 351.236 91.214C350.165 91.214 349.3 91.4267 348.64 91.852C347.98 92.2773 347.65 92.8567 347.65 93.59C347.65 94.0153 347.76 94.4187 347.98 94.8C348.2 95.1667 348.523 95.4747 348.948 95.724C349.373 95.9587 349.872 96.076 350.444 96.076C351.163 96.076 351.83 95.9367 352.446 95.658C353.077 95.3793 353.561 95.02 353.898 94.58ZM364.412 101.686V97H363.906C362.777 97 361.794 96.736 360.958 96.208C360.122 95.68 359.477 94.9907 359.022 94.14C358.568 93.2747 358.34 92.3287 358.34 91.302C358.34 90.2607 358.568 89.3073 359.022 88.442C359.492 87.5767 360.144 86.88 360.98 86.352C361.816 85.824 362.792 85.56 363.906 85.56H364.412V80.94H365.908V85.56H366.414C367.529 85.56 368.504 85.824 369.34 86.352C370.176 86.88 370.822 87.5767 371.276 88.442C371.746 89.3073 371.98 90.2607 371.98 91.302C371.98 92.3287 371.753 93.2747 371.298 94.14C370.844 94.9907 370.198 95.68 369.362 96.208C368.526 96.736 367.544 97 366.414 97H365.908V101.686H364.412ZM363.906 95.746H364.456V86.814H363.906C363.114 86.814 362.41 87.0193 361.794 87.43C361.178 87.826 360.694 88.3687 360.342 89.058C359.99 89.7327 359.814 90.488 359.814 91.324C359.814 92.1453 359.983 92.8933 360.32 93.568C360.672 94.2427 361.156 94.778 361.772 95.174C362.388 95.5553 363.1 95.746 363.906 95.746ZM365.842 95.746H366.414C367.221 95.746 367.932 95.5553 368.548 95.174C369.164 94.778 369.641 94.2427 369.978 93.568C370.33 92.8933 370.506 92.1453 370.506 91.324C370.506 90.488 370.33 89.7327 369.978 89.058C369.626 88.3687 369.142 87.826 368.526 87.43C367.925 87.0193 367.221 86.814 366.414 86.814H365.842V95.746ZM374.472 97V85.56H375.968V94.976L382.942 85.538H384.284V97H382.788V87.738L375.924 97H374.472ZM387.534 97V85.538H389.03V90.444H390.746L394.596 85.538H396.312L391.934 91.104L396.862 97H395.102L390.746 91.83H389.03V97H387.534ZM398.019 93.7C398.019 92.9813 398.224 92.3653 398.635 91.852C399.046 91.324 399.61 90.9207 400.329 90.642C401.062 90.3487 401.906 90.202 402.859 90.202C403.416 90.202 403.996 90.246 404.597 90.334C405.198 90.422 405.734 90.554 406.203 90.73V89.762C406.203 88.794 405.917 88.024 405.345 87.452C404.773 86.88 403.981 86.594 402.969 86.594C402.353 86.594 401.744 86.7113 401.143 86.946C400.556 87.166 399.94 87.496 399.295 87.936L398.723 86.88C399.471 86.3667 400.204 85.9853 400.923 85.736C401.642 85.472 402.375 85.34 403.123 85.34C404.531 85.34 405.646 85.7433 406.467 86.55C407.288 87.3567 407.699 88.4713 407.699 89.894V95.196C407.699 95.4013 407.743 95.5553 407.831 95.658C407.919 95.746 408.058 95.7973 408.249 95.812V97C408.088 97.0147 407.948 97.0293 407.831 97.044C407.714 97.0587 407.626 97.0587 407.567 97.044C407.2 97.0293 406.922 96.912 406.731 96.692C406.54 96.472 406.438 96.2373 406.423 95.988L406.401 95.152C405.888 95.812 405.22 96.3253 404.399 96.692C403.578 97.044 402.742 97.22 401.891 97.22C401.158 97.22 400.49 97.066 399.889 96.758C399.302 96.4353 398.84 96.01 398.503 95.482C398.18 94.9393 398.019 94.3453 398.019 93.7ZM405.697 94.58C405.858 94.3747 405.983 94.1767 406.071 93.986C406.159 93.7953 406.203 93.6267 406.203 93.48V91.808C405.704 91.6173 405.184 91.4707 404.641 91.368C404.113 91.2653 403.578 91.214 403.035 91.214C401.964 91.214 401.099 91.4267 400.439 91.852C399.779 92.2773 399.449 92.8567 399.449 93.59C399.449 94.0153 399.559 94.4187 399.779 94.8C399.999 95.1667 400.322 95.4747 400.747 95.724C401.172 95.9587 401.671 96.076 402.243 96.076C402.962 96.076 403.629 95.9367 404.245 95.658C404.876 95.3793 405.36 95.02 405.697 94.58Z" fill="#132420"/>
<path d="M176.628 97V85.538H178.124V95.68H183.03V85.538H184.548V95.68H189.432V85.538H190.928V97H176.628ZM200.055 97.22C199.101 97.22 198.243 96.9707 197.481 96.472C196.733 95.9733 196.139 95.3573 195.699 94.624V101.686H194.203V85.538H195.545V87.76C195.999 87.0413 196.608 86.462 197.371 86.022C198.133 85.5673 198.947 85.34 199.813 85.34C200.605 85.34 201.331 85.5087 201.991 85.846C202.651 86.1687 203.223 86.6087 203.707 87.166C204.191 87.7233 204.565 88.3613 204.829 89.08C205.107 89.784 205.247 90.5173 205.247 91.28C205.247 92.3507 205.027 93.3407 204.587 94.25C204.161 95.1447 203.56 95.8633 202.783 96.406C202.005 96.9487 201.096 97.22 200.055 97.22ZM199.637 95.9C200.267 95.9 200.832 95.7753 201.331 95.526C201.829 95.262 202.255 94.91 202.607 94.47C202.973 94.03 203.252 93.5387 203.443 92.996C203.633 92.4387 203.729 91.8667 203.729 91.28C203.729 90.664 203.619 90.0773 203.399 89.52C203.193 88.9627 202.893 88.4713 202.497 88.046C202.101 87.6207 201.646 87.2833 201.133 87.034C200.619 86.7847 200.062 86.66 199.461 86.66C199.079 86.66 198.683 86.7333 198.273 86.88C197.862 87.0267 197.466 87.2393 197.085 87.518C196.718 87.782 196.41 88.0827 196.161 88.42C195.911 88.7573 195.757 89.1167 195.699 89.498V93.018C195.933 93.5607 196.249 94.052 196.645 94.492C197.041 94.9173 197.495 95.262 198.009 95.526C198.537 95.7753 199.079 95.9 199.637 95.9ZM207.759 97V85.56H209.255V94.976L216.229 85.538H217.571V97H216.075V87.738L209.211 97H207.759ZM226.123 101.686V97H225.617C224.488 97 223.505 96.736 222.669 96.208C221.833 95.68 221.188 94.9907 220.733 94.14C220.279 93.2747 220.051 92.3287 220.051 91.302C220.051 90.2607 220.279 89.3073 220.733 88.442C221.203 87.5767 221.855 86.88 222.691 86.352C223.527 85.824 224.503 85.56 225.617 85.56H226.123V80.94H227.619V85.56H228.125C229.24 85.56 230.215 85.824 231.051 86.352C231.887 86.88 232.533 87.5767 232.987 88.442C233.457 89.3073 233.691 90.2607 233.691 91.302C233.691 92.3287 233.464 93.2747 233.009 94.14C232.555 94.9907 231.909 95.68 231.073 96.208C230.237 96.736 229.255 97 228.125 97H227.619V101.686H226.123ZM225.617 95.746H226.167V86.814H225.617C224.825 86.814 224.121 87.0193 223.505 87.43C222.889 87.826 222.405 88.3687 222.053 89.058C221.701 89.7327 221.525 90.488 221.525 91.324C221.525 92.1453 221.694 92.8933 222.031 93.568C222.383 94.2427 222.867 94.778 223.483 95.174C224.099 95.5553 224.811 95.746 225.617 95.746ZM227.553 95.746H228.125C228.932 95.746 229.643 95.5553 230.259 95.174C230.875 94.778 231.352 94.2427 231.689 93.568C232.041 92.8933 232.217 92.1453 232.217 91.324C232.217 90.488 232.041 89.7327 231.689 89.058C231.337 88.3687 230.853 87.826 230.237 87.43C229.636 87.0193 228.932 86.814 228.125 86.814H227.553V95.746ZM239.065 97V86.88H234.973V85.538H244.653V86.88H240.561V97H239.065ZM246.667 97V85.538H248.163V89.586H250.759C252.064 89.586 253.047 89.9233 253.707 90.598C254.382 91.258 254.719 92.1307 254.719 93.216C254.719 93.92 254.572 94.558 254.279 95.13C253.986 95.702 253.553 96.1567 252.981 96.494C252.424 96.8313 251.72 97 250.869 97H246.667ZM248.163 95.812H250.671C251.272 95.812 251.756 95.6947 252.123 95.46C252.49 95.2107 252.761 94.8953 252.937 94.514C253.113 94.118 253.201 93.6927 253.201 93.238C253.201 92.798 253.12 92.3947 252.959 92.028C252.812 91.6467 252.548 91.346 252.167 91.126C251.8 90.8913 251.287 90.774 250.627 90.774H248.163V95.812ZM256.809 97V85.56H258.305V97H256.809Z" fill="#132420"/>
<path d="M26.55 97.066V95.702C26.946 95.702 27.298 95.5993 27.606 95.394C27.914 95.174 28.1853 94.8073 28.42 94.294C28.6693 93.7807 28.8673 93.0767 29.014 92.182C29.1607 91.2727 29.256 90.1213 29.3 88.728L29.432 85.538H36.868V97H35.372V86.88H30.752L30.708 88.86C30.6493 90.444 30.5247 91.7713 30.334 92.842C30.1433 93.898 29.872 94.734 29.52 95.35C29.1827 95.966 28.7647 96.406 28.266 96.67C27.7673 96.934 27.1953 97.066 26.55 97.066ZM45.0594 97.22C44.2381 97.22 43.4754 97.066 42.7714 96.758C42.0821 96.4353 41.4807 96.0027 40.9674 95.46C40.4687 94.9027 40.0801 94.272 39.8014 93.568C39.5227 92.8493 39.3834 92.094 39.3834 91.302C39.3834 90.4807 39.5227 89.718 39.8014 89.014C40.0801 88.2953 40.4761 87.6647 40.9894 87.122C41.5027 86.5647 42.1041 86.132 42.7934 85.824C43.4974 85.5013 44.2601 85.34 45.0814 85.34C45.9027 85.34 46.6581 85.5013 47.3474 85.824C48.0367 86.132 48.6381 86.5647 49.1514 87.122C49.6647 87.6647 50.0607 88.2953 50.3394 89.014C50.6181 89.718 50.7574 90.4807 50.7574 91.302C50.7574 92.094 50.6181 92.8493 50.3394 93.568C50.0607 94.272 49.6647 94.9027 49.1514 95.46C48.6527 96.0027 48.0514 96.4353 47.3474 96.758C46.6581 97.066 45.8954 97.22 45.0594 97.22ZM40.9014 91.324C40.9014 92.1747 41.0847 92.952 41.4514 93.656C41.8327 94.3453 42.3387 94.8953 42.9694 95.306C43.6001 95.702 44.2967 95.9 45.0594 95.9C45.8221 95.9 46.5187 95.6947 47.1494 95.284C47.7801 94.8733 48.2861 94.316 48.6674 93.612C49.0487 92.8933 49.2394 92.116 49.2394 91.28C49.2394 90.4293 49.0487 89.652 48.6674 88.948C48.2861 88.244 47.7801 87.6867 47.1494 87.276C46.5187 86.8653 45.8221 86.66 45.0594 86.66C44.2967 86.66 43.6001 86.8727 42.9694 87.298C42.3534 87.7233 41.8547 88.288 41.4734 88.992C41.0921 89.6813 40.9014 90.4587 40.9014 91.324ZM53.2374 97V85.538H60.0794V86.88H54.7334V97H53.2374ZM67.0594 97.22C66.2381 97.22 65.4754 97.066 64.7714 96.758C64.0821 96.4353 63.4807 96.0027 62.9674 95.46C62.4687 94.9027 62.0801 94.272 61.8014 93.568C61.5227 92.8493 61.3834 92.094 61.3834 91.302C61.3834 90.4807 61.5227 89.718 61.8014 89.014C62.0801 88.2953 62.4761 87.6647 62.9894 87.122C63.5027 86.5647 64.1041 86.132 64.7934 85.824C65.4974 85.5013 66.2601 85.34 67.0814 85.34C67.9027 85.34 68.6581 85.5013 69.3474 85.824C70.0367 86.132 70.6381 86.5647 71.1514 87.122C71.6647 87.6647 72.0607 88.2953 72.3394 89.014C72.6181 89.718 72.7574 90.4807 72.7574 91.302C72.7574 92.094 72.6181 92.8493 72.3394 93.568C72.0607 94.272 71.6647 94.9027 71.1514 95.46C70.6527 96.0027 70.0514 96.4353 69.3474 96.758C68.6581 97.066 67.8954 97.22 67.0594 97.22ZM62.9014 91.324C62.9014 92.1747 63.0847 92.952 63.4514 93.656C63.8327 94.3453 64.3387 94.8953 64.9694 95.306C65.6001 95.702 66.2967 95.9 67.0594 95.9C67.8221 95.9 68.5187 95.6947 69.1494 95.284C69.7801 94.8733 70.2861 94.316 70.6674 93.612C71.0487 92.8933 71.2394 92.116 71.2394 91.28C71.2394 90.4293 71.0487 89.652 70.6674 88.948C70.2861 88.244 69.7801 87.6867 69.1494 87.276C68.5187 86.8653 67.8221 86.66 67.0594 86.66C66.2967 86.66 65.6001 86.8727 64.9694 87.298C64.3534 87.7233 63.8547 88.288 63.4734 88.992C63.0921 89.6813 62.9014 90.4587 62.9014 91.324ZM78.1194 97V86.88H74.0274V85.538H83.7074V86.88H79.6154V97H78.1194ZM85.7218 97V85.56H87.2178V94.976L94.1918 85.538H95.5338V97H94.0378V87.738L87.1738 97H85.7218ZM98.7843 97V85.538H108.002V97H106.506V86.88H100.28V97H98.7843Z" fill="#132420"/>
</svg>
