<svg width="884" height="321" viewBox="0 0 884 321" fill="none" xmlns="http://www.w3.org/2000/svg">
<path fill-rule="evenodd" clip-rule="evenodd" d="M136.987 269.699V5.13014C136.987 2.29684 139.284 0 142.117 0H191.22C219.553 0 242.522 22.9684 242.522 51.3014V92.7822C242.522 121.115 219.553 144.084 191.22 144.084H189.241C183.599 144.03 180.017 143.736 173.191 141.812V268.16C173.191 277.267 180.574 284.649 189.681 284.649C198.788 284.649 206.171 277.267 206.171 268.16V182.193C206.171 179.36 208.468 177.063 211.301 177.063H237.391C240.225 177.063 242.522 179.36 242.522 182.193V315.87C242.522 318.703 240.225 321 237.391 321H188.289C159.956 321 136.987 298.032 136.987 269.699ZM123.796 182.193V315.87C123.796 318.703 121.499 321 118.665 321H92.575C89.7417 321 87.4448 318.703 87.4448 315.87V229.903C87.4448 220.796 80.0621 213.414 70.9551 213.414C61.8481 213.414 54.4654 220.796 54.4654 229.903V284.796C54.4654 304.791 38.2563 321 18.2613 321H5.21607C2.38278 321 0.0859375 318.703 0.0859375 315.87V289.779C0.0859375 286.946 2.38278 284.649 5.21608 284.649H8.00101C13.6676 284.649 18.2613 280.056 18.2613 274.389V228.364C18.2613 200.031 41.2297 177.063 69.5627 177.063H118.665C121.499 177.063 123.796 179.36 123.796 182.193ZM255.713 315.87V182.193C255.713 179.36 258.01 177.063 260.843 177.063H315.37C340.707 177.063 361.248 197.603 361.248 222.941C360.876 235.501 359.537 239.932 353.333 248.885C358.953 259.265 360.7 264.315 361.248 275.122C361.248 300.46 340.707 321 315.37 321H260.843C258.01 321 255.713 318.703 255.713 315.87ZM49.8748 144.084H22.8668C20.3273 144.084 18.2687 142.025 18.2687 139.486V4.59803C18.2687 2.05861 20.3274 0 22.8668 0H119.276C121.816 0 123.875 2.06004 123.874 4.60038L123.805 139.488C123.804 142.026 121.746 144.084 119.207 144.084H92.0503C89.5109 144.084 87.4523 142.025 87.4523 139.486V52.8404C87.4523 43.7334 80.0696 36.3507 70.9626 36.3507C61.8555 36.3507 54.4728 43.7334 54.4728 52.8404V139.486C54.4728 142.025 52.4142 144.084 49.8748 144.084ZM255.717 45.9803V98.1033C255.717 123.497 276.303 144.084 301.697 144.084H315.271C340.665 144.084 361.251 123.497 361.251 98.1032V45.9803C361.251 20.5861 340.665 0 315.271 0H301.697C276.303 0 255.717 20.5861 255.717 45.9803ZM173.19 91.2424V52.8397C173.19 43.7327 180.573 36.35 189.68 36.35C198.787 36.35 206.17 43.7327 206.17 52.8397V91.2424C206.17 100.349 198.787 107.732 189.68 107.732C180.573 107.732 173.19 100.349 173.19 91.2424ZM291.918 52.8397V91.2424C291.918 100.349 299.301 107.732 308.408 107.732C317.515 107.732 324.898 100.349 324.898 91.2424V52.8397C324.898 43.7327 317.515 36.35 308.408 36.35C299.301 36.35 291.918 43.7327 291.918 52.8397ZM315.372 213.405H292.067V232.46H315.372C320.634 232.46 324.9 228.195 324.9 222.933C324.9 217.671 320.634 213.405 315.372 213.405ZM292.067 265.442H315.299C320.602 265.442 324.9 269.741 324.9 275.043C324.9 280.345 320.602 284.644 315.299 284.644H292.067V265.442Z" fill="#132420"/>
<path d="M362.133 134.699V186.822C362.133 212.216 382.719 232.802 408.113 232.802H421.687C447.081 232.802 467.667 212.216 467.667 186.822V134.699C467.667 109.305 447.081 88.7188 421.687 88.7188H408.113C382.719 88.7188 362.133 109.305 362.133 134.699Z" fill="#A3BEB0" fill-opacity="0.43"/>
<path d="M398.334 141.558V179.961C398.334 189.068 405.717 196.451 414.824 196.451C423.931 196.451 431.314 189.068 431.314 179.961V141.558C431.314 132.451 423.931 125.069 414.824 125.069C405.717 125.069 398.334 132.451 398.334 141.558Z" fill="white"/>
<path d="M362.138 3.91737e-08L361.242 320.833" stroke="#A3BEB0" stroke-width="2.35515"/>
<path d="M468.795 3.91737e-08L467.898 320.833" stroke="#A3BEB0" stroke-width="2.35515"/>
<path fill-rule="evenodd" clip-rule="evenodd" d="M566.996 71.3202C562.357 82.6804 551.205 109.665 542.216 131.285L525.874 170.594L525.284 111.391L524.694 52.187L496.741 119.633L468.789 187.078L544.235 187.404L619.683 187.732L619.703 205.157L619.722 222.583L630.323 197.332C636.152 183.443 640.923 171.888 640.923 171.654C640.923 171.419 637.476 171.228 633.264 171.228H625.606L625.299 111.518L624.993 51.8078L615.427 75.0622C610.166 87.8515 599.281 114.192 591.237 133.597L576.613 168.877L576.023 109.771L575.433 50.6641L566.996 71.3202ZM662.681 66.9328C663.12 72.3384 664.211 84.7486 665.106 94.5124C666.001 104.276 667.37 120.881 668.147 131.411L669.561 150.558L663.93 163.746C660.833 171 657.328 179.358 656.142 182.323L653.986 187.712H665.465H676.944L683.052 172.813C686.412 164.618 699.281 135.677 711.651 108.5C724.021 81.3211 734.142 58.64 734.142 58.096C734.142 57.5507 729.229 57.1082 723.227 57.112L712.312 57.1183L700.002 87.5446C693.231 104.279 687.335 117.971 686.899 117.971C686.463 117.971 685.743 106.987 685.299 93.5614C684.855 80.1355 684.179 66.4421 683.795 63.1287L683.098 57.1056H672.492H661.885L662.681 66.9328ZM750.742 70.7369C749.272 78.2348 743.606 106.829 738.155 134.28C732.702 161.73 728.242 185.005 728.242 186.001C728.242 187.459 730.249 187.74 738.56 187.445L748.878 187.078L753.287 164.254C759.992 129.543 761.437 122.787 762.022 123.417C762.319 123.735 765.35 138.19 768.758 155.537L774.954 187.078L785.817 187.443C794.567 187.736 796.681 187.458 796.681 186.01C796.681 185.021 793.468 169.876 789.541 152.356L782.402 120.499L798.681 94.8256C807.635 80.7049 816.414 66.8695 818.19 64.0798C819.965 61.2901 821.428 58.5803 821.44 58.0566C821.452 57.533 816.521 57.1056 810.484 57.1056H799.507L781.355 87.5142C771.373 104.239 763.05 117.759 762.864 117.558C762.564 117.235 771.813 68.6865 773.769 60.3099L774.518 57.1056H763.966H753.416L750.742 70.7369ZM842.727 91.0253C835.36 109.681 823.845 138.827 817.137 155.795C810.429 172.762 804.941 186.905 804.941 187.224C804.941 187.543 810.097 187.641 816.398 187.441L827.854 187.078L833.802 170.921L839.751 154.764L851.399 154.754L863.047 154.744L862.609 170.911L862.171 187.078L873.086 187.443L884.001 187.808V139.776C884.001 113.358 883.652 83.9498 883.228 74.4244L882.455 57.1056H869.287H856.12L842.727 91.0253ZM856.36 105.704C851.877 119.774 847.974 131.999 847.688 132.87C847.304 134.039 849.32 134.455 855.378 134.455H863.586L864.424 107.691C864.884 92.9717 865.094 80.7467 864.887 80.5248C864.682 80.3029 860.843 91.634 856.36 105.704Z" fill="#132420"/>
</svg>
