<svg width="618" height="616" viewBox="0 0 618 616" fill="none" xmlns="http://www.w3.org/2000/svg">
<path d="M262.302 0H34.9715C15.8327 0 0.311762 15.5037 0.290492 34.6424L0.0385861 261.305C0.0172825 280.474 15.5507 296.025 34.7195 296.025H211.241C217.855 296.025 223.216 301.386 223.216 308C223.216 314.614 217.855 319.975 211.241 319.975H35.0656C15.9146 319.975 0.388628 335.498 0.384557 354.649L0.336367 581.312C0.332294 600.468 15.8607 616 35.0173 616H262.302C281.456 616 296.983 600.473 296.983 581.319V401.885C296.983 395.271 302.344 389.91 308.958 389.91C315.572 389.91 320.933 395.271 320.933 401.885V581.319C320.933 600.473 336.46 616 355.614 616H582.585C601.736 616 617.262 600.477 617.266 581.326L617.314 354.663C617.318 335.507 601.79 319.975 582.633 319.975H405.991C399.377 319.975 394.016 314.614 394.016 308C394.016 301.386 399.377 296.025 405.991 296.025H582.351C601.489 296.025 617.01 280.521 617.032 261.382L617.283 34.7195C617.305 15.5507 601.771 0 582.602 0H355.614C336.46 0 320.933 15.5272 320.933 34.681V207.409C320.933 214.023 315.572 219.384 308.958 219.384C302.344 219.384 296.983 214.023 296.983 207.409V34.681C296.983 15.5272 281.456 0 262.302 0Z" fill="#2D4F46"/>
<path d="M97.6047 474.25C96.6214 474.25 95.7214 474.075 94.9047 473.725C94.1047 473.358 93.4047 472.858 92.8047 472.225C92.2214 471.592 91.763 470.867 91.4297 470.05C91.113 469.233 90.9547 468.367 90.9547 467.45C90.9547 466.217 91.2297 465.092 91.7797 464.075C92.3297 463.058 93.1047 462.25 94.1047 461.65C95.1047 461.033 96.263 460.725 97.5797 460.725C98.863 460.725 99.9797 461.017 100.93 461.6C101.896 462.167 102.613 462.933 103.08 463.9L100.93 464.575C100.596 463.958 100.13 463.483 99.5297 463.15C98.9297 462.8 98.263 462.625 97.5297 462.625C96.7297 462.625 95.9964 462.833 95.3297 463.25C94.6797 463.667 94.163 464.242 93.7797 464.975C93.3964 465.692 93.2047 466.517 93.2047 467.45C93.2047 468.367 93.3964 469.2 93.7797 469.95C94.1797 470.683 94.7047 471.267 95.3547 471.7C96.0214 472.133 96.7547 472.35 97.5547 472.35C98.0714 472.35 98.563 472.258 99.0297 472.075C99.513 471.892 99.9297 471.65 100.28 471.35C100.646 471.033 100.896 470.692 101.03 470.325L103.18 470.975C102.913 471.608 102.505 472.175 101.955 472.675C101.421 473.158 100.78 473.542 100.03 473.825C99.2964 474.108 98.488 474.25 97.6047 474.25ZM105.647 474V460.95H112.397C113.181 460.95 113.831 461.108 114.347 461.425C114.864 461.725 115.247 462.117 115.497 462.6C115.764 463.083 115.897 463.6 115.897 464.15C115.897 464.85 115.731 465.483 115.397 466.05C115.064 466.6 114.581 467.017 113.947 467.3C114.697 467.517 115.306 467.908 115.772 468.475C116.239 469.025 116.472 469.708 116.472 470.525C116.472 471.258 116.297 471.883 115.947 472.4C115.597 472.917 115.106 473.317 114.472 473.6C113.839 473.867 113.106 474 112.272 474H105.647ZM107.747 472.45H112.222C112.622 472.45 112.981 472.35 113.297 472.15C113.631 471.95 113.889 471.683 114.072 471.35C114.256 471.017 114.347 470.667 114.347 470.3C114.347 469.9 114.256 469.542 114.072 469.225C113.906 468.892 113.664 468.633 113.347 468.45C113.047 468.25 112.697 468.15 112.297 468.15H107.747V472.45ZM107.747 466.7H111.822C112.222 466.7 112.572 466.6 112.872 466.4C113.172 466.183 113.406 465.908 113.572 465.575C113.739 465.242 113.822 464.892 113.822 464.525C113.822 463.975 113.639 463.5 113.272 463.1C112.922 462.7 112.464 462.5 111.897 462.5H107.747V466.7ZM124.971 474.25C123.988 474.25 123.096 474.075 122.296 473.725C121.496 473.358 120.804 472.867 120.221 472.25C119.638 471.617 119.188 470.892 118.871 470.075C118.554 469.258 118.396 468.4 118.396 467.5C118.396 466.583 118.554 465.717 118.871 464.9C119.188 464.083 119.638 463.367 120.221 462.75C120.804 462.117 121.496 461.625 122.296 461.275C123.113 460.908 124.004 460.725 124.971 460.725C125.954 460.725 126.846 460.908 127.646 461.275C128.446 461.625 129.138 462.117 129.721 462.75C130.321 463.367 130.779 464.083 131.096 464.9C131.413 465.717 131.571 466.583 131.571 467.5C131.571 468.4 131.413 469.258 131.096 470.075C130.779 470.892 130.329 471.617 129.746 472.25C129.163 472.867 128.463 473.358 127.646 473.725C126.846 474.075 125.954 474.25 124.971 474.25ZM120.646 467.525C120.646 468.425 120.838 469.242 121.221 469.975C121.621 470.708 122.146 471.292 122.796 471.725C123.446 472.142 124.171 472.35 124.971 472.35C125.771 472.35 126.496 472.133 127.146 471.7C127.813 471.267 128.338 470.683 128.721 469.95C129.121 469.2 129.321 468.375 129.321 467.475C129.321 466.575 129.121 465.758 128.721 465.025C128.338 464.292 127.813 463.708 127.146 463.275C126.496 462.842 125.771 462.625 124.971 462.625C124.171 462.625 123.446 462.85 122.796 463.3C122.146 463.733 121.621 464.317 121.221 465.05C120.838 465.783 120.646 466.608 120.646 467.525ZM140.387 474.25C138.237 474.25 136.612 473.6 135.512 472.3C134.412 471 133.862 469.167 133.862 466.8C133.862 465.183 133.995 463.825 134.262 462.725C134.529 461.608 134.929 460.692 135.462 459.975C135.995 459.242 136.654 458.65 137.437 458.2C138.22 457.733 139.12 457.35 140.137 457.05L145.662 455.375L145.787 457.275L140.412 458.9C139.495 459.2 138.729 459.583 138.112 460.05C137.495 460.517 137.012 461.117 136.662 461.85C136.312 462.583 136.079 463.525 135.962 464.675C136.395 463.792 137.045 463.108 137.912 462.625C138.779 462.125 139.787 461.875 140.937 461.875C142.17 461.875 143.229 462.133 144.112 462.65C145.012 463.15 145.695 463.858 146.162 464.775C146.645 465.675 146.887 466.717 146.887 467.9C146.887 469.167 146.637 470.275 146.137 471.225C145.637 472.175 144.904 472.917 143.937 473.45C142.97 473.983 141.787 474.25 140.387 474.25ZM140.387 472.35C141.737 472.35 142.779 471.958 143.512 471.175C144.262 470.375 144.637 469.317 144.637 468C144.637 466.717 144.27 465.675 143.537 464.875C142.804 464.075 141.754 463.675 140.387 463.675C139.587 463.675 138.862 463.842 138.212 464.175C137.579 464.508 137.07 465 136.687 465.65C136.32 466.283 136.137 467.067 136.137 468C136.137 468.833 136.295 469.583 136.612 470.25C136.945 470.9 137.429 471.417 138.062 471.8C138.695 472.167 139.47 472.35 140.387 472.35ZM155.269 474.25C154.286 474.25 153.394 474.075 152.594 473.725C151.794 473.358 151.102 472.867 150.519 472.25C149.936 471.617 149.486 470.892 149.169 470.075C148.852 469.258 148.694 468.4 148.694 467.5C148.694 466.583 148.852 465.717 149.169 464.9C149.486 464.083 149.936 463.367 150.519 462.75C151.102 462.117 151.794 461.625 152.594 461.275C153.411 460.908 154.302 460.725 155.269 460.725C156.252 460.725 157.144 460.908 157.944 461.275C158.744 461.625 159.436 462.117 160.019 462.75C160.619 463.367 161.077 464.083 161.394 464.9C161.711 465.717 161.869 466.583 161.869 467.5C161.869 468.4 161.711 469.258 161.394 470.075C161.077 470.892 160.627 471.617 160.044 472.25C159.461 472.867 158.761 473.358 157.944 473.725C157.144 474.075 156.252 474.25 155.269 474.25ZM150.944 467.525C150.944 468.425 151.136 469.242 151.519 469.975C151.919 470.708 152.444 471.292 153.094 471.725C153.744 472.142 154.469 472.35 155.269 472.35C156.069 472.35 156.794 472.133 157.444 471.7C158.111 471.267 158.636 470.683 159.019 469.95C159.419 469.2 159.619 468.375 159.619 467.475C159.619 466.575 159.419 465.758 159.019 465.025C158.636 464.292 158.111 463.708 157.444 463.275C156.794 462.842 156.069 462.625 155.269 462.625C154.469 462.625 153.744 462.85 153.094 463.3C152.444 463.733 151.919 464.317 151.519 465.05C151.136 465.783 150.944 466.608 150.944 467.525ZM163.085 477.075V472.05H163.36C163.726 472.05 164.06 471.942 164.36 471.725C164.676 471.508 164.951 471.133 165.185 470.6C165.435 470.05 165.635 469.3 165.785 468.35C165.935 467.4 166.035 466.192 166.085 464.725L166.21 460.95H175.085V472.05H176.86V477.075H174.91V474H165.035V477.075H163.085ZM166.435 472.05H172.885V462.9H168.16L168.085 464.925C168.035 466.342 167.935 467.533 167.785 468.5C167.651 469.45 167.468 470.208 167.235 470.775C167.018 471.342 166.751 471.767 166.435 472.05ZM178.28 470.225C178.28 469.392 178.514 468.675 178.98 468.075C179.464 467.458 180.122 466.983 180.955 466.65C181.789 466.317 182.755 466.15 183.855 466.15C184.439 466.15 185.055 466.2 185.705 466.3C186.355 466.383 186.93 466.517 187.43 466.7V465.75C187.43 464.75 187.13 463.967 186.53 463.4C185.93 462.817 185.08 462.525 183.98 462.525C183.264 462.525 182.572 462.658 181.905 462.925C181.255 463.175 180.564 463.542 179.83 464.025L179.03 462.475C179.88 461.892 180.73 461.458 181.58 461.175C182.43 460.875 183.314 460.725 184.23 460.725C185.897 460.725 187.214 461.192 188.18 462.125C189.147 463.042 189.63 464.325 189.63 465.975V471.5C189.63 471.767 189.68 471.967 189.78 472.1C189.897 472.217 190.08 472.283 190.33 472.3V474C190.114 474.033 189.922 474.058 189.755 474.075C189.605 474.092 189.48 474.1 189.38 474.1C188.864 474.1 188.472 473.958 188.205 473.675C187.955 473.392 187.814 473.092 187.78 472.775L187.73 471.95C187.164 472.683 186.422 473.25 185.505 473.65C184.589 474.05 183.68 474.25 182.78 474.25C181.914 474.25 181.139 474.075 180.455 473.725C179.772 473.358 179.239 472.875 178.855 472.275C178.472 471.658 178.28 470.975 178.28 470.225ZM186.78 471.15C186.98 470.917 187.139 470.683 187.255 470.45C187.372 470.2 187.43 469.992 187.43 469.825V468.2C186.914 468 186.372 467.85 185.805 467.75C185.239 467.633 184.68 467.575 184.13 467.575C183.014 467.575 182.105 467.8 181.405 468.25C180.722 468.683 180.38 469.283 180.38 470.05C180.38 470.467 180.489 470.875 180.705 471.275C180.939 471.658 181.272 471.975 181.705 472.225C182.155 472.475 182.705 472.6 183.355 472.6C184.039 472.6 184.689 472.467 185.305 472.2C185.922 471.917 186.414 471.567 186.78 471.15Z" fill="white"/>
<path d="M74.55 154.475C73.75 154.475 72.975 154.35 72.225 154.1C71.4917 153.85 70.8333 153.492 70.25 153.025C69.6667 152.558 69.2083 151.992 68.875 151.325L70.65 150.5C71.05 151.25 71.5833 151.808 72.25 152.175C72.9333 152.525 73.65 152.7 74.4 152.7C75.2 152.7 75.9167 152.508 76.55 152.125C77.2 151.725 77.7333 151.2 78.15 150.55C78.5667 149.883 78.8083 149.158 78.875 148.375H73.25V146.875H78.85C78.7667 146.175 78.5333 145.517 78.15 144.9C77.7833 144.267 77.2833 143.758 76.65 143.375C76.0333 142.975 75.2917 142.775 74.425 142.775C73.7083 142.775 73.025 142.933 72.375 143.25C71.7417 143.567 71.2167 144.1 70.8 144.85L69.1 143.975C69.5833 143.075 70.2833 142.35 71.2 141.8C72.1167 141.25 73.2167 140.975 74.5 140.975C75.5667 140.975 76.5083 141.167 77.325 141.55C78.1583 141.917 78.85 142.425 79.4 143.075C79.9667 143.708 80.3917 144.425 80.675 145.225C80.975 146.025 81.125 146.842 81.125 147.675C81.125 148.542 80.975 149.383 80.675 150.2C80.375 151 79.9333 151.725 79.35 152.375C78.7833 153.008 78.0917 153.517 77.275 153.9C76.475 154.283 75.5667 154.475 74.55 154.475ZM83.7637 154.25V141.2H85.9637V146.575H87.4137L91.5137 141.2H94.0137L89.1387 147.525L94.5887 154.25H92.0387L87.4137 148.6H85.9637V154.25H83.7637ZM101.844 154.5C100.861 154.5 99.9606 154.325 99.1439 153.975C98.3439 153.608 97.6439 153.108 97.0439 152.475C96.4606 151.842 96.0023 151.117 95.6689 150.3C95.3523 149.483 95.1939 148.617 95.1939 147.7C95.1939 146.467 95.4689 145.342 96.0189 144.325C96.5689 143.308 97.3439 142.5 98.3439 141.9C99.3439 141.283 100.502 140.975 101.819 140.975C103.102 140.975 104.219 141.267 105.169 141.85C106.136 142.417 106.852 143.183 107.319 144.15L105.169 144.825C104.836 144.208 104.369 143.733 103.769 143.4C103.169 143.05 102.502 142.875 101.769 142.875C100.969 142.875 100.236 143.083 99.5689 143.5C98.9189 143.917 98.4023 144.492 98.0189 145.225C97.6356 145.942 97.4439 146.767 97.4439 147.7C97.4439 148.617 97.6356 149.45 98.0189 150.2C98.4189 150.933 98.9439 151.517 99.5939 151.95C100.261 152.383 100.994 152.6 101.794 152.6C102.311 152.6 102.802 152.508 103.269 152.325C103.752 152.142 104.169 151.9 104.519 151.6C104.886 151.283 105.136 150.942 105.269 150.575L107.419 151.225C107.152 151.858 106.744 152.425 106.194 152.925C105.661 153.408 105.019 153.792 104.269 154.075C103.536 154.358 102.727 154.5 101.844 154.5ZM109.887 154.25V141.2H120.712V154.25H118.512V143.15H112.087V154.25H109.887ZM130.042 154.5C129.059 154.5 128.159 154.325 127.342 153.975C126.542 153.608 125.842 153.117 125.242 152.5C124.659 151.867 124.201 151.142 123.867 150.325C123.551 149.508 123.392 148.642 123.392 147.725C123.392 146.492 123.676 145.367 124.242 144.35C124.809 143.333 125.592 142.517 126.592 141.9C127.609 141.283 128.767 140.975 130.067 140.975C131.384 140.975 132.526 141.292 133.492 141.925C134.476 142.542 135.234 143.358 135.767 144.375C136.317 145.375 136.592 146.458 136.592 147.625C136.592 147.792 136.584 147.958 136.567 148.125C136.567 148.275 136.559 148.392 136.542 148.475H125.717C125.784 149.325 126.017 150.083 126.417 150.75C126.834 151.4 127.367 151.917 128.017 152.3C128.667 152.667 129.367 152.85 130.117 152.85C130.917 152.85 131.667 152.65 132.367 152.25C133.084 151.85 133.576 151.325 133.842 150.675L135.742 151.2C135.459 151.833 135.034 152.4 134.467 152.9C133.917 153.4 133.259 153.792 132.492 154.075C131.742 154.358 130.926 154.5 130.042 154.5ZM125.642 146.95H134.542C134.476 146.1 134.234 145.35 133.817 144.7C133.401 144.05 132.867 143.542 132.217 143.175C131.567 142.808 130.851 142.625 130.067 142.625C129.301 142.625 128.592 142.808 127.942 143.175C127.292 143.542 126.759 144.05 126.342 144.7C125.942 145.35 125.709 146.1 125.642 146.95ZM146.063 154.5C144.996 154.5 144.046 154.233 143.213 153.7C142.379 153.167 141.721 152.492 141.238 151.675V159.575H139.038V141.2H140.988V143.65C141.504 142.85 142.179 142.208 143.013 141.725C143.846 141.225 144.754 140.975 145.738 140.975C146.638 140.975 147.463 141.158 148.213 141.525C148.963 141.892 149.613 142.392 150.163 143.025C150.713 143.658 151.138 144.383 151.438 145.2C151.754 146 151.913 146.842 151.913 147.725C151.913 148.958 151.663 150.092 151.163 151.125C150.679 152.158 149.996 152.983 149.113 153.6C148.229 154.2 147.213 154.5 146.063 154.5ZM145.388 152.6C146.038 152.6 146.621 152.467 147.138 152.2C147.671 151.917 148.121 151.55 148.488 151.1C148.871 150.633 149.163 150.108 149.363 149.525C149.563 148.942 149.663 148.342 149.663 147.725C149.663 147.075 149.546 146.458 149.313 145.875C149.096 145.292 148.779 144.775 148.363 144.325C147.963 143.875 147.488 143.525 146.938 143.275C146.404 143.008 145.821 142.875 145.188 142.875C144.788 142.875 144.371 142.95 143.938 143.1C143.521 143.25 143.121 143.467 142.738 143.75C142.354 144.017 142.029 144.325 141.763 144.675C141.496 145.025 141.321 145.4 141.238 145.8V149.525C141.488 150.092 141.821 150.608 142.238 151.075C142.654 151.542 143.138 151.917 143.688 152.2C144.238 152.467 144.804 152.6 145.388 152.6ZM154.589 154.25V141.225H156.789V151.3L164.089 141.2H166.089V154.25H163.889V144.375L156.689 154.25H154.589ZM169.579 154.25V141.2H171.854L176.704 149.75L181.579 141.2H183.804V154.25H181.704V144.375L177.404 151.925H176.004L171.679 144.375V154.25H169.579ZM193.128 154.5C192.145 154.5 191.245 154.325 190.428 153.975C189.628 153.608 188.928 153.117 188.328 152.5C187.745 151.867 187.286 151.142 186.953 150.325C186.636 149.508 186.478 148.642 186.478 147.725C186.478 146.492 186.761 145.367 187.328 144.35C187.895 143.333 188.678 142.517 189.678 141.9C190.695 141.283 191.853 140.975 193.153 140.975C194.47 140.975 195.611 141.292 196.578 141.925C197.561 142.542 198.32 143.358 198.853 144.375C199.403 145.375 199.678 146.458 199.678 147.625C199.678 147.792 199.67 147.958 199.653 148.125C199.653 148.275 199.645 148.392 199.628 148.475H188.803C188.87 149.325 189.103 150.083 189.503 150.75C189.92 151.4 190.453 151.917 191.103 152.3C191.753 152.667 192.453 152.85 193.203 152.85C194.003 152.85 194.753 152.65 195.453 152.25C196.17 151.85 196.661 151.325 196.928 150.675L198.828 151.2C198.545 151.833 198.12 152.4 197.553 152.9C197.003 153.4 196.345 153.792 195.578 154.075C194.828 154.358 194.011 154.5 193.128 154.5ZM188.728 146.95H197.628C197.561 146.1 197.32 145.35 196.903 144.7C196.486 144.05 195.953 143.542 195.303 143.175C194.653 142.808 193.936 142.625 193.153 142.625C192.386 142.625 191.678 142.808 191.028 143.175C190.378 143.542 189.845 144.05 189.428 144.7C189.028 145.35 188.795 146.1 188.728 146.95ZM202.099 154.25V141.2H204.299V146.6H211.099V141.2H213.299V154.25H211.099V148.55H204.299V154.25H202.099ZM220.02 154.25V143.15H215.52V141.2H226.72V143.15H222.22V154.25H220.02Z" fill="white"/>
<path d="M398.75 474V460.95H405.5C406.283 460.95 406.933 461.108 407.45 461.425C407.967 461.725 408.35 462.117 408.6 462.6C408.867 463.083 409 463.6 409 464.15C409 464.85 408.833 465.483 408.5 466.05C408.167 466.6 407.683 467.017 407.05 467.3C407.8 467.517 408.408 467.908 408.875 468.475C409.342 469.025 409.575 469.708 409.575 470.525C409.575 471.258 409.4 471.883 409.05 472.4C408.7 472.917 408.208 473.317 407.575 473.6C406.942 473.867 406.208 474 405.375 474H398.75ZM400.85 472.45H405.325C405.725 472.45 406.083 472.35 406.4 472.15C406.733 471.95 406.992 471.683 407.175 471.35C407.358 471.017 407.45 470.667 407.45 470.3C407.45 469.9 407.358 469.542 407.175 469.225C407.008 468.892 406.767 468.633 406.45 468.45C406.15 468.25 405.8 468.15 405.4 468.15H400.85V472.45ZM400.85 466.7H404.925C405.325 466.7 405.675 466.6 405.975 466.4C406.275 466.183 406.508 465.908 406.675 465.575C406.842 465.242 406.925 464.892 406.925 464.525C406.925 463.975 406.742 463.5 406.375 463.1C406.025 462.7 405.567 462.5 405 462.5H400.85V466.7ZM410.924 477.075V472.05H411.199C411.565 472.05 411.899 471.942 412.199 471.725C412.515 471.508 412.79 471.133 413.024 470.6C413.274 470.05 413.474 469.3 413.624 468.35C413.774 467.4 413.874 466.192 413.924 464.725L414.049 460.95H422.924V472.05H424.699V477.075H422.749V474H412.874V477.075H410.924ZM414.274 472.05H420.724V462.9H415.999L415.924 464.925C415.874 466.342 415.774 467.533 415.624 468.5C415.49 469.45 415.307 470.208 415.074 470.775C414.857 471.342 414.59 471.767 414.274 472.05ZM428.769 479.475C428.486 479.475 428.194 479.433 427.894 479.35C427.611 479.267 427.319 479.142 427.019 478.975L427.769 477.475C427.919 477.558 428.061 477.617 428.194 477.65C428.344 477.7 428.486 477.725 428.619 477.725C429.019 477.725 429.394 477.533 429.744 477.15C430.111 476.783 430.452 476.217 430.769 475.45L431.394 473.875L425.669 460.95H427.994L432.394 471.775L436.369 460.95H438.544L432.444 476.125C432.144 476.875 431.802 477.492 431.419 477.975C431.036 478.475 430.619 478.85 430.169 479.1C429.719 479.35 429.252 479.475 428.769 479.475ZM440.742 474V460.95H443.017L447.867 469.5L452.742 460.95H454.967V474H452.867V464.125L448.567 471.675H447.167L442.842 464.125V474H440.742ZM465.916 474V468.775C465.4 469.025 464.858 469.208 464.291 469.325C463.741 469.442 463.133 469.5 462.466 469.5C461.05 469.5 459.966 469.133 459.216 468.4C458.483 467.65 458.116 466.533 458.116 465.05V460.95H460.316V464.75C460.316 465.8 460.533 466.567 460.966 467.05C461.4 467.533 462.091 467.775 463.041 467.775C463.575 467.775 464.1 467.717 464.616 467.6C465.15 467.483 465.583 467.325 465.916 467.125V460.95H468.141V474H465.916ZM471.675 474V460.975H473.875V471.05L481.175 460.95H483.175V474H480.975V464.125L473.775 474H471.675ZM486.665 474V460.95H493.415C494.198 460.95 494.848 461.108 495.365 461.425C495.882 461.725 496.265 462.117 496.515 462.6C496.782 463.083 496.915 463.6 496.915 464.15C496.915 464.85 496.748 465.483 496.415 466.05C496.082 466.6 495.598 467.017 494.965 467.3C495.715 467.517 496.323 467.908 496.79 468.475C497.257 469.025 497.49 469.708 497.49 470.525C497.49 471.258 497.315 471.883 496.965 472.4C496.615 472.917 496.123 473.317 495.49 473.6C494.857 473.867 494.123 474 493.29 474H486.665ZM488.765 472.45H493.24C493.64 472.45 493.998 472.35 494.315 472.15C494.648 471.95 494.907 471.683 495.09 471.35C495.273 471.017 495.365 470.667 495.365 470.3C495.365 469.9 495.273 469.542 495.09 469.225C494.923 468.892 494.682 468.633 494.365 468.45C494.065 468.25 493.715 468.15 493.315 468.15H488.765V472.45ZM488.765 466.7H492.84C493.24 466.7 493.59 466.6 493.89 466.4C494.19 466.183 494.423 465.908 494.59 465.575C494.757 465.242 494.84 464.892 494.84 464.525C494.84 463.975 494.657 463.5 494.29 463.1C493.94 462.7 493.482 462.5 492.915 462.5H488.765V466.7ZM505.989 474.25C505.005 474.25 504.114 474.075 503.314 473.725C502.514 473.358 501.822 472.867 501.239 472.25C500.655 471.617 500.205 470.892 499.889 470.075C499.572 469.258 499.414 468.4 499.414 467.5C499.414 466.583 499.572 465.717 499.889 464.9C500.205 464.083 500.655 463.367 501.239 462.75C501.822 462.117 502.514 461.625 503.314 461.275C504.13 460.908 505.022 460.725 505.989 460.725C506.972 460.725 507.864 460.908 508.664 461.275C509.464 461.625 510.155 462.117 510.739 462.75C511.339 463.367 511.797 464.083 512.114 464.9C512.43 465.717 512.589 466.583 512.589 467.5C512.589 468.4 512.43 469.258 512.114 470.075C511.797 470.892 511.347 471.617 510.764 472.25C510.18 472.867 509.48 473.358 508.664 473.725C507.864 474.075 506.972 474.25 505.989 474.25ZM501.664 467.525C501.664 468.425 501.855 469.242 502.239 469.975C502.639 470.708 503.164 471.292 503.814 471.725C504.464 472.142 505.189 472.35 505.989 472.35C506.789 472.35 507.514 472.133 508.164 471.7C508.83 471.267 509.355 470.683 509.739 469.95C510.139 469.2 510.339 468.375 510.339 467.475C510.339 466.575 510.139 465.758 509.739 465.025C509.355 464.292 508.83 463.708 508.164 463.275C507.514 462.842 506.789 462.625 505.989 462.625C505.189 462.625 504.464 462.85 503.814 463.3C503.164 463.733 502.639 464.317 502.239 465.05C501.855 465.783 501.664 466.608 501.664 467.525ZM521.029 474.25C520.046 474.25 519.146 474.075 518.329 473.725C517.529 473.358 516.829 472.858 516.229 472.225C515.646 471.592 515.188 470.867 514.854 470.05C514.538 469.233 514.379 468.367 514.379 467.45C514.379 466.217 514.654 465.092 515.204 464.075C515.754 463.058 516.529 462.25 517.529 461.65C518.529 461.033 519.688 460.725 521.004 460.725C522.288 460.725 523.404 461.017 524.354 461.6C525.321 462.167 526.038 462.933 526.504 463.9L524.354 464.575C524.021 463.958 523.554 463.483 522.954 463.15C522.354 462.8 521.688 462.625 520.954 462.625C520.154 462.625 519.421 462.833 518.754 463.25C518.104 463.667 517.588 464.242 517.204 464.975C516.821 465.692 516.629 466.517 516.629 467.45C516.629 468.367 516.821 469.2 517.204 469.95C517.604 470.683 518.129 471.267 518.779 471.7C519.446 472.133 520.179 472.35 520.979 472.35C521.496 472.35 521.988 472.258 522.454 472.075C522.938 471.892 523.354 471.65 523.704 471.35C524.071 471.033 524.321 470.692 524.454 470.325L526.604 470.975C526.338 471.608 525.929 472.175 525.379 472.675C524.846 473.158 524.204 473.542 523.454 473.825C522.721 474.108 521.913 474.25 521.029 474.25ZM532.272 474V462.9H527.772V460.95H538.972V462.9H534.472V474H532.272ZM541.157 474V460.95H543.357V465.4H546.607C548.141 465.4 549.299 465.792 550.082 466.575C550.882 467.342 551.282 468.35 551.282 469.6C551.282 470.433 551.107 471.183 550.757 471.85C550.424 472.517 549.924 473.042 549.257 473.425C548.591 473.808 547.757 474 546.757 474H541.157ZM543.357 472.275H546.457C547.074 472.275 547.566 472.158 547.932 471.925C548.316 471.675 548.599 471.35 548.782 470.95C548.966 470.55 549.057 470.117 549.057 469.65C549.057 469.2 548.974 468.783 548.807 468.4C548.641 468.017 548.366 467.708 547.982 467.475C547.599 467.242 547.074 467.125 546.407 467.125H543.357V472.275Z" fill="white"/>
<path d="M425.75 154V140.975H427.95V151.05L435.25 140.95H437.25V154H435.05V144.125L427.85 154H425.75ZM440.74 154V140.95H442.94V146.35H449.74V140.95H451.94V154H449.74V148.3H442.94V154H440.74ZM458.662 154V142.9H454.162V140.95H465.362V142.9H460.862V154H458.662ZM473.347 154.25C472.364 154.25 471.464 154.075 470.647 153.725C469.847 153.358 469.147 152.867 468.547 152.25C467.964 151.617 467.505 150.892 467.172 150.075C466.855 149.258 466.697 148.392 466.697 147.475C466.697 146.242 466.98 145.117 467.547 144.1C468.114 143.083 468.897 142.267 469.897 141.65C470.914 141.033 472.072 140.725 473.372 140.725C474.689 140.725 475.83 141.042 476.797 141.675C477.78 142.292 478.539 143.108 479.072 144.125C479.622 145.125 479.897 146.208 479.897 147.375C479.897 147.542 479.889 147.708 479.872 147.875C479.872 148.025 479.864 148.142 479.847 148.225H469.022C469.089 149.075 469.322 149.833 469.722 150.5C470.139 151.15 470.672 151.667 471.322 152.05C471.972 152.417 472.672 152.6 473.422 152.6C474.222 152.6 474.972 152.4 475.672 152C476.389 151.6 476.88 151.075 477.147 150.425L479.047 150.95C478.764 151.583 478.339 152.15 477.772 152.65C477.222 153.15 476.564 153.542 475.797 153.825C475.047 154.108 474.23 154.25 473.347 154.25ZM468.947 146.7H477.847C477.78 145.85 477.539 145.1 477.122 144.45C476.705 143.8 476.172 143.292 475.522 142.925C474.872 142.558 474.155 142.375 473.372 142.375C472.605 142.375 471.897 142.558 471.247 142.925C470.597 143.292 470.064 143.8 469.647 144.45C469.247 145.1 469.014 145.85 468.947 146.7ZM489.367 154.25C488.301 154.25 487.351 153.983 486.517 153.45C485.684 152.917 485.026 152.242 484.542 151.425V159.325H482.342V140.95H484.292V143.4C484.809 142.6 485.484 141.958 486.317 141.475C487.151 140.975 488.059 140.725 489.042 140.725C489.942 140.725 490.767 140.908 491.517 141.275C492.267 141.642 492.917 142.142 493.467 142.775C494.017 143.408 494.442 144.133 494.742 144.95C495.059 145.75 495.217 146.592 495.217 147.475C495.217 148.708 494.967 149.842 494.467 150.875C493.984 151.908 493.301 152.733 492.417 153.35C491.534 153.95 490.517 154.25 489.367 154.25ZM488.692 152.35C489.342 152.35 489.926 152.217 490.442 151.95C490.976 151.667 491.426 151.3 491.792 150.85C492.176 150.383 492.467 149.858 492.667 149.275C492.867 148.692 492.967 148.092 492.967 147.475C492.967 146.825 492.851 146.208 492.617 145.625C492.401 145.042 492.084 144.525 491.667 144.075C491.267 143.625 490.792 143.275 490.242 143.025C489.709 142.758 489.126 142.625 488.492 142.625C488.092 142.625 487.676 142.7 487.242 142.85C486.826 143 486.426 143.217 486.042 143.5C485.659 143.767 485.334 144.075 485.067 144.425C484.801 144.775 484.626 145.15 484.542 145.55V149.275C484.792 149.842 485.126 150.358 485.542 150.825C485.959 151.292 486.442 151.667 486.992 151.95C487.542 152.217 488.109 152.35 488.692 152.35ZM503.694 154.25C502.71 154.25 501.81 154.075 500.994 153.725C500.194 153.358 499.494 152.867 498.894 152.25C498.31 151.617 497.852 150.892 497.519 150.075C497.202 149.258 497.044 148.392 497.044 147.475C497.044 146.242 497.327 145.117 497.894 144.1C498.46 143.083 499.244 142.267 500.244 141.65C501.26 141.033 502.419 140.725 503.719 140.725C505.035 140.725 506.177 141.042 507.144 141.675C508.127 142.292 508.885 143.108 509.419 144.125C509.969 145.125 510.244 146.208 510.244 147.375C510.244 147.542 510.235 147.708 510.219 147.875C510.219 148.025 510.21 148.142 510.194 148.225H499.369C499.435 149.075 499.669 149.833 500.069 150.5C500.485 151.15 501.019 151.667 501.669 152.05C502.319 152.417 503.019 152.6 503.769 152.6C504.569 152.6 505.319 152.4 506.019 152C506.735 151.6 507.227 151.075 507.494 150.425L509.394 150.95C509.11 151.583 508.685 152.15 508.119 152.65C507.569 153.15 506.91 153.542 506.144 153.825C505.394 154.108 504.577 154.25 503.694 154.25ZM499.294 146.7H508.194C508.127 145.85 507.885 145.1 507.469 144.45C507.052 143.8 506.519 143.292 505.869 142.925C505.219 142.558 504.502 142.375 503.719 142.375C502.952 142.375 502.244 142.558 501.594 142.925C500.944 143.292 500.41 143.8 499.994 144.45C499.594 145.1 499.36 145.85 499.294 146.7ZM518.464 154.25C517.481 154.25 516.581 154.075 515.764 153.725C514.964 153.358 514.264 152.858 513.664 152.225C513.081 151.592 512.622 150.867 512.289 150.05C511.972 149.233 511.814 148.367 511.814 147.45C511.814 146.217 512.089 145.092 512.639 144.075C513.189 143.058 513.964 142.25 514.964 141.65C515.964 141.033 517.122 140.725 518.439 140.725C519.722 140.725 520.839 141.017 521.789 141.6C522.756 142.167 523.472 142.933 523.939 143.9L521.789 144.575C521.456 143.958 520.989 143.483 520.389 143.15C519.789 142.8 519.122 142.625 518.389 142.625C517.589 142.625 516.856 142.833 516.189 143.25C515.539 143.667 515.022 144.242 514.639 144.975C514.256 145.692 514.064 146.517 514.064 147.45C514.064 148.367 514.256 149.2 514.639 149.95C515.039 150.683 515.564 151.267 516.214 151.7C516.881 152.133 517.614 152.35 518.414 152.35C518.931 152.35 519.422 152.258 519.889 152.075C520.372 151.892 520.789 151.65 521.139 151.35C521.506 151.033 521.756 150.692 521.889 150.325L524.039 150.975C523.772 151.608 523.364 152.175 522.814 152.675C522.281 153.158 521.639 153.542 520.889 153.825C520.156 154.108 519.347 154.25 518.464 154.25Z" fill="white"/>
<path d="M256.98 314V298.31H270.48V314H267.18V301.22H260.28V314H256.98ZM283.38 314.3C282.12 314.3 281.01 314 280.05 313.4C279.09 312.8 278.33 312.02 277.77 311.06V320.39H274.47V298.31H277.38V301.13C277.98 300.19 278.76 299.44 279.72 298.88C280.68 298.32 281.75 298.04 282.93 298.04C284.01 298.04 285 298.26 285.9 298.7C286.8 299.12 287.58 299.71 288.24 300.47C288.9 301.23 289.41 302.1 289.77 303.08C290.15 304.04 290.34 305.06 290.34 306.14C290.34 307.64 290.04 309.01 289.44 310.25C288.86 311.49 288.04 312.48 286.98 313.22C285.94 313.94 284.74 314.3 283.38 314.3ZM282.3 311.48C283 311.48 283.63 311.33 284.19 311.03C284.77 310.73 285.26 310.33 285.66 309.83C286.08 309.33 286.4 308.76 286.62 308.12C286.84 307.48 286.95 306.82 286.95 306.14C286.95 305.42 286.83 304.74 286.59 304.1C286.35 303.46 286 302.9 285.54 302.42C285.1 301.94 284.58 301.56 283.98 301.28C283.4 301 282.76 300.86 282.06 300.86C281.64 300.86 281.2 300.94 280.74 301.1C280.28 301.26 279.85 301.48 279.45 301.76C279.05 302.04 278.7 302.37 278.4 302.75C278.1 303.13 277.89 303.53 277.77 303.95V308.06C278.05 308.7 278.42 309.28 278.88 309.8C279.34 310.3 279.87 310.71 280.47 311.03C281.07 311.33 281.68 311.48 282.3 311.48ZM300.358 314.3C299.118 314.3 298.008 314.09 297.028 313.67C296.048 313.23 295.198 312.63 294.478 311.87C293.778 311.11 293.238 310.25 292.858 309.29C292.478 308.31 292.288 307.27 292.288 306.17C292.288 305.07 292.478 304.03 292.858 303.05C293.238 302.07 293.778 301.21 294.478 300.47C295.198 299.71 296.048 299.12 297.028 298.7C298.028 298.26 299.138 298.04 300.358 298.04C301.578 298.04 302.678 298.26 303.658 298.7C304.658 299.12 305.508 299.71 306.208 300.47C306.928 301.21 307.478 302.07 307.858 303.05C308.238 304.03 308.428 305.07 308.428 306.17C308.428 307.27 308.238 308.31 307.858 309.29C307.478 310.25 306.928 311.11 306.208 311.87C305.508 312.63 304.658 313.23 303.658 313.67C302.678 314.09 301.578 314.3 300.358 314.3ZM295.678 306.2C295.678 307.2 295.888 308.1 296.308 308.9C296.728 309.7 297.288 310.33 297.988 310.79C298.688 311.25 299.478 311.48 300.358 311.48C301.218 311.48 301.998 311.25 302.698 310.79C303.418 310.31 303.988 309.67 304.408 308.87C304.828 308.05 305.038 307.15 305.038 306.17C305.038 305.17 304.828 304.27 304.408 303.47C303.988 302.67 303.418 302.04 302.698 301.58C301.998 301.1 301.218 300.86 300.358 300.86C299.478 300.86 298.688 301.1 297.988 301.58C297.288 302.06 296.728 302.7 296.308 303.5C295.888 304.28 295.678 305.18 295.678 306.2ZM310.095 314.15V311.21C310.595 311.21 311.045 311.09 311.445 310.85C311.845 310.59 312.195 310.17 312.495 309.59C312.795 308.99 313.035 308.16 313.215 307.1C313.395 306.04 313.515 304.69 313.575 303.05L313.785 298.31H324.975V314H321.675V301.22H316.695L316.635 303.35C316.555 305.45 316.365 307.2 316.065 308.6C315.765 309.98 315.345 311.08 314.805 311.9C314.285 312.7 313.625 313.28 312.825 313.64C312.045 313.98 311.135 314.15 310.095 314.15ZM328.933 314V298.34H332.233V309.59L340.183 298.31H343.183V314H339.883V302.99L332.023 314H328.933ZM347.126 314V298.31H355.526C356.526 298.31 357.346 298.5 357.986 298.88C358.646 299.24 359.136 299.71 359.456 300.29C359.776 300.85 359.936 301.47 359.936 302.15C359.936 303.01 359.736 303.77 359.336 304.43C358.936 305.09 358.346 305.59 357.566 305.93C358.466 306.19 359.196 306.65 359.756 307.31C360.336 307.95 360.626 308.78 360.626 309.8C360.626 310.72 360.406 311.5 359.966 312.14C359.526 312.76 358.896 313.23 358.076 313.55C357.276 313.85 356.336 314 355.256 314H347.126ZM350.246 311.72H355.166C355.586 311.72 355.966 311.62 356.306 311.42C356.666 311.2 356.946 310.92 357.146 310.58C357.346 310.22 357.446 309.84 357.446 309.44C357.446 309 357.346 308.61 357.146 308.27C356.966 307.93 356.706 307.66 356.366 307.46C356.046 307.26 355.666 307.16 355.226 307.16H350.246V311.72ZM350.246 305.03H354.686C355.106 305.03 355.476 304.93 355.796 304.73C356.116 304.51 356.366 304.22 356.546 303.86C356.726 303.5 356.816 303.12 356.816 302.72C356.816 302.14 356.626 301.64 356.246 301.22C355.866 300.8 355.366 300.59 354.746 300.59H350.246V305.03Z" fill="white"/>
</svg>
