<svg width="16" height="16" viewBox="0 0 16 16" fill="none" xmlns="http://www.w3.org/2000/svg">
<rect width="16" height="16" fill="white"/>
<path fill-rule="evenodd" clip-rule="evenodd" d="M6.45691 12.0822V2.19178C6.45691 2.08586 6.54153 2 6.64591 2H8.45489C9.4987 2 10.3449 2.85863 10.3449 3.91781V5.46849C10.3449 6.52767 9.4987 7.3863 8.45489 7.3863H8.38199C8.17414 7.3843 8.04217 7.37329 7.7907 7.30137V12.0247C7.7907 12.3651 8.06268 12.6411 8.39819 12.6411C8.7337 12.6411 9.00569 12.3651 9.00569 12.0247V8.81096C9.00569 8.70504 9.0903 8.61918 9.19469 8.61918H10.1559C10.2603 8.61918 10.3449 8.70504 10.3449 8.81096V13.8082C10.3449 13.9141 10.2603 14 10.1559 14H8.34689C7.30309 14 6.45691 13.1414 6.45691 12.0822ZM5.6513 8.81096V13.8082C5.6513 13.9141 5.56668 14 5.4623 14H4.50111C4.39673 14 4.31212 13.9141 4.31212 13.8082V10.5945C4.31212 10.2541 4.04013 9.97808 3.70462 9.97808C3.36911 9.97808 3.09713 10.2541 3.09713 10.5945V12.6466C3.09713 13.3941 2.49997 14 1.76334 14H1.28275C1.17837 14 1.09375 13.9141 1.09375 13.8082V12.8329C1.09375 12.727 1.17837 12.6411 1.28275 12.6411H1.38535C1.59411 12.6411 1.76334 12.4694 1.76334 12.2575V10.537C1.76334 9.47781 2.60952 8.61918 3.65332 8.61918H5.4623C5.56668 8.61918 5.6513 8.70504 5.6513 8.81096ZM11.1505 13.8082V8.81096C11.1505 8.70504 11.2351 8.61918 11.3395 8.61918H13.3483C14.2817 8.61918 15.0384 9.38704 15.0384 10.3342C15.0247 10.8038 14.9754 10.9694 14.7468 11.3041C14.9539 11.6921 15.0183 11.8809 15.0384 12.2849C15.0384 13.2321 14.2817 14 13.3483 14H11.3395C11.2351 14 11.1505 13.9141 11.1505 13.8082ZM2.91678 7.3863H1.93575C1.83834 7.3863 1.75938 7.30733 1.75938 7.20992V2.17638C1.75938 2.07897 1.83834 2 1.93575 2H5.47357C5.57101 2 5.64999 2.07902 5.64994 2.17646L5.64742 7.21001C5.64737 7.30739 5.56842 7.3863 5.47105 7.3863H4.48452C4.38711 7.3863 4.30815 7.30733 4.30815 7.20992V3.9664C4.30815 3.63089 4.03616 3.3589 3.70065 3.3589C3.36514 3.3589 3.09316 3.63089 3.09316 3.9664V7.20992C3.09316 7.30733 3.01419 7.3863 2.91678 7.3863ZM11.1531 3.76376V5.62253C11.1531 6.59663 11.9428 7.3863 12.9169 7.3863H13.2773C14.2514 7.3863 15.0411 6.59664 15.0411 5.62254V3.76377C15.0411 2.78966 14.2514 2 13.2773 2H12.9169C11.9428 2 11.1531 2.78966 11.1531 3.76376ZM7.7875 5.42037V3.96687C7.7875 3.63136 8.05948 3.35938 8.39499 3.35938C8.7305 3.35938 9.00249 3.63136 9.00249 3.96687V5.42037C9.00249 5.75588 8.7305 6.02787 8.39499 6.02787C8.05948 6.02787 7.7875 5.75588 7.7875 5.42037ZM12.475 3.96687V5.42037C12.475 5.75588 12.747 6.02787 13.0825 6.02787C13.418 6.02787 13.69 5.75588 13.69 5.42037V3.96687C13.69 3.63136 13.418 3.35938 13.0825 3.35938C12.747 3.35938 12.475 3.63136 12.475 3.96687ZM13.3472 9.97344H12.4938V10.6858H13.3472C13.5439 10.6858 13.7033 10.5263 13.7033 10.3296C13.7033 10.1329 13.5439 9.97344 13.3472 9.97344ZM12.4938 11.9234H13.3444C13.5426 11.9234 13.7033 12.0841 13.7033 12.2823C13.7033 12.4806 13.5427 12.6412 13.3444 12.6412H12.4938V11.9234Z" fill="#2D4F46"/>
</svg>
