<svg width="403" height="359" viewBox="0 0 403 359" fill="none" xmlns="http://www.w3.org/2000/svg">
<path fill-rule="evenodd" clip-rule="evenodd" d="M152.761 300.942V5.72443C152.761 2.56292 155.323 0 158.485 0H213.276C244.891 0 270.52 25.6292 270.52 57.2443V103.53C270.52 135.146 244.891 160.775 213.276 160.775H211.068C204.772 160.715 200.775 160.386 193.159 158.24V299.224C193.159 309.386 201.397 317.624 211.559 317.624C221.721 317.624 229.959 309.386 229.959 299.224V203.299C229.959 200.138 232.522 197.575 235.683 197.575H264.796C267.957 197.575 270.52 200.138 270.52 203.299V352.461C270.52 355.623 267.957 358.186 264.796 358.186H210.005C178.39 358.186 152.761 332.557 152.761 300.942ZM138.041 203.299V352.461C138.041 355.623 135.478 358.186 132.316 358.186H103.203C100.042 358.186 97.4789 355.623 97.4789 352.461V256.536C97.4789 246.374 89.241 238.136 79.0789 238.136C68.9169 238.136 60.679 246.374 60.679 256.536V317.788C60.679 340.099 42.5921 358.186 20.2808 358.186H5.72443C2.56292 358.186 0 355.623 0 352.461V323.349C0 320.187 2.56292 317.624 5.72443 317.624H8.83198C15.155 317.624 20.2808 312.498 20.2808 306.175V254.819C20.2808 223.204 45.91 197.575 77.5252 197.575H132.316C135.478 197.575 138.041 200.138 138.041 203.299ZM285.24 352.461V203.299C285.24 200.138 287.803 197.575 290.965 197.575H351.807C380.08 197.575 403 220.494 403 248.767C402.585 262.782 401.091 267.727 394.168 277.717C400.439 289.299 402.389 294.934 403 306.993C403 335.266 380.08 358.186 351.807 358.186H290.965C287.803 358.186 285.24 355.623 285.24 352.461ZM55.5443 160.775H25.4155C22.5797 160.775 20.2809 158.476 20.2809 155.64V5.13462C20.2809 2.29885 22.5797 0 25.4155 0H132.985C135.822 0 138.121 2.30044 138.12 5.13723L138.043 155.643C138.042 158.477 135.743 160.775 132.909 160.775H102.614C99.7777 160.775 97.4789 158.476 97.4789 155.64V58.9616C97.4789 48.7996 89.241 40.5617 79.0789 40.5617C68.9169 40.5617 60.679 48.7996 60.679 58.9616V155.64C60.679 158.476 58.3801 160.775 55.5443 160.775ZM285.24 51.3462V109.428C285.24 137.786 308.229 160.775 336.587 160.775H351.654C380.012 160.775 403 137.786 403 109.429V51.3462C403 22.9885 380.012 0 351.654 0H336.587C308.229 0 285.24 22.9885 285.24 51.3462ZM193.159 101.813V58.9617C193.159 48.7996 201.397 40.5617 211.559 40.5617C221.721 40.5617 229.959 48.7996 229.959 58.9617V101.813C229.959 111.975 221.721 120.213 211.559 120.213C201.397 120.213 193.159 111.975 193.159 101.813ZM325.639 58.9617V101.813C325.639 111.975 333.876 120.213 344.039 120.213C354.201 120.213 362.438 111.975 362.438 101.813V58.9617C362.438 48.7996 354.201 40.5617 344.039 40.5617C333.876 40.5617 325.639 48.7996 325.639 58.9617ZM351.807 238.129H325.802V259.391H351.807C357.679 259.391 362.438 254.631 362.438 248.76C362.438 242.888 357.679 238.129 351.807 238.129ZM325.802 296.199H351.726C357.642 296.199 362.438 300.995 362.438 306.911C362.438 312.828 357.642 317.624 351.726 317.624H325.802V296.199Z" fill="#132420"/>
</svg>
