<svg width="1380" height="477" viewBox="0 0 1380 477" fill="none" xmlns="http://www.w3.org/2000/svg">
<rect width="72" height="477" rx="20" fill="#2D4F46"/>
<rect x="87" width="72" height="477" rx="20" fill="#2D4F46"/>
<rect x="174" width="73" height="477" rx="20" fill="#2D4F46"/>
<rect x="262" width="72" height="477" rx="20" fill="#2D4F46"/>
<rect x="349" width="72" height="477" rx="20" fill="#2D4F46"/>
<rect x="436" width="72" height="477" rx="20" fill="#2D4F46"/>
<rect x="523" width="72" height="477" rx="20" fill="#2D4F46"/>
<rect x="610" width="73" height="477" rx="20" fill="#2D4F46"/>
<rect x="698" width="72" height="477" rx="20" fill="#2D4F46"/>
<rect x="785" width="72" height="477" rx="20" fill="#2D4F46"/>
<rect x="872" width="72" height="477" rx="20" fill="#2D4F46"/>
<rect x="959" width="72" height="477" rx="20" fill="#2D4F46"/>
<rect x="1046" width="72" height="477" rx="20" fill="#2D4F46"/>
<rect x="1133" width="73" height="477" rx="20" fill="#2D4F46"/>
<rect x="1221" width="72" height="477" rx="20" fill="#2D4F46"/>
<rect x="1308" width="72" height="477" rx="20" fill="#2D4F46"/>
</svg>
